<svg width="519" height="720" viewBox="0 0 519 720" fill="none" xmlns="http://www.w3.org/2000/svg">
<path d="M89.8224 43.7792C71.1135 -4.89804 -21.4444 -28.9358 -6.17039 67.9849C-3.66597 83.8766 -3.41405 111.241 -6.17039 144.549C-8.69537 175.06 -58.125 191.756 -73.2982 231.18C-97.0944 293.01 -8.12245 336.105 -22.2811 368.608C-40.8253 411.178 -97.6069 429.648 -129.014 452.939C-158.581 474.864 -177.414 510.044 -184.646 546.212C-197.332 609.666 -174.309 676.163 -110.89 679.472C-79.1424 681.128 -37.2717 666.949 15.3104 628.627C38.82 611.493 59.5505 597.373 77.9746 585.956C125.395 556.569 112.646 626.08 169.033 628.627C201.163 630.079 234.72 570.069 260.123 602.079C278.186 624.839 298.914 652.456 328.516 680.848C380.501 730.709 445.497 738.05 454.691 666.888C459.03 633.295 450.935 582.209 423.166 509.844C405.395 463.534 449.598 465.167 454.691 405.823C459.784 346.479 418.137 319.112 448.285 294.551L448.889 294.059C471.868 275.34 496.376 255.375 509.761 217.03C521.29 183.998 520.189 151.283 509.761 126.145C498.601 99.2414 476.759 81.0162 448.285 80.3698C419.716 79.7211 384.47 96.77 346.64 140.507C321.698 169.344 304.807 102.245 260.123 109.104C215.438 115.964 209.228 180.705 182.459 161.928C135.959 129.309 111.734 100.789 89.8224 43.7792Z" stroke="#F4F4F7" stroke-width="1.19883"/>
<path d="M180.08 309.302C177.233 301.829 163.963 303.791 163.292 311.89C162.527 321.111 167.188 333.127 166.649 342.37C165.609 360.216 159.304 365.296 146.751 374.702C142.251 378.068 139.385 383.469 138.285 389.021C136.354 398.763 139.858 408.971 149.509 409.479C154.341 409.733 160.713 407.557 168.715 401.674C172.293 399.043 175.448 396.875 178.252 395.123C190.458 386.882 201.818 393.339 205.972 397.598C208.721 401.092 211.875 405.332 216.38 409.69C224.292 417.345 236.272 416.342 235.582 407.547C234.608 395.123 213.395 348.746 235.582 340.659C245.889 336.902 245.55 328.393 243.963 324.534C242.265 320.404 238.941 317.606 234.608 317.507C230.26 317.407 223.057 324.534 219.139 326.739C204.674 334.878 191.767 339.086 180.08 309.302Z" stroke="#F4F4F7" stroke-width="1.19883"/>
<path d="M9.30547 89.1898C-4.25024 0.958328 80.3324 22.9526 97.4847 67.5772C118.484 122.133 141.701 147.702 185.325 176.644C209.859 193.629 215.763 134.515 256.678 128.09C297.593 121.665 313.225 182.554 336.117 156.323C370.931 116.538 403.303 101.28 429.452 102.242C455.431 103.005 475.349 119.865 485.412 144.62C494.808 167.77 495.584 197.811 484.625 228.033C470.322 263.956 449.667 286.316 428.69 304.598C401.29 327.342 438.927 352.462 433.938 406.49C428.949 460.517 388.278 458.882 404.088 500.67C428.944 566.116 436.023 612.212 431.825 642.46C423.271 707.013 363.78 700.092 316.035 654.626C288.657 628.694 269.261 603.608 252.271 583.272C228.902 554.307 198.082 609.101 168.523 608.018C116.854 605.965 128.127 542.904 84.6894 569.754C67.6349 580.254 48.518 593.145 26.9075 608.722C-21.8136 643.542 -60.2294 655.521 -88.94 653.135C-146.594 649.875 -167.451 589.127 -155.779 531.173C-149.071 498.044 -131.768 465.839 -104.661 445.739C-74.9424 423.701 -22.7047 406.438 -5.73714 366.096C7.16997 336.108 -73.8772 296.419 -52.3168 239.686C-38.6022 203.337 6.28401 187.669 8.6162 159.492C11.1547 128.823 11.2424 103.7 9.30547 89.1898Z" stroke="#F4F4F7" stroke-width="1.19883"/>
<path d="M25.4756 111.288C13.6582 32.035 90.1419 51.9135 105.712 92.3385C125.77 144.256 147.943 166.79 188.629 191.963C210.893 207.1 216.482 153.808 253.568 147.839C290.654 141.869 305.003 196.349 325.811 172.809C357.559 137.108 387.009 123.689 410.7 124.962C434.147 125.837 452.111 141.277 461.062 163.802C469.413 184.886 469.862 212.155 459.489 239.468C444.405 272.513 427.947 297.174 409.176 314.814C384.565 335.664 418.136 358.455 413.259 406.989C408.383 455.523 371.302 453.89 385.127 491.02C407.035 549.333 413.087 590.29 409.035 617.095C401.134 674.826 347.234 668.349 303.8 627.428C278.685 604.041 260.65 581.568 244.757 563.722C223.457 537.897 195.42 587.294 168.474 586.582C121.598 585.032 131.379 528.627 91.9877 552.851C76.3278 562.4 58.8524 574.018 39.1724 587.987C-5.61651 619.192 -40.5213 628.933 -66.1531 625.827C-117.957 622.626 -136.619 567.828 -125.978 515.565C-119.803 485.584 -104.054 456.459 -79.4473 438.251C-51.4605 417.538 -3.84309 401.54 11.523 363.563C23.1597 336.188 -49.844 300.037 -30.5511 248.587C-18.3152 215.435 21.9619 200.845 24.0979 175.098C26.4148 147.168 26.8422 124.368 25.4756 111.288Z" stroke="#F4F4F7" stroke-width="1.19883"/>
<path d="M40.9467 132.494C30.8495 61.9305 99.3522 79.7654 113.365 116.138C132.512 165.6 153.677 185.183 191.488 206.68C211.516 220.024 216.798 172.36 250.112 166.825C283.426 161.289 296.515 209.56 315.271 188.624C344.003 156.877 370.577 145.248 391.846 146.835C412.797 147.826 428.835 161.901 436.687 182.278C444.007 201.372 444.128 225.967 434.326 250.471C418.437 280.757 406.152 307.8 389.558 324.86C367.697 343.891 397.255 364.434 392.482 407.652C387.709 450.87 354.162 449.235 366.023 481.843C385.016 533.237 390.05 569.204 386.139 592.664C378.877 643.786 330.487 637.729 291.296 601.204C268.406 580.277 251.703 560.334 236.883 544.913C217.618 522.132 192.32 566.313 167.946 565.97C125.791 564.914 134.094 514.96 98.6888 536.646C84.3991 545.278 68.5381 555.666 50.7584 568.079C9.83208 595.781 -21.6156 603.323 -44.2078 599.488C-90.2412 596.335 -106.736 547.287 -97.1109 500.523C-91.4582 473.582 -77.2408 447.433 -55.0954 431.05C-28.7967 411.589 14.274 396.798 28.0624 361.05C38.4466 336.19 -26.6262 303.446 -9.57093 257.093C1.20495 227.017 36.9349 213.454 38.878 190.043C40.9769 164.751 41.7448 144.193 40.9467 132.494Z" stroke="#F4F4F7" stroke-width="1.19883"/>
<path d="M57.1092 153.699C48.7503 91.8276 109.15 107.619 121.581 139.937C139.783 186.949 159.903 203.579 194.772 221.397C212.529 232.947 217.495 190.914 246.978 185.812C276.46 180.711 288.266 222.769 304.938 204.44C330.601 176.647 354.252 166.809 373.061 168.711C391.48 169.818 405.562 182.529 412.303 200.756C418.577 217.861 418.372 239.782 409.156 261.476C392.49 289.003 384.4 318.436 370.013 334.918C350.942 352.131 376.433 370.427 371.773 408.326C367.112 446.226 337.158 444.588 347.035 472.673C363.078 517.144 367.085 548.119 363.322 568.233C356.713 612.743 313.917 607.106 279.039 574.978C258.414 556.511 243.073 539.101 229.352 526.105C212.157 506.371 189.642 545.334 167.883 545.359C130.524 544.799 137.335 501.298 105.978 520.446C93.084 528.16 78.8655 537.318 63.0175 548.173C26.0264 572.373 -1.90845 577.713 -21.4209 573.147C-61.602 570.041 -75.9005 526.744 -67.3075 485.482C-62.1879 461.581 -49.5265 438.407 -29.882 423.85C-5.31791 405.64 33.1299 392.056 45.316 358.536C54.4292 336.189 -2.59691 306.853 12.1903 265.598C21.487 238.598 52.6062 226.061 54.353 204.985C56.2301 182.333 57.3373 164.015 57.1092 153.699Z" stroke="#F4F4F7" stroke-width="1.19883"/>
<path d="M73.2652 175.903C66.6437 122.861 118.94 136.573 129.787 164.766C147.042 209.22 166.113 222.86 198.036 236.961C213.521 246.691 218.171 210.381 243.821 205.725C269.472 201.069 279.993 236.822 294.58 221.139C317.174 197.363 337.901 189.337 354.25 191.55C370.135 192.77 382.263 204.088 387.891 220.126C393.12 235.203 392.589 254.401 383.962 273.236C366.523 297.943 362.624 329.698 350.443 345.564C334.162 360.92 355.587 376.927 351.04 409.424C346.493 441.921 320.133 440.284 328.026 463.782C341.12 501.232 344.101 527.147 340.487 543.87C334.531 581.668 297.331 576.464 266.767 548.805C248.409 532.84 234.431 518 221.811 507.459C206.686 490.814 186.957 524.473 167.814 524.866C135.252 524.803 140.571 487.852 113.264 504.419C101.766 511.199 89.1907 519.105 75.2752 528.38C42.2218 549.022 17.801 552.149 1.36811 546.863C-32.9606 543.811 -45.0628 506.362 -37.5024 470.694C-32.9163 449.887 -21.8114 429.74 -4.66866 417.042C18.1577 400.123 51.9806 387.777 62.5641 356.56C70.4062 336.778 21.4275 310.914 33.9467 274.85C41.7645 250.987 68.2729 239.504 69.8232 220.812C71.4786 200.849 72.9242 184.813 73.2652 175.903Z" stroke="#F4F4F7" stroke-width="1.19883"/>
<path d="M88.721 197.108C83.8234 152.763 128.124 164.43 137.411 188.568C153.755 230.576 171.817 241.26 200.861 251.679C214.106 259.615 218.449 228.937 240.321 224.715C262.193 220.492 271.452 250.03 283.983 236.954C303.555 217.135 321.401 210.902 335.324 213.43C348.708 214.767 358.906 224.72 363.434 238.609C367.629 251.696 366.77 268.219 358.714 284.242C340.466 306.191 340.75 340.346 330.75 355.635C317.225 369.173 334.629 382.932 330.185 410.108C325.742 437.285 302.922 435.644 308.847 454.616C319.02 485.139 320.981 506.058 317.507 519.432C312.192 550.614 280.511 545.83 254.198 522.571C238.068 509.067 225.425 496.76 213.878 488.646C200.793 475.05 183.807 503.489 167.24 504.252C139.408 504.685 143.247 474.191 119.932 488.218C109.807 494.08 98.8486 500.756 86.8365 508.472C57.652 525.61 36.6944 526.532 23.3069 520.512C-5.24061 517.508 -15.1718 485.813 -8.62822 455.649C-4.566 437.882 5.00545 420.712 19.6822 409.84C40.8184 394.172 70.0869 383.032 79.0898 354.04C85.6772 336.773 44.644 314.317 54.9213 283.352C61.2763 262.566 83.2289 252.109 84.586 235.753C86.023 218.429 87.8101 204.636 88.721 197.108Z" stroke="#F4F4F7" stroke-width="1.19883"/>
<path d="M104.857 218.312C101.696 182.67 137.884 192.291 145.586 212.372C160.974 251.943 177.979 259.667 204.066 266.398C215.037 272.538 219.06 247.495 237.096 243.707C255.131 239.918 263.103 263.234 273.547 252.768C290.045 236.909 304.962 232.47 316.421 235.316C327.271 236.77 335.512 245.358 338.928 257.097C342.077 268.194 340.894 282.041 333.43 295.252C314.423 314.443 318.887 351.016 311.095 365.733C300.361 377.452 313.698 388.962 309.37 410.814C305.042 432.665 285.822 431.02 289.765 445.46C296.99 469.05 297.926 484.968 294.603 494.99C289.943 519.549 263.863 515.184 241.872 496.328C228.012 485.287 216.737 475.515 206.296 469.833C195.285 459.288 181.088 482.503 167.141 483.636C144.112 484.568 146.46 460.536 127.199 472.022C118.473 476.967 109.162 482.411 99.085 488.568C73.8471 502.198 56.4082 500.909 46.101 494.152C23.4097 491.193 15.6757 465.256 21.185 440.6C24.7125 425.876 32.7252 411.684 44.897 402.639C64.2864 388.218 88.9228 378.285 96.3213 351.512C101.637 336.76 68.6571 317.714 76.6654 291.85C81.541 274.142 98.8802 264.71 100.041 250.69C101.255 236.006 103.379 224.456 104.857 218.312Z" stroke="#F4F4F7" stroke-width="1.19883"/>
<path d="M120.541 239.514C119.102 212.587 147.373 220.16 153.531 236.18C168.054 273.326 184.101 278.085 207.38 281.119C216.135 285.459 219.863 266.059 234.16 262.703C248.457 259.347 255.187 276.432 263.599 268.579C277.113 256.686 289.185 254.046 298.243 257.211C306.614 258.784 312.943 266.008 315.264 275.596C317.385 284.701 315.868 295.87 308.953 306.265C289.071 322.699 297.754 361.719 292.128 375.869C284.129 385.77 293.468 395.03 289.23 411.549C284.993 428.069 269.267 426.419 271.245 436.319C275.558 452.963 275.472 463.872 272.279 470.534C268.248 488.462 247.63 484.515 229.838 470.066C218.173 461.491 208.202 454.258 198.806 451.013C189.808 443.524 178.322 461.51 166.919 463.016C148.567 464.447 149.435 446.888 134.124 455.831L133.704 456.06C126.457 460.017 118.877 464.155 110.836 468.663C89.4038 478.78 75.3884 475.273 68.1082 467.771C51.1529 464.858 45.5755 444.684 50.081 425.541C53.0935 413.863 59.5912 402.652 69.3245 395.437C87.0787 382.259 107.218 373.531 113.053 348.972C117.124 336.736 92.0222 321.101 97.8035 300.342C101.225 285.713 114.042 277.304 115.012 265.621C116.011 253.579 118.485 244.273 120.541 239.514Z" stroke="#F4F4F7" stroke-width="1.19883"/>
<path d="M136.638 261.744C136.934 243.651 157.067 249.142 161.635 261.031C175.184 295.584 190.151 297.357 210.446 296.682C216.918 299.203 220.323 285.531 230.77 282.623C241.217 279.715 246.652 290.496 252.968 285.29C263.395 277.414 272.526 276.584 279.112 280.055C284.941 281.739 289.308 287.565 290.515 294.96C291.589 302.033 289.751 310.474 283.437 318.008C262.826 331.611 275.668 372.9 272.255 386.419C267.053 394.457 272.319 401.425 268.203 412.54C264.087 423.655 251.978 422.008 251.973 427.325C253.338 436.952 252.23 442.803 249.191 446.078C245.819 457.295 230.823 453.784 217.369 443.806C207.987 437.735 199.396 433.073 191.117 432.278C184.202 427.877 175.516 440.555 166.744 442.426C153.213 444.351 152.592 433.341 141.35 439.7C135.383 442.791 129.32 445.75 123.067 448.763C105.605 455.323 95.1216 449.614 90.9265 441.404C79.8408 438.548 76.4644 424.227 79.9311 410.682C82.4056 402.101 87.3381 393.921 94.5572 388.566C110.542 376.692 126.03 369.207 130.254 346.973C133.05 337.308 116.023 325.153 119.531 309.592C121.471 298.107 129.665 290.759 130.437 281.464C131.213 272.117 134.019 265.097 136.638 261.744Z" stroke="#F4F4F7" stroke-width="1.19883"/>
<path d="M152.973 282.976C154.996 273.651 167.056 277.079 170.046 284.874C182.642 316.912 196.555 315.711 213.904 311.337C218.113 312.051 221.2 304.061 227.828 301.594C234.457 299.126 238.611 303.642 242.849 301.066C250.216 297.179 256.432 298.151 260.567 301.934C263.872 303.733 266.292 308.178 266.393 313.4C266.428 318.462 264.266 324.202 258.543 328.898C237.181 339.707 254.179 383.34 252.961 396.257C250.537 402.455 251.757 407.152 247.757 412.902C243.757 418.652 235.231 417.004 233.254 417.763C231.687 420.412 229.559 421.234 226.67 421.138C223.95 425.688 214.53 422.604 205.376 417.064C198.256 413.476 191.027 411.368 183.848 413.014C178.997 411.684 173.088 419.094 166.924 421.334C158.173 423.755 156.069 419.252 148.863 423.049C144.288 425.212 139.864 426.929 135.537 428.372C122.004 431.398 115.023 423.483 113.893 414.549C108.635 411.745 107.445 403.23 109.882 395.238C111.824 389.728 115.205 384.553 119.931 381.042C134.176 370.444 145.053 364.184 147.68 344.222C149.21 337.1 140.197 328.39 141.448 317.979C141.916 309.604 145.519 303.299 146.096 296.368C146.651 289.689 149.791 284.933 152.973 282.976Z" stroke="#F4F4F7" stroke-width="1.19883"/>
</svg>
