<svg width="545" height="591" viewBox="0 0 545 591" fill="none" xmlns="http://www.w3.org/2000/svg">
<circle cx="279" cy="331" r="260" fill="#ECEDF3"/>
<mask id="mask0_1334_210" style="mask-type:alpha" maskUnits="userSpaceOnUse" x="0" y="0" width="545" height="591">
<path d="M539 331C539 640 481.284 519.741 397 562.743C361.587 580.811 321.483 591 279 591C220.917 591 167.282 571.954 124 539.766C-34 614.5 4.49981 373.511 4.49981 288C4.49981 144.406 114.906 0.5 258.5 0.5C531.5 0.5 559.5 190 539 331Z" fill="#ECEDF3"/>
</mask>
<g mask="url(#mask0_1334_210)">
<path d="M409.755 429.943L312.07 305.399" stroke="#EBEBEB" stroke-width="2" stroke-miterlimit="10"/>
<path d="M80.7893 484.998L247.409 337.656" stroke="#EBEBEB" stroke-width="2" stroke-miterlimit="10"/>
<path d="M494.409 300.354C497.791 308.977 499.782 318.083 500.31 327.332H524.205V326.67L524.007 324.831C523.708 321.662 523.182 318.518 522.432 315.424C521.197 310.341 519.422 305.404 517.14 300.698C517.094 300.584 517.012 300.489 516.907 300.427C516.802 300.365 516.679 300.339 516.558 300.354H494.409Z" fill="#CAD2D7"/>
<path d="M495.084 360.621H517.034C517.15 360.636 517.268 360.61 517.367 360.547C517.466 360.485 517.54 360.389 517.577 360.277C520.1 355 521.932 349.419 523.028 343.672C523.563 340.897 523.921 338.091 524.099 335.271C524.117 335.173 524.139 335.075 524.166 334.98V334.318H523.808H500.68C500.257 334.318 500.283 334.318 500.244 334.755C500.098 336.673 499.966 338.592 499.794 340.51C499.494 343.551 499.022 346.573 498.378 349.56C497.578 353.207 496.534 356.796 495.256 360.304C495.163 360.383 495.137 360.489 495.084 360.621Z" fill="#CAD2D7"/>
<path d="M402.757 367.581L402.942 367.899C404.808 370.746 406.891 373.444 409.174 375.97C411.916 379.076 414.971 381.891 418.29 384.371C424.686 389.228 431.927 392.857 439.645 395.075C442.644 395.938 445.699 396.592 448.788 397.034L449.687 397.179H450.217L450.733 396.862L450.15 396.438C443.453 391.881 437.594 386.201 432.831 379.648C430.137 375.95 427.773 372.023 425.766 367.912C425.725 367.801 425.648 367.706 425.547 367.644C425.446 367.581 425.328 367.555 425.21 367.568H402.717L402.757 367.581Z" fill="#CAD2D7"/>
<path d="M424.72 327.319H455.562V300.367H431.481C431.377 300.35 431.27 300.374 431.181 300.433C431.093 300.492 431.03 300.581 431.005 300.684C428.791 305.753 427.145 311.051 426.096 316.482C425.548 319.313 425.15 322.17 424.906 325.043C424.853 325.744 424.786 326.525 424.72 327.319Z" fill="#CAD2D7"/>
<path d="M424.906 334.503C424.906 335.151 424.906 335.826 424.998 336.408C425.13 337.917 425.236 339.412 425.448 340.907C425.739 342.971 426.057 345.035 426.467 347.086C427.377 351.584 428.706 355.987 430.436 360.238C430.467 360.361 430.542 360.469 430.646 360.542C430.751 360.615 430.878 360.648 431.005 360.635H455.721V334.503H424.906Z" fill="#CAD2D7"/>
<path d="M462.508 300.526V327.517H492.622C492.622 326.829 492.622 326.194 492.49 325.493C492.331 323.984 492.212 322.476 491.974 320.981C491.604 318.692 491.22 316.403 490.651 314.14C489.648 309.597 488.194 305.164 486.311 300.909C486.276 300.804 486.205 300.713 486.111 300.653C486.018 300.593 485.906 300.567 485.795 300.579H462.508V300.526Z" fill="#CAD2D7"/>
<path d="M462.482 334.86V360.621H486.55C486.666 360.632 486.782 360.603 486.878 360.538C486.975 360.472 487.046 360.376 487.079 360.264C488.905 355.882 490.28 351.324 491.18 346.663C491.63 344.268 491.974 341.846 492.279 339.425C492.477 337.851 492.517 336.25 492.623 334.662C492.635 334.605 492.635 334.547 492.623 334.49H462.866C462.548 334.477 462.482 334.569 462.482 334.86Z" fill="#CAD2D7"/>
<path d="M392.026 327.504H417.284C417.804 318.199 419.796 309.035 423.185 300.354H399.621C399.506 300.34 399.391 300.366 399.293 300.426C399.194 300.486 399.119 300.577 399.078 300.684C396.379 306.027 394.416 311.711 393.243 317.581C392.632 320.709 392.226 323.873 392.026 327.054C392.013 327.2 392.026 327.332 392.026 327.504Z" fill="#CAD2D7"/>
<path d="M392 334.305C392 334.913 392 335.495 392.079 336.078C392.251 338.353 392.516 340.629 392.913 342.878C393.847 348.105 395.406 353.2 397.557 358.054C397.901 358.835 398.271 359.602 398.629 360.383C398.65 360.462 398.699 360.531 398.767 360.577C398.835 360.623 398.917 360.644 398.999 360.635H422.471C422.198 359.823 421.92 359.029 421.637 358.253C419.304 351.309 417.889 344.09 417.43 336.779C417.43 336.051 417.337 335.323 417.311 334.609C417.311 334.41 417.245 334.318 417.046 334.331H392V334.305Z" fill="#CAD2D7"/>
<path d="M403.445 293.487C403.449 293.517 403.449 293.549 403.445 293.579H425.871C425.982 293.59 426.093 293.566 426.189 293.508C426.284 293.451 426.358 293.365 426.401 293.262C429.342 287.392 433.029 281.926 437.369 277.001C439.93 274.163 442.747 271.568 445.784 269.247C447.293 268.083 448.867 266.998 450.402 265.887L450.653 265.688L450.349 265.476C450.349 265.344 450.442 265.198 450.495 265C441.058 266.082 431.966 269.185 423.837 274.099C415.709 279.012 408.735 285.621 403.392 293.473L403.445 293.487Z" fill="#CAD2D7"/>
<path d="M466.795 396.875C467.001 396.941 467.215 396.977 467.43 396.981C469.86 396.659 472.268 396.19 474.641 395.578C484.172 393.154 493.027 388.593 500.535 382.241C503.387 379.865 506.018 377.234 508.394 374.382C510.174 372.227 511.814 369.96 513.303 367.594L513.409 367.383H492.464C492.353 367.371 492.241 367.397 492.148 367.457C492.054 367.517 491.983 367.608 491.948 367.713C489.804 372.045 487.271 376.172 484.38 380.045C481.708 383.558 478.742 386.838 475.515 389.849C472.861 392.365 470.007 394.662 466.981 396.716L466.795 396.875Z" fill="#CAD2D7"/>
<path d="M467.06 265.675C467.999 266.363 469.111 267.143 470.183 267.964C473.772 270.754 477.11 273.853 480.159 277.225C484.278 281.729 487.792 286.75 490.611 292.163C490.797 292.494 490.955 292.851 491.154 293.182C491.191 293.235 491.238 293.28 491.292 293.314C491.347 293.348 491.408 293.371 491.471 293.381C491.842 293.381 492.212 293.381 492.596 293.381H512.707C501.501 277.503 486.457 268.043 467.298 265.132L467.43 265.384L467.06 265.675Z" fill="#CAD2D7"/>
<path d="M433.929 367.594C436.768 372.58 440.192 377.208 444.13 381.381C447.606 385.116 451.51 388.429 455.761 391.251V367.594H433.929Z" fill="#CAD2D7"/>
<path d="M462.521 367.607V390.802C471.222 384.819 478.392 376.874 483.453 367.607H462.521Z" fill="#CAD2D7"/>
<path d="M434.604 293.381H455.549V271.285C451.252 274.083 447.307 277.388 443.8 281.129C440.319 284.884 437.238 288.99 434.604 293.381Z" fill="#CAD2D7"/>
<path d="M462.508 271.973V293.566H482.62C477.704 284.889 470.815 277.492 462.508 271.973Z" fill="#CAD2D7"/>
<path d="M338.472 345.523C362.685 321.31 362.685 282.053 338.472 257.84C314.259 233.627 275.002 233.627 250.789 257.84C226.576 282.053 226.576 321.31 250.789 345.523C275.002 369.736 314.259 369.736 338.472 345.523Z" fill="#EBEBEB"/>
<path d="M367.984 586.851H232.934C231.823 582.498 230.751 578.225 229.666 574.004C228.436 569.161 227.218 564.438 226.054 559.833C225.803 558.814 225.525 557.782 225.273 556.777C224.391 553.249 223.509 549.813 222.627 546.47C222.111 544.432 221.595 542.434 221.105 540.45C220.616 538.465 220.073 536.48 219.584 534.509C219.438 533.993 219.319 533.49 219.187 532.987C219.055 532.485 218.909 531.876 218.777 531.333C218.645 530.791 218.433 530.01 218.261 529.322C218.076 528.621 217.904 527.933 217.732 527.258C217.388 525.935 217.057 524.612 216.752 523.421L215.429 517.996C215.244 517.229 215.046 516.448 214.847 515.694C214.53 514.464 214.212 513.273 213.934 512.095C213.723 511.302 213.537 510.534 213.352 509.78C212.541 506.684 211.795 503.773 211.116 501.047C210.931 500.333 210.759 499.632 210.574 498.944C210.282 497.766 209.991 496.641 209.713 495.543C209.528 494.855 209.356 494.22 209.211 493.532C208.602 491.217 208.06 489.086 207.597 487.221C207.464 486.731 207.345 486.242 207.213 485.792C206.908 484.548 206.617 483.463 206.379 482.484C206.273 482.087 206.194 481.717 206.088 481.373C205.982 481.029 205.903 480.619 205.81 480.288C205.718 479.957 205.691 479.811 205.638 479.613C205.585 479.414 205.48 478.951 205.4 478.687C205.321 478.422 205.4 478.396 205.308 478.277L204.99 477.059H336.441C336.441 477.059 340.768 491.984 347.701 516.038C349.103 520.934 350.625 526.226 352.252 531.836C356.817 547.819 362.189 566.541 367.984 586.851Z" fill="#18232F"/>
<path d="M255.043 586.851H251.669C246.685 566.158 241.834 545.429 237.115 524.665C235.995 519.62 234.879 514.57 233.768 509.515L233.45 508.086C233.45 507.835 233.781 507.729 233.847 507.981C233.913 508.232 233.94 508.298 233.992 508.444C235.514 513.868 237.036 519.32 238.517 524.758C244.242 545.372 249.751 566.07 255.043 586.851Z" fill="#263238"/>
<path d="M332.141 477.033L326.346 506.075L321.583 529.891L313.485 570.484L312.652 574.652L311.262 581.559L310.217 586.851H232.921C231.823 582.485 230.725 578.198 229.666 574.004C228.436 569.161 227.218 564.438 226.054 559.833C225.803 558.815 225.525 557.783 225.273 556.777C224.391 553.249 223.509 549.813 222.627 546.47C222.111 544.432 221.595 542.434 221.105 540.45C220.616 538.465 220.073 536.48 219.584 534.509C219.438 533.993 219.319 533.49 219.187 532.987C219.055 532.485 218.909 531.876 218.777 531.334C218.645 530.791 218.433 530.01 218.261 529.322C218.076 528.621 217.904 527.933 217.732 527.258C217.388 525.935 217.057 524.612 216.752 523.421L215.429 517.997C215.231 517.203 215.046 516.448 214.847 515.694C214.53 514.464 214.212 513.273 213.934 512.095C213.723 511.302 213.537 510.534 213.352 509.78C212.541 506.684 211.795 503.773 211.116 501.047C210.931 500.333 210.759 499.632 210.574 498.944C210.282 497.766 209.991 496.641 209.713 495.543C209.528 494.855 209.356 494.22 209.211 493.532C208.602 491.217 208.06 489.087 207.597 487.221C207.464 486.731 207.345 486.242 207.213 485.792C206.908 484.548 206.617 483.463 206.379 482.484C206.273 482.087 206.194 481.717 206.088 481.373C205.982 481.029 205.903 480.619 205.81 480.288C205.718 479.957 205.691 479.812 205.638 479.613C205.585 479.415 205.48 478.951 205.4 478.687C205.321 478.422 205.4 478.396 205.308 478.277L204.99 477.059L332.141 477.033Z" fill="#263238"/>
<path d="M332.154 476.953C332.154 477.668 331.612 485.514 330.342 497.475C329.984 500.968 329.561 504.792 329.018 508.907C328.251 515.39 327.298 522.548 326.108 530.076C324.096 543.307 321.463 557.663 318.037 571.728C316.819 576.795 315.483 581.81 314.067 586.732L140.938 586.851C140.938 586.851 138.755 573.62 139.059 569.651C140.7 548.481 153.044 477.033 153.044 477.033H306.962L332.154 476.953Z" fill="#18232F"/>
<path d="M331.797 492.54C331.612 498.613 331.36 504.673 330.963 510.719C330.553 517.335 329.958 523.805 329.098 530.354C329.08 530.594 329.049 530.833 329.005 531.069C328.211 537.199 327.294 543.308 326.253 549.394C325.274 555.083 324.559 561.209 322.046 566.462C321.092 568.476 319.742 570.276 318.076 571.755C316.549 573.158 314.677 574.13 312.651 574.573C312.32 574.649 311.984 574.707 311.646 574.745H311.408C311.47 574.78 311.52 574.833 311.553 574.896C311.586 574.959 311.6 575.031 311.593 575.102C311.593 577.14 311.593 579.204 311.355 581.228C311.349 581.312 311.349 581.396 311.355 581.479C311.156 583.252 310.826 584.999 310.495 586.772H307.597C307.597 586.772 307.597 586.692 307.597 586.666C308.113 584.747 308.537 582.816 309.013 580.884C309.489 578.952 310.177 576.981 310.64 574.97C310.674 574.897 310.723 574.834 310.786 574.784C308.938 574.874 307.107 574.396 305.539 573.414C303.971 572.433 302.741 570.995 302.014 569.294C301.048 566.647 301.484 564.001 301.881 561.355C302.411 557.888 302.927 554.409 303.456 550.942C304.448 544.551 305.732 538.24 306.869 531.889C307.028 530.923 307.2 529.957 307.372 528.992C309.648 516.078 312.03 503.151 314.888 490.357C314.993 489.827 315.112 489.298 315.232 488.756C315.351 488.213 315.88 488.504 315.853 488.848C315.761 489.708 315.681 490.582 315.576 491.428C315.073 496.333 314.486 501.228 313.816 506.115C312.995 511.844 312.427 517.613 311.619 523.315C311.342 525.274 311.077 527.219 310.786 529.177C309.463 538.611 308.14 548.031 306.486 557.425C305.732 561.792 303.006 569.611 309.291 570.961C310.729 571.284 312.236 571.097 313.551 570.431C316.343 569.108 318.381 565.867 319.386 563.062C321.172 558.06 321.807 552.556 322.734 547.343C323.757 541.601 324.665 535.845 325.459 530.076C326.491 522.879 327.55 515.681 328.688 508.497C329.243 504.831 329.825 501.18 330.408 497.515C330.686 495.821 330.963 494.128 331.228 492.434C331.254 492.077 331.797 492.183 331.797 492.54Z" fill="#263238"/>
<path d="M181.65 537.658C188.717 537.582 195.747 536.636 202.582 534.84C205.731 534.033 208.853 533.014 211.936 532.008C215.004 531.156 217.876 529.713 220.391 527.761C225.141 523.659 227.364 517.176 229.428 511.46C231.688 504.971 233.523 498.342 234.919 491.614C234.985 491.27 235.474 491.389 235.488 491.693C235.653 499.291 234.69 506.871 232.63 514.186C230.923 520.391 228.66 527.325 223.619 531.664C218.327 536.242 211.182 537.843 204.434 538.677C196.85 539.568 189.182 539.466 181.624 538.372C181.553 538.342 181.493 538.29 181.452 538.225C181.41 538.16 181.39 538.083 181.393 538.006C181.396 537.929 181.422 537.854 181.468 537.792C181.514 537.73 181.577 537.683 181.65 537.658Z" fill="#263238"/>
<path d="M169.835 491.865C169.464 501.352 159.633 550.916 158.906 560.402C158.443 566.489 160.798 586.865 160.798 586.865H158.39C158.39 586.865 156.564 568.738 156.815 560.402C157.08 550.902 168.273 501.431 169.014 491.944C169.004 491.836 169.037 491.727 169.106 491.643C169.176 491.558 169.276 491.505 169.385 491.495C169.494 491.484 169.602 491.517 169.686 491.587C169.771 491.656 169.824 491.756 169.835 491.865Z" fill="#263238"/>
<path d="M309.595 278.566C374.838 337.365 435.291 401.761 440.041 434.693C446.656 480.195 418.606 492.818 406.076 492.91C371.927 493.254 309.886 354.87 288.319 302.038C267.348 250.781 295.266 265.692 309.595 278.566Z" fill="#F7A9A0"/>
<path d="M408.061 372.705L335.528 412.2C335.528 412.2 290.423 328.844 280.037 290.275C269.65 251.707 285.157 252.778 319.294 282.813C353.43 312.848 408.061 372.705 408.061 372.705Z" fill="#C7C7C7"/>
<path d="M408.061 372.705L335.528 412.2C335.528 412.2 290.423 328.844 280.037 290.275C269.65 251.707 285.157 252.778 319.294 282.813C353.43 312.848 408.061 372.705 408.061 372.705Z" fill="#5F35F2"/>
<path opacity="0.1" d="M280.037 290.196C290.423 328.844 335.528 412.2 335.528 412.2L401.578 376.278L279.944 261.895C275.882 265.004 275.684 274.186 280.037 290.196Z" fill="black"/>
<path d="M393.137 361.591C365.166 380.512 338.055 392.817 332.631 395.992C332.366 396.138 332.154 395.714 332.432 395.569C337.91 392.777 367.68 374.254 392.912 361.168C393.203 360.983 393.441 361.406 393.137 361.591Z" fill="#263238"/>
<path d="M351.882 520.921L139.403 521.529C139.403 521.529 157.927 361.71 235.99 267.293C254.051 245.435 283.12 257.317 295.372 268.92C326.465 298.413 352.424 520.153 351.882 520.921Z" fill="#5F35F2"/>
<path d="M280.09 259.129C271.013 265.679 262.294 272.81 253.455 279.651C248.904 283.17 244.458 286.915 239.695 290.13C235.885 292.697 231.505 294.84 226.808 294.576C223.705 294.347 220.75 293.159 218.353 291.175C218.512 290.911 218.684 290.659 218.843 290.408C219.826 291.207 220.906 291.878 222.058 292.406C226.755 294.562 231.849 293.491 236.229 291.083C241.058 288.436 245.318 284.666 249.658 281.305L263.921 270.244C268.83 266.433 273.712 262.305 278.82 258.6C279.256 258.719 279.653 258.944 280.09 259.129ZM248.653 368.538C253.35 361.829 255.639 352.793 252.701 344.907C250.055 337.855 243.744 333.211 236.573 331.491C229.112 329.741 221.274 330.678 214.437 334.137C205.493 338.675 198.996 346.706 190.965 352.528C188.7 354.178 186.26 355.571 183.688 356.683C183.45 357.238 183.225 357.794 183 358.336C191.653 355.068 198.083 348.175 205.003 342.287C208.617 338.995 212.724 336.289 217.176 334.269C220.938 332.742 224.957 331.947 229.018 331.927C236.784 331.848 245.08 334.745 249.526 341.467C254.554 349.075 253.072 358.932 248.494 366.368C236.864 385.196 211.142 384.005 191.918 384.362C185.313 384.394 178.725 385.009 172.23 386.201C172.044 386.704 171.859 387.207 171.687 387.723C179.075 386.356 186.575 385.692 194.087 385.738C212.836 385.526 236.599 385.818 248.653 368.538ZM253.35 320.906C270.074 322.802 286.94 318.882 301.114 309.805C304.895 307.393 308.439 304.628 311.699 301.548L311.223 300.225C307.797 303.506 304.042 306.424 300.016 308.931C285.345 318.212 267.797 321.833 250.65 319.119C236.52 316.698 223.857 308.018 210.15 304.181L209.356 305.505C215.31 307.332 221.117 309.605 226.729 312.305C235.276 316.195 243.929 319.794 253.35 320.906ZM237.591 449.803C243.297 444.126 246.716 436.549 247.197 428.514C247.607 421.158 245.279 413.391 239.431 408.588C232.722 403.124 223.553 402.872 215.614 405.439C206.459 408.416 199.353 414.701 193.122 421.886C186.347 429.679 180.433 438.544 172.19 444.921C166.606 449.248 159.541 452.86 152.343 453.257C152.237 453.68 152.132 454.117 152.039 454.58C155.717 454.376 159.331 453.53 162.716 452.079C171.753 448.282 178.594 441.494 184.786 434.071C191.309 426.305 197.395 417.585 205.956 411.777C213.378 406.709 223.289 403.388 232.193 406.22C240.476 408.866 245.279 416.501 245.834 424.929C246.08 429.099 245.476 433.276 244.059 437.206C242.642 441.136 240.442 444.738 237.591 447.792C230.976 454.99 222.032 459.462 212.995 462.796C202.474 466.56 191.732 469.675 180.83 472.124C169.239 474.77 155.294 477.205 145.569 484.614C145.423 485.329 145.291 486.017 145.159 486.718C154.884 478.568 169.795 476.133 181.849 473.315C192.71 470.872 203.409 467.752 213.881 463.974C222.508 460.759 231.042 456.498 237.591 449.856V449.803ZM223.95 484.972C214.609 484.35 206.631 490.264 201.351 497.396C195.86 504.871 192.619 513.67 187.538 521.37H189.073C191.137 518.129 192.923 514.676 194.656 511.354C199.142 502.648 204.077 492.91 213.299 488.412C217.652 486.155 222.685 485.59 227.43 486.824C229.548 487.518 231.49 488.663 233.123 490.18C234.756 491.696 236.041 493.549 236.89 495.609C240.436 503.68 239.086 512.651 239.536 521.185H240.859C240.463 514.212 241.177 507.173 239.655 500.28C237.935 492.328 232.59 485.58 223.95 484.972ZM320.273 515.562C317.097 506.922 317.071 497.528 317.507 488.465C318.566 465.72 323.038 442.751 319.466 420.033C316.74 402.621 309.251 384.958 294.498 374.426C287.01 369.133 276.716 365.64 268.195 370.721C260.958 374.994 257.173 383.634 257.068 391.811C256.962 402.396 261.884 412.28 267.057 421.198C272.23 430.115 278.039 438.398 283.212 447.197C288.386 455.995 292.765 465.085 294.697 474.982C296.456 484.227 296.153 493.746 293.81 502.86C292.227 509.29 289.684 515.446 286.269 521.119H287.817C288.518 519.941 289.14 518.724 289.788 517.52C293.954 509.403 296.406 500.516 296.991 491.411C297.576 482.307 296.282 473.179 293.189 464.596C286.203 445.358 272.164 429.93 263.498 411.552C259.065 402.171 256.194 390.991 260.852 381.12C262.663 377.015 265.76 373.611 269.677 371.422C271.995 370.302 274.516 369.663 277.087 369.542C279.659 369.422 282.229 369.823 284.641 370.721C293.797 373.711 301.418 381.094 306.671 388.953C311.68 396.708 315.202 405.327 317.058 414.37C321.927 436.453 318.09 459.158 316.515 481.373C315.827 490.965 315.192 500.783 317.282 510.256C318.039 514.022 319.379 517.647 321.252 521H322.945C321.858 519.3 320.962 517.485 320.273 515.588V515.562ZM297.224 351.8C301.656 360.811 310.654 365.706 319.585 369.358C322.892 370.681 326.2 372.004 329.508 373.327C329.429 372.864 329.323 372.414 329.243 372.004C324.057 369.808 318.764 367.836 313.71 365.296C305.083 360.969 296.179 353.163 296.298 342.671C296.417 333.052 305.282 326.211 314.054 324.478C315.455 324.199 316.875 324.022 318.301 323.949C318.195 323.578 318.09 323.181 317.997 322.798C311.991 323.027 306.235 325.258 301.643 329.135C298.449 331.855 296.273 335.578 295.47 339.695C294.667 343.812 295.285 348.08 297.224 351.8Z" fill="white"/>
<path d="M221.066 274.425C159.21 321.924 94.7084 402.528 93.7425 449.076C92.7899 495.04 118.604 490.463 122.957 489.113C168.922 474.797 224.321 347.302 244.816 295.383C265.099 243.821 236.361 262.689 221.066 274.425Z" fill="#F7A9A0"/>
<path d="M121.687 367.069L193.505 407.781C193.505 407.781 240.092 325.298 251.167 286.875C262.241 248.452 246.708 249.285 212.042 278.711C177.377 308.137 121.687 367.069 121.687 367.069Z" fill="#5F35F2"/>
<path d="M136.757 356.22C164.383 375.63 191.269 388.411 196.641 391.639C196.892 391.798 197.117 391.361 196.853 391.229C191.415 388.345 161.975 369.279 136.982 355.756C136.757 355.598 136.545 356.034 136.757 356.22Z" fill="#263238"/>
<path d="M188.887 404.976C190.365 405.538 191.809 406.183 193.214 406.908C200.121 393.187 198.864 396.323 205.889 382.669C209.347 375.974 212.792 369.279 216.223 362.584C219.795 355.624 222.997 348.36 226.94 341.599C226.961 341.557 226.998 341.525 227.043 341.51C227.087 341.495 227.136 341.499 227.178 341.52C227.22 341.541 227.252 341.578 227.267 341.622C227.282 341.667 227.279 341.716 227.258 341.758C224.969 348.373 221.873 354.751 218.935 361.115C219.584 360.123 220.258 359.117 220.907 358.164C222.495 356.034 224.043 353.904 225.458 351.655C225.67 351.311 226.252 351.589 226.027 351.933C224.704 354.089 223.5 356.299 222.323 358.548C221.145 360.797 219.835 362.941 218.499 365.164C217.162 367.387 215.786 369.226 214.357 371.21L213.841 371.938C211.963 375.907 210.137 379.877 208.165 383.846C201.259 397.646 194.14 408.496 193.902 408.43C192.094 407.559 190.355 406.551 188.702 405.413C188.491 405.228 188.689 404.963 188.887 404.976Z" fill="#263238"/>
<path d="M402.914 491.309C381.625 488.187 369.572 448.626 345.928 385.659C341.786 374.611 396.762 311.326 404.224 321.501C413.631 334.322 438.546 405.426 441.033 424.704C445.929 462.849 427.842 494.935 402.914 491.309Z" fill="#F7A9A0"/>
<path d="M370.167 449.38C365.311 439.086 360.906 428.58 356.724 418.022C352.755 407.437 348.257 396.852 345.928 385.659C349.262 396.508 353.867 406.948 357.955 417.532C361.594 426.874 366.82 440.025 370.167 449.38Z" fill="#263238"/>
<path d="M423.952 367.215C420.975 345.595 414.875 315.441 407.148 309.13C399.038 302.514 369.598 280.339 361.091 277.375C352.583 274.411 314.689 259.963 307.73 264.012C302.146 267.227 308.748 281.9 326.796 288.926C342.673 295.105 350.81 300.834 355.335 302.819C359.86 304.803 371.08 319.781 368.05 326.41C366.251 330.313 354.899 334.904 347.833 331.702C340.768 328.5 339.021 314.502 330.95 307.886C322.879 301.271 308.642 302.091 307.822 305.928C307.002 309.765 311.699 311.578 318.976 324.637C323.66 333.039 323.977 353.203 334.602 367.664C339.894 374.928 349.236 394.272 349.236 394.272L423.952 367.215Z" fill="#F7A9A0"/>
<path d="M323.422 301.959C320.812 301.578 318.363 300.468 316.356 298.757C315.554 297.971 314.998 296.969 314.756 295.872C314.663 295.276 314.663 294.669 314.756 294.073C314.776 293.43 315.025 292.816 315.457 292.34C315.589 292.247 315.377 292.062 315.311 292.207C315.118 292.51 314.901 292.798 314.663 293.067C314.495 293.324 314.357 293.599 314.253 293.888C314.033 294.448 313.93 295.046 313.948 295.647C313.995 296.971 314.489 298.24 315.351 299.246C317.362 301.641 320.471 302.276 323.462 302.17C323.49 302.165 323.515 302.149 323.531 302.125C323.547 302.102 323.553 302.073 323.548 302.045C323.542 302.017 323.526 301.992 323.503 301.976C323.479 301.96 323.45 301.953 323.422 301.959Z" fill="#263238"/>
<path d="M407.148 309.077C400.281 298.294 382.711 278.831 365.298 272.136C353.536 267.611 313.022 287.312 314.2 295.052C315.377 302.792 322.297 302.832 332.538 301.668C336.269 301.231 356.01 294.152 359.371 298.294C364.2 304.248 370.339 324.597 370.339 324.597L407.148 309.077Z" fill="#F7A9A0"/>
<path d="M315.205 292.035C320.22 283.752 331.215 279.333 342.157 275.853C342.329 275.853 342.422 276.052 342.263 276.105C339.471 277.005 321.635 285.195 315.324 292.167C315.258 292.247 315.152 292.114 315.205 292.035Z" fill="#263238"/>
<path d="M407.148 309.077C400.281 298.293 382.71 278.831 365.298 272.136C353.536 267.611 321.477 292.829 322.654 300.582C323.832 308.336 333.768 308.945 344.764 305.121C348.309 303.89 360.217 295.515 363.578 299.656C368.408 305.61 380.196 320.403 380.196 320.403L407.148 309.077Z" fill="#F7A9A0"/>
<path d="M373.396 311.247C372.297 309.54 371.927 308.945 370.749 307.278C369.572 305.61 368.46 303.93 367.217 302.342C366.234 300.871 365.008 299.578 363.591 298.519C362.119 297.681 360.416 297.342 358.736 297.553C354.925 297.91 351.472 300.318 348.243 302.17C344.631 304.248 337.156 307.595 331.413 306.986C329.84 306.894 328.304 306.474 326.901 305.756C325.831 305.275 324.899 304.533 324.189 303.599C321.702 299.379 324.811 294.562 327.986 291.162C333.914 284.811 341.879 280.207 349.593 276.423C351.498 275.496 353.417 274.623 355.335 273.776C357.484 272.631 359.852 271.954 362.282 271.792C366.251 271.792 372.787 275.761 374.811 277.084C374.97 277.177 375.076 276.925 374.93 276.833C372.483 275.311 366.423 270.336 359.993 270.654C357.65 271.005 355.389 271.767 353.311 272.903C351.075 273.869 348.852 274.914 346.695 275.999C342.426 278.084 338.329 280.504 334.443 283.237C330.778 285.883 326.888 288.886 324.414 292.697C322.271 295.991 321.622 300.636 323.7 304.155C325.459 307.079 329.204 307.78 330.924 308.005C332.605 308.23 334.31 308.23 335.991 308.005C339.736 307.192 343.419 306.118 347.013 304.79C350.493 303.401 353.628 301.059 357.227 299.974C358.073 299.682 358.969 299.561 359.862 299.62C360.755 299.68 361.627 299.917 362.427 300.318C363.886 301.303 365.193 302.498 366.304 303.864C368.697 306.226 370.867 308.804 372.787 311.564C373.329 312.2 373.859 311.961 373.396 311.247Z" fill="#263238"/>
<path d="M412.242 318.484C409.715 313.364 405.468 292.207 401.393 285.711C397.317 279.214 378.701 256.788 369.995 257.753C359.053 258.957 370.432 278.685 376.161 286.862C381.89 295.039 380.911 308.773 380.911 308.773L412.242 318.484Z" fill="#F7A9A0"/>
<path d="M368.183 273.34C370.185 275.969 372.053 278.698 373.779 281.516C375.609 284.077 377.245 286.771 378.675 289.574C379.872 292.44 380.588 295.485 380.792 298.585C380.937 300.106 380.99 301.628 380.99 303.149C380.99 304.671 380.858 306.497 380.898 308.164C380.898 308.336 380.62 308.362 380.62 308.164C380.42 305.117 380.026 302.085 379.442 299.087C378.897 295.98 377.977 292.95 376.703 290.064C374.15 284.321 370.405 279.214 367.812 273.512C367.706 273.273 368.037 273.154 368.183 273.34Z" fill="#263238"/>
<path d="M380.766 311.035C381.03 318.868 377.471 326.357 373.66 333.012C371.014 337.484 367.402 341.215 364.743 345.648C360.748 352.247 358.342 359.685 357.717 367.373C357.724 356.864 361.397 346.687 368.103 338.596C371.325 334.614 374.065 330.266 376.267 325.642C378.437 321.038 380.474 316.195 380.739 311.088L380.766 311.035Z" fill="#263238"/>
<path d="M302.675 280.829C302.37 284.198 301.893 287.55 301.246 290.871C300.745 293.883 299.965 296.841 298.918 299.709C296.88 304.869 292.977 309.633 287.01 311.022C281.267 312.345 275.366 310.546 270.815 307.555C265.827 304.274 261.95 299.617 258.391 295.092C256.181 292.3 254.091 289.416 252.159 286.439C251.18 284.943 250.187 283.448 249.274 281.9C248.362 280.352 247.502 278.764 246.575 277.243C246.496 277.124 246.231 277.243 246.311 277.349C248.229 280.855 254.064 291.982 256.009 294.748C259.555 299.762 263.432 304.896 268.592 308.601C273.523 312.363 279.727 314.053 285.885 313.311C288.838 312.849 291.624 311.64 293.979 309.8C296.334 307.959 298.18 305.547 299.341 302.792C300.703 299.503 301.568 296.029 301.908 292.485C302.397 288.608 302.662 284.692 302.821 280.789C302.755 280.789 302.675 280.789 302.675 280.829Z" fill="#263238"/>
<path d="M282.114 301.297C269.015 300.926 252.86 276.515 248.547 259.05C248.269 257.859 263.71 217.213 265.932 208.838C266.382 207.118 315.126 235.551 315.126 235.551C315.126 235.551 305.295 251.733 301.511 266.354C301.207 267.571 294.776 301.641 282.114 301.297Z" fill="#F7A9A0"/>
<path d="M315.113 235.538C315.113 235.538 305.295 251.72 301.498 266.34C301.498 266.631 301.021 268.762 300.267 271.831C275.895 262.9 264.067 243.358 258.642 230.114C261.963 220.852 265.033 212.238 265.919 208.851C266.422 207.118 315.113 235.538 315.113 235.538Z" fill="#263238"/>
<path d="M250.042 187.523C250.042 187.523 246.721 199.92 244.3 203.823C241.878 207.727 230.923 209.116 230.923 209.116C230.923 209.116 240.582 216.38 243.903 216.618C247.224 216.856 254.699 210.518 254.699 210.518C254.699 210.518 246.125 221.738 241.468 221.011C238.597 220.561 248.084 223.657 248.084 223.657C251.29 224.429 254.668 223.991 257.57 222.426C261.91 219.833 250.042 187.523 250.042 187.523Z" fill="#263238"/>
<path d="M268.129 150.515C257.372 167.544 252.49 223.895 262.453 239.481C276.888 262.08 307.836 272.334 328.899 253.334C349.328 234.93 354.369 161.378 342.567 146.453C325.182 124.489 284.033 125.363 268.129 150.515Z" fill="#F7A9A0"/>
<path d="M309.661 188.66C307.99 188.815 306.312 188.876 304.634 188.846C302.702 188.846 301.167 189.15 299.46 188.078C299.019 187.718 298.705 187.224 298.567 186.671C298.429 186.118 298.473 185.535 298.693 185.009C299.804 182.812 302.159 182.164 304.488 182.005C306.839 181.752 309.2 182.389 311.104 183.791C313.049 185.207 311.924 188.356 309.661 188.66Z" fill="#263238"/>
<path d="M306.843 200.833C306.843 200.688 306.525 200.965 306.499 201.124C306.049 204.908 304.885 209.182 301.273 209.91C301.167 209.91 301.154 210.121 301.273 210.121C305.533 210.174 307.015 204.472 306.843 200.833Z" fill="#263238"/>
<path d="M304.078 196.387C298.084 194.985 295.742 207.078 301.299 208.375C306.856 209.671 309.106 197.552 304.078 196.387Z" fill="#263238"/>
<path d="M328.516 204.472C328.516 204.339 328.767 204.71 328.741 204.855C327.894 208.586 327.55 212.992 330.699 214.884C330.805 214.951 330.699 215.136 330.633 215.096C326.61 213.733 327.113 207.872 328.516 204.472Z" fill="#263238"/>
<path d="M332.577 201.217C338.69 201.931 336.825 214.104 331.162 213.442C325.499 212.781 327.497 200.621 332.577 201.217Z" fill="#263238"/>
<path d="M338.505 195.011C336.929 194.374 335.392 193.645 333.901 192.828C332.154 191.981 330.686 191.505 329.667 189.719C329.442 189.193 329.394 188.608 329.53 188.052C329.666 187.496 329.979 186.999 330.421 186.636C332.432 185.207 334.827 185.723 336.957 186.636C339.146 187.511 340.93 189.172 341.958 191.293C342.169 191.787 342.231 192.331 342.139 192.86C342.046 193.389 341.803 193.879 341.438 194.272C341.072 194.666 340.601 194.945 340.081 195.076C339.56 195.207 339.013 195.185 338.505 195.011Z" fill="#263238"/>
<path d="M297.462 231.304C298.19 232.35 298.785 233.739 300.188 234.109C301.586 234.348 303.019 234.294 304.395 233.951C304.424 233.945 304.453 233.948 304.479 233.96C304.505 233.972 304.526 233.993 304.54 234.018C304.553 234.043 304.558 234.073 304.554 234.101C304.549 234.129 304.535 234.156 304.514 234.175C303.836 234.807 303 235.244 302.094 235.439C301.188 235.635 300.246 235.582 299.368 235.287C298.641 234.941 298.033 234.386 297.623 233.693C297.213 233 297.019 232.201 297.065 231.397C297.052 231.172 297.356 231.146 297.462 231.304Z" fill="#263238"/>
<path d="M303.575 220.852C304.234 222.519 305.234 224.031 306.509 225.29C307.785 226.55 309.309 227.53 310.984 228.169C312.44 228.754 313.973 229.124 315.536 229.267C315.828 229.319 316.125 229.346 316.422 229.346H317.269C317.476 229.348 317.677 229.282 317.842 229.157C318.007 229.033 318.127 228.857 318.182 228.658C318.195 228.526 318.195 228.393 318.182 228.261V227.931C318.817 225.059 319.386 220.627 319.386 220.627C320.339 221.355 325.247 224.808 325.459 223.273C327.126 210.651 328.979 196.626 327.986 183.712C327.97 183.631 327.927 183.558 327.863 183.505C327.799 183.452 327.719 183.423 327.636 183.423C327.553 183.423 327.473 183.452 327.409 183.505C327.345 183.558 327.301 183.631 327.285 183.712C325.195 195.766 325.247 208.124 323.316 220.27C321.728 219.291 319.161 217.531 317.653 217.28C317.216 217.28 316.7 225.88 316.33 227.137C316.336 227.181 316.336 227.225 316.33 227.269C311.355 226.951 307.994 224.782 303.919 220.653C303.747 220.349 303.469 220.508 303.575 220.852Z" fill="#263238"/>
<path d="M256.181 194.813C266.303 195.289 281.4 165.929 281.4 165.929L277.43 183.527C277.43 183.527 286.467 180.192 292.368 173.696C296.576 169.052 298.402 161.179 298.786 157.144C298.786 157.144 305.401 171.301 316.118 178.314C320.088 180.96 352.067 191.545 352.729 189.56C354.727 183.646 349.249 158.255 343.07 150.078C335.939 140.671 324.771 130.113 303.231 130.999C281.691 131.886 272.548 142.457 266.528 151.018C260.508 159.578 252.463 194.641 256.181 194.813Z" fill="#263238"/>
<path d="M267.745 200.33C267.745 200.33 260.111 179.743 251.074 182.005C242.037 184.268 244.577 211.907 252.953 217.795C253.976 218.623 255.157 219.235 256.422 219.595C257.688 219.956 259.014 220.057 260.32 219.892C261.626 219.728 262.885 219.302 264.022 218.639C265.16 217.976 266.151 217.091 266.938 216.036L267.745 200.33Z" fill="#F7A9A0"/>
<path d="M252.026 189.917C251.881 189.917 251.802 190.076 251.907 190.156C257.729 194.495 259.581 201.428 260.349 208.295C259.026 205.385 256.75 203.387 252.913 204.842C252.714 204.842 252.807 205.226 253.006 205.226C254.245 205.164 255.474 205.486 256.523 206.15C257.572 206.813 258.391 207.784 258.867 208.93C259.643 210.854 260.215 212.854 260.574 214.898C260.719 215.559 261.897 215.52 261.818 214.792C261.811 214.739 261.811 214.686 261.818 214.633C264.133 206.364 260.719 193.08 252.026 189.917Z" fill="#263238"/>
<path d="M328.741 136.093C323.269 130.917 317.068 126.571 310.336 123.193C302.768 119.554 277.179 113.164 269.518 116.167C261.857 119.171 252.45 142.153 251.14 145.54C249.83 148.927 244.445 170.216 250.293 177.745C256.141 185.273 268.645 150.224 284.443 142.457C300.241 134.691 328.741 136.093 328.741 136.093Z" fill="#5F35F2"/>
<path opacity="0.1" d="M328.741 136.106C328.741 136.106 300.228 134.783 284.443 142.471C268.658 150.158 256.155 185.273 250.28 177.745C247.713 174.437 247.197 170.613 247.634 164.633C252.648 154.842 262.188 140.221 274.467 132.005C285.978 124.304 301.59 123.682 316.991 126.95C321.157 129.668 325.088 132.731 328.741 136.106Z" fill="black"/>
<path d="M245.358 199.391C249.168 190.209 267.136 168.205 281.995 157.118C296.853 146.03 329.164 147.432 333.213 149.047C343.03 153.016 345.425 157.131 347.304 156.773C349.183 156.416 341.389 145.434 339.127 142.801C336.864 140.168 330.619 133.672 326.24 132.322C321.86 130.973 294.115 124.688 280.539 132.878C266.964 141.068 242.447 168.602 242.249 177.613C242.249 179.782 244.392 181.926 244.299 184.995C244.167 188.965 243.519 193.53 243.77 196.467C243.929 198.835 245.027 200.198 245.358 199.391Z" fill="#5F35F2"/>
<path d="M286.467 151.415C284.632 149.244 282.985 146.92 281.545 144.469C280.05 142.015 278.847 139.395 277.96 136.662C277.96 136.62 277.943 136.58 277.913 136.55C277.883 136.52 277.843 136.503 277.801 136.503C277.759 136.503 277.718 136.52 277.688 136.55C277.659 136.58 277.642 136.62 277.642 136.662C278.138 139.582 279.094 142.404 280.473 145.024C281.909 147.594 283.812 149.874 286.083 151.746C286.335 152.024 286.666 151.653 286.467 151.415Z" fill="#263238"/>
<path d="M248.401 189.917C248.313 189.153 248.185 188.393 248.018 187.642C247.888 186.766 247.853 185.879 247.912 184.995C248.25 183.373 248.405 181.717 248.375 180.06C248.126 178.734 247.736 177.439 247.21 176.197C246.505 174.828 246.299 173.256 246.628 171.751C246.642 171.711 246.64 171.666 246.621 171.628C246.603 171.59 246.569 171.56 246.529 171.546C246.489 171.532 246.444 171.535 246.406 171.553C246.367 171.572 246.338 171.605 246.324 171.645C245.358 174.503 246.602 177.176 247.052 179.981C247.343 181.78 246.721 183.5 246.708 185.273C246.567 186.943 246.981 188.613 247.885 190.023C248.031 190.314 248.414 190.235 248.401 189.917Z" fill="#263238"/>
<path d="M255.043 180.881C254.447 179.551 253.921 178.191 253.469 176.805C253.089 175.429 252.806 174.027 252.622 172.611C252.423 171.288 252.344 169.819 252.172 168.417C251.974 166.776 251.577 165.122 251.458 163.469C251.458 163.27 251.127 163.323 251.14 163.469C251.259 165.189 251.14 166.922 251.14 168.642C251.208 170.133 251.376 171.619 251.643 173.088C251.875 174.496 252.242 175.878 252.741 177.216C253.193 178.578 253.918 179.834 254.871 180.907C254.88 180.924 254.894 180.937 254.911 180.946C254.928 180.954 254.948 180.957 254.966 180.954C254.985 180.951 255.003 180.943 255.016 180.929C255.03 180.916 255.039 180.899 255.043 180.881Z" fill="#263238"/>
<path d="M261.527 172.823C260.106 170.494 259.032 167.971 258.338 165.334C257.676 162.688 257.173 160.121 256.684 157.514C256.684 157.342 256.353 157.342 256.366 157.514C256.314 160.282 256.603 163.046 257.226 165.744C257.539 167.053 258.01 168.32 258.629 169.515C259.375 170.772 260.263 171.94 261.275 172.995C261.368 173.14 261.632 172.995 261.527 172.823Z" fill="#263238"/>
<path d="M268.195 165.255C267.429 164.258 266.867 163.121 266.541 161.907C266.078 160.584 265.641 159.261 265.218 157.938C264.794 156.615 264.437 155.292 264.067 154.061C263.603 152.792 263.418 151.438 263.524 150.092C263.524 150.05 263.508 150.009 263.478 149.979C263.448 149.95 263.408 149.933 263.366 149.933C263.323 149.933 263.283 149.95 263.253 149.979C263.223 150.009 263.207 150.05 263.207 150.092C262.896 151.392 262.846 152.741 263.061 154.061C263.236 155.548 263.537 157.018 263.961 158.454C264.394 159.862 264.906 161.245 265.496 162.595C265.948 163.842 266.77 164.922 267.851 165.691C268.102 165.718 268.38 165.466 268.195 165.255Z" fill="#263238"/>
<path d="M274.612 154.987C274.017 153.836 273.448 152.685 272.945 151.507C272.442 150.33 272.019 149.099 271.622 147.895C271.225 146.691 270.722 145.342 270.365 144.058C270.365 144.016 270.348 143.976 270.318 143.946C270.289 143.916 270.248 143.899 270.206 143.899C270.164 143.899 270.124 143.916 270.094 143.946C270.064 143.976 270.047 144.016 270.047 144.058C270.136 145.395 270.335 146.723 270.643 148.028C270.991 149.319 271.434 150.584 271.966 151.812C272.445 153.039 273.006 154.232 273.646 155.384C274.22 156.577 275.015 157.65 275.988 158.546C276.027 158.573 276.073 158.588 276.12 158.589C276.167 158.59 276.213 158.577 276.253 158.551C276.293 158.526 276.324 158.489 276.343 158.446C276.362 158.402 276.367 158.355 276.359 158.308C275.878 157.151 275.293 156.039 274.612 154.987Z" fill="#263238"/>
<path d="M295.531 148.464C294.988 147.009 294.459 145.567 293.784 144.164C293.084 142.734 292.306 141.343 291.455 139.996C289.846 137.342 287.947 134.875 285.792 132.64C285.673 132.521 285.409 132.64 285.515 132.812C288.703 138.104 292.13 143.278 295.226 148.61C295.25 148.642 295.284 148.664 295.323 148.674C295.361 148.683 295.402 148.679 295.438 148.662C295.474 148.645 295.503 148.616 295.52 148.58C295.536 148.544 295.54 148.503 295.531 148.464Z" fill="#263238"/>
<path d="M303.84 142.285C303.268 140.845 302.536 139.473 301.656 138.197C299.722 135.566 297.503 133.157 295.041 131.012C294.882 130.88 294.644 131.012 294.79 131.224C296.682 133.659 298.627 136.067 300.386 138.607C301.267 139.854 302.08 141.148 302.821 142.484C303.549 143.807 303.972 145.302 304.634 146.678C304.644 146.7 304.661 146.719 304.682 146.732C304.703 146.746 304.728 146.753 304.753 146.753C304.777 146.753 304.802 146.746 304.823 146.732C304.844 146.719 304.861 146.7 304.872 146.678C304.819 145.16 304.468 143.668 303.84 142.285Z" fill="#263238"/>
<path d="M312.903 141.24C312.395 139.853 311.743 138.522 310.958 137.271C309.489 134.866 307.624 132.728 305.441 130.946C305.295 130.814 305.097 131.039 305.216 131.184C307.033 133.315 308.663 135.599 310.085 138.012C310.813 139.216 311.474 140.473 312.136 141.716C312.797 142.96 313.247 144.363 314.041 145.54C314.041 145.633 314.239 145.54 314.226 145.448C313.923 144.005 313.48 142.596 312.903 141.24Z" fill="#263238"/>
<path d="M320.127 138.435C319.413 137.297 318.632 136.212 317.838 135.114C317.114 134.007 316.221 133.021 315.192 132.19C315.033 132.071 314.874 132.283 314.967 132.428C316.383 134.598 317.759 136.821 319.122 139.044C320.238 141.148 321.125 143.366 321.768 145.659C321.768 145.765 321.966 145.659 321.98 145.659C322.103 143.12 321.457 140.602 320.127 138.435Z" fill="#263238"/>
<path d="M327.695 139.269C326.432 136.969 324.744 134.931 322.721 133.262C322.588 133.143 322.363 133.381 322.496 133.513C324.229 135.349 325.674 137.437 326.782 139.705C327.921 141.965 328.808 144.344 329.429 146.797C329.429 146.916 329.654 146.916 329.654 146.797C329.592 144.17 328.922 141.593 327.695 139.269Z" fill="#263238"/>
<path d="M335.542 146.572C335.473 146.019 335.367 145.471 335.224 144.932C334.924 143.802 334.507 142.707 333.98 141.663C332.855 139.574 331.526 137.602 330.011 135.776C329.892 135.604 329.627 135.776 329.76 135.987C331.189 137.798 332.393 139.775 333.345 141.875C333.82 142.903 334.218 143.964 334.536 145.051C334.695 145.58 334.814 146.122 334.92 146.665C334.98 147.204 335.095 147.736 335.264 148.253C335.273 148.285 335.294 148.314 335.321 148.335C335.348 148.355 335.382 148.366 335.416 148.366C335.45 148.366 335.483 148.355 335.511 148.335C335.538 148.314 335.558 148.285 335.568 148.253C335.66 147.695 335.651 147.126 335.542 146.572Z" fill="#263238"/>
<path d="M341.032 148.967C340.746 148.065 340.406 147.182 340.013 146.321C339.623 145.449 339.181 144.601 338.69 143.781C338.174 142.947 337.632 142.127 337.156 141.267C337.147 141.242 337.132 141.22 337.114 141.202C337.095 141.183 337.072 141.17 337.048 141.161C337.023 141.153 336.996 141.151 336.971 141.154C336.945 141.158 336.92 141.167 336.898 141.182C336.877 141.196 336.858 141.215 336.845 141.238C336.832 141.26 336.824 141.286 336.822 141.312C336.82 141.338 336.824 141.364 336.834 141.388C336.843 141.412 336.858 141.434 336.878 141.452C337.397 142.292 337.84 143.178 338.201 144.098C338.558 144.958 338.942 145.805 339.312 146.652C339.683 147.498 340.04 148.358 340.397 149.219C340.754 150.079 341.032 151.031 341.482 151.865C341.494 151.898 341.519 151.925 341.552 151.94C341.584 151.955 341.621 151.956 341.654 151.944C341.687 151.932 341.715 151.907 341.729 151.875C341.744 151.842 341.746 151.805 341.733 151.772C341.609 150.813 341.374 149.872 341.032 148.967Z" fill="#263238"/>
<path d="M312.731 310.929L280.844 404.394C279.6 407.04 280.844 409.501 283.57 409.687L332.816 413.735C334.33 413.751 335.818 413.334 337.102 412.532C338.387 411.73 339.416 410.578 340.067 409.21L371.954 315.759C373.197 313.033 371.954 310.652 369.228 310.466L319.982 306.418C318.469 306.401 316.983 306.816 315.698 307.616C314.414 308.415 313.384 309.565 312.731 310.929Z" fill="#37474F"/>
<path d="M318.606 311.366L286.732 404.817C285.475 407.53 286.732 409.925 289.444 410.11L338.69 414.159C340.203 414.176 341.69 413.76 342.974 412.961C344.259 412.161 345.288 411.012 345.941 409.647L377.828 316.182C379.072 313.456 377.828 311.075 375.103 310.89L325.856 306.841C324.342 306.825 322.855 307.243 321.57 308.044C320.285 308.846 319.257 309.999 318.606 311.366Z" fill="#455A64"/>
<path d="M331.757 316.83C331.669 317.654 331.339 318.434 330.809 319.071C330.278 319.707 329.571 320.172 328.776 320.407C327.981 320.642 327.135 320.637 326.343 320.391C325.552 320.145 324.851 319.671 324.329 319.027C323.807 318.383 323.487 317.599 323.41 316.774C323.334 315.949 323.503 315.12 323.897 314.391C324.291 313.662 324.892 313.066 325.625 312.678C326.357 312.29 327.188 312.129 328.013 312.213C329.121 312.329 330.138 312.881 330.84 313.747C331.542 314.613 331.872 315.722 331.757 316.83Z" fill="#263238"/>
<path d="M111.115 487.922C130.763 494.538 158.932 483.741 233.331 448.679C243.625 443.836 228.925 361.975 217.665 366.646C203.482 372.454 149.71 398.083 146.019 400.464C114.846 420.404 97.7913 483.397 111.115 487.922Z" fill="#F7A9A0"/>
<path d="M189.933 385.156C189.933 385.156 213.524 362.663 229.626 354.724C251.127 344.033 274.083 343.663 283.715 344.139C303.813 345.026 351.816 361.062 349.606 375.696C347.608 388.927 299.328 370.059 299.328 370.059C299.328 370.059 351.67 381.186 346.338 396.693C341.006 412.2 286.269 387.061 286.269 387.061C286.269 387.061 339.802 399.697 331.771 414.846C325.697 426.265 274.877 406.339 274.877 406.339C274.877 406.339 320.762 417.493 315.02 429.401C308.682 442.632 260.587 427.218 260.587 427.218C240.859 455.307 219.968 460.613 204.672 462.624C200.968 463.167 189.933 385.156 189.933 385.156Z" fill="#F7A9A0"/>
<path d="M281.466 364.965C287.658 366.05 293.943 367.109 299.99 368.736C306.036 370.364 312.096 372.216 317.997 374.399C332.472 379.771 340.688 385.394 340.146 385.103C327.285 378.196 305.6 372.017 299.5 370.39C293.4 368.763 287.446 366.831 281.387 365.19C281.241 365.151 281.32 364.939 281.466 364.965Z" fill="#263238"/>
<path d="M275.181 386.81C283.027 388.53 290.886 389.959 298.666 392.036C306.446 394.113 313.564 396.733 321.159 399.327C321.741 399.525 321.437 399.776 320.855 399.591C313.168 397.315 305.904 395.794 298.203 393.584C290.503 391.375 282.881 388.9 275.128 386.969C274.996 386.955 275.062 386.783 275.181 386.81Z" fill="#263238"/>
<path d="M266.422 404.579C278.555 406.603 290.238 410.864 301.722 415.323C302.291 415.548 301.868 415.826 301.273 415.627C289.603 411.843 280.487 408.773 266.342 405.042C266.118 404.95 266.144 404.539 266.422 404.579Z" fill="#263238"/>
<path d="M166.659 390.157C161.076 393.174 155.492 396.191 150.041 399.419C144.59 402.647 139.125 405.849 134.957 410.613C128.699 417.737 123.291 425.565 118.842 433.939C117.303 436.713 115.92 439.571 114.7 442.5C119.188 429.652 126.334 417.894 135.672 407.993C144.656 400.054 155.876 395.106 166.659 390.131V390.157Z" fill="#263238"/>
<path d="M239.974 111.463V183.043H229.932V200.416L212.572 183.043H74.3998V111.463H239.974Z" fill="white"/>
<path d="M240.209 111.49L240.011 147.372C239.922 159.307 239.865 171.215 239.839 183.096L240.209 182.726H229.77V183.11V200.482L230.497 200.178L213.165 182.779L213.032 182.633H212.834C172.148 182.633 114.778 182.408 74.6744 182.501L75.2831 183.11L75.164 111.529L74.6744 112.019C115.942 112.019 198.968 111.714 240.236 111.529L240.209 111.49ZM240.209 111.49C198.954 111.318 115.836 111.026 74.6479 111H74.1187V111.49L73.9996 183.07V183.679H74.6215C114.513 183.811 172.28 183.56 212.781 183.546L212.437 183.401L229.836 200.734L230.577 201.461V200.429V183.057L230.18 183.454H240.222H240.593C240.699 162.496 240.249 132.726 240.222 111.503L240.209 111.49Z" fill="#263238"/>
<path d="M127.999 126.692H87.1941V167.497H127.999V126.692Z" fill="#F22C1F"/>
<path d="M101.735 154.411V139.791L116.766 147.094L101.735 154.411Z" fill="white"/>
<path d="M214.981 126.692H140.701V130.079H214.981V126.692Z" fill="#A6A6A6"/>
<path d="M140.701 139.275C167.534 138.388 194.552 138.388 221.411 139.275C194.578 140.161 167.56 140.161 140.701 139.275Z" fill="#EBEBEB"/>
<path d="M140.701 148.299C168.963 147.412 197.436 147.412 225.711 148.299C197.436 149.185 168.976 149.185 140.701 148.299Z" fill="#EBEBEB"/>
<path d="M140.701 157.309C160.812 156.422 181.082 156.422 201.207 157.309C181.082 158.209 160.812 158.209 140.701 157.309Z" fill="#EBEBEB"/>
<path d="M140.701 166.319C160.812 165.433 181.082 165.433 201.207 166.319C181.082 167.219 160.812 167.219 140.701 166.319Z" fill="#EBEBEB"/>
<path d="M542.463 586.851C374.917 587.672 187.035 587.685 19.5422 586.851C187.048 586.031 374.957 586.044 542.463 586.851Z" fill="#263238"/>
</g>
</svg>
