<svg width="101" height="66" viewBox="0 0 101 66" fill="none" xmlns="http://www.w3.org/2000/svg">
<g id="Group">
<path id="Vector" d="M100.465 29.1248C101.985 44.7561 87.2951 62.4376 55.1899 65.5774C23.0847 68.7172 1.68717 53.8415 0.166848 38.2101C-1.35348 22.5788 6.96965 -12.8259 47.8321 4.80587C88.6945 22.4376 98.9443 13.4935 100.465 29.1248Z" fill="#FFF4E9"/>
<path id="Vector_2" d="M62.5205 56.331C62.5205 56.331 82.584 53.0461 83.3848 46.0407C84.1856 39.0353 67.3293 45.8657 67.3293 45.8657C67.3293 45.8657 74.8 33.1395 71.5017 29.1765C68.2034 25.2135 58.8158 39.1646 58.8158 39.1646C58.8158 39.1646 60.35 24.4499 55.908 23.8534C51.466 23.2569 47.3748 54.5136 47.3748 54.5136L62.5205 56.331Z" fill="#FFDACF"/>
<path id="Vector_3" d="M67.767 35.1956C68.9721 33.3463 70.1693 31.4904 71.3586 29.6279L71.5787 29.2858C71.5509 29.25 71.5251 29.2142 71.4954 29.1804C71.4657 29.1466 71.43 29.1049 71.3963 29.0691C70.2638 30.8375 69.1267 32.6019 67.985 34.3624C66.7864 36.2037 65.5687 38.0331 64.3319 39.8506C63.1029 41.6402 61.8462 43.4298 60.5499 45.1737C59.2535 46.9176 57.9453 48.5998 56.5697 50.2542C55.2178 51.8788 53.8164 53.4596 52.3516 54.9788L52.2307 55.1021L52.5677 55.1419C53.8482 53.8162 55.0817 52.4462 56.2684 51.0317C57.6559 49.3932 58.984 47.707 60.2744 45.9929C61.5852 44.2471 62.8578 42.4747 64.092 40.6758C65.3467 38.8643 66.5638 37.0369 67.767 35.1956Z" fill="#FFEBDE"/>
<path id="Vector_4" d="M83.3648 45.0306C83.3497 44.9413 83.3292 44.8529 83.3034 44.7661L77.4044 46.9634L70.7523 49.441L64.1298 51.8987L57.4836 54.3843L54.7601 55.4004L55.3449 55.47L56.7324 54.955L63.3865 52.4774L70.007 50.0097L76.6492 47.5241L83.2717 45.0584L83.3648 45.0306Z" fill="#FFEBDE"/>
<path id="Vector_5" d="M52.8752 53.8215C53.236 52.0199 53.5617 50.2124 53.8524 48.3989C54.1722 46.4463 54.4596 44.4876 54.7147 42.523C54.979 40.4789 55.2195 38.4314 55.4362 36.3806C55.6516 34.2888 55.8379 32.1949 55.9952 30.0991C56.1471 28.0589 56.2687 26.0181 56.3599 23.9766C56.2726 23.9428 56.1832 23.9149 56.0923 23.8931C56.0143 25.7012 55.9106 27.5068 55.7811 29.3096C55.6344 31.3869 55.458 33.4629 55.2518 35.5375C55.0457 37.6122 54.8125 39.6669 54.5521 41.7018C54.2984 43.6823 54.0156 45.6588 53.7038 47.6314C53.4144 49.4568 53.0946 51.2769 52.7444 53.0917C52.7008 53.3085 52.6592 53.5272 52.6156 53.7439C52.5819 53.9189 52.8415 53.9925 52.8752 53.8215Z" fill="#FFEBDE"/>
<path id="Vector_6" d="M35.1063 56.3687C35.1063 56.3687 16.8486 51.6123 16.0418 44.6169C15.2351 37.6214 32.0359 45.104 32.0359 45.104C32.0359 45.104 22.8248 33.207 26.1212 29.25C29.4175 25.2929 38.4602 39.7889 38.4602 39.7889C38.4602 39.7889 37.2709 24.5254 41.7188 23.9328C46.1668 23.3403 48.813 53.8871 48.813 53.8871L35.1063 56.3687Z" fill="#FFDACF"/>
<path id="Vector_7" d="M41.7008 28.9658C41.8633 30.8708 42.0615 32.7717 42.2815 34.6687C42.5075 36.6353 42.7573 38.5979 43.0189 40.5586C43.2726 42.4635 43.5369 44.3678 43.8118 46.2714C44.0576 47.9855 44.306 49.6976 44.5571 51.4076C44.5848 51.6065 44.6106 51.7874 44.6383 51.9783C44.6661 52.1692 44.9238 52.0758 44.9 51.9048C44.6582 50.2344 44.4124 48.5621 44.1725 46.8898C43.9003 45.0088 43.636 43.1263 43.3797 41.2426C43.1154 39.278 42.865 37.3127 42.6284 35.3468C42.4044 33.4399 42.1983 31.5309 42.0338 29.62C41.8792 27.898 41.7503 26.176 41.6809 24.45L41.6631 23.9529C41.5726 23.968 41.4832 23.9892 41.3955 24.0165C41.4451 25.6669 41.56 27.3194 41.7008 28.9658Z" fill="#FFEBDE"/>
<path id="Vector_8" d="M48.06 59.0951C56.5244 59.0951 63.3862 58.0784 63.3862 56.8243C63.3862 55.5701 56.5244 54.5535 48.06 54.5535C39.5956 54.5535 32.7339 55.5701 32.7339 56.8243C32.7339 58.0784 39.5956 59.0951 48.06 59.0951Z" fill="white"/>
<path id="Vector_9" d="M40.0403 48.9359C41.3446 50.4696 42.6838 51.9722 44.0582 53.4437L44.5735 53.9925C44.6944 54.1178 44.8847 53.9269 44.7717 53.7937C43.3921 52.3355 42.0469 50.8428 40.736 49.3157C39.4252 47.7885 38.1361 46.2196 36.8688 44.609C35.5989 42.989 34.3647 41.3399 33.1661 39.6617C31.9676 37.9834 30.7955 36.2653 29.6498 34.5075C28.508 32.7537 27.4033 30.9747 26.3356 29.1705C26.3177 29.1427 26.3019 29.1128 26.284 29.083C26.2305 29.1347 26.179 29.1904 26.1274 29.25L26.0938 29.2938C27.0373 30.8846 28.0105 32.4608 29.0135 34.0224C30.146 35.7802 31.3148 37.5128 32.5199 39.2202C33.7092 40.8985 34.9329 42.5502 36.1909 44.1755C37.4489 45.8007 38.7321 47.3875 40.0403 48.9359Z" fill="#FFEBDE"/>
<path id="Vector_10" d="M41.0987 53.4896L41.7449 53.593C41.9134 53.6188 41.9867 53.3583 41.8162 53.3325C40.068 53.0673 38.3329 52.7233 36.6111 52.3005C34.8892 51.8776 33.176 51.3838 31.4713 50.819C29.7534 50.2464 28.0666 49.6041 26.4108 48.8922C24.755 48.1804 23.1092 47.3929 21.4732 46.5299C19.836 45.6669 18.235 44.739 16.6704 43.7461L16.1115 43.3901C16.085 43.4827 16.0651 43.5771 16.052 43.6725C17.5836 44.6575 19.1521 45.5854 20.7577 46.4564C22.3632 47.3273 24.0111 48.1326 25.7012 48.8723C27.349 49.5988 29.0246 50.257 30.728 50.8469C32.4313 51.4368 34.1492 51.9518 35.8816 52.3919C37.5969 52.8294 39.3359 53.1953 41.0987 53.4896Z" fill="#FFEBDE"/>
<path id="Vector_11" d="M68.9004 7.12642L74.5258 5.96118L79.7429 32.024L73.8182 33.2509L68.9004 7.12642Z" fill="#FFC000"/>
<path id="Vector_12" d="M74.4753 33.1162C80.167 31.9369 83.5813 25.1533 82.1012 17.9647C80.6211 10.776 74.8072 5.90454 69.1155 7.08387C63.4238 8.2632 60.0095 15.0468 61.4896 22.2354C62.9697 29.424 68.7836 34.2955 74.4753 33.1162Z" fill="#FFC000"/>
<path id="Vector_13" d="M69.6678 14.957L62.1851 16.5041C62.1158 16.9873 62.0682 17.4784 62.0464 17.9795L69.9533 16.341L69.6678 14.957Z" fill="#FF8F00"/>
<path id="Vector_14" d="M70.2864 22.8372L70.0009 21.4453L62.5975 22.9784C62.7204 23.4437 62.8631 23.8951 63.0217 24.3365L70.2864 22.8372Z" fill="#FF8F00"/>
<path id="Vector_15" d="M67.9749 18.5898L62.0701 19.8128C62.1018 20.28 62.1533 20.7513 62.2286 21.2266L68.2604 19.9758L67.9749 18.5898Z" fill="#FF8F00"/>
<path id="Vector_16" d="M71.3586 11.334L63.1266 13.0401C62.9143 13.5475 62.7329 14.0675 62.5835 14.5971L71.644 12.7199L71.3586 11.334Z" fill="#FF8F00"/>
<path id="Vector_17" d="M64.2225 10.9682L73.3405 9.08114L73.0551 7.68921L65.6814 9.21834C65.134 9.74745 64.6449 10.3341 64.2225 10.9682Z" fill="#FF8F00"/>
<path id="Vector_18" d="M76.1255 29.9004L68.4545 31.4912C69.0897 31.9051 69.7675 32.2491 70.4763 32.5172L76.4109 31.2883L76.1255 29.9004Z" fill="#FF8F00"/>
<path id="Vector_19" d="M73.751 27.1721L65.5568 28.8703C65.9072 29.2965 66.2824 29.7016 66.6806 30.0832L74.0365 28.5581L73.751 27.1721Z" fill="#FF8F00"/>
<path id="Vector_20" d="M72.3634 25.6849L72.0779 24.293L63.735 26.0209C63.957 26.4703 64.1968 26.9038 64.4545 27.3174L72.3634 25.6849Z" fill="#FF8F00"/>
<path id="Vector_21" d="M79.743 32.0244C85.4347 30.8451 88.849 24.0615 87.3689 16.8729C85.8888 9.68425 80.0749 4.81275 74.3832 5.99208C68.6915 7.17141 65.2772 13.955 66.7573 21.1436C68.2374 28.3322 74.0513 33.2037 79.743 32.0244Z" fill="#FFC000"/>
<path id="Vector_22" d="M68.1175 10.8687C66.8925 13.0719 66.2741 15.816 66.4426 18.731L83.957 29.8048C85.7112 28.1643 86.9303 25.7981 87.4456 23.0918L68.1175 10.8687Z" fill="#FFD660"/>
<path id="Vector_23" d="M68.8552 9.70937L87.6521 21.5964C87.7679 20.2489 87.7153 18.8922 87.4955 17.5578L71.2933 7.31128C70.3486 7.96338 69.5237 8.77474 68.8552 9.70937Z" fill="#FFD660"/>
<path id="Vector_24" d="M79.2541 29.6505C83.9081 28.6862 86.6998 23.1397 85.4897 17.2621C84.2795 11.3845 79.5258 7.4015 74.8718 8.3658C70.2178 9.3301 67.4261 14.8766 68.6362 20.7542C69.8464 26.6318 74.6001 30.6148 79.2541 29.6505Z" fill="#F18800"/>
<path id="Vector_25" d="M69.5329 12.7617C68.4229 14.9968 68.0364 17.8343 68.637 20.7534C68.6667 20.8945 68.7004 21.0357 68.7341 21.1769L81.085 28.9876C83.2535 27.8422 84.8154 25.5794 85.4458 22.8234L69.5329 12.7617Z" fill="#FFA421"/>
<path id="Vector_26" d="M72.7142 9.20825C71.7261 9.81002 70.8785 10.6177 70.2285 11.5765L85.6894 21.3598C85.8331 20.0015 85.7662 18.6291 85.4912 17.2914L72.7142 9.20825Z" fill="#FFA421"/>
<path id="Vector_27" d="M75.059 8.33132C79.3702 8.08475 83.5426 11.9106 84.6665 17.359C85.8757 23.2349 83.0808 28.7827 78.4326 29.7471L78.2443 29.7789C78.5834 29.7615 78.9207 29.7183 79.2532 29.6497C83.9074 28.6853 86.6983 23.1394 85.4891 17.2615C84.2939 11.4612 79.6516 7.51008 75.059 8.33132Z" fill="#FF8F00"/>
<path id="Vector_28" d="M81.1878 20.2581C81.2988 21.2126 80.942 22.1299 80.1174 23.0102C79.3642 23.7817 78.6374 24.2066 77.937 24.2848L78.1352 26.2096L77.386 26.2911L77.1759 24.3663C76.6411 24.4261 76.101 24.418 75.5683 24.3424C74.9647 24.2669 74.3778 24.0908 73.8319 23.8215L73.5703 21.4174L74.494 21.316C74.5286 21.9454 74.7342 22.5533 75.0886 23.0738C75.4243 23.494 76.0903 23.6332 77.0867 23.4914L76.5832 18.8662C75.7416 18.8882 74.923 18.5898 74.2918 18.0311C73.9662 17.7663 73.6967 17.4388 73.4993 17.068C73.3018 16.6971 73.1804 16.2903 73.1421 15.8716C73.0307 15.0167 73.253 14.1518 73.7626 13.4576C74.2586 12.7617 75.0076 12.2896 75.8478 12.1432L75.7764 11.489L76.5257 11.4075L76.5971 12.0617C76.8051 12.0393 77.0143 12.0306 77.2234 12.0358C77.4507 12.0358 77.7025 12.0478 77.9786 12.0716C78.4909 12.1157 78.9976 12.211 79.491 12.356L79.7309 14.5632L78.9677 14.6467C78.9856 14.3299 78.9151 14.0144 78.7642 13.7355C78.6133 13.4566 78.388 13.2254 78.1134 13.0678C77.6836 12.8079 77.1714 12.7212 76.6803 12.8252L77.1342 17.001C77.6906 16.9387 78.3513 17.0865 79.1164 17.4445C79.6873 17.6754 80.1831 18.0607 80.5488 18.5574C80.9145 19.0541 81.1357 19.6429 81.1878 20.2581ZM76.3731 16.9414L75.9311 12.8829C75.4963 12.9386 75.086 13.2037 74.7001 13.6783C74.5208 13.8789 74.385 14.1147 74.3014 14.3708C74.2178 14.6268 74.1882 14.8975 74.2145 15.1657C74.2388 15.4251 74.3171 15.6766 74.4445 15.9037C74.5718 16.1308 74.7454 16.3285 74.9538 16.484C75.3485 16.8178 75.8584 16.9821 76.3731 16.9414ZM79.8201 20.8328C79.7258 20.2754 79.4266 19.7738 78.9816 19.427C78.7599 19.233 78.4996 19.0886 78.218 19.0032C77.9364 18.9179 77.64 18.8935 77.3483 18.9318L77.8359 23.4099C78.1402 23.376 78.4339 23.2778 78.6976 23.1219C78.9614 22.9659 79.1892 22.7557 79.3662 22.5051C79.56 22.2772 79.7013 22.009 79.7797 21.7199C79.8582 21.4308 79.872 21.1279 79.8201 20.8328Z" fill="#FF8F00"/>
<path id="Vector_29" d="M81.7333 20.1986C81.847 21.153 81.4909 22.0697 80.665 22.9486C79.9117 23.7228 79.1849 24.1483 78.4846 24.2252L78.6947 26.15L77.9434 26.2316L77.7353 24.3067C77.2006 24.3665 76.6605 24.3585 76.1278 24.2829C75.524 24.2079 74.937 24.0318 74.3914 23.7619L74.1297 21.3559L75.0515 21.2564C75.0861 21.8858 75.2917 22.4937 75.6461 23.0142C75.9831 23.4345 76.6497 23.5737 77.6461 23.4318L77.1426 18.8066C76.3005 18.8289 75.4811 18.5305 74.8493 17.9715C74.5256 17.7054 74.2578 17.3776 74.0615 17.0068C73.8651 16.6361 73.7441 16.23 73.7056 15.812C73.5952 14.9572 73.8174 14.0927 74.326 13.398C74.8225 12.7027 75.5713 12.2307 76.4112 12.0836L76.3399 11.4294L77.0891 11.3479L77.1605 12.0021C77.3685 11.9798 77.5777 11.9711 77.7868 11.9763C78.0148 11.9763 78.2665 11.9922 78.544 12.012C79.0557 12.0563 79.5616 12.1515 80.0544 12.2964L80.2784 14.5036L79.5173 14.5871C79.5342 14.2702 79.4632 13.9548 79.312 13.6761C79.1608 13.3973 78.9354 13.1661 78.661 13.0083C78.2311 12.7483 77.719 12.6616 77.2279 12.7657L77.6818 16.9415C78.2381 16.8792 78.8988 17.027 79.664 17.3849C80.2345 17.6161 80.7299 18.0015 81.0952 18.4982C81.4605 18.9949 81.6814 19.5835 81.7333 20.1986ZM76.9187 16.8818L76.4786 12.8233C76.0445 12.879 75.6322 13.1455 75.2457 13.6187C75.066 13.8203 74.93 14.0571 74.8464 14.3142C74.7628 14.5713 74.7334 14.843 74.7601 15.1121C74.784 15.3716 74.8624 15.623 74.9902 15.8499C75.118 16.0768 75.2922 16.274 75.5014 16.4284C75.8955 16.7616 76.4051 16.9247 76.9187 16.8818ZM80.3656 20.7732C80.2722 20.216 79.9737 19.7143 79.5292 19.3674C79.308 19.1739 79.0484 19.0297 78.7675 18.9443C78.4866 18.859 78.1909 18.8344 77.8998 18.8723L78.3874 23.3503C78.6919 23.3159 78.9856 23.2176 79.2497 23.0617C79.5137 22.9058 79.742 22.6959 79.9197 22.4455C80.1123 22.217 80.2521 21.9486 80.3292 21.6595C80.4063 21.3704 80.4188 21.0677 80.3656 20.7732Z" fill="#FFC000"/>
<path id="Vector_30" d="M77.6835 16.9355V16.9156L76.8688 16.4006L76.9204 16.8818C76.4062 16.9236 75.8966 16.7591 75.5031 16.4245C75.294 16.2707 75.1197 16.0742 74.9916 15.848C74.8635 15.6219 74.7845 15.3711 74.7598 15.1121C74.7598 15.0982 74.7598 15.0863 74.7598 15.0723L73.7965 14.4639C73.6754 14.9037 73.6404 15.3629 73.6934 15.816C73.7318 16.2341 73.8526 16.6403 74.049 17.011C74.2453 17.3818 74.5132 17.7096 74.8371 17.9755C75.4689 18.5346 76.2883 18.8329 77.1305 18.8107L77.6339 23.4358C76.6376 23.5763 75.9709 23.4372 75.6339 23.0183C75.2795 22.4977 75.0739 21.8898 75.0393 21.2604L74.1176 21.3599L74.3772 23.746L74.4387 23.7838C74.9673 24.0387 75.5336 24.2059 76.1156 24.2789C76.6483 24.3545 77.1884 24.3626 77.7231 24.3028L77.9035 25.9771L78.2464 26.1938L78.6825 26.1461L78.4724 24.2213C79.1781 24.1444 79.9048 23.7189 80.6528 22.9447C81.4774 22.0658 81.8335 21.1491 81.7212 20.1946C81.6899 19.9096 81.6274 19.6288 81.5348 19.3575L77.7013 16.9335L77.6835 16.9355ZM80.3654 20.7733C80.4173 21.0682 80.4037 21.371 80.3256 21.6601C80.2474 21.9491 80.1067 22.2173 79.9134 22.4456C79.7357 22.6959 79.5074 22.9058 79.2434 23.0617C78.9794 23.2176 78.6856 23.316 78.3812 23.3503L77.8996 18.8723C78.1916 18.8332 78.4885 18.8571 78.7706 18.9425C79.0526 19.0279 79.3132 19.1728 79.5348 19.3674C79.9772 19.7154 80.2735 20.217 80.3654 20.7733Z" fill="#FFD660"/>
<path id="Vector_31" d="M78.7658 12.0379C78.6865 12.0379 78.6073 12.018 78.5299 12.012C78.2524 11.9922 78.0007 11.9802 77.7728 11.9763C77.5636 11.9711 77.3544 11.9798 77.1464 12.0021L77.075 11.3479L76.3258 11.4294L76.3971 12.0836C75.626 12.2198 74.9299 12.6308 74.4368 13.2409L75.1781 13.7082L75.2455 13.6207C75.632 13.1455 76.0384 12.879 76.4784 12.8253L76.6766 14.6587L77.4913 15.1737L77.2296 12.7677C77.7207 12.6636 78.2329 12.7503 78.6628 13.0103C78.9372 13.1681 79.1626 13.3993 79.3137 13.6781C79.4649 13.9568 79.536 14.2722 79.5191 14.5891L80.2802 14.5056L80.1038 12.887L78.7658 12.0379Z" fill="#FFD660"/>
<path id="Vector_32" d="M88.0145 7.3471L88.3534 2.55688L88.9659 7.31926L91.8638 7.71099L88.9937 8.27174L88.6488 12.8313L88.0422 8.29958L85.1443 7.90586L88.0145 7.3471Z" fill="#FFC000"/>
<path id="Vector_33" d="M92.7361 12.533L92.9581 9.37134L93.3625 12.5151L95.2753 12.7736L93.3803 13.1435L93.1544 16.152L92.754 13.1614L90.8412 12.9029L92.7361 12.533Z" fill="#FFC000"/>
<path id="Vector_34" d="M7.30675 13.5531C7.30675 13.5531 -0.606069 9.39922 0.369158 8.38311C1.34439 7.367 5.35233 9.41115 5.35233 9.41115C5.35233 9.41115 4.33548 4.8854 5.93509 4.86551C7.5347 4.84563 7.30675 13.5531 7.30675 13.5531Z" fill="#FFC000"/>
<path id="Vector_35" d="M10.6902 8.37905C10.6902 8.37905 8.86861 5.82188 9.38595 5.60514C9.9033 5.3884 10.5059 6.26929 10.5059 6.26929C10.5059 6.26929 10.4861 5.0265 11.0728 5.27505C11.6595 5.52361 10.6902 8.37905 10.6902 8.37905Z" fill="#FFC000"/>
<path id="Vector_36" d="M22.7517 32.692C30.3075 32.692 36.4327 26.5473 36.4327 18.9676C36.4327 11.3878 30.3075 5.24316 22.7517 5.24316C15.196 5.24316 9.0708 11.3878 9.0708 18.9676C9.0708 26.5473 15.196 32.692 22.7517 32.692Z" fill="#FFC000"/>
<path id="Vector_37" d="M11.0073 20.2284C10.6746 17.1041 11.5923 13.9752 13.5586 11.5295C15.5248 9.0838 18.3788 7.52149 21.493 7.18605C27.9786 6.49008 33.5842 12.0677 34.276 18.574C34.9678 25.0803 31.0827 29.8466 24.5971 30.5446C18.1114 31.2425 11.6951 26.7347 11.0073 20.2284Z" fill="#FF8F00"/>
<path id="Vector_38" d="M24.2669 29.6342C30.1399 28.7946 34.2224 23.3379 33.3855 17.4463C32.5486 11.5547 27.1092 7.45915 21.2362 8.2987C15.3633 9.13826 11.2807 14.595 12.1176 20.4866C12.9545 26.3782 18.3939 30.4737 24.2669 29.6342Z" fill="white"/>
<path id="Vector_39" d="M22.9338 20.8428C22.8974 20.8425 22.862 20.8307 22.8327 20.809L19.6236 18.2816C19.6035 18.2699 19.5861 18.2541 19.5726 18.2351C19.5591 18.2161 19.5499 18.1944 19.5454 18.1715C19.541 18.1486 19.5416 18.1251 19.547 18.1024C19.5524 18.0797 19.5626 18.0585 19.5769 18.0401C19.5912 18.0218 19.6093 18.0067 19.6299 17.9959C19.6505 17.9851 19.6732 17.9789 19.6964 17.9777C19.7196 17.9765 19.7428 17.9802 19.7644 17.9887C19.7861 17.9973 19.8056 18.0104 19.8218 18.0271L22.9021 20.453L27.7505 14.3902C27.7621 14.37 27.7779 14.3526 27.7969 14.3391C27.8158 14.3255 27.8374 14.3163 27.8602 14.3118C27.883 14.3074 27.9065 14.3079 27.9291 14.3134C27.9517 14.3188 27.9729 14.329 27.9912 14.3434C28.0095 14.3578 28.0246 14.3759 28.0353 14.3966C28.046 14.4172 28.0522 14.44 28.0535 14.4633C28.0547 14.4865 28.0509 14.5098 28.0424 14.5315C28.0339 14.5532 28.0209 14.5728 28.0042 14.589L23.0706 20.7772C23.0552 20.7988 23.0346 20.8162 23.0106 20.8277C22.9867 20.8391 22.9603 20.8443 22.9338 20.8428Z" fill="#522D34"/>
<path id="Vector_40" d="M21.9801 11.853C21.9535 11.8536 21.9277 11.8441 21.9078 11.8264C21.888 11.8087 21.8755 11.7841 21.873 11.7575L21.6411 9.58415C21.6392 9.56999 21.6401 9.55559 21.6439 9.54181C21.6477 9.52803 21.6543 9.51517 21.6632 9.50401C21.6721 9.49285 21.6831 9.48363 21.6957 9.47689C21.7083 9.47016 21.7221 9.46606 21.7363 9.46484C21.7503 9.46319 21.7646 9.46435 21.7782 9.46826C21.7918 9.47218 21.8045 9.47876 21.8156 9.48764C21.8267 9.49652 21.8359 9.50751 21.8426 9.51998C21.8494 9.53245 21.8537 9.54616 21.8552 9.56029L22.0871 11.7317C22.0887 11.7458 22.0876 11.7601 22.0837 11.7738C22.0798 11.7874 22.0732 11.8002 22.0644 11.8113C22.0555 11.8224 22.0446 11.8316 22.0321 11.8384C22.0197 11.8452 22.006 11.8495 21.992 11.851L21.9801 11.853Z" fill="#522D34"/>
<path id="Vector_41" d="M23.7863 28.6972C23.7593 28.6974 23.7332 28.6875 23.7131 28.6695C23.693 28.6515 23.6802 28.6267 23.6772 28.5998L23.4453 26.4284C23.4426 26.3997 23.4512 26.371 23.4694 26.3487C23.4876 26.3263 23.5139 26.3121 23.5425 26.3091C23.5565 26.3074 23.5708 26.3086 23.5844 26.3125C23.598 26.3164 23.6107 26.323 23.6218 26.3319C23.6329 26.3408 23.6421 26.3518 23.6489 26.3642C23.6557 26.3767 23.6599 26.3904 23.6614 26.4045L23.8933 28.5779C23.8961 28.6066 23.8874 28.6353 23.8692 28.6576C23.851 28.68 23.8248 28.6942 23.7962 28.6972H23.7863Z" fill="#522D34"/>
<path id="Vector_42" d="M30.076 18.403C30.0476 18.4046 30.0198 18.3948 29.9986 18.3757C29.9774 18.3567 29.9646 18.33 29.9631 18.3016C29.9615 18.2731 29.9712 18.2451 29.9902 18.2239C30.0092 18.2026 30.0358 18.1898 30.0641 18.1882L32.2307 17.9556C32.2447 17.9539 32.259 17.9551 32.2726 17.959C32.2862 17.9629 32.2989 17.9695 32.31 17.9784C32.3211 17.9872 32.3303 17.9982 32.3371 18.0107C32.3438 18.0232 32.3481 18.0369 32.3496 18.051C32.3524 18.0797 32.3437 18.1084 32.3255 18.1307C32.3073 18.1531 32.2811 18.1673 32.2525 18.1703L30.0859 18.403H30.076Z" fill="#522D34"/>
<path id="Vector_43" d="M13.2807 20.2065C13.2539 20.2066 13.2281 20.1967 13.2083 20.1786C13.1885 20.1606 13.1761 20.1358 13.1736 20.1091C13.1708 20.0806 13.1792 20.0523 13.197 20.03C13.2148 20.0077 13.2405 19.9932 13.2688 19.9898L15.4353 19.7571C15.4639 19.7543 15.4925 19.763 15.5147 19.7813C15.537 19.7995 15.5512 19.8258 15.5542 19.8545C15.5559 19.8687 15.5547 19.883 15.5508 19.8966C15.5469 19.9103 15.5403 19.923 15.5315 19.9341C15.5226 19.9452 15.5117 19.9545 15.4992 19.9613C15.4868 19.9681 15.4732 19.9724 15.4591 19.9738L13.2926 20.2065H13.2807Z" fill="#522D34"/>
<path id="Vector_44" d="M11.6517 21.9285C12.0481 23.2866 12.6051 24.3147 12.0005 24.4936C11.396 24.6726 10.5892 23.7102 10.1968 22.3501C9.80429 20.99 9.97674 19.7472 10.5813 19.5662C11.1859 19.3853 11.2592 20.5684 11.6517 21.9285Z" fill="white"/>
<path id="Vector_45" d="M32.1108 27.2974C32.4022 28.0093 30.7233 29.8824 27.9483 31.0258C25.1732 32.1692 22.3724 32.1334 22.081 31.4235C21.7897 30.7136 23.7025 30.6082 26.4716 29.4688C29.2406 28.3294 31.8175 26.5836 32.1108 27.2974Z" fill="#FF8F00"/>
<path id="Vector_46" d="M33.983 14.0285C34.421 13.9132 35.3546 14.9154 35.7669 16.4584C36.1792 18.0015 35.9017 19.5028 35.4617 19.6181C35.0216 19.7334 35.1386 18.7074 34.7302 17.1644C34.3219 15.6213 33.5429 14.1459 33.983 14.0285Z" fill="#FF8F00"/>
<path id="Vector_47" d="M46.8751 39.1726L40.8335 56.3112C42.7126 58.2798 54.2726 58.063 55.2577 56.3112L49.2042 39.1726H46.8751Z" fill="#71659C"/>
<path id="Vector_48" d="M52.8909 57.3173L49.0474 40.3179L47.8938 40.3338L47.3269 57.6991C49.1896 57.7568 51.0534 57.6289 52.8909 57.3173Z" fill="#5F5583"/>
<path id="Vector_49" d="M44.599 57.5101L48.0083 38.5601L42.8904 57.2198C43.4543 57.3475 44.0247 57.4444 44.599 57.5101Z" fill="#E0D0FF"/>
<path id="Vector_50" d="M48.1197 42.7637C48.4917 42.7554 48.8583 42.6733 49.1985 42.5221C49.5387 42.3709 49.8457 42.1537 50.1018 41.8829L49.2614 39.4291L46.857 39.3118L46.0186 41.7576C46.2793 42.0632 46.6009 42.3107 46.9628 42.484C47.3247 42.6573 47.7188 42.7526 48.1197 42.7637Z" fill="#5F5583"/>
<path id="Vector_51" d="M21.0449 38.9519H75.0313V39.0951C75.0313 39.4236 74.9012 39.7387 74.6696 39.971C74.438 40.2034 74.1239 40.3339 73.7964 40.3339H22.2798C21.9523 40.3339 21.6382 40.2034 21.4066 39.971C21.175 39.7387 21.0449 39.4236 21.0449 39.0951V38.9519Z" fill="#71659C"/>
<path id="Vector_52" d="M54.6685 40.3339H41.5069L40.7161 38.9539H55.3623L54.6685 40.3339Z" fill="#5F5583"/>
<path id="Vector_53" d="M48.0047 42.1314C49.2691 42.1314 50.2941 41.1032 50.2941 39.8348C50.2941 38.5663 49.2691 37.5381 48.0047 37.5381C46.7403 37.5381 45.7153 38.5663 45.7153 39.8348C45.7153 41.1032 46.7403 42.1314 48.0047 42.1314Z" fill="#E0D0FF"/>
<path id="Vector_54" d="M48.0047 41.4591C48.8991 41.4591 49.6241 40.7318 49.6241 39.8345C49.6241 38.9373 48.8991 38.21 48.0047 38.21C47.1103 38.21 46.3853 38.9373 46.3853 39.8345C46.3853 40.7318 47.1103 41.4591 48.0047 41.4591Z" fill="#5F5583"/>
<path id="Vector_55" d="M48.0045 41.4592C48.7445 41.4592 49.3444 40.8102 49.3444 40.0097C49.3444 39.2091 48.7445 38.5601 48.0045 38.5601C47.2645 38.5601 46.6646 39.2091 46.6646 40.0097C46.6646 40.8102 47.2645 41.4592 48.0045 41.4592Z" fill="#71659C"/>
<path id="Vector_56" d="M48.0047 37.5381C47.3975 37.5381 46.8152 37.7801 46.3859 38.2108C45.9565 38.6415 45.7153 39.2256 45.7153 39.8348C45.7152 39.9972 45.7324 40.1592 45.7669 40.318C46.5089 40.0578 47.2849 39.9077 48.0701 39.8725C48.8174 39.825 49.5651 39.958 50.2505 40.2603C50.2768 40.12 50.29 39.9775 50.2902 39.8348C50.2902 39.2263 50.0495 38.6428 49.621 38.2122C49.1925 37.7816 48.6112 37.5391 48.0047 37.5381Z" fill="#A594E4"/>
<path id="Vector_57" d="M48.0047 38.21C47.5752 38.21 47.1633 38.3811 46.8596 38.6858C46.5559 38.9905 46.3853 39.4037 46.3853 39.8345C46.3857 39.9299 46.3943 40.025 46.411 40.1189C46.9552 39.9851 47.5106 39.9025 48.0701 39.8723C48.5892 39.8399 49.1102 39.893 49.6122 40.0294C49.6204 39.9634 49.6243 39.897 49.6241 39.8306C49.6231 39.4004 49.452 38.9882 49.1484 38.6844C48.8448 38.3806 48.4335 38.21 48.0047 38.21Z" fill="#5F5583"/>
<path id="Vector_58" d="M10.2743 34.9968H33.5251V35.3388C33.5251 36.1299 33.2119 36.8886 32.6543 37.4479C32.0967 38.0073 31.3404 38.3215 30.5519 38.3215H13.2416C12.453 38.3215 11.6967 38.0073 11.1392 37.4479C10.5816 36.8886 10.2683 36.1299 10.2683 35.3388V34.9968H10.2743Z" fill="#E0D0FF"/>
<path id="Vector_59" d="M62.5558 34.9968H85.8066V35.3388C85.8066 36.1299 85.4933 36.8886 84.9358 37.4479C84.3782 38.0073 83.6219 38.3215 82.8333 38.3215H65.5231C64.7345 38.3215 63.9782 38.0073 63.4207 37.4479C62.8631 36.8886 62.5498 36.1299 62.5498 35.3388V34.9968H62.5558Z" fill="#E0D0FF"/>
<path id="Vector_60" d="M22.7496 38.3215H21.0449V38.9519H22.7496V38.3215Z" fill="#5F5583"/>
<path id="Vector_61" d="M75.0339 38.3215H73.3292V38.9519H75.0339V38.3215Z" fill="#5F5583"/>
<path id="Vector_62" d="M30.1351 35.0007H28.6821L27.6316 38.3215H29.0825L30.1351 35.0007Z" fill="#AE9DE4"/>
<path id="Vector_63" d="M22.927 38.3215H26.8656L27.9181 35.0007H23.9776L22.927 38.3215Z" fill="#AE9DE4"/>
<path id="Vector_64" d="M18.418 35.0007H16.9671L15.9146 38.3215H17.3655L18.418 35.0007Z" fill="white"/>
<path id="Vector_65" d="M13.3965 38.3215H14.8474L15.898 35.0007H14.447L13.3965 38.3215Z" fill="white"/>
<path id="Vector_66" d="M82.5504 35.0007H81.0994L80.0469 38.3215H81.4978L82.5504 35.0007Z" fill="#AE9DE4"/>
<path id="Vector_67" d="M75.3405 38.3215H79.281L80.3335 35.0007H76.393L75.3405 38.3215Z" fill="#AE9DE4"/>
<path id="Vector_68" d="M70.8334 35.0007H69.3825L68.33 38.3215H69.7829L70.8334 35.0007Z" fill="white"/>
<path id="Vector_69" d="M65.8105 38.3215H67.2615L68.314 35.0007H66.8631L65.8105 38.3215Z" fill="white"/>
<path id="Vector_70" d="M46.9776 40.1668C47.0351 40.4173 47.0074 40.638 46.9182 40.6579C46.829 40.6778 46.7081 40.4929 46.6506 40.2423C46.5931 39.9918 46.6208 39.7711 46.712 39.7512C46.8032 39.7313 46.9221 39.9222 46.9776 40.1668Z" fill="#E0D0FF"/>
<path id="Vector_71" d="M30.9602 40.3339L31.7551 38.9539H24.4072L23.6123 40.3339H30.9602Z" fill="#5F5583"/>
<path id="Vector_72" d="M35.6314 38.9539H32.9238L32.1289 40.3339H34.8366L35.6314 38.9539Z" fill="#5F5583"/>
<path id="Vector_73" d="M66.5356 40.3339L67.3305 38.9539H59.9826L59.1877 40.3339H66.5356Z" fill="#5F5583"/>
<path id="Vector_74" d="M71.2052 38.9539H68.4996L67.7047 40.3339H70.4104L71.2052 38.9539Z" fill="#5F5583"/>
<path id="Vector_75" d="M34.0062 39.3357H25.9229C25.8091 39.3357 25.7168 39.4283 25.7168 39.5425V39.5922C25.7168 39.7064 25.8091 39.799 25.9229 39.799H34.0062C34.1201 39.799 34.2124 39.7064 34.2124 39.5922V39.5425C34.2124 39.4283 34.1201 39.3357 34.0062 39.3357Z" fill="#E0D0FF"/>
<path id="Vector_76" d="M36.6976 39.3357H35.3795C35.2656 39.3357 35.1733 39.4283 35.1733 39.5425V39.5922C35.1733 39.7064 35.2656 39.799 35.3795 39.799H36.6976C36.8115 39.799 36.9038 39.7064 36.9038 39.5922V39.5425C36.9038 39.4283 36.8115 39.3357 36.6976 39.3357Z" fill="#E0D0FF"/>
<path id="Vector_77" d="M62.5178 39.3357H57.0907C56.9768 39.3357 56.8845 39.4283 56.8845 39.5425V39.5922C56.8845 39.7064 56.9768 39.799 57.0907 39.799H62.5178C62.6317 39.799 62.724 39.7064 62.724 39.5922V39.5425C62.724 39.4283 62.6317 39.3357 62.5178 39.3357Z" fill="#E0D0FF"/>
<path id="Vector_78" d="M64.3673 39.3357H63.5903C63.4765 39.3357 63.3842 39.4283 63.3842 39.5425V39.5922C63.3842 39.7064 63.4765 39.799 63.5903 39.799H64.3673C64.4812 39.799 64.5735 39.7064 64.5735 39.5922V39.5425C64.5735 39.4283 64.4812 39.3357 64.3673 39.3357Z" fill="#E0D0FF"/>
</g>
</svg>
