<svg width="165" height="49" viewBox="0 0 165 49" fill="none" xmlns="http://www.w3.org/2000/svg">
<rect width="165" height="49" fill="#F5F5F5"/>
<g id="Home" clip-path="url(#clip0_1_3)">
<rect width="1440" height="4627" transform="translate(-276 -4042)" fill="white"/>
<g id="Group 1510">
<g id="Group 197">
<g id="Group 195">
<g id="V">
<path d="M2.93765 37.8522C2.78804 37.7726 2.72694 37.6516 2.75435 37.489C2.79326 37.3325 2.84332 37.1967 2.90452 37.0816C2.98408 36.932 3.11995 36.7459 3.31213 36.5234C3.50431 36.3008 3.72294 36.0701 3.96801 35.8313C4.21308 35.5926 4.44321 35.368 4.65841 35.1577C4.88512 34.9535 5.06703 34.7918 5.20413 34.6728C5.44893 34.2125 5.68492 33.7548 5.91209 33.2999C6.13926 32.8449 6.37525 32.3873 6.62005 31.9269C6.76693 31.6507 6.93669 31.276 7.12934 30.8027C7.33349 30.3355 7.52724 29.8185 7.71057 29.2516C7.90002 28.6733 8.05764 28.0854 8.18343 27.4879C8.30922 26.8905 8.37601 26.3207 8.38378 25.7786C8.39768 25.225 8.3254 24.7363 8.16694 24.3125C8.00848 23.8887 7.73936 23.5758 7.35957 23.3738C6.91074 23.1351 6.42336 23.0383 5.89743 23.0834C5.38913 23.1232 4.8752 23.2706 4.35566 23.5258C3.84224 23.7695 3.34767 24.0749 2.87197 24.4419C2.40778 24.8151 1.98962 25.2128 1.61749 25.635C1.26299 26.0517 0.984765 26.45 0.782805 26.8298C0.648164 27.083 0.54193 27.366 0.464101 27.679C0.39778 27.998 0.398914 28.3013 0.467501 28.5887C0.553718 28.8708 0.752191 29.0944 1.06292 29.2597C1.33913 29.4065 1.62903 29.4721 1.93265 29.4564C2.24777 29.4468 2.54905 29.4078 2.83649 29.3392C3.13006 29.2591 3.38261 29.1867 3.59416 29.122C3.8057 29.0574 3.94024 29.0403 3.99778 29.0709C4.00317 29.0886 3.99363 29.1204 3.96915 29.1664C3.88959 29.316 3.71147 29.4428 3.4348 29.5466C3.16426 29.639 2.85343 29.7099 2.50232 29.7594C2.15733 29.7974 1.8334 29.8096 1.53052 29.7962C1.23376 29.7712 1.01057 29.719 0.860961 29.6394C0.446654 29.4191 0.167986 29.1381 0.0249588 28.7963C-0.111949 28.443 -0.154959 28.0658 -0.104073 27.6647C-0.0416779 27.2698 0.0874398 26.8882 0.28328 26.5199C0.515841 26.0826 0.833118 25.6386 1.23511 25.188C1.64862 24.7436 2.11966 24.3298 2.64825 23.9465C3.18296 23.5518 3.73616 23.2333 4.30786 22.9911C4.88568 22.7373 5.46363 22.5944 6.04171 22.5623C6.6198 22.5301 7.16203 22.6487 7.6684 22.918C8.22081 23.2117 8.60392 23.6295 8.81773 24.1714C9.03766 24.7017 9.12734 25.3104 9.08677 25.9974C9.05232 26.673 8.92666 27.3812 8.7098 28.1221C8.51057 28.8577 8.26494 29.5833 7.97291 30.299C7.687 31.0033 7.39374 31.6519 7.09313 32.245C6.81015 32.8326 6.56767 33.3163 6.36571 33.6961C6.77629 33.3682 7.27538 32.9988 7.86297 32.5879C8.45668 32.1655 9.10598 31.7357 9.81085 31.2986C10.5157 30.8614 11.2459 30.4599 12.0015 30.0941C12.7632 29.7167 13.5115 29.406 14.2466 29.162C14.9931 28.9242 15.6903 28.793 16.3381 28.7685C16.9921 28.7324 17.5666 28.846 18.0614 29.1091C18.2686 29.2193 18.3815 29.3679 18.4001 29.555C18.4363 29.7366 18.4025 29.9253 18.2984 30.1209C18.2678 30.1785 18.1955 30.2729 18.0814 30.4041C17.9788 30.5415 17.8651 30.6582 17.7402 30.7542C17.633 30.8448 17.5391 30.8687 17.4585 30.8258C17.4125 30.8013 17.3872 30.7657 17.3825 30.719C17.384 30.6607 17.3969 30.6085 17.4214 30.5625C17.4704 30.4704 17.5393 30.3964 17.6282 30.3403C17.717 30.2842 17.786 30.2101 17.8349 30.118C17.8716 30.049 17.8673 29.9877 17.822 29.934C17.7882 29.8865 17.7426 29.8475 17.685 29.8169C17.1787 29.5476 16.5866 29.4395 15.9089 29.4924C15.2311 29.5454 14.5305 29.6969 13.807 29.947C13.1011 30.1916 12.4264 30.475 11.7827 30.797C11.139 31.1191 10.5892 31.4172 10.1334 31.6915C9.8376 31.859 9.47023 32.0918 9.03125 32.3898C8.59838 32.6763 8.15022 32.9916 7.68676 33.3357C7.22941 33.6682 6.80121 34.0015 6.40214 34.3355C6.01458 34.6757 5.71822 34.9831 5.51307 35.2579C5.30179 35.5441 5.10472 35.8453 4.92185 36.1614C4.75049 36.4837 4.55918 36.7879 4.3479 37.0742C4.27519 37.1831 4.15535 37.3113 3.98838 37.4587C3.8268 37.6238 3.65444 37.7536 3.4713 37.8481C3.28816 37.9426 3.11028 37.944 2.93765 37.8522Z" fill="#ECECEC"/>
<path d="M2.75435 37.489L2.55859 37.4403L2.55672 37.4478L2.55543 37.4554L2.75435 37.489ZM3.96801 35.8313L4.10877 35.9758L4.10877 35.9758L3.96801 35.8313ZM4.65841 35.1577L4.52329 35.0077L4.51741 35.0134L4.65841 35.1577ZM5.20413 34.6728L5.33636 34.8252L5.36464 34.8006L5.38223 34.7675L5.20413 34.6728ZM5.91209 33.2999L5.73162 33.2098L5.91209 33.2999ZM7.12934 30.8027L6.94444 30.7219L6.9425 30.7266L7.12934 30.8027ZM7.71057 29.2516L7.51887 29.1888L7.51864 29.1895L7.71057 29.2516ZM8.18343 27.4879L7.98604 27.4464L8.18343 27.4879ZM8.38378 25.7786L8.18212 25.7735L8.18209 25.7757L8.38378 25.7786ZM5.89743 23.0834L5.91314 23.2846L5.91466 23.2844L5.89743 23.0834ZM4.35566 23.5258L4.44216 23.7081L4.44459 23.7069L4.35566 23.5258ZM2.87197 24.4419L2.74872 24.2822L2.74558 24.2847L2.87197 24.4419ZM1.61749 25.635L1.46615 25.5016L1.46384 25.5043L1.61749 25.635ZM0.4641 27.679L0.2682 27.6302L0.266606 27.6379L0.4641 27.679ZM0.467502 28.5887L0.270911 28.6356L0.274596 28.6477L0.467502 28.5887ZM1.93265 29.4564L1.92651 29.2548L1.92223 29.255L1.93265 29.4564ZM2.83649 29.3392L2.88334 29.5355L2.88959 29.5338L2.83649 29.3392ZM3.99778 29.0709L4.19069 29.012L4.16626 28.9321L4.09249 28.8928L3.99778 29.0709ZM3.4348 29.5466L3.49999 29.7376L3.50569 29.7355L3.4348 29.5466ZM2.50232 29.7594L2.52441 29.96L2.53048 29.9591L2.50232 29.7594ZM1.53052 29.7962L1.51361 29.9974L1.52158 29.9977L1.53052 29.7962ZM0.0249587 28.7963L-0.163196 28.8692L-0.161122 28.8741L0.0249587 28.7963ZM-0.104073 27.6647L-0.303411 27.6332L-0.304185 27.6393L-0.104073 27.6647ZM1.23511 25.188L1.0874 25.0506L1.0846 25.0538L1.23511 25.188ZM2.64825 23.9465L2.76666 24.1098L2.76806 24.1088L2.64825 23.9465ZM4.30786 22.9911L4.38656 23.1768L4.38896 23.1758L4.30786 22.9911ZM8.81773 24.1714L8.63007 24.2454L8.6314 24.2486L8.81773 24.1714ZM9.08677 25.9974L8.8854 25.9855L8.88531 25.9872L9.08677 25.9974ZM8.7098 28.1221L8.51617 28.0655L8.5151 28.0694L8.7098 28.1221ZM7.97291 30.299L7.78614 30.2228L7.78601 30.2232L7.97291 30.299ZM7.09313 32.245L6.91317 32.1537L6.91139 32.1574L7.09313 32.245ZM6.36571 33.6961L6.18761 33.6014L6.49159 33.8537L6.36571 33.6961ZM7.86297 32.5879L7.97858 32.7532L7.97991 32.7523L7.86297 32.5879ZM12.0015 30.0941L12.0894 30.2756L12.0911 30.2748L12.0015 30.0941ZM14.2466 29.162L14.1853 28.9698L14.183 28.9706L14.2466 29.162ZM16.3381 28.7685L16.3458 28.9701L16.3492 28.9699L16.3381 28.7685ZM18.4001 29.555L18.1994 29.5749L18.2003 29.5848L18.2023 29.5944L18.4001 29.555ZM18.0814 30.4041L17.9291 30.2718L17.9242 30.2774L17.9198 30.2834L18.0814 30.4041ZM17.7402 30.7542L17.6172 30.5941L17.61 30.6001L17.7402 30.7542ZM17.3825 30.719L17.1808 30.7139L17.1805 30.7264L17.1818 30.7389L17.3825 30.719ZM17.6282 30.3403L17.5205 30.1697L17.5205 30.1697L17.6282 30.3403ZM17.822 29.934L17.6577 30.051L17.6625 30.0578L17.668 30.0642L17.822 29.934ZM15.9089 29.4924L15.9246 29.6935L15.9089 29.4924ZM13.807 29.947L13.7411 29.7563L13.7409 29.7564L13.807 29.947ZM11.7827 30.797L11.8729 30.9774L11.7827 30.797ZM10.1334 31.6915L10.2328 31.8671L10.2374 31.8644L10.1334 31.6915ZM9.03125 32.3898L9.14259 32.558L9.14455 32.5567L9.03125 32.3898ZM7.68676 33.3357L7.80539 33.4988L7.807 33.4977L7.68676 33.3357ZM6.40214 34.3355L6.27264 34.1808L6.26908 34.1839L6.40214 34.3355ZM5.51307 35.2579L5.35144 35.1372L5.35077 35.1381L5.51307 35.2579ZM4.92185 36.1614L4.74714 36.0603L4.74375 36.0667L4.92185 36.1614ZM4.3479 37.0742L4.18542 36.9542L4.18011 36.9622L4.3479 37.0742ZM3.98838 37.4587L3.85488 37.3075L3.84938 37.3124L3.84424 37.3176L3.98838 37.4587ZM3.4713 37.8481L3.56382 38.0273L3.56382 38.0273L3.4713 37.8481ZM3.03236 37.6741C2.98509 37.6489 2.96726 37.6258 2.9597 37.6108C2.95241 37.5964 2.94513 37.5707 2.95325 37.5225L2.55543 37.4554C2.53616 37.5698 2.54573 37.686 2.59954 37.7926C2.65308 37.8987 2.74061 37.9759 2.84294 38.0303L3.03236 37.6741ZM2.9501 37.5377C2.98593 37.3936 3.03073 37.2739 3.08262 37.1764L2.72642 36.9869C2.6559 37.1195 2.60059 37.2714 2.55859 37.4403L2.9501 37.5377ZM3.08262 37.1764C3.1518 37.0463 3.27641 36.8734 3.46481 36.6552L3.15945 36.3915C2.96349 36.6185 2.81636 36.8178 2.72642 36.9869L3.08262 37.1764ZM3.46481 36.6552C3.65265 36.4376 3.8672 36.2112 4.10877 35.9758L3.82725 35.6869C3.57868 35.929 3.35598 36.1639 3.15945 36.3915L3.46481 36.6552ZM4.10877 35.9758C4.35391 35.737 4.58412 35.5124 4.79941 35.3019L4.51741 35.0134C4.3023 35.2237 4.07225 35.4482 3.82725 35.6869L4.10877 35.9758ZM4.79342 35.3076C5.01974 35.1037 5.20061 34.943 5.33636 34.8252L5.0719 34.5205C4.93345 34.6407 4.7505 34.8032 4.5234 35.0078L4.79342 35.3076ZM5.38223 34.7675C5.62782 34.3057 5.8646 33.8465 6.09256 33.39L5.73162 33.2098C5.50524 33.6631 5.27004 34.1193 5.02603 34.5781L5.38223 34.7675ZM6.09256 33.39C6.31894 32.9366 6.55414 32.4805 6.79815 32.0217L6.44195 31.8322C6.19636 32.2941 5.95958 32.7532 5.73162 33.2098L6.09256 33.39ZM6.79815 32.0217C6.94962 31.7368 7.12233 31.355 7.31617 30.8787L6.9425 30.7266C6.75105 31.197 6.58423 31.5647 6.44195 31.8322L6.79815 32.0217ZM7.31418 30.8834C7.5214 30.4092 7.71744 29.8858 7.9025 29.3137L7.51864 29.1895C7.33703 29.7511 7.14558 30.2617 6.9445 30.7219L7.31418 30.8834ZM7.90226 29.3144C8.09401 28.7291 8.25353 28.1341 8.38082 27.5295L7.98604 27.4464C7.86176 28.0366 7.70604 28.6175 7.51888 29.1888L7.90226 29.3144ZM8.38082 27.5295C8.50896 26.9209 8.57749 26.3381 8.58548 25.7815L8.18209 25.7757C8.17452 26.3033 8.10948 26.8601 7.98604 27.4464L8.38082 27.5295ZM8.58544 25.7837C8.59984 25.2099 8.52516 24.6946 8.35588 24.2418L7.978 24.3831C8.12564 24.778 8.19552 25.2401 8.18213 25.7735L8.58544 25.7837ZM8.35588 24.2418C8.18115 23.7745 7.87994 23.4221 7.45428 23.1957L7.26486 23.5519C7.59877 23.7295 7.8358 24.0028 7.978 24.3831L8.35588 24.2418ZM7.45428 23.1957C6.96976 22.938 6.44329 22.8342 5.88019 22.8825L5.91466 23.2844C6.40342 23.2425 6.85173 23.3322 7.26486 23.5519L7.45428 23.1957ZM5.88171 22.8823C5.34475 22.9243 4.80611 23.0798 4.26673 23.3447L4.44459 23.7069C4.94429 23.4614 5.4335 23.322 5.91314 23.2845L5.88171 22.8823ZM4.26917 23.3436C3.74201 23.5938 3.2352 23.9069 2.74874 24.2822L2.9952 24.6016C3.46015 24.2429 3.94247 23.9452 4.44215 23.708L4.26917 23.3436ZM2.74558 24.2847C2.27293 24.6647 1.84634 25.0703 1.46617 25.5016L1.76881 25.7684C2.1329 25.3553 2.54262 24.9656 2.99836 24.5991L2.74558 24.2847ZM1.46384 25.5043C1.10233 25.9293 0.815044 26.3396 0.604705 26.7351L0.960904 26.9245C1.15449 26.5605 1.42366 26.1742 1.77114 25.7657L1.46384 25.5043ZM0.604705 26.7351C0.46143 27.0045 0.349672 27.3033 0.268348 27.6303L0.659853 27.7277C0.734187 27.4288 0.834899 27.1615 0.960904 26.9245L0.604705 26.7351ZM0.266606 27.6379C0.194877 27.983 0.195143 28.3164 0.271293 28.6355L0.66371 28.5419C0.602683 28.2861 0.600683 28.0131 0.661595 27.72L0.266606 27.6379ZM0.274596 28.6477C0.379418 28.9906 0.620034 29.2526 0.968212 29.4378L1.15763 29.0816C0.884349 28.9362 0.728018 28.7509 0.660407 28.5297L0.274596 28.6477ZM0.968212 29.4378C1.27571 29.6013 1.60185 29.6755 1.94306 29.6579L1.92223 29.255C1.65622 29.2687 1.40254 29.2118 1.15763 29.0816L0.968212 29.4378ZM1.93878 29.658C2.2667 29.6481 2.58167 29.6074 2.88331 29.5354L2.78968 29.143C2.51643 29.2082 2.22883 29.2456 1.92651 29.2548L1.93878 29.658ZM2.88959 29.5338C3.18445 29.4533 3.43906 29.3804 3.65312 29.3149L3.53519 28.9291C3.32616 28.993 3.07567 29.0648 2.7834 29.1446L2.88959 29.5338ZM3.65312 29.3149C3.75384 29.2841 3.82801 29.2673 3.87905 29.2609C3.90443 29.2577 3.91927 29.2577 3.92598 29.2581C3.93412 29.2587 3.92257 29.2594 3.90307 29.249L4.09249 28.8928C4.00419 28.8459 3.90059 28.8515 3.82839 28.8606C3.74488 28.8712 3.64601 28.8952 3.53519 28.9291L3.65312 29.3149ZM3.80488 29.1299C3.79662 29.1029 3.79709 29.081 3.79802 29.0699C3.79898 29.0584 3.80108 29.0513 3.80145 29.0501C3.80201 29.0482 3.80014 29.0546 3.79105 29.0717L4.14725 29.2611C4.16263 29.2322 4.17778 29.1997 4.18788 29.166C4.19612 29.1385 4.21111 29.0788 4.19069 29.012L3.80488 29.1299ZM3.79105 29.0717C3.74647 29.1555 3.62574 29.2595 3.36392 29.3578L3.50569 29.7355C3.7972 29.626 4.0327 29.4765 4.14725 29.2611L3.79105 29.0717ZM3.36965 29.3557C3.11359 29.4431 2.81555 29.5115 2.47416 29.5596L2.53048 29.9591C2.8913 29.9082 3.21493 29.8348 3.49996 29.7375L3.36965 29.3557ZM2.48024 29.5589C2.14411 29.5959 1.83063 29.6076 1.53946 29.5947L1.52158 29.9977C1.83616 30.0117 2.17055 29.9988 2.5244 29.9599L2.48024 29.5589ZM1.54741 29.5952C1.26036 29.5711 1.06939 29.5218 0.955671 29.4613L0.766251 29.8175C0.951756 29.9162 1.20716 29.9714 1.51362 29.9972L1.54741 29.5952ZM0.955671 29.4613C0.571283 29.2569 0.331741 29.0068 0.21104 28.7184L-0.161122 28.8741C0.0042318 29.2693 0.322025 29.5813 0.766251 29.8175L0.955671 29.4613ZM0.213047 28.7234C0.0890584 28.4034 0.0490799 28.0602 0.0960393 27.6901L-0.304185 27.6393C-0.358999 28.0713 -0.312956 28.4825 -0.163129 28.8692L0.213047 28.7234ZM0.0951723 27.6962C0.153926 27.3243 0.275589 26.964 0.46138 26.6146L0.10518 26.4252C-0.100709 26.8123 -0.237282 27.2152 -0.303318 27.6332L0.0951723 27.6962ZM0.46138 26.6146C0.684925 26.1942 0.99213 25.7634 1.38563 25.3223L1.0846 25.0538C0.674107 25.5138 0.346756 25.9709 0.10518 26.4252L0.46138 26.6146ZM1.3828 25.3254C1.78676 24.8913 2.24785 24.486 2.76666 24.1098L2.52985 23.7832C1.99147 24.1735 1.51047 24.5959 1.08743 25.0506L1.3828 25.3254ZM2.76806 24.1088C3.29092 23.7228 3.83042 23.4124 4.38655 23.1768L4.22917 22.8053C3.64191 23.0541 3.075 23.3807 2.52844 23.7842L2.76806 24.1088ZM4.38896 23.1758C4.94666 22.9309 5.50102 22.7944 6.05291 22.7637L6.03052 22.3609C5.42623 22.3945 4.8247 22.5438 4.22676 22.8064L4.38896 23.1758ZM6.05291 22.7637C6.59459 22.7336 7.10015 22.8443 7.57369 23.0961L7.76311 22.7399C7.2239 22.4531 6.645 22.3267 6.03052 22.3609L6.05291 22.7637ZM7.57369 23.0961C8.08713 23.3691 8.43526 23.7517 8.6301 24.2454L9.00537 24.0973C8.77258 23.5074 8.3545 23.0544 7.76311 22.7399L7.57369 23.0961ZM8.6314 24.2486C8.83754 24.7457 8.92453 25.323 8.8854 25.9855L9.28813 26.0093C9.33015 25.2978 9.23778 24.6577 9.00406 24.0941L8.6314 24.2486ZM8.88531 25.9872C8.85177 26.6449 8.72925 27.3376 8.51621 28.0655L8.9034 28.1788C9.12407 27.4248 9.25286 26.701 9.28822 26.0077L8.88531 25.9872ZM8.5151 28.0694C8.31806 28.7969 8.0751 29.5147 7.78614 30.2228L8.15968 30.3753C8.45479 29.652 8.70308 28.9185 8.9045 28.1749L8.5151 28.0694ZM7.78601 30.2232C7.50192 30.9229 7.21095 31.5664 6.91321 32.1538L7.27305 32.3362C7.57653 31.7374 7.87208 31.0836 8.15981 30.3749L7.78601 30.2232ZM6.91139 32.1574C6.62904 32.7438 6.38785 33.2249 6.18761 33.6014L6.54381 33.7908C6.7475 33.4078 6.99125 32.9215 7.27487 32.3325L6.91139 32.1574ZM6.49159 33.8537C6.89787 33.5293 7.39332 33.1625 7.97857 32.7532L7.74737 32.4226C7.15743 32.8352 6.65471 33.2072 6.23983 33.5385L6.49159 33.8537ZM7.97991 32.7523C8.56972 32.3326 9.21542 31.9052 9.91716 31.47L9.70454 31.1271C8.99653 31.5662 8.34365 31.9983 7.74603 32.4235L7.97991 32.7523ZM9.91716 31.47C10.616 31.0366 11.3401 30.6385 12.0894 30.2756L11.9136 29.9125C11.1518 30.2814 10.4154 30.6863 9.70454 31.1271L9.91716 31.47ZM12.0911 30.2748C12.8451 29.9012 13.5848 29.5942 14.3101 29.3535L14.183 28.9706C13.4383 29.2178 12.6812 29.5321 11.912 29.9133L12.0911 30.2748ZM14.3078 29.3542C15.0404 29.1208 15.7194 28.9938 16.3458 28.97L16.3305 28.5669C15.6611 28.5923 14.9457 28.7276 14.1853 28.9698L14.3078 29.3542ZM16.3492 28.9699C16.9728 28.9355 17.5095 29.0441 17.9667 29.2872L18.1561 28.931C17.6236 28.6479 17.0115 28.5293 16.327 28.5671L16.3492 28.9699ZM17.9667 29.2872C18.1311 29.3746 18.1891 29.4719 18.1994 29.5749L18.6008 29.535C18.5738 29.2639 18.4061 29.0639 18.1561 28.931L17.9667 29.2872ZM18.2023 29.5944C18.2277 29.7219 18.207 29.8633 18.1203 30.0262L18.4765 30.2156C18.598 29.9873 18.645 29.7513 18.5979 29.5155L18.2023 29.5944ZM18.1203 30.0262C18.102 30.0607 18.0445 30.1391 17.9291 30.2718L18.2336 30.5365C18.3465 30.4067 18.4337 30.2962 18.4765 30.2156L18.1203 30.0262ZM17.9198 30.2834C17.8273 30.4073 17.7263 30.5105 17.6173 30.5943L17.8632 30.9141C18.0039 30.8059 18.1304 30.6757 18.243 30.5248L17.9198 30.2834ZM17.61 30.6001C17.5701 30.6339 17.5467 30.6427 17.5397 30.6446C17.5371 30.6452 17.5387 30.6444 17.5432 30.6449C17.548 30.6454 17.5516 30.6469 17.5532 30.6477L17.3638 31.0039C17.5537 31.1049 17.7392 31.0191 17.8704 30.9083L17.61 30.6001ZM17.5532 30.6477C17.5526 30.6474 17.5607 30.6516 17.5694 30.6638C17.5786 30.6767 17.5823 30.6901 17.5832 30.699L17.1818 30.7389C17.1939 30.861 17.2659 30.9519 17.3638 31.0039L17.5532 30.6477ZM17.5842 30.724C17.5849 30.6933 17.5914 30.6725 17.5995 30.6572L17.2433 30.4678C17.2025 30.5446 17.183 30.628 17.1808 30.7139L17.5842 30.724ZM17.5995 30.6572C17.6319 30.5964 17.6764 30.5484 17.7358 30.5109L17.5205 30.1697C17.4022 30.2443 17.3089 30.3445 17.2433 30.4678L17.5995 30.6572ZM17.7358 30.5109C17.8541 30.4362 17.9474 30.3361 18.013 30.2128L17.6568 30.0233C17.6245 30.0842 17.58 30.1322 17.5205 30.1697L17.7358 30.5109ZM18.013 30.2128C18.0443 30.1538 18.0659 30.0836 18.0605 30.0062C18.0549 29.9269 18.0223 29.8586 17.9761 29.8039L17.668 30.0642C17.668 30.0643 17.6657 30.0615 17.6631 30.0556C17.6605 30.0495 17.6586 30.0421 17.658 30.0343C17.6569 30.0183 17.6622 30.0132 17.6568 30.0233L18.013 30.2128ZM17.9864 29.8171C17.9324 29.7412 17.8616 29.6823 17.7797 29.6388L17.5903 29.995C17.6235 30.0126 17.6441 30.0319 17.6577 30.051L17.9864 29.8171ZM17.7797 29.6388C17.2337 29.3484 16.602 29.2359 15.8932 29.2913L15.9246 29.6935C16.5713 29.643 17.1237 29.7468 17.5903 29.995L17.7797 29.6388ZM15.8932 29.2913C15.1963 29.3458 14.4788 29.5013 13.7411 29.7563L13.8729 30.1376C14.5822 29.8924 15.2659 29.745 15.9246 29.6935L15.8932 29.2913ZM13.7409 29.7564C13.0271 30.0038 12.3442 30.2905 11.6924 30.6166L11.8729 30.9774C12.5085 30.6595 13.1752 30.3795 13.8731 30.1375L13.7409 29.7564ZM11.6924 30.6166C11.0456 30.9403 10.491 31.241 10.0294 31.5187L10.2374 31.8644C10.6875 31.5935 11.2324 31.2979 11.8729 30.9774L11.6924 30.6166ZM10.034 31.516C9.73159 31.6872 9.35924 31.9233 8.91794 32.2229L9.14455 32.5567C9.58121 32.2603 9.94361 32.0308 10.2328 31.867L10.034 31.516ZM8.91991 32.2216C8.48371 32.5103 8.03258 32.8277 7.56652 33.1737L7.807 33.4977C8.26786 33.1555 8.71306 32.8423 9.14259 32.558L8.91991 32.2216ZM7.56813 33.1725C7.10739 33.5076 6.67554 33.8437 6.27267 34.1809L6.53161 34.4902C6.92688 34.1594 7.35144 33.8289 7.80539 33.4988L7.56813 33.1725ZM6.26908 34.1839C5.87567 34.5292 5.56809 34.847 5.35144 35.1372L5.6747 35.3786C5.86836 35.1192 6.15349 34.8222 6.5352 34.4872L6.26908 34.1839ZM5.35077 35.1381C5.13493 35.4305 4.93377 35.738 4.74725 36.0604L5.09646 36.2624C5.27568 35.9526 5.46866 35.6577 5.67537 35.3777L5.35077 35.1381ZM4.74375 36.0667C4.57692 36.3804 4.39085 36.6763 4.1856 36.9544L4.5102 37.1939C4.7275 36.8995 4.92407 36.5869 5.09995 36.2561L4.74375 36.0667ZM4.18011 36.9622C4.12151 37.05 4.01652 37.1648 3.85488 37.3075L4.12189 37.6099C4.29418 37.4578 4.42888 37.3162 4.51569 37.1861L4.18011 36.9622ZM3.84424 37.3176C3.69592 37.4691 3.54063 37.5853 3.37878 37.6688L3.56382 38.0273C3.76825 37.9218 3.95767 37.7784 4.13252 37.5998L3.84424 37.3176ZM3.37878 37.6688C3.25069 37.735 3.1429 37.7329 3.03236 37.6741L2.84294 38.0303C3.07766 38.1551 3.32564 38.1503 3.56382 38.0273L3.37878 37.6688Z" fill="#ECECEC"/>
</g>
<g id="W">
<path d="M89.9233 36.8797C89.7666 36.9443 89.6429 36.9177 89.5521 36.8C89.4663 36.6944 89.4011 36.5873 89.3564 36.4788C89.2075 36.1173 89.1217 35.6522 89.099 35.0836C89.0713 34.5029 89.0787 33.9219 89.1212 33.3405C89.1757 32.7542 89.2179 32.2575 89.2476 31.8506C89.0845 31.2834 88.9058 30.7297 88.7115 30.1894C88.5243 29.6322 88.3165 29.0764 88.0882 28.5219C87.9393 28.1604 87.7361 27.7013 87.4787 27.1448C87.2334 26.5833 86.943 25.998 86.6076 25.389C86.2722 24.78 85.906 24.2331 85.5089 23.7482C85.1189 23.2462 84.7013 22.8825 84.256 22.6571C83.8179 22.4147 83.3698 22.3878 82.9118 22.5764C82.4779 22.7551 82.1227 23.0564 81.8462 23.4804C81.5698 23.9044 81.3319 24.3195 81.1327 24.7258C80.813 25.4214 80.5678 26.1779 80.397 26.9953C80.2382 27.8079 80.1812 28.6278 80.2259 29.4552C80.2777 30.2656 80.4526 31.0323 80.7504 31.7555C80.8894 32.0929 81.0833 32.3584 81.3322 32.552C81.581 32.7455 81.8923 32.7653 82.2659 32.6115C82.7118 32.4278 83.1011 32.1406 83.4336 31.75C83.7611 31.3472 84.0386 30.9087 84.2662 30.4344C84.5008 29.943 84.6957 29.4751 84.851 29.0305C85.0133 28.569 85.1437 28.184 85.2423 27.8756C85.3408 27.5671 85.4177 27.3945 85.473 27.3576L85.641 27.4576C85.69 27.7475 85.6453 28.1184 85.5071 28.57C85.3809 29.0167 85.191 29.4967 84.9372 30.01C84.6834 30.5233 84.3956 31.0225 84.0738 31.5074C83.764 31.9874 83.4474 32.3997 83.1241 32.7443C82.8009 33.0889 82.5006 33.3183 82.2234 33.4325C81.9101 33.5615 81.6222 33.5814 81.3599 33.4921C81.1096 33.3978 80.8962 33.239 80.7196 33.0157C80.5431 32.7924 80.4062 32.5457 80.3091 32.2755L80.1112 31.7438C79.6631 30.5187 79.5187 29.2954 79.6781 28.0738C79.8376 26.8522 80.1898 25.671 80.735 24.5302C80.8938 24.1969 81.0767 23.8538 81.2837 23.5007C81.4977 23.1306 81.7473 22.7952 82.0323 22.4946C82.3173 22.1939 82.6345 21.9716 82.984 21.8277C83.4902 21.6192 83.9805 21.6287 84.4548 21.8563C84.9242 22.0718 85.3599 22.428 85.7619 22.925C86.176 23.417 86.5483 23.9615 86.8787 24.5584C87.2212 25.1504 87.5151 25.7272 87.7605 26.2887C88.0179 26.8452 88.2186 27.2982 88.3625 27.6477C88.5511 28.1057 88.7337 28.5662 88.9103 29.0292C89.0869 29.4921 89.2514 29.96 89.4039 30.4329C89.4209 30.2004 89.4744 29.8682 89.5644 29.4364C89.6664 28.9997 89.7947 28.524 89.9492 28.0092C90.0988 27.4824 90.2703 26.9748 90.4639 26.4863C90.6574 25.9978 90.8601 25.583 91.0721 25.2419C91.2791 24.8889 91.4911 24.6676 91.708 24.5783C91.8044 24.5386 91.9228 24.518 92.0632 24.5166C92.2156 24.5102 92.3192 24.5733 92.3738 24.7059C92.3886 24.742 92.4046 24.8835 92.4216 25.1302C92.4387 25.3769 92.4525 25.6672 92.4632 26.0012C92.4809 26.3181 92.4973 26.6144 92.5122 26.8902C92.5221 27.154 92.5264 27.3355 92.525 27.4347C92.5754 28.1047 92.6584 28.7683 92.774 29.4256C92.8896 30.0828 93.0764 30.7248 93.3346 31.3515C93.3892 31.4841 93.4806 31.672 93.609 31.9151C93.7373 32.1583 93.8884 32.371 94.0621 32.5532C94.2308 32.7233 94.4116 32.7687 94.6045 32.6893C94.8455 32.59 95.0575 32.3688 95.2404 32.0256C95.4183 31.6704 95.5714 31.2549 95.6997 30.7792C95.8351 30.2864 95.9414 29.7915 96.0186 29.2945C96.103 28.7805 96.1696 28.309 96.2185 27.8801C96.2624 27.4391 96.2904 27.0963 96.3024 26.8517C96.3265 26.3625 96.3197 25.8155 96.2821 25.2107C96.2516 24.5889 96.1849 23.9821 96.082 23.3901C95.9863 22.781 95.849 22.2596 95.6703 21.8257C95.4916 21.3918 95.2633 21.077 94.9854 20.8814C94.7145 20.6687 94.332 20.6641 93.8379 20.8676C93.7174 20.9173 93.6007 20.9935 93.488 21.0963C93.3874 21.1942 93.2757 21.2824 93.153 21.3611L93.0148 21.3335C93.0474 21.2073 93.1364 21.0297 93.2817 20.8007C93.4391 20.5667 93.578 20.4249 93.6985 20.3753C94.3373 20.1122 94.8616 20.1359 95.2714 20.4464C95.6813 20.7569 96.0028 21.1954 96.2361 21.7619C96.4297 22.2319 96.5779 22.7629 96.6808 23.3549C96.7907 23.9299 96.8645 24.5198 96.9021 25.1245C96.9468 25.7123 96.9561 26.2653 96.9299 26.7836C96.9207 27.0693 96.8895 27.4557 96.8364 27.9428C96.7903 28.4128 96.718 28.9219 96.6195 29.47C96.5161 30.006 96.3871 30.5313 96.2325 31.0461C96.073 31.5488 95.8802 31.9876 95.6541 32.3627C95.44 32.7328 95.1823 32.9799 94.881 33.104C94.5676 33.2331 94.2734 33.2203 93.9983 33.0658C93.7303 32.8942 93.4956 32.6667 93.2942 32.3831C93.0928 32.0995 92.9425 31.8372 92.8432 31.5961C92.5603 30.9091 92.3536 30.219 92.2231 29.5256C92.0926 28.8322 91.9947 28.1324 91.9294 27.4263C91.8641 26.7201 91.7783 26.0154 91.6719 25.3121L91.5879 25.2621C91.4298 25.4259 91.2596 25.7145 91.0775 26.1278C90.8903 26.5291 90.7159 26.9957 90.5543 27.5274C90.3927 28.0592 90.2481 28.598 90.1206 29.1439C89.993 29.6899 89.8952 30.1883 89.8271 30.6392C89.7712 31.0852 89.7577 31.429 89.7868 31.6708C89.818 31.8835 89.884 32.1806 89.9847 32.562C90.0854 32.9434 90.1864 33.3599 90.2879 33.8116C90.4013 34.2582 90.4808 34.6907 90.5262 35.109C90.5765 35.5393 90.5549 35.9148 90.4614 36.2352C90.3799 36.5507 90.2005 36.7656 89.9233 36.8797Z" fill="#ECECEC"/>
<path d="M89.5521 36.8L89.7119 36.6768L89.7087 36.6728L89.5521 36.8ZM89.099 35.0836L89.3005 35.0755L89.3005 35.074L89.099 35.0836ZM89.1212 33.3405L88.9203 33.3218L88.92 33.3258L89.1212 33.3405ZM89.2476 31.8506L89.4488 31.8653L89.4514 31.8294L89.4415 31.7948L89.2476 31.8506ZM88.7115 30.1894L88.5203 30.2537L88.5217 30.2577L88.7115 30.1894ZM87.4787 27.1448L87.2938 27.2256L87.2956 27.2295L87.4787 27.1448ZM86.6076 25.389L86.7843 25.2917L86.6076 25.389ZM85.5089 23.7482L85.3496 23.872L85.3528 23.8759L85.5089 23.7482ZM84.256 22.6571L84.1583 22.8337L84.1649 22.8371L84.256 22.6571ZM81.1327 24.7258L80.9516 24.637L80.9494 24.6416L81.1327 24.7258ZM80.397 26.9953L80.1995 26.9541L80.199 26.9567L80.397 26.9953ZM80.2259 29.4552L80.0245 29.4661L80.0246 29.4681L80.2259 29.4552ZM81.3322 32.552L81.456 32.3927L81.3322 32.552ZM83.4336 31.75L83.5872 31.8807L83.59 31.8772L83.4336 31.75ZM84.2662 30.4344L84.448 30.5216L84.4482 30.5213L84.2662 30.4344ZM84.851 29.0305L84.6607 28.9636L84.6605 28.964L84.851 29.0305ZM85.2423 27.8756L85.0501 27.8142L85.0501 27.8142L85.2423 27.8756ZM85.473 27.3576L85.5761 27.1843L85.4669 27.1193L85.3611 27.1898L85.473 27.3576ZM85.641 27.4576L85.8399 27.424L85.8244 27.3319L85.7442 27.2842L85.641 27.4576ZM85.5071 28.57L85.3142 28.5109L85.313 28.5152L85.5071 28.57ZM84.9372 30.01L85.118 30.0994L84.9372 30.01ZM84.0738 31.5074L83.9057 31.3959L83.9043 31.3981L84.0738 31.5074ZM83.1241 32.7443L82.977 32.6063L83.1241 32.7443ZM81.3599 33.4921L81.2887 33.681L81.2949 33.683L81.3599 33.4921ZM80.7196 33.0157L80.5614 33.1408L80.7196 33.0157ZM80.3091 32.2755L80.4989 32.2073L80.4981 32.2052L80.3091 32.2755ZM80.1112 31.7438L79.9218 31.8131L79.9222 31.8142L80.1112 31.7438ZM79.6781 28.0738L79.8781 28.0999L79.6781 28.0738ZM80.735 24.5302L80.917 24.6171L80.9171 24.6169L80.735 24.5302ZM81.2837 23.5007L81.4577 23.6027L81.4583 23.6017L81.2837 23.5007ZM82.0323 22.4946L81.8859 22.3558L81.8859 22.3558L82.0323 22.4946ZM84.4548 21.8563L84.3676 22.0382L84.3707 22.0396L84.4548 21.8563ZM85.7619 22.925L85.6051 23.0519L85.6076 23.0549L85.7619 22.925ZM86.8787 24.5584L86.7022 24.6561L86.7041 24.6594L86.8787 24.5584ZM87.7605 26.2887L87.5756 26.3694L87.5774 26.3733L87.7605 26.2887ZM88.9103 29.0292L89.0988 28.9573L88.9103 29.0292ZM89.4039 30.4329L89.2119 30.4948L89.605 30.4476L89.4039 30.4329ZM89.5644 29.4364L89.3679 29.3905L89.3669 29.3953L89.5644 29.4364ZM89.9492 28.0092L90.1425 28.0672L90.1433 28.0643L89.9492 28.0092ZM91.0721 25.2419L91.2435 25.3485L91.2461 25.344L91.0721 25.2419ZM92.0632 24.5166L92.0653 24.7184L92.0717 24.7181L92.0632 24.5166ZM92.4216 25.1302L92.6229 25.1163L92.4216 25.1302ZM92.4632 26.0012L92.2615 26.0076L92.2618 26.0125L92.4632 26.0012ZM92.5122 26.8902L92.7138 26.8826L92.7136 26.8794L92.5122 26.8902ZM92.525 27.4347L92.3233 27.4319L92.3231 27.4409L92.3238 27.4499L92.525 27.4347ZM92.774 29.4256L92.5753 29.4605L92.774 29.4256ZM93.609 31.9151L93.7874 31.821L93.609 31.9151ZM94.0621 32.5532L93.916 32.6924L93.9188 32.6952L94.0621 32.5532ZM95.2404 32.0256L95.4184 32.1205L95.4207 32.116L95.2404 32.0256ZM95.6997 30.7792L95.5052 30.7257L95.5049 30.7267L95.6997 30.7792ZM96.0186 29.2945L95.8196 29.2619L95.8193 29.2635L96.0186 29.2945ZM96.2185 27.8801L96.4189 27.9029L96.4192 27.9001L96.2185 27.8801ZM96.3024 26.8517L96.5039 26.8616L96.3024 26.8517ZM96.2821 25.2107L96.0806 25.2206L96.0808 25.2233L96.2821 25.2107ZM96.082 23.3901L95.8827 23.4214L95.8833 23.4246L96.082 23.3901ZM94.9854 20.8814L94.8606 21.0402L94.8693 21.0463L94.9854 20.8814ZM93.488 21.0963L93.352 20.9472L93.3474 20.9517L93.488 21.0963ZM93.153 21.3611L93.1135 21.5589L93.1934 21.5749L93.262 21.5309L93.153 21.3611ZM93.0148 21.3335L92.8195 21.283L92.7662 21.4895L92.9752 21.5313L93.0148 21.3335ZM93.2817 20.8007L93.1143 20.6881L93.1114 20.6926L93.2817 20.8007ZM95.2714 20.4464L95.3933 20.2856L95.2714 20.4464ZM96.6808 23.3549L96.482 23.3895L96.4826 23.3928L96.6808 23.3549ZM96.9021 25.1245L96.7008 25.1371L96.701 25.1398L96.9021 25.1245ZM96.9299 26.7836L96.7284 26.7734L96.7283 26.7771L96.9299 26.7836ZM96.8364 27.9428L96.6358 27.9209L96.6356 27.9231L96.8364 27.9428ZM96.6195 29.47L96.8176 29.5082L96.8181 29.5056L96.6195 29.47ZM96.2325 31.0461L96.4248 31.1071L96.4257 31.1041L96.2325 31.0461ZM95.6541 32.3627L95.4813 32.2585L95.4795 32.2617L95.6541 32.3627ZM93.9983 33.0658L93.8894 33.236L93.8995 33.2417L93.9983 33.0658ZM91.9294 27.4263L92.1303 27.4077L91.9294 27.4263ZM91.6719 25.3121L91.8713 25.2819L91.8571 25.1875L91.775 25.1387L91.6719 25.3121ZM91.5879 25.2621L91.691 25.0888L91.5537 25.0071L91.4427 25.122L91.5879 25.2621ZM91.0775 26.1278L91.2603 26.2131L91.2621 26.2092L91.0775 26.1278ZM90.1206 29.1439L90.317 29.1898L90.1206 29.1439ZM89.8271 30.6392L89.6276 30.6091L89.627 30.6141L89.8271 30.6392ZM89.7868 31.6708L89.5865 31.6949L89.5872 31.7001L89.7868 31.6708ZM90.2879 33.8116L90.091 33.8558L90.0923 33.8612L90.2879 33.8116ZM90.5262 35.109L90.3256 35.1308L90.3258 35.1324L90.5262 35.109ZM90.4614 36.2352L90.2676 36.1787L90.2661 36.1848L90.4614 36.2352ZM89.8465 36.6932C89.7933 36.7151 89.7658 36.7132 89.7554 36.711C89.748 36.7094 89.7335 36.7048 89.7119 36.6768L89.3924 36.9232C89.4616 37.0129 89.5542 37.0804 89.6706 37.1054C89.7839 37.1297 89.8966 37.1089 90.0001 37.0663L89.8465 36.6932ZM89.7087 36.6728C89.6334 36.5801 89.5791 36.4897 89.543 36.402L89.1699 36.5557C89.2232 36.6849 89.2993 36.8087 89.3956 36.9272L89.7087 36.6728ZM89.543 36.402C89.4061 36.0698 89.3227 35.6303 89.3005 35.0755L88.8974 35.0916C88.9207 35.6741 89.0089 36.1647 89.1699 36.5557L89.543 36.402ZM89.3005 35.074C89.2732 34.5014 89.2805 33.9285 89.3224 33.3552L88.92 33.3258C88.8769 33.9153 88.8694 34.5044 88.8975 35.0932L89.3005 35.074ZM89.322 33.3592C89.3767 32.7721 89.4189 32.274 89.4488 31.8653L89.0464 31.8359C89.0168 32.2411 88.9748 32.7363 88.9203 33.3218L89.322 33.3592ZM89.4415 31.7948C89.2772 31.2235 89.0972 30.6657 88.9013 30.1212L88.5217 30.2577C88.7145 30.7937 88.8918 31.3432 89.0538 31.9063L89.4415 31.7948ZM88.9027 30.1252C88.7141 29.5636 88.5047 29.0036 88.2747 28.4451L87.9017 28.5988C88.1283 29.1491 88.3345 29.7008 88.5203 30.2537L88.9027 30.1252ZM88.2747 28.4451C88.1243 28.0799 87.9198 27.618 87.6618 27.0601L87.2956 27.2295C87.5524 27.7847 87.7543 28.2409 87.9017 28.5988L88.2747 28.4451ZM87.6636 27.064C87.4154 26.4962 87.1223 25.9054 86.7843 25.2917L86.4309 25.4863C86.7637 26.0907 87.0513 26.6704 87.2939 27.2255L87.6636 27.064ZM86.7843 25.2917C86.4436 24.6731 86.0706 24.1158 85.665 23.6204L85.3528 23.8759C85.7413 24.3504 86.1008 24.887 86.4309 25.4863L86.7843 25.2917ZM85.6682 23.6244C85.2648 23.1051 84.8252 22.7192 84.3471 22.4771L84.1649 22.8371C84.5773 23.0459 84.9731 23.3873 85.3496 23.8719L85.6682 23.6244ZM84.3537 22.4806C83.8626 22.2089 83.3503 22.1776 82.835 22.3899L82.9886 22.7629C83.3892 22.5979 83.7731 22.6205 84.1584 22.8336L84.3537 22.4806ZM82.835 22.3899C82.3603 22.5853 81.9742 22.9149 81.6773 23.3702L82.0152 23.5906C82.2712 23.198 82.5954 22.9248 82.9886 22.7629L82.835 22.3899ZM81.6773 23.3702C81.3968 23.8003 81.1548 24.2226 80.9516 24.637L81.3138 24.8146C81.509 24.4165 81.7427 24.0085 82.0152 23.5906L81.6773 23.3702ZM80.9494 24.6416C80.6229 25.352 80.3731 26.1231 80.1995 26.9541L80.5944 27.0366C80.7624 26.2326 81.0032 25.4907 81.316 24.8101L80.9494 24.6416ZM80.199 26.9567C80.037 27.7855 79.9789 28.6221 80.0245 29.4661L80.4273 29.4443C80.3835 28.6335 80.4394 27.8302 80.5949 27.034L80.199 26.9567ZM80.0246 29.4681C80.0778 30.2996 80.2573 31.088 80.5639 31.8323L80.9369 31.6787C80.6478 30.9766 80.4777 30.2316 80.4272 29.4423L80.0246 29.4681ZM80.5639 31.8323C80.7141 32.197 80.9276 32.4929 81.2083 32.7112L81.456 32.3927C81.2389 32.2239 81.0646 31.9888 80.9369 31.6787L80.5639 31.8323ZM81.2083 32.7112C81.5308 32.962 81.924 32.9704 82.3427 32.798L82.1891 32.4249C81.8606 32.5602 81.6313 32.529 81.456 32.3927L81.2083 32.7112ZM82.3427 32.798C82.8202 32.6013 83.2352 32.2942 83.5872 31.8807L83.2799 31.6192C82.9669 31.9871 82.6035 32.2543 82.1891 32.4249L82.3427 32.798ZM83.59 31.8772C83.9277 31.462 84.2137 31.01 84.448 30.5216L84.0843 30.3471C83.8635 30.8073 83.5944 31.2324 83.2771 31.6227L83.59 31.8772ZM84.4482 30.5213C84.6855 30.0243 84.8834 29.5495 85.0414 29.097L84.6605 28.964C84.5081 29.4006 84.3161 29.8617 84.0841 30.3474L84.4482 30.5213ZM85.0413 29.0974C85.204 28.6349 85.3351 28.2479 85.4344 27.9369L85.0501 27.8142C84.9524 28.1201 84.8227 28.5031 84.6607 28.9636L85.0413 29.0974ZM85.4344 27.9369C85.4828 27.7856 85.524 27.6733 85.5581 27.5968C85.5752 27.5584 85.5886 27.5333 85.5981 27.5184C85.6103 27.499 85.6071 27.5106 85.5849 27.5255L85.3611 27.1898C85.3112 27.223 85.2777 27.2701 85.2569 27.3031C85.2333 27.3405 85.2109 27.3847 85.1896 27.4327C85.1467 27.5288 85.1003 27.6571 85.0501 27.8142L85.4344 27.9369ZM85.3699 27.531L85.5379 27.6309L85.7442 27.2842L85.5761 27.1843L85.3699 27.531ZM85.4421 27.4911C85.4836 27.737 85.4482 28.0731 85.3142 28.511L85.7 28.629C85.8424 28.1636 85.8963 27.7581 85.8399 27.424L85.4421 27.4911ZM85.313 28.5152C85.1909 28.9475 85.0059 29.4159 84.7564 29.9206L85.118 30.0994C85.3761 29.5774 85.571 29.0858 85.7012 28.6248L85.313 28.5152ZM84.7564 29.9206C84.5064 30.4262 84.2229 30.9179 83.9057 31.3959L84.2418 31.619C84.5683 31.127 84.8604 30.6205 85.118 30.0994L84.7564 29.9206ZM83.9043 31.3981C83.5997 31.8699 83.2905 32.2722 82.977 32.6063L83.2713 32.8823C83.6043 32.5273 83.9282 32.105 84.2432 31.6168L83.9043 31.3981ZM82.977 32.6063C82.6633 32.9407 82.3863 33.1473 82.1466 33.246L82.3002 33.619C82.615 33.4894 82.9384 33.2371 83.2713 32.8823L82.977 32.6063ZM82.1466 33.246C81.8679 33.3607 81.6312 33.3714 81.4249 33.3011L81.2949 33.683C81.6132 33.7914 81.9522 33.7623 82.3002 33.619L82.1466 33.246ZM81.431 33.3033C81.2172 33.2228 81.0332 33.0871 80.8779 32.8906L80.5614 33.1408C80.7591 33.3909 81.002 33.5728 81.2888 33.6809L81.431 33.3033ZM80.8779 32.8906C80.715 32.6845 80.5887 32.457 80.4989 32.2073L80.1193 32.3438C80.2237 32.6343 80.3712 32.9002 80.5614 33.1408L80.8779 32.8906ZM80.4981 32.2052L80.3003 31.6735L79.9222 31.8142L80.12 32.3459L80.4981 32.2052ZM80.3007 31.6745C79.863 30.4781 79.7232 29.2874 79.8781 28.0999L79.4781 28.0477C79.3142 29.3033 79.4631 30.5594 79.9218 31.8131L80.3007 31.6745ZM79.8781 28.0999C80.0348 26.8999 80.3808 25.7392 80.917 24.6171L80.553 24.4432C79.9989 25.6027 79.6404 26.8044 79.4781 28.0477L79.8781 28.0999ZM80.9171 24.6169C81.0731 24.2894 81.2533 23.9513 81.4577 23.6027L81.1096 23.3986C80.9 23.7562 80.7144 24.1044 80.5529 24.4434L80.9171 24.6169ZM81.4583 23.6017C81.6647 23.2448 81.9049 22.9222 82.1787 22.6333L81.8859 22.3558C81.5897 22.6682 81.3308 23.0163 81.109 23.3997L81.4583 23.6017ZM82.1787 22.6333C82.446 22.3513 82.7401 22.1463 83.0609 22.0142L82.9072 21.6412C82.529 21.7969 82.1885 22.0365 81.8859 22.3558L82.1787 22.6333ZM83.0609 22.0142C83.5166 21.8265 83.9472 21.8365 84.3676 22.0382L84.5421 21.6744C84.0139 21.421 83.4639 21.4119 82.9072 21.6412L83.0609 22.0142ZM84.3707 22.0396C84.8059 22.2394 85.2181 22.5734 85.6051 23.0519L85.9188 22.7981C85.5017 22.2826 85.0425 21.9042 84.539 21.673L84.3707 22.0396ZM85.6076 23.0549C86.0128 23.5363 86.3777 24.0699 86.7022 24.6561L87.0552 24.4607C86.7188 23.8531 86.3393 23.2977 85.9163 22.7951L85.6076 23.0549ZM86.7041 24.6594C87.0432 25.2456 87.3336 25.8156 87.5756 26.3694L87.9453 26.2079C87.6966 25.6387 87.3992 25.0552 87.0533 24.4574L86.7041 24.6594ZM87.5774 26.3733C87.8342 26.9287 88.0336 27.3788 88.176 27.7246L88.549 27.5709C88.4035 27.2177 88.2015 26.7617 87.9436 26.204L87.5774 26.3733ZM88.176 27.7246C88.3639 28.1809 88.5459 28.6397 88.7218 29.1011L89.0988 28.9573C88.9216 28.4927 88.7383 28.0306 88.549 27.5709L88.176 27.7246ZM88.7218 29.1011C88.8971 29.5607 89.0605 30.0253 89.2119 30.4948L89.5958 30.371C89.4423 29.8948 89.2766 29.4235 89.0988 28.9573L88.7218 29.1011ZM89.605 30.4476C89.621 30.2286 89.6724 29.9069 89.7618 29.4776L89.3669 29.3953C89.2764 29.8295 89.2207 30.1721 89.2027 30.4182L89.605 30.4476ZM89.7608 29.4823C89.8617 29.0504 89.9889 28.5787 90.1424 28.0672L89.756 27.9512C89.6006 28.4692 89.4711 28.949 89.3679 29.3905L89.7608 29.4823ZM90.1433 28.0643C90.2911 27.5437 90.4605 27.0425 90.6514 26.5606L90.2763 26.412C90.0802 26.907 89.9065 27.4211 89.7552 27.9541L90.1433 28.0643ZM90.6514 26.5606C90.8418 26.08 91.0394 25.6767 91.2434 25.3484L90.9008 25.1355C90.6809 25.4893 90.473 25.9155 90.2763 26.412L90.6514 26.5606ZM91.2461 25.344C91.4456 25.0036 91.6293 24.8289 91.7848 24.7648L91.6312 24.3918C91.3528 24.5064 91.1125 24.7741 90.8981 25.1399L91.2461 25.344ZM91.7848 24.7648C91.8508 24.7376 91.9422 24.7195 92.0653 24.7183L92.0612 24.3149C91.9035 24.3165 91.758 24.3395 91.6312 24.3918L91.7848 24.7648ZM92.0717 24.7181C92.1183 24.7162 92.1404 24.7254 92.1502 24.7314C92.159 24.7367 92.1732 24.7486 92.1872 24.7827L92.5603 24.629C92.5197 24.5305 92.4549 24.4446 92.3601 24.3869C92.2665 24.3298 92.1605 24.3106 92.0548 24.315L92.0717 24.7181ZM92.1872 24.7827C92.1818 24.7694 92.1826 24.7657 92.1864 24.7872C92.1893 24.8039 92.1927 24.8283 92.1965 24.8617C92.204 24.9281 92.212 25.0218 92.2204 25.1441L92.6229 25.1163C92.6143 24.9918 92.6058 24.8914 92.5973 24.8164C92.5931 24.7791 92.5887 24.7459 92.5839 24.7182C92.5799 24.6953 92.5732 24.6604 92.5603 24.629L92.1872 24.7827ZM92.2204 25.1441C92.2372 25.3876 92.251 25.6754 92.2616 26.0076L92.6648 25.9947C92.6541 25.6591 92.6401 25.3662 92.6229 25.1163L92.2204 25.1441ZM92.2618 26.0125C92.2795 26.3293 92.2958 26.6255 92.3107 26.9011L92.7136 26.8794C92.6987 26.6034 92.6823 26.3069 92.6646 25.9899L92.2618 26.0125ZM92.3106 26.8978C92.3206 27.162 92.3246 27.3386 92.3233 27.4319L92.7267 27.4376C92.7282 27.3324 92.7237 27.146 92.7137 26.8826L92.3106 26.8978ZM92.3238 27.4499C92.3747 28.1265 92.4585 28.7967 92.5753 29.4605L92.9726 29.3906C92.8582 28.74 92.776 28.083 92.7261 27.4196L92.3238 27.4499ZM92.5753 29.4605C92.6935 30.1323 92.8845 30.7883 93.148 31.4283L93.5211 31.2747C93.2684 30.6612 93.0857 30.0333 92.9726 29.3906L92.5753 29.4605ZM93.148 31.4283C93.2064 31.5699 93.3014 31.7646 93.4306 32.0093L93.7874 31.821C93.6598 31.5793 93.572 31.3982 93.5211 31.2747L93.148 31.4283ZM93.4306 32.0093C93.5668 32.2674 93.7284 32.4956 93.9161 32.6924L94.2081 32.414C94.0483 32.2464 93.9078 32.0492 93.7874 31.821L93.4306 32.0093ZM93.9188 32.6952C94.0219 32.7991 94.1402 32.8766 94.2751 32.9105C94.4123 32.9449 94.5499 32.9299 94.6813 32.8758L94.5276 32.5028C94.4662 32.5281 94.4169 32.5301 94.3733 32.5192C94.3274 32.5077 94.271 32.4774 94.2053 32.4111L93.9188 32.6952ZM94.6813 32.8758C94.9825 32.7517 95.2239 32.4854 95.4184 32.1205L95.0624 31.9307C94.8911 32.2521 94.7085 32.4283 94.5276 32.5028L94.6813 32.8758ZM95.4207 32.116C95.606 31.7462 95.7635 31.3175 95.8945 30.8317L95.5049 30.7267C95.3794 31.1923 95.2307 31.5946 95.06 31.9353L95.4207 32.116ZM95.8942 30.8326C96.0316 30.3326 96.1395 29.8302 96.218 29.3255L95.8193 29.2635C95.7433 29.7529 95.6386 30.2402 95.5052 30.7257L95.8942 30.8326ZM96.2177 29.3272C96.3025 28.8105 96.3696 28.3357 96.4189 27.9029L96.0181 27.8572C95.9696 28.2823 95.9035 28.7505 95.8196 29.2619L96.2177 29.3272ZM96.4192 27.9001C96.4632 27.4579 96.4916 27.1112 96.5039 26.8616L96.1009 26.8418C96.0892 27.0813 96.0616 27.4202 96.0178 27.8601L96.4192 27.9001ZM96.5039 26.8616C96.5284 26.3634 96.5214 25.8088 96.4834 25.1982L96.0808 25.2233C96.118 25.8222 96.1246 26.3615 96.1009 26.8418L96.5039 26.8616ZM96.4836 25.2008C96.4526 24.5711 96.3851 23.956 96.2808 23.3555L95.8833 23.4246C95.9847 24.0082 96.0505 24.6068 96.0806 25.2206L96.4836 25.2008ZM96.2813 23.3587C96.1838 22.7387 96.0431 22.2011 95.8569 21.7489L95.4838 21.9025C95.655 22.3181 95.7887 22.8234 95.8828 23.4214L96.2813 23.3587ZM95.8569 21.7489C95.6689 21.2925 95.4206 20.9411 95.1015 20.7164L94.8693 21.0463C95.106 21.213 95.3144 21.4911 95.4838 21.9025L95.8569 21.7489ZM95.11 20.7227C94.7546 20.4437 94.2825 20.4664 93.7611 20.6811L93.9147 21.0542C94.3815 20.8619 94.6745 20.8938 94.8608 21.04L95.11 20.7227ZM93.7611 20.6811C93.6155 20.7411 93.4793 20.8313 93.3521 20.9473L93.624 21.2453C93.7222 21.1557 93.8193 21.0935 93.9147 21.0542L93.7611 20.6811ZM93.3474 20.9517C93.2568 21.0397 93.1558 21.1197 93.0441 21.1914L93.262 21.5309C93.3956 21.4452 93.5179 21.3486 93.6286 21.241L93.3474 20.9517ZM93.1926 21.1633L93.0543 21.1357L92.9752 21.5313L93.1135 21.5589L93.1926 21.1633ZM93.2101 21.384C93.2343 21.2902 93.3085 21.1349 93.452 20.9088L93.1114 20.6926C92.9642 20.9245 92.8605 21.1244 92.8195 21.283L93.2101 21.384ZM93.4491 20.9133C93.6048 20.6818 93.7151 20.5866 93.7754 20.5618L93.6217 20.1887C93.4409 20.2632 93.2734 20.4516 93.1143 20.6881L93.4491 20.9133ZM93.7754 20.5618C94.3737 20.3153 94.8159 20.3543 95.1496 20.6072L95.3933 20.2856C94.9073 19.9174 94.3009 19.909 93.6217 20.1887L93.7754 20.5618ZM95.1496 20.6072C95.5257 20.8921 95.8274 21.2991 96.0496 21.8387L96.4226 21.685C96.1783 21.0917 95.8368 20.6217 95.3933 20.2856L95.1496 20.6072ZM96.0496 21.8387C96.2367 22.2929 96.3813 22.8094 96.482 23.3894L96.8795 23.3204C96.7746 22.7164 96.6227 22.1709 96.4226 21.685L96.0496 21.8387ZM96.4826 23.3928C96.5909 23.9591 96.6637 24.5405 96.7008 25.1371L97.1034 25.112C97.0653 24.499 96.9905 23.9007 96.8789 23.317L96.4826 23.3928ZM96.701 25.1398C96.7451 25.7202 96.7541 26.2647 96.7284 26.7734L97.1313 26.7938C97.158 26.2659 97.1485 25.7044 97.1032 25.1092L96.701 25.1398ZM96.7283 26.7771C96.7193 27.0553 96.6888 27.4359 96.6358 27.9209L97.0369 27.9647C97.0903 27.4755 97.122 27.0833 97.1315 26.7901L96.7283 26.7771ZM96.6356 27.9231C96.5902 28.387 96.5187 28.8906 96.421 29.4343L96.8181 29.5056C96.9174 28.9532 96.9905 28.4387 97.0371 27.9624L96.6356 27.9231ZM96.4215 29.4317C96.3193 29.9612 96.1919 30.4799 96.0393 30.9881L96.4257 31.1041C96.5822 30.5827 96.7128 30.0508 96.8176 29.5082L96.4215 29.4317ZM96.0403 30.9851C95.8846 31.4756 95.6978 31.8995 95.4813 32.2586L95.8268 32.4669C96.0626 32.0758 96.2615 31.6219 96.4248 31.1071L96.0403 30.9851ZM95.4795 32.2617C95.2807 32.6053 95.0531 32.815 94.8042 32.9175L94.9578 33.2905C95.3115 33.1449 95.5993 32.8603 95.8287 32.4637L95.4795 32.2617ZM94.8042 32.9175C94.543 33.025 94.3139 33.0117 94.0971 32.8899L93.8995 33.2417C94.2329 33.4289 94.5922 33.4411 94.9578 33.2905L94.8042 32.9175ZM94.107 32.8959C93.8628 32.7395 93.6465 32.5307 93.4587 32.2663L93.1298 32.4999C93.3447 32.8026 93.5978 33.0489 93.8895 33.2357L94.107 32.8959ZM93.4587 32.2663C93.2634 31.9913 93.1217 31.7425 93.0298 31.5193L92.6567 31.673C92.7634 31.9319 92.9223 32.2077 93.1298 32.4999L93.4587 32.2663ZM93.0298 31.5193C92.7518 30.8444 92.5491 30.1674 92.4213 29.4883L92.0248 29.5629C92.158 30.2705 92.3688 30.9739 92.6567 31.673L93.0298 31.5193ZM92.4213 29.4883C92.292 28.8011 92.195 28.1076 92.1303 27.4077L91.7286 27.4448C91.7944 28.1573 91.8932 28.8633 92.0248 29.5629L92.4213 29.4883ZM92.1303 27.4077C92.0646 26.6977 91.9783 25.9891 91.8713 25.2819L91.4725 25.3423C91.5783 26.0417 91.6636 26.7426 91.7286 27.4448L92.1303 27.4077ZM91.775 25.1387L91.691 25.0888L91.4848 25.4355L91.5688 25.4855L91.775 25.1387ZM91.4427 25.122C91.2588 25.3125 91.0771 25.6285 90.8929 26.0465L91.2621 26.2092C91.4422 25.8005 91.6007 25.5393 91.733 25.4022L91.4427 25.122ZM90.8947 26.0426C90.7026 26.4543 90.525 26.9301 90.3613 27.4688L90.7473 27.5861C90.9068 27.0612 91.078 26.6039 91.2603 26.2131L90.8947 26.0426ZM90.3613 27.4688C90.1984 28.0048 90.0527 28.5479 89.9241 29.098L90.317 29.1898C90.4436 28.6482 90.587 28.1136 90.7473 27.5861L90.3613 27.4688ZM89.9241 29.098C89.7956 29.6481 89.6967 30.1519 89.6277 30.6091L90.0266 30.6693C90.0937 30.2247 90.1904 29.7317 90.317 29.1898L89.9241 29.098ZM89.627 30.6141C89.5704 31.0651 89.5545 31.4284 89.5865 31.6949L89.9871 31.6467C89.961 31.4297 89.9719 31.1052 90.0273 30.6643L89.627 30.6141ZM89.5872 31.7001C89.6201 31.924 89.6883 32.2297 89.7896 32.6135L90.1797 32.5105C90.0796 32.1314 90.0159 31.843 89.9864 31.6415L89.5872 31.7001ZM89.7896 32.6135C89.8896 32.9921 89.9901 33.4062 90.091 33.8558L90.4847 33.7674C90.3828 33.3137 90.2811 32.8947 90.1797 32.5105L89.7896 32.6135ZM90.0923 33.8612C90.2037 34.2996 90.2813 34.7227 90.3256 35.1308L90.7267 35.0872C90.6802 34.6587 90.5989 34.2169 90.4834 33.7619L90.0923 33.8612ZM90.3258 35.1324C90.3739 35.5436 90.3518 35.8906 90.2677 36.1787L90.655 36.2918C90.758 35.9389 90.7791 35.5351 90.7265 35.0855L90.3258 35.1324ZM90.2661 36.1848C90.1988 36.445 90.0593 36.6056 89.8465 36.6932L90.0001 37.0663C90.3417 36.9256 90.5609 36.6565 90.6567 36.2857L90.2661 36.1848Z" fill="#ECECEC"/>
</g>
<g id="X">
<path d="M160.239 36.4255C160.087 36.389 159.965 36.2859 159.871 36.116C159.775 35.9589 159.71 35.7824 159.677 35.5867C159.656 35.3941 159.661 35.2344 159.691 35.1076C159.816 34.588 160.064 34.0576 160.435 33.5167C160.822 32.9661 161.266 32.4292 161.766 31.906C162.28 31.3858 162.797 30.9067 163.318 30.4687C163.854 30.021 164.339 29.6482 164.773 29.35C164.609 28.4664 164.366 27.6641 164.043 26.9431C163.733 26.2252 163.331 25.4987 162.837 24.7636C162.744 24.6475 162.713 24.526 162.744 24.3993C162.768 24.2979 162.819 24.2231 162.898 24.175C162.98 24.1141 163.071 24.0959 163.173 24.1202C163.198 24.1263 163.228 24.1402 163.263 24.162C163.311 24.1869 163.339 24.2072 163.349 24.2229C164.025 24.814 164.504 25.5256 164.787 26.3576C165.086 27.1799 165.307 28.0172 165.451 28.8694C165.63 28.7381 165.919 28.5394 166.318 28.2732C166.73 28.0101 167.193 27.7259 167.709 27.4207C168.227 27.1028 168.742 26.804 169.251 26.5241C169.761 26.2443 170.222 26.0265 170.634 25.8709C171.05 25.7026 171.359 25.6427 171.562 25.6914C171.676 25.7188 171.748 25.7829 171.777 25.8838C171.81 25.972 171.814 26.0668 171.79 26.1682C171.762 26.2823 171.708 26.3966 171.627 26.5112C171.561 26.6162 171.47 26.6882 171.354 26.7272C170.307 27.0121 169.304 27.3946 168.344 27.8747C167.387 28.3422 166.458 28.8631 165.556 29.4375C165.603 29.69 165.669 30.0814 165.757 30.6117C165.844 31.142 165.949 31.737 166.072 32.3965C166.198 33.0435 166.348 33.6759 166.522 34.294C166.698 34.8993 166.889 35.4144 167.096 35.8393C167.305 36.2514 167.53 36.4864 167.771 36.5442C168.012 36.602 168.225 36.5257 168.409 36.3153C168.609 36.0953 168.784 35.8154 168.932 35.4758C169.084 35.1234 169.215 34.7728 169.326 34.424C169.452 34.0656 169.564 33.7642 169.663 33.5198C169.762 33.2754 169.851 33.156 169.93 33.1616C169.975 33.1991 169.996 33.2511 169.993 33.3175C170.003 33.387 170.002 33.4471 169.99 33.4977C169.945 33.6879 169.868 33.951 169.761 34.2871C169.666 34.6263 169.546 34.9863 169.401 35.367C169.256 35.7478 169.084 36.1019 168.884 36.4294C168.701 36.7473 168.493 36.999 168.261 37.1846C168.029 37.3701 167.78 37.4309 167.513 37.3671C167.209 37.2941 166.929 37.039 166.671 36.602C166.414 36.165 166.187 35.6344 165.988 35.0103C165.792 34.3735 165.614 33.7208 165.452 33.0521C165.307 32.3737 165.181 31.7537 165.075 31.1919C164.981 30.6332 164.909 30.2071 164.859 29.9136C164.425 30.2117 163.964 30.5701 163.474 30.9889C162.988 31.395 162.52 31.8388 162.069 32.3205C161.618 32.8021 161.223 33.3038 160.883 33.8255C160.556 34.3502 160.331 34.8724 160.206 35.392C160.157 35.5948 160.155 35.7419 160.201 35.8331C160.258 35.9274 160.314 36.0012 160.369 36.0544C160.42 36.1203 160.433 36.204 160.409 36.3054C160.385 36.4068 160.328 36.4468 160.239 36.4255Z" fill="#ECECEC"/>
<path d="M159.871 36.116L160.048 36.0188L160.043 36.0106L159.871 36.116ZM159.677 35.5867L159.476 35.6084L159.478 35.6207L159.677 35.5867ZM160.435 33.5167L160.27 33.4007L160.268 33.4026L160.435 33.5167ZM161.766 31.906L161.623 31.7643L161.621 31.7665L161.766 31.906ZM163.318 30.4687L163.189 30.3138L163.188 30.3143L163.318 30.4687ZM164.773 29.35L164.887 29.5163L164.995 29.4421L164.971 29.3134L164.773 29.35ZM164.043 26.9431L163.858 27.0232L163.859 27.0256L164.043 26.9431ZM162.837 24.7636L163.005 24.6511L163 24.6442L162.995 24.6376L162.837 24.7636ZM162.898 24.175L163.003 24.3469L163.011 24.3422L163.019 24.3367L162.898 24.175ZM163.263 24.162L163.156 24.3332L163.163 24.3373L163.17 24.3409L163.263 24.162ZM163.349 24.2229L163.177 24.3283L163.193 24.3545L163.216 24.3747L163.349 24.2229ZM164.787 26.3576L164.596 26.4225L164.597 26.4264L164.787 26.3576ZM165.451 28.8694L165.252 28.903L165.307 29.2256L165.57 29.0321L165.451 28.8694ZM166.318 28.2732L166.209 28.1032L166.206 28.1054L166.318 28.2732ZM167.709 27.4207L167.812 27.5943L167.814 27.5927L167.709 27.4207ZM169.251 26.5241L169.348 26.7009L169.348 26.7009L169.251 26.5241ZM170.634 25.8709L170.706 26.0597L170.71 26.0579L170.634 25.8709ZM171.777 25.8838L171.583 25.9404L171.588 25.9535L171.777 25.8838ZM171.627 26.5112L171.462 26.3945L171.456 26.4045L171.627 26.5112ZM171.354 26.7272L171.407 26.9222L171.418 26.9185L171.354 26.7272ZM168.344 27.8747L168.432 28.056L168.434 28.0551L168.344 27.8747ZM165.556 29.4375L165.448 29.2674L165.333 29.3404L165.358 29.4742L165.556 29.4375ZM165.757 30.6117L165.558 30.6444L165.757 30.6117ZM166.072 32.3965L165.874 32.4336L165.874 32.4352L166.072 32.3965ZM166.522 34.294L166.327 34.3484L166.328 34.3504L166.522 34.294ZM167.096 35.8393L166.914 35.9274L166.916 35.9306L167.096 35.8393ZM168.409 36.3153L168.26 36.1795L168.258 36.1823L168.409 36.3153ZM168.932 35.4758L169.117 35.5566L169.118 35.5555L168.932 35.4758ZM169.326 34.424L169.135 34.357L169.133 34.3631L169.326 34.424ZM169.663 33.5198L169.85 33.5955L169.85 33.5955L169.663 33.5198ZM169.93 33.1616L170.06 33.0072L170.01 32.965L169.944 32.9604L169.93 33.1616ZM169.993 33.3175L169.792 33.3098L169.791 33.3283L169.794 33.3467L169.993 33.3175ZM169.761 34.2871L169.568 34.2256L169.566 34.2328L169.761 34.2871ZM168.884 36.4294L168.712 36.3245L168.71 36.3285L168.884 36.4294ZM168.261 37.1846L168.135 37.027L168.261 37.1846ZM166.671 36.602L166.498 36.7043L166.671 36.602ZM165.988 35.0103L165.795 35.0696L165.796 35.0715L165.988 35.0103ZM165.452 33.0521L165.255 33.0944L165.256 33.0994L165.452 33.0521ZM165.075 31.1919L164.876 31.2253L164.876 31.2295L165.075 31.1919ZM164.859 29.9136L165.057 29.8796L165.004 29.5686L164.744 29.7474L164.859 29.9136ZM163.474 30.9889L163.604 31.1437L163.606 31.1421L163.474 30.9889ZM162.069 32.3205L162.216 32.4583L162.069 32.3205ZM160.883 33.8255L160.714 33.7154L160.712 33.7188L160.883 33.8255ZM160.201 35.8331L160.02 35.9225L160.024 35.9307L160.029 35.9385L160.201 35.8331ZM160.369 36.0544L160.528 35.9307L160.52 35.92L160.51 35.9104L160.369 36.0544ZM160.286 36.2294C160.202 36.2092 160.121 36.1517 160.048 36.0189L159.694 36.2131C159.808 36.42 159.972 36.5689 160.192 36.6217L160.286 36.2294ZM160.043 36.0106C159.961 35.877 159.905 35.7251 159.875 35.5527L159.478 35.6207C159.515 35.8397 159.589 36.0407 159.699 36.2214L160.043 36.0106ZM159.877 35.5651C159.858 35.3853 159.864 35.2508 159.887 35.1547L159.495 35.0605C159.457 35.2179 159.454 35.4028 159.476 35.6084L159.877 35.5651ZM159.887 35.1547C160.005 34.6638 160.241 34.1559 160.601 33.6308L160.268 33.4026C159.886 33.9594 159.627 34.5121 159.495 35.0605L159.887 35.1547ZM160.6 33.6327C160.98 33.091 161.418 32.5619 161.912 32.0455L161.621 31.7665C161.113 32.2965 160.663 32.8412 160.27 33.4007L160.6 33.6327ZM161.91 32.0477C162.419 31.5317 162.932 31.0568 163.448 30.6231L163.188 30.3143C162.662 30.7567 162.14 31.24 161.623 31.7643L161.91 32.0477ZM163.447 30.6236C163.98 30.1787 164.46 29.8099 164.887 29.5163L164.658 29.1838C164.218 29.4864 163.728 29.8634 163.189 30.3138L163.447 30.6236ZM164.971 29.3134C164.805 28.4161 164.558 27.5981 164.227 26.8607L163.859 27.0256C164.175 27.73 164.414 28.5167 164.574 29.3867L164.971 29.3134ZM164.228 26.8631C163.913 26.1325 163.504 25.3952 163.005 24.6511L162.67 24.876C163.158 25.6023 163.553 26.318 163.858 27.0231L164.228 26.8631ZM162.995 24.6376C162.935 24.5624 162.926 24.5036 162.94 24.4464L162.548 24.3522C162.5 24.5485 162.554 24.7325 162.68 24.8895L162.995 24.6376ZM162.94 24.4464C162.953 24.3896 162.977 24.3634 163.003 24.3469L162.793 24.003C162.662 24.0829 162.583 24.2063 162.548 24.3522L162.94 24.4464ZM163.019 24.3367C163.051 24.3126 163.081 24.3056 163.126 24.3164L163.22 23.9241C163.062 23.8861 162.908 23.9156 162.778 24.0132L163.019 24.3367ZM163.126 24.3164C163.122 24.3156 163.123 24.3155 163.13 24.3183C163.136 24.3211 163.144 24.3257 163.156 24.3332L163.37 23.9908C163.326 23.9634 163.275 23.9373 163.22 23.9241L163.126 24.3164ZM163.17 24.3409C163.179 24.3458 163.187 24.35 163.193 24.3534C163.199 24.357 163.202 24.3593 163.204 24.3605C163.206 24.3619 163.204 24.3608 163.2 24.3572C163.198 24.3553 163.195 24.3521 163.191 24.3477C163.187 24.3433 163.182 24.3369 163.177 24.3283L163.521 24.1175C163.494 24.0737 163.457 24.0455 163.437 24.0312C163.412 24.0138 163.384 23.9978 163.356 23.9832L163.17 24.3409ZM163.216 24.3747C163.866 24.943 164.325 25.6249 164.596 26.4225L164.978 26.2926C164.683 25.4263 164.184 24.685 163.482 24.071L163.216 24.3747ZM164.597 26.4264C164.892 27.2374 165.11 28.0629 165.252 28.903L165.65 28.8358C165.504 27.9714 165.279 27.1223 164.977 26.2887L164.597 26.4264ZM165.57 29.0321C165.745 28.9036 166.031 28.707 166.43 28.441L166.206 28.1054C165.807 28.3718 165.514 28.5726 165.332 28.7068L165.57 29.0321ZM166.427 28.4432C166.836 28.1815 167.298 27.8986 167.812 27.5943L167.606 27.2471C167.089 27.5533 166.623 27.8386 166.209 28.1033L166.427 28.4432ZM167.814 27.5927C168.33 27.2764 168.842 26.9792 169.348 26.7009L169.154 26.3473C168.642 26.6288 168.125 26.9293 167.603 27.2487L167.814 27.5927ZM169.348 26.7009C169.852 26.4243 170.304 26.211 170.706 26.0596L170.563 25.6821C170.139 25.842 169.669 26.0642 169.154 26.3473L169.348 26.7009ZM170.71 26.0579C171.123 25.8908 171.379 25.855 171.515 25.8876L171.609 25.4953C171.34 25.4305 170.977 25.5144 170.559 25.6839L170.71 26.0579ZM171.515 25.8876C171.569 25.9004 171.577 25.9181 171.584 25.9403L171.971 25.8274C171.919 25.6477 171.784 25.5372 171.609 25.4953L171.515 25.8876ZM171.588 25.9535C171.605 26.0003 171.61 26.0541 171.593 26.1212L171.986 26.2153C172.018 26.0796 172.014 25.9438 171.967 25.8142L171.588 25.9535ZM171.593 26.1212C171.573 26.2059 171.531 26.297 171.462 26.3947L171.791 26.6278C171.885 26.4963 171.951 26.3587 171.986 26.2153L171.593 26.1212ZM171.456 26.4045C171.415 26.4699 171.362 26.5119 171.29 26.5359L171.418 26.9185C171.579 26.8645 171.708 26.7624 171.798 26.6179L171.456 26.4045ZM171.301 26.5326C170.241 26.8209 169.225 27.2082 168.254 27.6943L168.434 28.0551C169.382 27.5811 170.373 27.2033 171.407 26.9218L171.301 26.5326ZM168.255 27.6935C167.292 28.1643 166.356 28.6889 165.448 29.2674L165.664 29.6077C166.56 29.0373 167.483 28.5201 168.432 28.056L168.255 27.6935ZM165.358 29.4742C165.404 29.7246 165.47 30.1143 165.558 30.6444L165.956 30.579C165.868 30.0484 165.801 29.6554 165.754 29.4009L165.358 29.4742ZM165.558 30.6444C165.645 31.1765 165.751 31.7729 165.874 32.4336L166.271 32.3595C166.148 31.701 166.043 31.1075 165.956 30.579L165.558 30.6444ZM165.874 32.4352C166.002 33.0873 166.153 33.725 166.327 34.3484L166.716 34.2395C166.544 33.6268 166.395 32.9996 166.27 32.3579L165.874 32.4352ZM166.328 34.3504C166.507 34.9633 166.702 35.4896 166.914 35.9274L167.277 35.7511C167.077 35.3392 166.89 34.8353 166.715 34.2375L166.328 34.3504ZM166.916 35.9306C167.131 36.3535 167.392 36.6607 167.724 36.7404L167.818 36.3481C167.669 36.3122 167.48 36.1494 167.276 35.7479L166.916 35.9306ZM167.724 36.7404C167.879 36.7775 168.033 36.7729 168.179 36.7202C168.325 36.6681 168.451 36.5732 168.561 36.4483L168.258 36.1823C168.183 36.2678 168.11 36.3163 168.043 36.3405C167.977 36.3641 167.904 36.3687 167.818 36.3481L167.724 36.7404ZM168.558 36.4511C168.777 36.2114 168.962 35.9116 169.117 35.5566L168.748 35.3949C168.606 35.7192 168.442 35.9792 168.26 36.1795L168.558 36.4511ZM169.118 35.5555C169.272 35.1973 169.405 34.8404 169.518 34.4849L169.133 34.3631C169.025 34.7052 168.896 35.0495 168.747 35.396L169.118 35.5555ZM169.516 34.491C169.641 34.1343 169.753 33.836 169.85 33.5955L169.476 33.4441C169.376 33.6923 169.262 33.9968 169.135 34.357L169.516 34.491ZM169.85 33.5955C169.897 33.479 169.937 33.4067 169.966 33.3675C169.98 33.3481 169.986 33.345 169.982 33.3479C169.976 33.3518 169.953 33.3654 169.916 33.3628L169.944 32.9604C169.794 32.9498 169.693 33.0582 169.642 33.1264C169.583 33.2067 169.528 33.3162 169.476 33.4441L169.85 33.5955ZM169.8 33.316C169.8 33.3156 169.798 33.3142 169.797 33.3118C169.795 33.3094 169.793 33.3068 169.792 33.3044C169.79 33.2995 169.792 33.2999 169.792 33.3098L170.195 33.3252C170.199 33.2065 170.159 33.0908 170.06 33.0072L169.8 33.316ZM169.794 33.3467C169.801 33.399 169.799 33.4319 169.794 33.4507L170.186 33.5448C170.206 33.4622 170.206 33.375 170.193 33.2884L169.794 33.3467ZM169.794 33.4507C169.75 33.6336 169.675 33.8912 169.568 34.2257L169.953 34.3486C170.061 34.0108 170.139 33.7422 170.186 33.5448L169.794 33.4507ZM169.566 34.2328C169.473 34.5653 169.355 34.9193 169.212 35.2952L169.589 35.4388C169.736 35.0532 169.858 34.6874 169.955 34.3414L169.566 34.2328ZM169.212 35.2952C169.071 35.6652 168.905 36.0082 168.712 36.3246L169.057 36.5342C169.263 36.1956 169.44 35.8303 169.589 35.4388L169.212 35.2952ZM168.71 36.3285C168.536 36.6296 168.343 36.8603 168.135 37.027L168.387 37.3421C168.643 37.1377 168.866 36.865 169.059 36.5303L168.71 36.3285ZM168.135 37.027C167.947 37.1775 167.76 37.2189 167.56 37.1709L167.466 37.5632C167.799 37.643 168.111 37.5627 168.387 37.3421L168.135 37.027ZM167.56 37.1709C167.335 37.1167 167.091 36.9178 166.845 36.4997L166.498 36.7043C166.766 37.1603 167.084 37.4714 167.466 37.5632L167.56 37.1709ZM166.845 36.4997C166.598 36.0788 166.375 35.5628 166.18 34.9491L165.796 35.0715C165.998 35.706 166.231 36.2512 166.498 36.7043L166.845 36.4997ZM166.181 34.9511C165.986 34.3184 165.809 33.6696 165.649 33.0048L165.256 33.0994C165.419 33.772 165.598 34.4287 165.795 35.0696L166.181 34.9511ZM165.65 33.0098C165.504 32.3327 165.379 31.7142 165.273 31.1544L164.876 31.2295C164.983 31.7931 165.109 32.4148 165.255 33.0944L165.65 33.0098ZM165.273 31.1585C165.18 30.5998 165.108 30.1734 165.057 29.8796L164.66 29.9476C164.71 30.2408 164.782 30.6667 164.876 31.2253L165.273 31.1585ZM164.744 29.7474C164.304 30.0503 163.837 30.4132 163.343 30.8356L163.606 31.1421C164.091 30.727 164.546 30.3731 164.973 30.0798L164.744 29.7474ZM163.345 30.8341C162.852 31.2457 162.378 31.6952 161.922 32.1826L162.216 32.4583C162.662 31.9824 163.124 31.5443 163.604 31.1437L163.345 30.8341ZM161.922 32.1826C161.464 32.6724 161.061 33.1833 160.714 33.7154L161.053 33.9355C161.385 33.4243 161.773 32.9318 162.216 32.4583L161.922 32.1826ZM160.712 33.7188C160.376 34.2591 160.14 34.8012 160.01 35.345L160.402 35.4391C160.521 34.9436 160.737 34.4413 161.055 33.9321L160.712 33.7188ZM160.01 35.345C159.96 35.5534 159.941 35.7627 160.02 35.9225L160.381 35.7437C160.37 35.721 160.355 35.6363 160.402 35.4391L160.01 35.345ZM160.029 35.9385C160.091 36.0411 160.157 36.1297 160.227 36.1984L160.51 35.9104C160.471 35.8727 160.425 35.8137 160.373 35.7277L160.029 35.9385ZM160.209 36.1782C160.214 36.1839 160.227 36.2002 160.213 36.2583L160.605 36.3525C160.64 36.2078 160.626 36.0568 160.528 35.9307L160.209 36.1782ZM160.213 36.2583C160.206 36.2847 160.204 36.2664 160.232 36.2469C160.246 36.2367 160.261 36.2316 160.274 36.23C160.285 36.2285 160.29 36.2303 160.286 36.2294L160.192 36.6217C160.274 36.6413 160.375 36.6396 160.465 36.5761C160.549 36.5165 160.587 36.4274 160.605 36.3525L160.213 36.2583Z" fill="#ECECEC"/>
</g>
</g>
</g>
</g>
<g id="Group 1507">
<g id="Group 1551">
<g id="Group">
<path id="Vector" d="M163.91 42.9361C163.91 43.5488 163.789 44.1555 163.555 44.7215C163.32 45.2876 162.976 45.8018 162.542 46.2348C162.109 46.6679 161.594 47.0112 161.028 47.2453C160.461 47.4793 159.854 47.5994 159.241 47.5988H6.45202C5.21366 47.6001 4.02548 47.1096 3.1488 46.2352C2.27212 45.3608 1.77871 44.1741 1.7771 42.9361V5.75231C1.77871 4.51372 2.27192 3.32638 3.14843 2.45102C4.02494 1.57566 5.2131 1.08382 6.45202 1.0835H159.24C159.853 1.0835 160.461 1.20427 161.027 1.43891C161.594 1.67356 162.108 2.01748 162.542 2.45103C162.975 2.88459 163.319 3.39929 163.554 3.96573C163.788 4.53217 163.909 5.13925 163.909 5.75231L163.91 42.9361Z" fill="white"/>
<path id="Vector_2" d="M159.241 48.6835H6.45208C4.92656 48.6832 3.46346 48.0779 2.38384 47.0004C1.30422 45.9229 0.696262 44.4612 0.693359 42.9361L0.693359 5.75354C0.695616 4.22767 1.30318 2.76499 2.38276 1.68637C3.46235 0.60776 4.9258 0.00128789 6.45208 0L159.24 0C160.766 0.00193052 162.229 0.608609 163.309 1.68708C164.388 2.76556 164.996 4.22786 164.999 5.75354V42.9361C165.001 46.1062 162.414 48.6835 159.241 48.6835Z" fill="#A6A6A6"/>
<path id="Vector_3" d="M163.91 42.9361C163.91 43.5488 163.789 44.1555 163.555 44.7215C163.32 45.2876 162.976 45.8018 162.542 46.2348C162.109 46.6679 161.594 47.0112 161.028 47.2453C160.461 47.4793 159.854 47.5994 159.241 47.5988H6.45202C5.21366 47.6001 4.02548 47.1096 3.1488 46.2352C2.27212 45.3608 1.77871 44.1741 1.7771 42.9361V5.75231C1.77871 4.51372 2.27192 3.32638 3.14843 2.45102C4.02494 1.57566 5.2131 1.08382 6.45202 1.0835H159.24C159.853 1.0835 160.461 1.20427 161.027 1.43891C161.594 1.67356 162.108 2.01748 162.542 2.45103C162.975 2.88459 163.319 3.39929 163.554 3.96573C163.788 4.53217 163.909 5.13925 163.909 5.75231L163.91 42.9361Z" fill="black"/>
<path id="Vector_4" d="M37.3815 24.0856C37.3461 20.1619 40.5951 18.253 40.7437 18.1641C38.9036 15.4821 36.0517 15.1157 35.0495 15.0864C32.6542 14.8344 30.3307 16.5193 29.1105 16.5193C27.866 16.5193 25.987 15.1108 23.9619 15.1522C21.3559 15.1923 18.918 16.7007 17.5809 19.0431C14.8215 23.819 16.8795 30.8375 19.5232 34.6979C20.8457 36.5898 22.391 38.6996 24.4137 38.6253C26.3925 38.545 27.1317 37.3653 29.5197 37.3653C31.8858 37.3653 32.5799 38.6253 34.6427 38.5778C36.7665 38.545 38.1036 36.6786 39.3798 34.7709C40.908 32.6052 41.5218 30.4698 41.5461 30.3602C41.4974 30.3432 37.4229 28.7873 37.3815 24.0856ZM33.4847 12.5469C34.549 11.2162 35.2772 9.40594 35.075 7.56885C33.5346 7.63702 31.6081 8.63409 30.4988 9.93552C29.5173 11.0823 28.6405 12.962 28.867 14.7297C30.5974 14.8588 32.3741 13.8568 33.4847 12.5469Z" fill="white"/>
<path id="Vector_5" d="M159.241 0H77.4028L109.458 48.6835H159.241C160.767 48.6822 162.23 48.0761 163.31 46.998C164.389 45.9199 164.997 44.4579 165 42.9324V5.75354C164.998 4.22777 164.39 2.76527 163.31 1.68673C162.231 0.608185 160.768 0.00160933 159.241 0V0Z" fill="url(#paint0_linear_1_3)"/>
<g id="Group_2">
<path id="Vector_6" d="M66.0437 38.3536H63.2782L61.7633 33.5947H56.4978L55.0547 38.3536H52.3623L57.5803 22.1522H60.8025L66.0437 38.3536ZM61.3066 31.5982L59.9367 27.3676C59.7918 26.9354 59.519 25.9177 59.1196 24.3155H59.0709C58.9101 25.0046 58.6532 26.0224 58.3012 27.3676L56.9544 31.5982H61.3066ZM79.4364 32.3688C79.4364 34.3556 78.897 35.9261 77.8168 37.079C76.8499 38.1053 75.648 38.6178 74.2147 38.6178C72.667 38.6178 71.554 38.0663 70.8781 36.9609V43.0906H68.2819V30.511C68.2819 29.2632 68.249 27.9836 68.1857 26.6713H70.469L70.6139 28.523H70.6626C71.5284 27.1278 72.8423 26.4302 74.6056 26.4302C75.9841 26.4302 77.1349 26.9744 78.0555 28.064C78.9749 29.156 79.4364 30.5901 79.4364 32.3688ZM76.7915 32.4638C76.7915 31.3267 76.5358 30.3893 76.0219 29.6503C75.4605 28.8821 74.7067 28.4974 73.7617 28.4974C73.1212 28.4974 72.5391 28.7117 72.0191 29.1341C71.498 29.5602 71.157 30.1166 70.9975 30.8056C70.9263 31.0633 70.8858 31.3285 70.8769 31.5957V33.5448C70.8769 34.3934 71.1375 35.1104 71.6587 35.6972C72.1799 36.2816 72.857 36.575 73.6899 36.575C74.6677 36.575 75.4288 36.1964 75.9732 35.4452C76.5187 34.6916 76.7915 33.6982 76.7915 32.4638ZM92.8767 32.3688C92.8767 34.3556 92.3372 35.9261 91.2571 37.079C90.289 38.1053 89.0883 38.6178 87.6538 38.6178C86.106 38.6178 84.993 38.0663 84.3172 36.9609V43.0906H81.7209V30.511C81.7209 29.2632 81.688 27.9836 81.6247 26.6713H83.908L84.0529 28.523H84.1016C84.9662 27.1278 86.2802 26.4302 88.0447 26.4302C89.422 26.4302 90.5727 26.9744 91.4958 28.064C92.414 29.156 92.8767 30.5901 92.8767 32.3688ZM90.2305 32.4638C90.2305 31.3267 89.9736 30.3893 89.4597 29.6503C88.8983 28.8821 88.147 28.4974 87.202 28.4974C86.5615 28.4974 85.9794 28.7117 85.457 29.1341C84.9358 29.5602 84.596 30.1166 84.4365 30.8056C84.3573 31.127 84.3147 31.3888 84.3147 31.5957V33.5448C84.3147 34.3934 84.5765 35.1104 85.0953 35.6972C85.6165 36.2804 86.2936 36.575 87.1289 36.575C88.108 36.575 88.8691 36.1964 89.4122 35.4452C89.9578 34.6916 90.2305 33.6982 90.2305 32.4638ZM107.904 33.809C107.904 35.1883 107.421 36.3096 106.463 37.1752C105.409 38.1199 103.936 38.5935 102.049 38.5935C100.305 38.5935 98.907 38.2575 97.8524 37.5842L98.4528 35.4209C99.5913 36.0953 100.842 36.4313 102.203 36.4313C103.182 36.4313 103.944 36.2098 104.487 35.7703C105.031 35.3296 105.306 34.7403 105.306 34.005C105.306 33.3464 105.078 32.7949 104.632 32.3457C104.182 31.8977 103.439 31.4801 102.396 31.0966C99.5585 30.0386 98.1386 28.4913 98.1386 26.4558C98.1386 25.1263 98.6403 24.038 99.6413 23.187C100.642 22.3372 101.97 21.9124 103.621 21.9124C105.096 21.9124 106.324 22.1692 107.3 22.6818L106.648 24.7976C105.73 24.3009 104.694 24.0526 103.534 24.0526C102.619 24.0526 101.9 24.2778 101.386 24.7258C100.954 25.1263 100.735 25.6145 100.735 26.194C100.735 26.8332 100.984 27.364 101.481 27.7803C101.912 28.1638 102.699 28.5814 103.836 29.0294C105.232 29.5919 106.257 30.2468 106.914 30.9992C107.575 31.7516 107.904 32.6902 107.904 33.809ZM116.509 28.6191H113.648V34.2911C113.648 35.7338 114.152 36.4533 115.163 36.4533C115.627 36.4533 116.011 36.4143 116.316 36.3327L116.388 38.3037C115.876 38.4949 115.203 38.591 114.369 38.591C113.343 38.591 112.542 38.2782 111.964 37.6524C111.388 37.0267 111.098 35.9785 111.098 34.5029V28.6143H109.393V26.6664H111.098V24.5274L113.648 23.758V26.6664H116.509V28.6191ZM129.396 32.4163C129.396 34.212 128.882 35.6863 127.856 36.8392C126.784 38.0262 125.356 38.6178 123.577 38.6178C121.86 38.6178 120.495 38.0493 119.477 36.9134C118.459 35.7751 117.95 34.341 117.95 32.6111C117.95 30.8008 118.476 29.3179 119.525 28.165C120.576 27.0109 121.991 26.4339 123.77 26.4339C125.484 26.4339 126.862 27.0036 127.904 28.1407C128.9 29.2437 129.396 30.6681 129.396 32.4163ZM126.704 32.4759C126.704 31.4058 126.473 30.4879 126.009 29.7197C125.465 28.792 124.685 28.3282 123.676 28.3282C122.636 28.3282 121.838 28.792 121.295 29.7197C120.83 30.4879 120.599 31.4216 120.599 32.5246C120.599 33.596 120.83 34.5163 121.295 35.2821C121.857 36.2098 122.64 36.6736 123.654 36.6736C124.646 36.6736 125.425 36.2 125.987 35.259C126.465 34.4725 126.704 33.5485 126.704 32.4759ZM137.838 28.9539C137.568 28.9052 137.294 28.8811 137.02 28.8821C136.107 28.8821 135.4 29.2254 134.904 29.9169C134.472 30.5256 134.256 31.295 134.256 32.2239V38.3536H131.659V30.3503C131.662 29.124 131.637 27.8977 131.584 26.6725H133.845L133.94 28.9077H134.012C134.287 28.1395 134.718 27.5198 135.31 27.056C135.852 26.6507 136.51 26.4312 137.187 26.4302C137.427 26.4302 137.643 26.4473 137.836 26.4777L137.838 28.9539ZM149.449 31.9597C149.456 32.3543 149.424 32.7486 149.355 33.137H141.566C141.595 34.2911 141.973 35.175 142.696 35.7837C143.352 36.3266 144.201 36.5993 145.243 36.5993C146.397 36.5993 147.449 36.4167 148.395 36.0478L148.802 37.8484C147.696 38.3305 146.391 38.5703 144.884 38.5703C143.072 38.5703 141.65 38.0371 140.615 36.9731C139.582 35.9078 139.065 34.4762 139.065 32.6829C139.065 30.9225 139.546 29.4555 140.509 28.2856C141.517 27.0365 142.88 26.4119 144.594 26.4119C146.278 26.4119 147.553 27.0365 148.419 28.2856C149.105 29.2753 149.449 30.5025 149.449 31.9597ZM146.974 31.2865C146.992 30.5159 146.822 29.8524 146.47 29.2912C146.02 28.568 145.329 28.2076 144.402 28.2076C143.553 28.2076 142.861 28.5595 142.335 29.2656C141.903 29.8268 141.646 30.5013 141.567 31.2841L146.974 31.2865Z" fill="white"/>
</g>
<g id="Group_3">
<path id="Vector_7" d="M55.7488 16.4245C55.0266 16.4245 54.4019 16.3892 53.882 16.3295V8.49665C54.6092 8.38434 55.3441 8.32898 56.08 8.33108C59.0574 8.33108 60.4286 9.79564 60.4286 12.183C60.4286 14.9368 58.809 16.4245 55.7488 16.4245ZM56.1847 9.33545C55.7829 9.33545 55.4407 9.3598 55.1569 9.41824V15.3727C55.3104 15.397 55.6051 15.408 56.0191 15.408C57.9699 15.408 59.0805 14.2977 59.0805 12.2183C59.0805 10.3642 58.0759 9.33545 56.1847 9.33545ZM64.7016 16.4842C63.0236 16.4842 61.9361 15.2314 61.9361 13.5307C61.9361 11.7581 63.0467 10.4944 64.7966 10.4944C66.4503 10.4944 67.5621 11.6875 67.5621 13.437C67.5621 15.2314 66.4162 16.4842 64.7016 16.4842ZM64.7503 11.427C63.8285 11.427 63.2379 12.2889 63.2379 13.4942C63.2379 14.6763 63.8407 15.5382 64.7382 15.5382C65.6356 15.5382 66.2384 14.6166 66.2384 13.4698C66.2384 12.3011 65.6478 11.427 64.7503 11.427ZM77.1311 10.6125L75.335 16.3539H74.1647L73.4207 13.8606C73.2357 13.2507 73.0816 12.6319 72.9592 12.0065H72.9348C72.841 12.6322 72.6632 13.2592 72.4745 13.8606L71.683 16.3539H70.5005L68.8103 10.6125H70.1218L70.7721 13.342C70.9255 13.9921 71.0546 14.6057 71.1618 15.1852H71.1861C71.2799 14.7019 71.4333 14.098 71.6586 13.3542L72.4745 10.6137H73.5144L74.295 13.2957C74.4838 13.9458 74.6372 14.5838 74.7565 15.1864H74.7906C74.8734 14.5959 75.0037 13.969 75.1803 13.2957L75.8781 10.6137L77.1311 10.6125ZM83.7435 16.3539H82.4673V13.0571C82.4673 12.0418 82.0776 11.5329 81.3092 11.5329C80.553 11.5329 80.033 12.183 80.033 12.939V16.3539H78.7568V12.2536C78.7568 11.746 78.7447 11.2018 78.7094 10.6113H79.8321L79.8918 11.4976H79.9271C80.2705 10.884 80.967 10.4944 81.7476 10.4944C82.9532 10.4944 83.7447 11.416 83.7447 12.9159L83.7435 16.3539ZM87.2628 16.3539H85.9854V7.97803H87.2628V16.3539ZM91.9158 16.4842C90.239 16.4842 89.1503 15.2314 89.1503 13.5307C89.1503 11.7581 90.2609 10.4944 92.0096 10.4944C93.6645 10.4944 94.7751 11.6875 94.7751 13.437C94.7763 15.2314 93.6292 16.4842 91.9158 16.4842ZM91.9633 11.427C91.0415 11.427 90.4508 12.2889 90.4508 13.4942C90.4508 14.6763 91.0549 15.5382 91.9499 15.5382C92.8486 15.5382 93.4502 14.6166 93.4502 13.4698C93.4514 12.3011 92.862 11.427 91.9633 11.427ZM99.8068 16.3539L99.7142 15.6928H99.6801C99.2905 16.2248 98.7218 16.4842 98.0009 16.4842C96.9719 16.4842 96.2412 15.7634 96.2412 14.7944C96.2412 13.3773 97.4699 12.6444 99.5973 12.6444V12.5385C99.5973 11.7825 99.1967 11.4039 98.4052 11.4039C97.8389 11.4039 97.3421 11.5463 96.9049 11.83L96.6455 10.9911C97.1765 10.66 97.8389 10.4944 98.6171 10.4944C100.117 10.4944 100.875 11.2858 100.875 12.8696V14.9843C100.875 15.5638 100.9 16.013 100.958 16.3551L99.8068 16.3539ZM99.6314 13.4942C98.214 13.4942 97.5028 13.8375 97.5028 14.6519C97.5028 15.2546 97.8694 15.5492 98.3784 15.5492C99.0274 15.5492 99.6314 15.0537 99.6314 14.3805V13.4942ZM107.072 16.3539L107.012 15.4323H106.977C106.61 16.1287 105.994 16.4842 105.133 16.4842C103.749 16.4842 102.723 15.2667 102.723 13.5538C102.723 11.7581 103.786 10.4932 105.238 10.4932C106.006 10.4932 106.551 10.7525 106.858 11.2736H106.883V7.97803H108.161V14.8066C108.161 15.3617 108.174 15.8815 108.208 16.3539H107.072ZM106.883 12.9755C106.883 12.172 106.351 11.4866 105.539 11.4866C104.593 11.4866 104.014 12.3254 104.014 13.5063C104.014 14.6641 104.614 15.4567 105.513 15.4567C106.316 15.4567 106.883 14.7591 106.883 13.9324V12.9755ZM116.26 16.4842C114.583 16.4842 113.495 15.2314 113.495 13.5307C113.495 11.7581 114.606 10.4944 116.355 10.4944C118.01 10.4944 119.12 11.6875 119.12 13.437C119.121 15.2314 117.976 16.4842 116.26 16.4842ZM116.307 11.427C115.387 11.427 114.796 12.2889 114.796 13.4942C114.796 14.6763 115.399 15.5382 116.295 15.5382C117.194 15.5382 117.795 14.6166 117.795 13.4698C117.798 12.3011 117.207 11.427 116.307 11.427ZM125.983 16.3539H124.706V13.0571C124.706 12.0418 124.316 11.5329 123.548 11.5329C122.792 11.5329 122.273 12.183 122.273 12.939V16.3539H120.996V12.2536C120.996 11.746 120.983 11.2018 120.948 10.6113H122.071L122.13 11.4976H122.166C122.508 10.884 123.206 10.4932 123.985 10.4932C125.191 10.4932 125.983 11.4148 125.983 12.9147V16.3539ZM134.57 11.5694H133.166V14.3573C133.166 15.0671 133.412 15.4214 133.909 15.4214C134.134 15.4214 134.323 15.397 134.475 15.3617L134.51 16.3308C134.263 16.4257 133.932 16.4732 133.52 16.4732C132.514 16.4732 131.913 15.9181 131.913 14.4645V11.5694H131.075V10.6125H131.913V9.56068L133.166 9.18206V10.6113H134.57V11.5694ZM141.326 16.3539H140.051V13.0815C140.051 12.054 139.662 11.5341 138.893 11.5341C138.232 11.5341 137.615 11.9833 137.615 12.8928V16.3539H136.34V7.97803H137.615V11.427H137.641C138.043 10.8012 138.625 10.4932 139.368 10.4932C140.583 10.4932 141.326 11.4379 141.326 12.939V16.3539ZM148.247 13.79H144.418C144.442 14.8772 145.162 15.4907 146.227 15.4907C146.793 15.4907 147.315 15.3958 147.775 15.2193L147.973 16.1055C147.43 16.3417 146.791 16.4598 146.047 16.4598C144.251 16.4598 143.188 15.3252 143.188 13.566C143.188 11.8056 144.276 10.4823 145.903 10.4823C147.371 10.4823 148.291 11.5694 148.291 13.2117C148.3 13.4055 148.285 13.5996 148.247 13.79ZM147.077 12.8806C147.077 11.9943 146.63 11.3686 145.814 11.3686C145.081 11.3686 144.502 12.0065 144.419 12.8806H147.077Z" fill="white"/>
</g>
</g>
</g>
</g>
</g>
<defs>
<linearGradient id="paint0_linear_1_3" x1="121.2" y1="48.8128" x2="121.2" y2="-126.764" gradientUnits="userSpaceOnUse">
<stop stop-color="#1A1A1A" stop-opacity="0.1"/>
<stop offset="0.123" stop-color="#212121" stop-opacity="0.151"/>
<stop offset="0.308" stop-color="#353535" stop-opacity="0.227"/>
<stop offset="0.532" stop-color="#575757" stop-opacity="0.318"/>
<stop offset="0.783" stop-color="#858585" stop-opacity="0.421"/>
<stop offset="1" stop-color="#B3B3B3" stop-opacity="0.51"/>
</linearGradient>
<clipPath id="clip0_1_3">
<rect width="1440" height="4627" fill="white" transform="translate(-276 -4042)"/>
</clipPath>
</defs>
</svg>
