<svg width="602" height="585" viewBox="0 0 602 585" fill="none" xmlns="http://www.w3.org/2000/svg">
<path d="M67.1257 374.475L48.4162 374.874L38.9188 375.031C35.7387 375.102 32.5444 375.031 29.3644 375.117H28.7369V374.475L28.6514 358.518V357.805H29.3644L48.245 357.905C54.5481 357.905 60.8369 358.061 67.1257 358.133H67.5107V358.518C67.5107 361.227 67.3824 363.922 67.3253 366.589L67.1257 374.475ZM67.1257 374.475L66.9261 366.418C66.9261 363.766 66.7692 361.127 66.7407 358.518L67.1257 358.903C60.8369 358.988 54.5481 359.131 48.245 359.145L29.3644 359.231L30.0774 358.518L30.0061 374.475L29.3644 373.848C32.4731 373.848 35.5819 373.848 38.7049 373.919L48.0882 374.076L67.1257 374.475Z" fill="#EBEBEB"/>
<path d="M46.0632 378.639H8.30188V394.596H46.0632V378.639Z" fill="#EBEBEB"/>
<path d="M165.18 219.608L146.47 220.007L136.973 220.164C133.793 220.235 130.613 220.164 127.418 220.235H126.791V219.594L126.705 203.636V202.923H127.404L146.285 203.009C152.588 203.009 158.877 203.166 165.165 203.251H165.565V203.636C165.565 206.346 165.436 209.041 165.379 211.693L165.18 219.608ZM165.18 219.608L164.98 211.537C164.98 208.884 164.823 206.26 164.795 203.651L165.18 204.036C158.891 204.107 152.602 204.264 146.299 204.278L127.404 204.364L128.117 203.651L128.046 219.608L127.404 218.966C130.527 218.966 133.622 218.966 136.745 219.052L146.128 219.209L165.18 219.608Z" fill="#EBEBEB"/>
<path d="M144.117 223.772H106.356V239.729H144.117V223.772Z" fill="#EBEBEB"/>
<path d="M451.969 130.652L433.259 131.051L423.748 131.208C420.582 131.208 417.388 131.208 414.208 131.294H413.58V130.652L413.509 114.695V113.982H414.222L433.103 114.067C439.391 114.067 445.694 114.238 451.983 114.31H452.383V114.695C452.383 117.404 452.268 120.099 452.197 122.766L451.969 130.652ZM451.969 130.652L451.769 122.595C451.769 119.928 451.612 117.304 451.584 114.695L451.969 115.08C445.68 115.165 439.377 115.308 433.088 115.322L414.208 115.408L414.921 114.695L414.849 130.652L414.208 130.025C417.316 130.025 420.425 130.025 423.548 130.025L432.917 130.181L451.969 130.652Z" fill="#EBEBEB"/>
<path d="M123.126 219.608L104.402 220.007L94.9048 220.164C91.739 220.235 88.5447 220.164 85.3646 220.235H84.7229V219.594V203.636V202.923H85.4359L104.317 203.009C110.605 203.009 116.908 203.166 123.197 203.251H123.582V203.636C123.582 206.346 123.468 209.041 123.397 211.693L123.126 219.608ZM123.126 219.608L122.926 211.537C122.855 208.884 122.755 206.26 122.741 203.651L123.126 204.021C116.837 204.093 110.534 204.25 104.245 204.264L85.3646 204.349L86.0776 203.636L86.0491 219.608L85.4217 218.966C88.5304 218.966 91.6392 218.966 94.7479 219.052L104.131 219.209L123.126 219.608Z" fill="#EBEBEB"/>
<path d="M567.306 318.731L548.597 319.131L539.099 319.287C535.919 319.287 532.739 319.287 529.545 319.287H528.918V318.646L528.832 302.688V301.975H529.545L548.426 302.061C554.729 302.061 561.018 302.218 567.306 302.289H567.706V302.674C567.706 305.384 567.577 308.064 567.52 310.731L567.306 318.731ZM567.306 318.731L567.107 310.66C567.107 308.007 566.95 305.384 566.921 302.774L567.306 303.159C561.018 303.159 554.729 303.387 548.426 303.387L529.545 303.487L530.258 302.774L530.187 318.731L529.545 318.104C532.668 318.104 535.763 318.104 538.886 318.189L548.269 318.346L567.306 318.731Z" fill="#EBEBEB"/>
<path d="M584.761 324.136H547V340.093H584.761V324.136Z" fill="#EBEBEB"/>
<path d="M573.852 31.8281L555.214 32.2274L545.716 32.3843C542.536 32.4556 539.342 32.3843 536.162 32.4556H535.534V31.8139L535.463 15.8566V15.1436H536.176L555.057 15.2291C561.346 15.2291 567.649 15.4002 573.937 15.4715H574.337V15.8566C574.337 18.566 574.223 21.2612 574.151 23.9136L573.852 31.8281ZM573.852 31.8281L573.652 23.771C573.581 21.1044 573.495 18.4805 573.467 15.8708L573.852 16.2559C567.563 16.3272 561.26 16.484 554.971 16.4983L536.091 16.5838L536.804 15.8708V31.8281L536.162 31.1864C539.271 31.1864 542.379 31.1864 545.502 31.272L554.886 31.4288L573.852 31.8281Z" fill="#EBEBEB"/>
<path d="M594.914 35.9919H557.153V51.9492H594.914V35.9919Z" fill="#EBEBEB"/>
<path d="M46.0632 15.8708H8.30188V31.8281H46.0632V15.8708Z" fill="#EBEBEB"/>
<path d="M144.645 447.203H6.07735L0.487305 336.956H150.249L144.645 447.203Z" fill="#EBEBEB"/>
<path d="M16.9152 349.149H133.85L131.682 387.423H19.3679L16.9152 349.149ZM132.424 350.503H18.3412L20.6371 386.069H130.442L132.424 350.503Z" fill="#C7C7C7"/>
<path d="M19.2825 396.906H129.087L127.361 431.445H21.45L19.2825 396.906ZM127.661 398.261H20.737L22.7192 430.09H125.978L127.661 398.261Z" fill="#C7C7C7"/>
<path d="M63.532 363.195H84.7941L83.5962 372.436H64.7298L63.532 363.195ZM83.254 364.55H65.0721L65.9135 371.081H82.4126L83.254 364.55Z" fill="#C7C7C7"/>
<path d="M63.532 409.555H84.7941L83.5962 418.796H64.7298L63.532 409.555ZM83.254 410.91H65.0721L65.9135 417.441H82.4126L83.254 410.91Z" fill="#C7C7C7"/>
<path d="M120.559 447.203L122.242 459.21L125.636 483.338H132.267V447.203H120.559Z" fill="#EBEBEB"/>
<path d="M120.559 447.203L122.242 459.21H132.267V447.203H120.559Z" fill="#C7C7C7"/>
<path d="M30.1772 447.203L28.4802 459.21L25.0862 483.338H18.4552V447.203H30.1772Z" fill="#EBEBEB"/>
<path d="M30.1772 447.203L28.4802 459.21H18.4552V447.203H30.1772Z" fill="#C7C7C7"/>
<path d="M163.297 122.623L111.333 162.239L60.4948 95.5287L99.0832 66.124L112.459 55.9136L122.142 68.6338L163.297 122.623Z" fill="#EBEBEB"/>
<path d="M75.3973 104.584L117.732 72.3103L116.427 70.5979L74.0918 102.872L75.3973 104.584Z" fill="#DBDBDB"/>
<path d="M78.6999 108.906L121.035 76.6321L119.729 74.9196L77.3944 107.193L78.6999 108.906Z" fill="#DBDBDB"/>
<path d="M81.9911 113.236L124.326 80.9626L123.02 79.2502L80.6857 111.524L81.9911 113.236Z" fill="#DBDBDB"/>
<path d="M85.2709 117.547L127.606 85.2734L126.3 83.561L83.9655 115.835L85.2709 117.547Z" fill="#DBDBDB"/>
<path d="M87.5561 121.911L130.143 89.4382L128.83 87.7156L86.2425 120.188L87.5561 121.911Z" fill="#DBDBDB"/>
<path d="M91.8761 126.206L134.211 93.9321L132.905 92.2197L90.5707 124.494L91.8761 126.206Z" fill="#DBDBDB"/>
<path d="M95.1646 130.528L137.499 98.2542L136.194 96.5417L93.8591 128.816L95.1646 130.528Z" fill="#DBDBDB"/>
<path d="M98.4671 134.85L140.802 102.576L139.496 100.864L97.1616 133.138L98.4671 134.85Z" fill="#DBDBDB"/>
<path d="M101.761 139.161L144.096 106.887L142.79 105.175L100.456 137.448L101.761 139.161Z" fill="#DBDBDB"/>
<path d="M105.049 143.497L147.384 111.223L146.079 109.511L103.744 141.785L105.049 143.497Z" fill="#DBDBDB"/>
<path d="M108.352 147.819L150.687 115.545L149.382 113.833L107.047 146.107L108.352 147.819Z" fill="#DBDBDB"/>
<path d="M110.415 152.111L153.002 119.638L151.689 117.916L109.102 150.388L110.415 152.111Z" fill="#DBDBDB"/>
<path d="M191.547 143.329L126.805 152.114L115.525 69.0046L163.597 62.4734L182.421 76.0492L191.547 143.329Z" fill="#EBEBEB"/>
<path d="M163.597 62.4734L182.42 76.0492L165.75 78.3166L163.597 62.4734Z" fill="#DBDBDB"/>
<path d="M124.52 83.5677L160.478 78.8459L160.198 76.7142L124.24 81.4359L124.52 83.5677Z" fill="#DBDBDB"/>
<path d="M124.767 89.6109L160.758 84.7256L160.468 82.5918L124.477 87.4772L124.767 89.6109Z" fill="#DBDBDB"/>
<path d="M126.044 94.3458L162.002 89.624L161.722 87.4923L125.764 92.214L126.044 94.3458Z" fill="#DBDBDB"/>
<path d="M126.218 100.388L178.968 93.2275L178.678 91.0938L125.928 98.254L126.218 100.388Z" fill="#DBDBDB"/>
<path d="M126.939 105.77L179.689 98.6096L179.4 96.4759L126.65 103.636L126.939 105.77Z" fill="#DBDBDB"/>
<path d="M127.676 111.15L180.426 103.99L180.136 101.856L127.386 109.016L127.676 111.15Z" fill="#DBDBDB"/>
<path d="M128.414 116.545L181.164 109.385L180.874 107.251L128.124 114.411L128.414 116.545Z" fill="#DBDBDB"/>
<path d="M129.121 121.927L181.871 114.767L181.582 112.633L128.832 119.793L129.121 121.927Z" fill="#DBDBDB"/>
<path d="M129.857 127.322L182.607 120.161L182.318 118.028L129.568 125.188L129.857 127.322Z" fill="#DBDBDB"/>
<path d="M130.594 132.702L183.344 125.542L183.054 123.408L130.304 130.568L130.594 132.702Z" fill="#DBDBDB"/>
<path d="M131.332 138.096L184.082 130.936L183.792 128.803L131.042 135.963L131.332 138.096Z" fill="#DBDBDB"/>
<path d="M132.054 143.479L184.804 136.318L184.514 134.185L131.764 141.345L132.054 143.479Z" fill="#DBDBDB"/>
<path d="M544.712 74.6896C549.406 45.4192 529.482 17.886 500.212 13.1924C470.941 8.49876 443.408 28.4222 438.715 57.6926C434.021 86.963 453.944 114.496 483.215 119.19C512.485 123.884 540.019 103.96 544.712 74.6896Z" fill="#EBEBEB"/>
<path d="M502.285 117.993C530.21 113.515 549.217 87.2475 544.739 59.3224C540.262 31.3973 513.994 12.3896 486.069 16.8674C458.144 21.3453 439.136 47.6131 443.614 75.5382C448.092 103.463 474.359 122.471 502.285 117.993Z" fill="#DBDBDB"/>
<path d="M531.633 97.4263C548.198 76.7495 544.865 46.559 524.188 29.9937C503.512 13.4285 473.321 16.7616 456.756 37.4384C440.191 58.1151 443.524 88.3057 464.2 104.871C484.877 121.436 515.068 118.103 531.633 97.4263Z" fill="white"/>
<path opacity="0.5" d="M541.067 57.2112C519.221 70.4448 483.313 92.1633 463.235 104.071C457.564 99.2803 453.079 93.2429 450.129 86.4306L516.511 24.9116C522.71 28.1821 528.119 32.7672 532.361 38.3463C536.602 43.9255 539.574 50.3639 541.067 57.2112Z" fill="#EBEBEB"/>
<path opacity="0.5" d="M542.123 69.0613C541.946 74.4032 540.871 79.6773 538.943 84.6621L479.049 112.955C476.44 112.092 473.912 111.004 471.491 109.703C489.616 99.2646 522.657 80.2556 542.123 69.0613Z" fill="#EBEBEB"/>
<path d="M494.636 22.9011H493.709V30.1739H494.636V22.9011Z" fill="#C7C7C7"/>
<path d="M472.311 28.6017L471.509 29.0652L475.145 35.3636L475.948 34.9001L472.311 28.6017Z" fill="#C7C7C7"/>
<path d="M455.837 44.7136L455.373 45.5164L461.671 49.1527L462.135 48.35L455.837 44.7136Z" fill="#C7C7C7"/>
<path d="M456.946 66.9229H449.673V67.8498H456.946V66.9229Z" fill="#C7C7C7"/>
<path d="M461.69 85.5682L455.391 89.2046L455.855 90.0073L462.153 86.3709L461.69 85.5682Z" fill="#C7C7C7"/>
<path d="M475.152 99.3863L471.52 105.687L472.323 106.15L475.955 99.8492L475.152 99.3863Z" fill="#C7C7C7"/>
<path d="M494.636 104.613H493.709V111.885H494.636V104.613Z" fill="#C7C7C7"/>
<path d="M513.189 99.391L512.386 99.8545L516.022 106.153L516.825 105.689L513.189 99.391Z" fill="#C7C7C7"/>
<path d="M526.598 85.5735L526.135 86.3762L532.433 90.0126L532.897 89.2099L526.598 85.5735Z" fill="#C7C7C7"/>
<path d="M538.672 66.9229H531.399V67.8498H538.672V66.9229Z" fill="#C7C7C7"/>
<path d="M532.5 44.774L526.202 48.4104L526.665 49.2131L532.964 45.5768L532.5 44.774Z" fill="#C7C7C7"/>
<path d="M516.025 28.6382L512.392 34.9385L513.195 35.4015L516.828 29.1012L516.025 28.6382Z" fill="#C7C7C7"/>
<path d="M494.864 26.1953L496.447 70.6304L491.898 70.5734L493.637 26.1667L494.864 26.1953Z" fill="#C7C7C7"/>
<path d="M522.558 51.8924L492.654 70.9727L490.486 66.9798L521.959 50.8086L522.558 51.8924Z" fill="#A6A6A6"/>
<path d="M495.72 67.3932C495.72 67.7007 495.628 68.0012 495.458 68.2568C495.287 68.5124 495.044 68.7117 494.76 68.8293C494.476 68.9469 494.163 68.9777 493.862 68.9178C493.56 68.8578 493.283 68.7097 493.066 68.4924C492.849 68.275 492.701 67.998 492.641 67.6965C492.581 67.395 492.612 67.0824 492.729 66.7984C492.847 66.5144 493.046 66.2716 493.302 66.1008C493.557 65.93 493.858 65.8389 494.165 65.8389C494.577 65.8389 494.973 66.0026 495.264 66.2941C495.556 66.5856 495.72 66.981 495.72 67.3932Z" fill="#C7C7C7"/>
<path d="M301.608 585C430.007 585 534.094 572.001 534.094 555.966C534.094 539.931 430.007 526.932 301.608 526.932C173.21 526.932 69.1222 539.931 69.1222 555.966C69.1222 572.001 173.21 585 301.608 585Z" fill="#EBEBEB"/>
<path d="M3.29651 483.737L77.878 483.395L152.445 483.267L301.608 483.024L450.771 483.267L525.352 483.395L599.934 483.737L525.352 484.08L450.771 484.208L301.608 484.45L152.445 484.208L77.878 484.08L3.29651 483.737Z" fill="#263238"/>
<path d="M536.675 263.801C536.675 263.801 505.773 259.523 513.003 222.161C512.974 222.161 547.499 229.918 536.675 263.801Z" fill="#5F35F2"/>
<path opacity="0.1" d="M536.675 263.801C536.675 263.801 505.773 259.523 513.003 222.161C512.974 222.161 547.499 229.918 536.675 263.801Z" fill="black"/>
<path d="M535.092 256.015C534.484 254.126 533.78 252.269 532.982 250.453C532.982 250.211 532.982 249.968 532.91 249.74C532.853 249.227 532.811 248.713 532.782 248.2C532.697 247.088 532.625 245.975 532.554 244.863C532.426 242.638 532.283 240.399 532.24 238.175C532.246 238.16 532.249 238.143 532.247 238.127C532.245 238.111 532.239 238.095 532.23 238.082C532.221 238.068 532.209 238.057 532.194 238.05C532.18 238.042 532.164 238.038 532.148 238.038C532.131 238.038 532.115 238.042 532.101 238.05C532.086 238.057 532.074 238.068 532.065 238.082C532.056 238.095 532.05 238.111 532.048 238.127C532.047 238.143 532.049 238.16 532.055 238.175C532.055 240.414 532.055 242.638 532.055 244.877C532.055 245.99 532.112 247.102 532.226 248.214C532.226 248.457 532.226 248.713 532.226 248.956C530.494 245.238 528.417 241.69 526.023 238.36C524.969 236.878 523.841 235.45 522.643 234.082C521.417 232.656 520.119 231.33 518.864 229.947C518.793 229.847 518.65 229.947 518.736 230.075C520.954 232.531 522.949 235.179 524.697 237.99C525.638 239.416 526.522 240.842 527.363 242.353L527.078 242.239L525.98 241.797L523.456 240.842C521.802 240.228 520.133 239.629 518.479 239.002C518.379 239.002 518.308 239.13 518.408 239.173C520.062 239.829 521.688 240.514 523.313 241.212L525.695 242.253L526.907 242.752C527.172 242.875 527.449 242.971 527.734 243.038C528.347 244.15 528.975 245.277 529.531 246.417C530.972 249.308 532.234 252.284 533.31 255.33L533.538 255.972C532.724 255.5 531.875 255.09 531 254.745L527.805 253.319C525.638 252.321 523.527 251.309 521.402 250.139C521.381 250.136 521.359 250.139 521.34 250.148C521.321 250.158 521.305 250.174 521.296 250.193C521.286 250.212 521.283 250.234 521.287 250.255C521.291 250.276 521.301 250.296 521.317 250.31C523.442 251.466 525.524 252.692 527.648 253.847C528.704 254.432 529.773 254.988 530.871 255.515C531.754 256.053 532.717 256.448 533.723 256.685C534.76 259.508 535.44 262.449 535.748 265.441C536.105 269.719 536.062 273.997 536.162 278.147C536.162 278.218 536.262 278.218 536.276 278.147C536.575 274.311 536.746 270.432 536.775 266.581C536.783 262.992 536.215 259.424 535.092 256.015Z" fill="#263238"/>
<path d="M530.329 234.068C530.033 236.246 529.928 238.446 530.016 240.642H530.115C530.244 238.46 530.258 236.293 530.515 234.111C530.529 233.968 530.344 233.968 530.329 234.068Z" fill="#263238"/>
<path d="M521.488 235.936C520.109 235.409 518.782 234.755 517.524 233.982C517.424 233.982 517.324 234.082 517.424 234.153C518.666 234.98 520.02 235.624 521.445 236.064C521.517 236.093 521.574 235.964 521.488 235.936Z" fill="#263238"/>
<path d="M537.631 323.024C537.631 319.616 537.545 316.193 537.502 312.785C537.445 301.434 537.326 290.092 537.146 278.76C536.994 269.747 536.784 260.744 536.518 251.751C536.518 251.751 536.518 251.665 536.433 251.637C536.433 249.17 536.433 246.717 536.433 244.264C536.433 244.193 536.361 244.164 536.276 244.164C536.19 244.164 536.133 244.164 536.133 244.264V251.651C536.133 251.651 536.062 251.651 536.062 251.751C535.606 267.779 535.206 283.808 535.106 299.837C535.106 303.088 535.106 306.354 535.106 309.605C534.992 320.062 534.95 330.52 534.978 340.978C534.978 342.632 534.978 344.3 534.978 345.969C534.978 355.523 535.078 365.092 535.078 374.646C535.078 375.16 535.648 375.416 536.262 375.445C536.875 375.473 537.688 375.188 537.688 374.603C537.688 364.065 537.759 353.512 537.759 342.974C537.659 336.314 537.688 329.669 537.631 323.024Z" fill="#263238"/>
<path d="M524.725 312.656C524.725 312.656 509.866 301.633 495.762 309.077C481.659 316.521 479.434 345.199 479.434 345.199C479.434 345.199 500.155 348.15 513.203 335.744C525.766 323.808 524.725 312.656 524.725 312.656Z" fill="#5F35F2"/>
<path d="M528.789 313.327C526.072 312.258 523.134 311.871 520.233 312.2C519.629 312.101 519.019 312.044 518.408 312.029L516.311 311.873L512.033 311.559C509.096 311.345 506.158 311.159 503.235 310.874C503.135 310.874 503.106 311.045 503.235 311.06C506.087 311.43 509.01 311.844 511.919 312.129C513.345 312.286 514.9 312.443 516.397 312.543L517.481 312.657C517.039 312.757 516.597 312.856 516.169 312.985C513.834 313.654 511.577 314.572 509.438 315.723C508.254 315.922 507.099 316.25 505.944 316.521C504.105 316.963 502.279 317.434 500.454 317.947C496.846 318.903 493.324 319.958 489.687 320.999C489.669 321.007 489.653 321.019 489.642 321.036C489.631 321.052 489.625 321.072 489.625 321.092C489.625 321.112 489.631 321.131 489.642 321.148C489.653 321.164 489.669 321.177 489.687 321.184C493.267 320.315 496.818 319.502 500.454 318.646C502.194 318.233 503.934 317.833 505.673 317.391L507.099 317.078C503.104 319.553 499.535 322.659 496.532 326.275C493.628 329.826 491.162 333.714 489.188 337.855C489.188 337.955 489.288 338.054 489.345 337.955C491.792 333.7 494.778 329.78 498.229 326.29C498.229 326.489 498.101 326.689 498.044 326.889C497.759 327.758 497.488 328.628 497.217 329.513C496.661 331.252 496.105 333.006 495.591 334.76C495.591 334.889 495.734 334.917 495.762 334.76C496.39 333.063 496.989 331.352 497.588 329.641C497.887 328.814 498.172 327.972 498.472 327.131C498.629 326.703 498.771 326.261 498.914 325.833C498.914 325.691 499.014 325.562 499.056 325.434C500.707 323.814 502.47 322.313 504.333 320.942C506.781 319.136 509.427 317.615 512.219 316.407C512.219 316.678 512.119 316.935 512.076 317.177C511.919 317.848 511.777 318.532 511.634 319.202C511.349 320.628 511.064 322.054 510.793 323.48C510.237 326.332 509.894 329.27 509.367 332.151C509.367 332.265 509.524 332.308 509.552 332.151C510.208 329.299 511.078 326.447 511.72 323.509C512.033 322.083 512.361 320.657 512.675 319.16C512.803 318.475 512.946 317.733 513.074 317.12C513.166 316.744 513.238 316.363 513.288 315.979L514.101 315.651C517.991 313.972 522.266 313.385 526.465 313.955C528.428 314.313 530.271 315.152 531.832 316.396C533.392 317.64 534.62 319.251 535.406 321.085C535.549 321.398 536.062 321.199 535.976 320.871C535.464 319.133 534.544 317.542 533.294 316.23C532.045 314.919 530.5 313.923 528.789 313.327Z" fill="#263238"/>
<path d="M491.655 330.368C489.759 331.323 487.919 332.421 485.951 333.22C485.935 333.22 485.919 333.224 485.905 333.232C485.89 333.24 485.878 333.251 485.869 333.265C485.86 333.279 485.855 333.294 485.853 333.31C485.852 333.327 485.854 333.343 485.861 333.358C485.867 333.373 485.877 333.386 485.889 333.397C485.902 333.407 485.917 333.414 485.933 333.418C485.949 333.421 485.965 333.42 485.981 333.415C485.997 333.411 486.011 333.402 486.023 333.391C487.919 332.436 489.901 331.594 491.727 330.453C491.741 330.411 491.698 330.339 491.655 330.368Z" fill="#263238"/>
<path d="M528.119 292.435C528.119 292.435 509.951 293.605 501.495 281.612C493.039 269.619 494.907 252.507 494.907 252.507C494.907 252.507 513.987 254.817 521.559 263.416C529.132 272.015 528.119 292.435 528.119 292.435Z" fill="#5F35F2"/>
<path d="M536.675 310.346C536.048 308.407 535.249 306.482 534.522 304.571C533.795 302.66 533.096 300.935 532.269 299.138C530.642 295.475 528.823 291.9 526.821 288.428C525.538 286.218 524.169 284.079 522.757 281.968C522.757 281.64 522.657 281.327 522.615 280.999L522.358 279.316C522.172 278.161 521.973 277.02 521.787 275.865C521.36 273.355 520.846 270.874 520.447 268.35C520.447 268.236 520.247 268.236 520.262 268.35C520.632 270.817 520.875 273.312 521.217 275.794C521.388 277.02 521.559 278.232 521.745 279.459C521.745 279.901 521.873 280.328 521.944 280.771C519.166 276.725 516.167 272.835 512.96 269.12L511.634 267.694C511.586 267.553 511.529 267.414 511.463 267.28C511.335 266.924 511.192 266.582 511.064 266.239C510.807 265.512 510.536 264.813 510.279 264.072C509.766 262.646 509.31 261.22 508.925 259.794C508.925 259.665 508.725 259.722 508.753 259.794C509.11 261.22 509.495 262.774 509.937 264.243C510.151 264.956 510.379 265.669 510.636 266.353L510.764 266.696C508.44 264.172 506.015 261.733 503.634 259.323C503.534 259.237 503.406 259.323 503.491 259.451C508.175 264.366 512.466 269.639 516.326 275.223C515.886 275.083 515.438 274.968 514.985 274.881C513.559 274.61 512.133 274.41 510.707 274.239C507.741 273.854 504.789 273.484 501.837 273.027C501.723 273.027 501.68 273.184 501.837 273.198C504.689 273.754 507.441 274.396 510.237 275.038C511.563 275.337 512.889 275.594 514.215 275.851C515.297 276.092 516.364 276.396 517.409 276.763C517.695 277.191 517.994 277.605 518.294 278.018C519.62 279.958 520.903 281.94 522.158 283.936L520.304 283.58C518.878 283.309 517.452 283.052 516.026 282.824C513.245 282.368 510.479 281.883 507.741 281.255C507.722 281.263 507.707 281.276 507.695 281.292C507.684 281.309 507.678 281.328 507.678 281.348C507.678 281.368 507.684 281.388 507.695 281.404C507.707 281.421 507.722 281.433 507.741 281.441C510.522 282.097 513.274 282.867 516.026 283.594C517.352 283.936 518.693 284.264 520.048 284.564L522.058 285.006C522.33 285.073 522.606 285.116 522.885 285.134C525.538 289.441 528.019 293.842 530.329 298.339C531.342 300.321 532.311 302.318 533.267 304.329C534.222 306.339 535.064 308.493 535.962 310.589C536.09 310.974 536.746 310.803 536.675 310.346Z" fill="#263238"/>
<path d="M518.009 268.592C517.652 266.867 517.296 265.127 516.91 263.416C516.91 263.287 516.711 263.344 516.725 263.416C517.067 265.127 517.395 266.824 517.709 268.535C517.965 270.248 518.307 271.948 518.736 273.626C518.613 271.933 518.37 270.251 518.009 268.592Z" fill="#263238"/>
<path d="M507.413 268.093C506.557 267.665 505.673 267.337 504.789 266.995L503.363 266.453L502.664 266.168C502.395 266.091 502.136 265.981 501.894 265.84C501.752 265.726 501.666 265.968 501.809 265.997C502.078 266.068 502.337 266.173 502.579 266.311L503.263 266.624L504.59 267.209C505.467 267.616 506.367 267.973 507.285 268.279C507.442 268.307 507.513 268.193 507.413 268.093Z" fill="#263238"/>
<path d="M546.657 278.175C546.657 278.175 557.652 257.64 574.38 254.46C591.107 251.28 601.346 268.493 601.346 268.493C601.346 268.493 589.153 284.036 573.752 286.731C558.351 289.427 546.657 278.175 546.657 278.175Z" fill="#5F35F2"/>
<path d="M585.602 263.629C581.245 263.04 576.825 263.093 572.483 263.786L573.224 263.373C574.479 262.745 575.706 262.104 576.946 261.462C579.513 260.136 582.109 258.71 584.789 257.626C584.81 257.616 584.826 257.599 584.835 257.578C584.843 257.556 584.842 257.532 584.832 257.512C584.823 257.491 584.805 257.475 584.784 257.467C584.763 257.459 584.739 257.459 584.718 257.469C582.109 258.681 579.385 259.708 576.761 260.906C575.449 261.519 574.166 262.146 572.882 262.817C572.055 263.259 571.142 263.672 570.33 264.243C566.657 264.976 563.089 266.159 559.706 267.765C560.404 267.009 561.132 266.253 561.788 265.483C563.356 263.786 564.882 261.989 566.593 260.435C566.693 260.349 566.593 260.221 566.465 260.307C564.711 261.89 562.857 263.373 561.16 265.027C560.347 265.825 559.549 266.653 558.779 267.508C558.408 267.936 558.023 268.378 557.652 268.834C551.919 271.909 546.937 276.214 543.064 281.441C539.191 286.667 536.522 292.686 535.249 299.066C535.249 299.18 535.392 299.252 535.42 299.066C537.776 291.235 541.994 284.092 547.713 278.246C553.875 271.996 561.618 267.535 570.116 265.341C575.16 264.049 580.378 263.567 585.574 263.915C585.599 263.901 585.621 263.882 585.637 263.859C585.653 263.835 585.662 263.808 585.665 263.78C585.668 263.751 585.664 263.723 585.653 263.697C585.642 263.67 585.624 263.647 585.602 263.629Z" fill="#263238"/>
<path opacity="0.1" d="M601.36 268.449C601.36 268.449 589.153 284.036 573.752 286.731C562.044 288.813 552.362 282.71 548.497 279.701L547.656 278.275C547.656 278.275 555.57 271.601 570.543 267.736C585.517 263.872 601.36 268.449 601.36 268.449Z" fill="black"/>
<path d="M575.891 256.3C574.609 257.052 573.366 257.871 572.169 258.752C571.012 259.642 569.933 260.629 568.946 261.704C568.861 261.804 568.946 261.918 569.089 261.847C570.201 260.877 571.313 259.908 572.469 258.995C573.588 258.076 574.765 257.228 575.991 256.457C576.091 256.399 575.991 256.243 575.891 256.3Z" fill="#263238"/>
<path d="M585.075 259.779L583.192 260.521L581.339 261.291C581.196 261.291 581.267 261.562 581.339 261.505L583.207 260.749C583.834 260.492 584.447 260.207 585.06 259.965C585.232 259.908 585.16 259.736 585.075 259.779Z" fill="#263238"/>
<path d="M544.476 303.986C544.476 303.986 547.413 324.364 562.729 331.48C578.044 338.596 596.725 331.48 596.725 331.48C596.725 331.48 589.438 287.401 544.476 303.986Z" fill="#5F35F2"/>
<path d="M586.173 318.232C584.747 318.075 583.321 317.833 581.966 317.576L579.898 317.191C579.556 317.12 579.185 317.034 578.829 316.977C578.415 316.592 578.002 316.193 577.588 315.822C574.682 313.274 571.545 311.002 568.219 309.034C566.402 307.977 564.526 307.025 562.6 306.182H562.886L567.934 306.41C571.299 306.567 574.65 306.639 578.016 306.852C578.13 306.852 578.13 306.667 578.016 306.667C574.636 306.439 571.285 306.068 567.92 305.783L563.014 305.341L560.49 305.127H559.848C558.964 304.799 558.094 304.485 557.196 304.214C553.019 302.784 548.528 302.537 544.219 303.501C540.369 304.485 536.518 307.009 535.52 311.073C535.52 311.216 535.706 311.316 535.763 311.173C537.189 307.765 540.968 306.068 544.319 305.355C546.61 304.92 548.958 304.877 551.264 305.227C551.417 306.277 551.675 307.308 552.034 308.307C552.461 309.733 552.875 311.159 553.303 312.585C554.173 315.437 555.128 318.289 555.984 321.141C555.984 321.255 556.183 321.141 556.155 321.141C555.442 318.289 554.843 315.437 554.158 312.585C553.816 311.159 553.46 309.733 553.117 308.378C552.915 307.414 552.658 306.461 552.347 305.526C553.69 305.767 555.018 306.082 556.326 306.467C558.689 307.175 561.008 308.023 563.271 309.006C563.485 310.432 563.813 311.858 564.141 313.284C564.568 315.081 565.039 316.863 565.567 318.617C565.574 318.636 565.587 318.652 565.603 318.663C565.62 318.674 565.639 318.68 565.659 318.68C565.679 318.68 565.699 318.674 565.715 318.663C565.732 318.652 565.745 318.636 565.752 318.617C565.72 318.51 565.696 318.4 565.681 318.289C565.338 316.621 564.982 314.952 564.625 313.298C564.34 311.958 564.084 310.603 563.784 309.262C565.694 310.119 567.56 311.07 569.374 312.114C569.374 312.528 569.517 312.942 569.574 313.327C569.688 314.025 569.816 314.753 569.945 315.423C570.23 316.992 570.543 318.56 570.914 320.115C571.609 323.118 572.49 326.076 573.552 328.97C573.538 328.986 573.531 329.006 573.531 329.027C573.531 329.048 573.538 329.069 573.552 329.084L573.638 329.184C573.638 329.27 573.809 329.184 573.795 329.099C573.082 326.075 572.283 323.081 571.613 320.043C571.285 318.532 570.943 317.02 570.643 315.508C570.486 314.753 570.358 313.983 570.215 313.227C570.215 313.013 570.144 312.77 570.101 312.542C575.729 315.863 580.82 320.017 585.203 324.863C585.317 324.977 585.531 324.863 585.431 324.678C584.262 323.138 583.093 321.64 581.781 320.214C581.011 319.402 580.198 318.603 579.385 317.819H579.642L581.795 318.147C583.221 318.332 584.647 318.475 586.073 318.631C586.244 318.432 586.301 318.246 586.173 318.232Z" fill="#263238"/>
<path d="M575.406 325.149C575.406 324.977 575.406 324.806 575.321 324.621C575.235 324.436 575.164 324.193 575.135 323.965C574.822 322.539 574.551 321.241 574.308 319.858C574.308 319.835 574.299 319.814 574.283 319.798C574.267 319.781 574.245 319.772 574.223 319.772C574.2 319.772 574.178 319.781 574.162 319.798C574.146 319.814 574.137 319.835 574.137 319.858C574.233 321.683 574.628 323.48 575.306 325.177C575.306 325.177 575.421 325.177 575.406 325.177V325.149Z" fill="#263238"/>
<path d="M562.586 324.821C562.586 324.798 562.577 324.776 562.561 324.76C562.545 324.744 562.523 324.735 562.501 324.735C562.059 322.924 561.645 321.113 561.274 319.302C561.089 318.346 560.889 317.391 560.704 316.45C560.604 315.936 560.504 315.423 560.419 314.91C560.37 314.455 560.26 314.009 560.091 313.583H559.919C559.9 314.506 560.03 315.426 560.305 316.307C560.49 317.305 560.675 318.304 560.903 319.288C561.346 321.298 561.845 323.295 562.415 325.277C562.415 325.391 562.629 325.363 562.615 325.277L562.586 324.821Z" fill="#263238"/>
<path d="M584.775 312.4C581.923 312.015 579.185 311.601 576.376 311.273C576.262 311.273 576.219 311.43 576.376 311.444C579.228 311.858 581.98 312.214 584.775 312.571C584.847 312.571 584.904 312.4 584.775 312.4Z" fill="#263238"/>
<path d="M536.675 256.2C536.675 256.2 527.292 215.073 571.485 198.431C571.442 198.431 583.734 252.507 536.675 256.2Z" fill="#5F35F2"/>
<path d="M546.173 232.884C546.326 232.759 546.488 232.645 546.657 232.542L549.153 231.116L554.272 228.264C557.652 226.382 560.975 224.428 564.369 222.56C564.483 222.56 564.369 222.346 564.283 222.403C560.875 224.257 557.41 225.982 553.987 227.793L548.925 230.474L546.857 231.558C548.283 228.706 549.909 226.025 551.634 223.387C553.944 219.865 556.469 216.513 559.107 213.219C559.133 213.191 559.147 213.153 559.146 213.114C559.145 213.076 559.128 213.039 559.1 213.012C559.071 212.986 559.033 212.972 558.995 212.973C558.956 212.975 558.919 212.991 558.893 213.02C555.014 216.786 551.584 220.987 548.668 225.54C548.668 225.398 548.668 225.255 548.668 225.112C548.668 224.086 548.754 223.073 548.768 222.046C548.768 220.036 548.697 218.025 548.768 216.014C548.768 215.9 548.583 215.9 548.583 216.014C548.497 217.982 548.269 219.95 548.155 221.932C548.098 222.883 548.055 223.867 548.026 224.884C548.026 225.426 547.955 226.025 548.026 226.61C547.114 228.036 546.23 229.462 545.403 231.016C543.926 233.699 542.607 236.465 541.452 239.301C541.452 238.275 541.353 237.248 541.296 236.235C541.167 233.982 540.882 231.743 540.796 229.49C540.796 229.464 540.786 229.438 540.767 229.42C540.749 229.401 540.723 229.39 540.697 229.39C540.67 229.39 540.645 229.401 540.626 229.42C540.607 229.438 540.597 229.464 540.597 229.49C540.597 231.743 540.597 233.997 540.597 236.25C540.597 237.376 540.597 238.503 540.739 239.629C540.739 240.029 540.739 240.456 540.825 240.884C539.415 244.555 538.299 248.331 537.488 252.178C536.723 256.287 536.171 260.433 535.834 264.599C536.3 260.847 537.083 257.14 538.173 253.519C538.714 251.58 539.299 249.654 539.912 247.744C541.752 246.874 543.52 245.79 545.288 244.806L550.836 241.768C554.529 239.743 558.208 237.69 562.016 235.907C562.116 235.907 562.016 235.694 561.916 235.751C558.051 237.49 554.173 239.145 550.394 241.055C548.511 241.997 546.657 243.009 544.818 244.036C543.292 244.906 541.709 245.776 540.24 246.76C540.668 245.49 541.124 244.207 541.666 242.952C542.993 239.52 544.497 236.16 546.173 232.884Z" fill="#263238"/>
<path d="M542.379 223.472C542.372 223.454 542.359 223.438 542.343 223.427C542.326 223.415 542.307 223.409 542.287 223.409C542.267 223.409 542.247 223.415 542.231 223.427C542.214 223.438 542.201 223.454 542.194 223.472C542.351 225.825 542.436 228.164 542.679 230.517C542.687 230.539 542.702 230.557 542.721 230.571C542.74 230.584 542.762 230.591 542.786 230.591C542.809 230.591 542.832 230.584 542.851 230.571C542.87 230.557 542.885 230.539 542.893 230.517C542.864 228.15 542.608 225.825 542.379 223.472Z" fill="#263238"/>
<path d="M563.627 231.33C560.861 232.442 558.066 233.497 555.313 234.653C555.242 234.653 555.313 234.809 555.313 234.781C558.165 233.74 560.861 232.599 563.641 231.515C563.77 231.472 563.77 231.287 563.627 231.33Z" fill="#263238"/>
<path d="M567.82 212.364C565.118 213.634 562.495 215.062 559.962 216.642C559.936 216.659 559.917 216.686 559.91 216.717C559.904 216.747 559.91 216.78 559.927 216.806C559.944 216.833 559.97 216.851 560.001 216.858C560.032 216.865 560.064 216.859 560.091 216.842C562.657 215.344 565.267 213.918 567.919 212.564C568.048 212.464 567.934 212.307 567.82 212.364Z" fill="#263238"/>
<path d="M567.164 345.142H503.434V412.322H567.164V345.142Z" fill="#37474F"/>
<path d="M502.308 368.914H499.042V483.98H502.308V368.914Z" fill="#263238"/>
<path d="M571.214 368.914H567.948V483.98H571.214V368.914Z" fill="#263238"/>
<path d="M538.5 368.914H535.235V483.98H538.5V368.914Z" fill="#263238"/>
<path d="M569.574 408.015H500.682V417.313H569.574V408.015Z" fill="#263238"/>
<path d="M93.0225 476.223C93.0261 490.407 98.3906 504.066 108.041 514.462C117.691 524.858 130.913 531.222 145.058 532.28V532.437H463.391C480.386 532.448 496.731 525.91 509.03 514.181C521.329 502.452 528.635 486.436 529.43 469.46C530.225 452.484 524.448 435.854 513.299 423.027C502.15 410.201 486.487 402.163 469.566 400.586C468.735 374.769 458.951 350.045 441.89 330.651C424.829 311.257 401.554 298.401 376.053 294.286C350.553 290.171 324.415 295.053 302.12 308.097C279.824 321.14 262.76 341.531 253.85 365.777C244.687 361.157 234.564 358.763 224.303 358.789C207.487 358.786 191.304 365.199 179.054 376.718C166.804 388.237 159.409 403.995 158.378 420.779C155.356 420.278 152.299 420.03 149.237 420.037C134.333 420.037 120.039 425.956 109.497 436.492C98.9559 447.028 93.03 461.319 93.0225 476.223Z" fill="#5F35F2"/>
<g opacity="0.1">
<path d="M93.0225 476.223C93.0261 490.407 98.3906 504.066 108.041 514.462C117.691 524.858 130.913 531.222 145.058 532.28V532.437H463.391C480.386 532.448 496.731 525.91 509.03 514.181C521.329 502.452 528.635 486.436 529.43 469.46C530.225 452.484 524.448 435.854 513.299 423.027C502.15 410.201 486.487 402.163 469.566 400.586C468.735 374.769 458.951 350.045 441.89 330.651C424.829 311.257 401.554 298.401 376.053 294.286C350.553 290.171 324.415 295.053 302.12 308.097C279.824 321.14 262.76 341.531 253.85 365.777C244.687 361.157 234.564 358.763 224.303 358.789C207.487 358.786 191.304 365.199 179.054 376.718C166.804 388.237 159.409 403.995 158.378 420.779C155.356 420.278 152.299 420.03 149.237 420.037C134.333 420.037 120.039 425.956 109.497 436.492C98.9559 447.028 93.03 461.319 93.0225 476.223Z" fill="black"/>
</g>
<path d="M73.771 476.223C73.7744 490.405 79.1369 504.062 88.784 514.457C98.4311 524.853 111.65 531.219 125.793 532.28V532.437H444.14C461.135 532.448 477.48 525.91 489.779 514.181C502.077 502.452 509.383 486.436 510.178 469.46C510.973 452.484 505.196 435.854 494.047 423.027C482.899 410.201 467.236 402.163 450.315 400.586C449.484 374.769 439.699 350.045 422.638 330.651C405.577 311.257 382.302 298.401 356.802 294.286C331.301 290.171 305.163 295.053 282.868 308.097C260.573 321.14 243.508 341.531 234.599 365.777C225.436 361.157 215.313 358.763 205.051 358.789C188.235 358.786 172.05 365.198 159.797 376.717C147.544 388.235 140.146 403.994 139.112 420.779C136.096 420.278 133.043 420.03 129.985 420.037C115.081 420.037 100.787 425.956 90.2458 436.492C79.7044 447.028 73.7786 461.319 73.771 476.223Z" fill="#5F35F2"/>
<path d="M330.3 293.234V441.427H272.859V314.682C289.605 302.266 309.515 294.832 330.3 293.234Z" fill="white"/>
<path d="M359.776 441.427H243.44L301.608 513.684L359.776 441.427Z" fill="white"/>
<path d="M118.434 357.334C122.37 358.76 238.72 360.614 243.127 357.976C243.654 357.69 244.652 332.621 244.652 332.621C265.515 289.74 286.007 251.08 286.007 251.08L204.239 247.857L170.984 318.104C170.984 318.104 124.623 339.808 122.884 341.106C118.363 344.542 114.57 355.894 118.434 357.334Z" fill="#F7A9A0"/>
<path d="M118.42 357.334C122.37 358.76 238.706 360.614 243.126 357.976C243.654 357.691 244.652 332.621 244.652 332.621C247.233 327.302 249.815 322.068 252.339 316.935L177.914 303.473L170.984 318.104C170.984 318.104 124.552 339.865 122.883 341.149C118.363 344.543 114.484 355.894 118.42 357.334Z" fill="#EBEBEB"/>
<path d="M117.422 358.204C121.486 359.63 238.478 361.684 242.998 358.946C244.709 357.919 245.551 349.691 246.521 329.084L171.982 316.364C171.982 316.364 126.349 338.068 121.7 341.534C117.051 344.999 113.301 356.764 117.422 358.204Z" fill="#A6A6A6"/>
<path d="M119.133 353.555C138.741 353.412 217.9 354.71 237.294 356.051C237.451 356.051 237.451 356.179 237.294 356.179C217.857 356.749 138.713 354.753 119.119 353.869C118.705 353.854 118.705 353.555 119.133 353.555Z" fill="#263238"/>
<path d="M129.329 337.455C131.511 337.436 133.673 337.869 135.678 338.729C137.683 339.588 139.489 340.853 140.98 342.446C143.679 345.296 145.18 349.073 145.172 352.999C145.172 353.113 144.958 353.113 144.93 352.999C144.33 349.091 142.476 345.485 139.646 342.724C136.816 339.964 133.165 338.199 129.244 337.697C129.211 337.686 129.185 337.662 129.17 337.632C129.156 337.601 129.154 337.565 129.165 337.533C129.177 337.501 129.2 337.475 129.231 337.46C129.262 337.445 129.297 337.443 129.329 337.455Z" fill="#263238"/>
<path d="M163.853 320.557C171.711 320.557 180.752 323.523 185.529 330.025C185.715 330.268 185.344 330.539 185.116 330.411C178.324 326.693 171.153 323.714 163.725 321.526C163.616 321.489 163.524 321.415 163.463 321.317C163.403 321.219 163.378 321.103 163.393 320.989C163.408 320.875 163.462 320.77 163.546 320.691C163.63 320.612 163.739 320.565 163.853 320.557Z" fill="#263238"/>
<path d="M157.75 322.81C165.608 322.81 174.663 325.776 179.426 332.279C179.611 332.535 179.24 332.792 179.012 332.664C172.217 328.953 165.046 325.975 157.622 323.78C157.513 323.742 157.421 323.668 157.36 323.57C157.3 323.472 157.275 323.356 157.29 323.242C157.305 323.128 157.359 323.023 157.443 322.944C157.527 322.865 157.635 322.818 157.75 322.81Z" fill="#263238"/>
<path d="M151.647 325.077C159.504 325.077 168.559 328.029 173.322 334.532C173.508 334.789 173.151 335.045 172.909 334.917C166.114 331.204 158.944 328.226 151.518 326.033C151.402 326.004 151.301 325.934 151.234 325.835C151.166 325.736 151.138 325.616 151.154 325.497C151.17 325.379 151.229 325.271 151.32 325.193C151.411 325.115 151.527 325.074 151.647 325.077Z" fill="#263238"/>
<path d="M145.543 327.33C153.401 327.33 162.456 330.282 167.219 336.785C167.404 337.042 167.048 337.298 166.82 337.184C160.029 333.463 152.858 330.484 145.429 328.3C145.321 328.263 145.228 328.191 145.167 328.094C145.106 327.997 145.08 327.883 145.094 327.769C145.107 327.655 145.159 327.55 145.241 327.47C145.323 327.39 145.429 327.341 145.543 327.33Z" fill="#263238"/>
<path d="M232.631 337.341C241.43 337.526 241.187 351.202 232.346 351.031C223.504 350.859 223.804 337.155 232.631 337.341Z" fill="white"/>
<path d="M156.167 310.974C160.303 316.507 166.691 320.057 172.224 324.022C172.354 324.103 172.501 324.152 172.653 324.164C172.805 324.176 172.958 324.151 173.099 324.091C173.239 324.03 173.363 323.937 173.459 323.818C173.555 323.699 173.621 323.559 173.65 323.409C173.682 323.415 173.714 323.414 173.745 323.406C173.776 323.399 173.805 323.384 173.83 323.363C173.855 323.343 173.874 323.317 173.888 323.288C173.901 323.259 173.908 323.227 173.907 323.195C173.455 315.985 171.114 309.021 167.119 303.002C164.738 299.537 159.775 296.228 155.711 299.451C151.647 302.674 153.743 307.751 156.167 310.974ZM155.91 304.457C156.837 295.9 164.467 302.631 166.092 305.255C167.164 306.966 168.117 308.748 168.944 310.589C170.67 314.396 171.796 318.36 173.223 322.296C170.627 320.186 167.875 318.318 165.208 316.307C161.9 313.911 155.397 309.177 155.925 304.471L155.91 304.457Z" fill="#263238"/>
<path d="M201.857 318.689C201.33 313.555 195.497 312.343 191.348 313.07C184.26 314.449 177.657 317.659 172.196 322.382C172.169 322.402 172.148 322.428 172.133 322.457C172.118 322.487 172.11 322.52 172.11 322.553C172.11 322.586 172.118 322.619 172.133 322.649C172.148 322.678 172.169 322.704 172.196 322.724C172.117 322.851 172.07 322.995 172.057 323.144C172.044 323.293 172.066 323.442 172.122 323.581C172.177 323.72 172.264 323.843 172.376 323.942C172.488 324.041 172.622 324.112 172.766 324.15C179.454 325.305 186.47 327.373 193.33 326.446C197.28 325.919 202.342 323.551 201.857 318.689ZM183.319 323.837C180.011 323.352 176.745 322.71 173.422 322.339C177.1 320.411 180.874 318.674 184.731 317.134C186.591 316.419 188.496 315.828 190.435 315.366C193.458 314.71 203.554 315.366 198.135 322.068C195.169 325.733 187.298 324.421 183.29 323.808L183.319 323.837Z" fill="#263238"/>
<path d="M258.357 308.934L177.073 296.599C177.073 296.599 223.077 206.602 240.374 176.385C253.836 152.87 290.656 151.714 308.567 179.893C332.482 217.526 351.049 252.792 361.687 272.342L380.083 273.897L376.104 304.043L314.785 317.776C291.298 320.628 274.856 278.774 274.428 279.473C273.045 282.054 258.357 308.934 258.357 308.934Z" fill="#37474F"/>
<path d="M273.986 279.687C276.296 274.952 278.107 269.918 280.161 265.07C282.214 260.221 284.154 255.687 286.121 250.981C290.114 241.469 294.25 232.015 298.114 222.46C300.282 217.098 302.278 211.679 304.318 206.26C304.318 206.132 304.56 206.26 304.517 206.26C302.949 211.375 301.309 216.476 299.597 221.562C300.054 220.678 300.51 219.808 301.023 218.952C302.335 216.613 303.676 214.317 305.031 212.007C305.044 211.994 305.062 211.985 305.081 211.982C305.1 211.98 305.119 211.984 305.136 211.994C305.152 212.004 305.165 212.019 305.172 212.037C305.178 212.055 305.179 212.075 305.173 212.093C303.918 214.403 302.678 216.713 301.38 219.009C300.738 220.15 300.025 221.277 299.355 222.417C294.607 236.652 288.968 250.574 282.471 264.1C279.89 269.405 276.866 274.482 274.271 279.787C274.143 280.015 273.9 279.858 273.986 279.687Z" fill="#263238"/>
<path d="M256.546 294.474C260.467 288.428 269.808 270.103 273.159 263.772C279.918 250.938 286.107 237.889 291.968 224.642C295.277 217.155 298.371 209.611 301.437 202.025C301.437 202.025 301.537 202.025 301.523 202.025C296.847 215.681 291.488 229.093 285.466 242.21C279.505 255.358 260.253 290.781 256.788 294.617C256.674 294.759 256.446 294.631 256.546 294.474Z" fill="#263238"/>
<path d="M307.084 212.135C314.1 224.656 321.259 237.091 328.303 249.583C331.854 255.9 335.434 262.218 338.927 268.563C340.582 271.544 342.193 274.553 343.918 277.505C345.398 280.281 347.62 282.591 350.336 284.179C353.602 285.725 357.025 286.916 360.546 287.729C364.496 288.884 368.432 290.139 372.411 291.223C372.438 291.242 372.458 291.269 372.469 291.3C372.479 291.331 372.48 291.365 372.471 291.397C372.461 291.428 372.442 291.456 372.416 291.476C372.39 291.496 372.358 291.507 372.325 291.508C368.774 290.553 365.195 289.74 361.63 288.87C358.358 288.168 355.126 287.292 351.947 286.246C349.125 285.308 346.627 283.587 344.746 281.284C342.837 278.629 341.153 275.819 339.712 272.884C332.677 260.022 325.713 247.13 318.82 234.21C314.884 226.866 310.991 219.494 307.027 212.178C306.956 212.135 307.084 212.093 307.084 212.135Z" fill="#263238"/>
<path d="M260.211 297.512C255.334 296.628 250.342 296.214 245.437 295.572L230.649 293.662C220.824 292.378 187.355 287.045 184.831 286.218C184.674 286.218 184.731 285.904 184.831 285.89C187.226 285.89 209.144 288.742 214.05 289.455C223.875 290.881 233.644 292.649 243.44 294.303C246.293 294.774 249.031 295.301 251.811 295.801C254.592 296.3 257.401 296.899 260.196 297.227C260.425 297.284 260.382 297.555 260.211 297.512Z" fill="#263238"/>
<path d="M72.0029 575.346C75.9673 576.772 192.331 576.444 196.695 573.735C197.223 573.421 197.765 548.351 197.765 548.351C217.843 505.1 237.579 466.069 237.579 466.069L155.768 464.329L123.839 535.217C123.839 535.217 77.8781 557.763 76.1669 559.103C71.7034 562.554 68.0385 573.977 72.0029 575.346Z" fill="#F7A9A0"/>
<path d="M72.0028 575.346C75.9814 576.772 192.331 576.444 196.695 573.72C197.223 573.435 197.765 548.351 197.765 548.351C200.246 542.975 202.741 537.698 205.166 532.536L130.513 520.429L123.853 535.217C123.853 535.217 77.878 557.763 76.1668 559.103C71.7889 562.554 68.0384 573.977 72.0028 575.346Z" fill="#EBEBEB"/>
<path d="M70.9618 576.216C75.0545 577.642 192.06 577.499 196.524 574.675C198.221 573.62 198.905 565.392 199.519 544.729L124.752 533.321C124.752 533.321 79.575 555.766 75.0117 559.388C70.4484 563.011 66.8691 574.861 70.9618 576.216Z" fill="#A6A6A6"/>
<path d="M72.6302 571.553C92.2524 571.054 171.411 570.911 190.834 571.909C190.991 571.909 190.991 572.023 190.834 572.037C171.397 572.95 92.2524 572.451 72.6302 571.866C72.2167 571.852 72.2167 571.553 72.6302 571.553Z" fill="#263238"/>
<path d="M82.5411 555.267C84.7212 555.21 86.8896 555.605 88.9096 556.427C90.9295 557.249 92.7572 558.481 94.2773 560.045C97.028 562.842 98.6002 566.589 98.6695 570.512C98.6695 570.626 98.4414 570.626 98.4271 570.512C97.761 566.627 95.8524 563.063 92.9878 560.355C90.1233 557.647 86.4575 555.942 82.5411 555.496C82.5202 555.485 82.5026 555.469 82.4903 555.448C82.478 555.428 82.4716 555.405 82.4716 555.382C82.4716 555.358 82.478 555.335 82.4903 555.315C82.5026 555.295 82.5202 555.278 82.5411 555.267Z" fill="#263238"/>
<path d="M116.752 537.713C124.609 537.599 133.707 540.365 138.599 546.782C138.784 547.025 138.427 547.296 138.199 547.167C131.332 543.555 124.099 540.687 116.623 538.611C116.537 538.564 116.467 538.491 116.423 538.403C116.379 538.315 116.363 538.215 116.377 538.117C116.391 538.02 116.434 537.929 116.501 537.856C116.568 537.784 116.655 537.734 116.752 537.713Z" fill="#263238"/>
<path d="M110.691 540.123C118.549 540.008 127.647 542.761 132.538 549.192C132.723 549.435 132.367 549.705 132.139 549.577C125.272 545.965 118.039 543.097 110.563 541.021C110.476 540.974 110.406 540.901 110.362 540.813C110.318 540.724 110.302 540.625 110.316 540.527C110.33 540.43 110.373 540.339 110.44 540.266C110.507 540.194 110.595 540.144 110.691 540.123Z" fill="#263238"/>
<path d="M104.588 542.49C112.431 542.376 121.543 545.128 126.42 551.546C126.605 551.802 126.249 552.073 126.021 551.945C119.154 548.333 111.921 545.464 104.445 543.389C104.358 543.34 104.289 543.266 104.246 543.177C104.203 543.088 104.188 542.988 104.203 542.89C104.219 542.792 104.264 542.701 104.333 542.63C104.401 542.558 104.49 542.51 104.588 542.49Z" fill="#263238"/>
<path d="M98.5841 544.843C106.427 544.729 115.54 547.495 120.417 553.912C120.602 554.169 120.245 554.426 120.017 554.312C113.151 550.7 105.918 547.831 98.4415 545.755C98.3567 545.704 98.2891 545.629 98.2473 545.539C98.2054 545.449 98.1913 545.349 98.2065 545.251C98.2218 545.153 98.2659 545.062 98.3331 544.99C98.4004 544.917 98.4877 544.866 98.5841 544.843Z" fill="#263238"/>
<path d="M185.871 553.285C194.67 553.285 194.656 566.989 185.871 566.975C177.087 566.961 177.001 553.271 185.871 553.285Z" fill="white"/>
<path d="M108.866 528.315C113.144 533.777 119.561 537.214 125.151 541.078C125.283 541.156 125.432 541.202 125.585 541.21C125.738 541.219 125.891 541.191 126.031 541.128C126.171 541.065 126.293 540.969 126.389 540.849C126.484 540.728 126.548 540.587 126.577 540.436C126.608 540.443 126.64 540.443 126.671 540.435C126.701 540.427 126.729 540.412 126.753 540.391C126.777 540.37 126.795 540.344 126.807 540.315C126.818 540.286 126.823 540.254 126.82 540.223C126.249 533.019 123.79 526.094 119.689 520.144C117.237 516.721 112.231 513.513 108.281 516.807C104.502 519.93 106.413 525.121 108.866 528.315ZM108.495 521.812C109.279 513.256 116.98 519.83 118.691 522.411C119.761 524.113 120.714 525.885 121.543 527.716C123.34 531.481 124.567 535.431 125.978 539.338C123.354 537.271 120.559 535.46 117.864 533.492C114.684 531.139 108.096 526.518 108.524 521.812H108.495Z" fill="#263238"/>
<path d="M154.713 535.189C154.1 530.069 148.253 528.957 144.117 529.756C137.05 531.263 130.501 534.597 125.123 539.424C125.099 539.444 125.079 539.469 125.066 539.498C125.053 539.526 125.046 539.557 125.046 539.588C125.046 539.619 125.053 539.65 125.066 539.679C125.079 539.707 125.099 539.732 125.123 539.752C125.047 539.881 125.003 540.025 124.992 540.174C124.982 540.323 125.006 540.472 125.062 540.61C125.119 540.748 125.207 540.871 125.318 540.969C125.43 541.068 125.563 541.139 125.707 541.178C132.424 542.219 139.483 544.158 146.313 543.103C150.335 542.504 155.297 540.037 154.713 535.189ZM136.174 540.679C132.866 540.251 129.586 539.666 126.192 539.353C129.836 537.357 133.583 535.553 137.415 533.948C139.272 533.198 141.178 532.574 143.119 532.08C146.142 531.367 156.253 531.909 150.934 538.64C148.153 542.362 140.239 541.192 136.246 540.679H136.174Z" fill="#263238"/>
<path d="M129.358 520.6L217.772 519.958C217.772 519.958 264.018 403.566 269.394 397.804C273.016 393.911 297.344 389.591 326.435 383.216H326.592C337.316 380.863 348.696 378.225 359.89 375.202C389.052 367.43 417.088 357.205 429.851 343.073C456.575 313.554 429.851 260.192 429.851 260.192H354.528C354.528 260.192 352.717 283.394 358.421 297.611C358.421 297.611 303.063 305.74 256.446 320.87C230.021 329.426 206.421 340.264 197.28 353.141C183.889 372.036 129.358 520.6 129.358 520.6Z" fill="#37474F"/>
<path d="M139.34 507.352C149.579 506.597 159.818 506.326 170.085 506.083C180.353 505.841 190.606 505.727 200.859 505.841C206.649 505.841 212.424 506.24 218.2 506.311C218.385 506.311 218.399 506.597 218.2 506.597C213.037 506.711 207.875 507.096 202.713 507.238C197.551 507.381 192.531 507.495 187.454 507.581C177.187 507.752 166.934 507.809 156.681 507.923C150.891 507.923 145.116 507.923 139.34 507.738C139.298 507.726 139.261 507.701 139.234 507.666C139.208 507.631 139.193 507.589 139.193 507.545C139.193 507.501 139.208 507.459 139.234 507.424C139.261 507.389 139.298 507.364 139.34 507.352Z" fill="#263238"/>
<path d="M391.448 271.144C391.561 271.494 391.705 271.832 391.876 272.157C391.876 272.228 391.876 272.285 391.876 272.328C392.874 275.408 393.302 278.688 394.229 281.768C395.133 285.064 397.148 287.945 399.933 289.925C405.766 293.975 412.768 295.815 419.57 297.498C419.798 297.498 419.727 297.868 419.57 297.883C415.64 297.904 411.732 297.302 407.99 296.1C404.481 295.137 401.172 293.553 398.222 291.423C395.448 289.328 393.471 286.35 392.618 282.981C392.194 281.194 391.871 279.385 391.648 277.562C391.257 275.467 391.028 273.346 390.964 271.216C390.982 271.17 391.013 271.13 391.052 271.1C391.091 271.069 391.137 271.05 391.186 271.042C391.235 271.035 391.284 271.041 391.33 271.059C391.377 271.077 391.417 271.106 391.448 271.144Z" fill="#263238"/>
<path d="M347.355 292.592C351.999 293.934 356.522 295.665 360.874 297.769L361.088 297.854C360.993 297.591 360.926 297.319 360.888 297.042L360.731 296.058C360.731 295.73 360.66 295.373 360.617 295.031V294.518C360.07 294.484 359.536 294.341 359.046 294.096C358.555 293.851 358.12 293.509 357.765 293.092C356.858 291.815 356.245 290.354 355.968 288.813C355.455 286.888 354.985 284.949 354.542 283.009C354.072 280.842 353.673 278.731 353.33 276.478C352.913 274.343 352.665 272.178 352.589 270.004C352.589 269.925 352.62 269.848 352.677 269.792C352.733 269.736 352.809 269.705 352.888 269.705C352.968 269.705 353.044 269.736 353.1 269.792C353.156 269.848 353.188 269.925 353.188 270.004C353.701 272.001 353.929 274.068 354.3 276.079C354.671 278.09 355.113 280.129 355.569 282.14C356.026 284.15 356.539 286.147 357.095 288.143C357.58 289.897 358.079 292.421 360.132 293.063C364.411 294.261 362.457 284.778 362.272 282.924C361.844 278.646 361.587 274.239 360.846 269.99C360.846 269.819 361.074 269.747 361.116 269.99C362.029 273.911 363.084 277.747 363.783 281.712C364.125 283.651 364.368 285.605 364.582 287.573C364.873 289.205 364.716 290.886 364.125 292.436C363.858 292.989 363.457 293.467 362.959 293.828C362.462 294.189 361.882 294.421 361.273 294.503L361.402 294.945C361.501 295.259 361.601 295.573 361.687 295.887C361.772 296.2 361.829 296.528 361.915 296.842C362.048 297.216 362.092 297.617 362.043 298.011C362.027 298.066 361.999 298.117 361.963 298.161C361.926 298.206 361.881 298.242 361.829 298.268C363.641 299.052 365.452 299.837 367.234 300.664C369.472 301.552 371.641 302.606 373.723 303.815C373.965 303.929 373.723 304.272 373.537 304.215C371.213 303.565 368.939 302.746 366.735 301.762C364.482 300.892 362.243 299.965 360.018 299.052C355.582 297.408 351.29 295.4 347.184 293.049C347.154 293.037 347.127 293.02 347.103 292.999C347.08 292.977 347.061 292.951 347.048 292.921C347.035 292.892 347.027 292.861 347.026 292.829C347.025 292.797 347.03 292.765 347.042 292.735C347.053 292.705 347.07 292.678 347.092 292.654C347.113 292.631 347.14 292.612 347.169 292.599C347.198 292.585 347.229 292.578 347.261 292.577C347.293 292.576 347.325 292.581 347.355 292.592Z" fill="#263238"/>
<path d="M224.374 464.6C229.042 453.078 233.972 441.67 239.162 430.375C244.353 419.081 249.848 407.892 255.647 396.807C258.157 392.001 260.439 387.138 265.473 384.543C267.781 383.436 270.2 382.576 272.688 381.976C275.612 381.192 278.564 380.436 281.501 379.694C305.458 373.634 329.687 368.642 353.502 361.969C365.409 358.632 377.202 354.838 388.71 350.375C398.051 346.71 407.391 342.475 415.163 336.015C418.917 332.98 422.128 329.33 424.661 325.22C427.612 320.271 434.5 306.838 424.29 266.154C424.29 265.968 424.489 265.84 424.546 266.011C432.689 294.988 430.964 310.774 429.48 316.521C428.209 321.432 425.932 326.026 422.792 330.011C416.775 337.712 408.275 343.045 399.562 347.209C389.106 352 378.321 356.041 367.291 359.302C343.562 366.732 319.234 371.937 295.063 377.669C289.059 379.095 283.084 380.521 277.109 382.076C271.776 383.502 265.544 384.514 261.722 388.864C259.936 391.127 258.436 393.604 257.259 396.236C255.823 399.003 254.397 401.774 252.981 404.55C250.128 410.254 247.31 415.982 244.524 421.734C233.658 444.446 223.766 467.6 214.848 491.196C213.75 494.048 212.667 497.028 211.54 499.937C211.454 500.165 211.112 500.066 211.184 499.837C215.119 487.93 219.697 476.208 224.374 464.6Z" fill="#263238"/>
<path d="M220.381 334.874C224.061 332.664 239.333 324.806 247.476 322.04C255.932 319.188 264.588 316.764 273.145 314.411C290.856 309.591 308.767 305.56 326.877 302.318C332.03 301.367 337.188 300.493 342.35 299.694C347.383 298.787 352.463 298.164 357.566 297.826C357.751 297.826 357.765 298.083 357.566 298.125C353.102 299.238 348.496 299.922 343.961 300.692C339.427 301.462 334.992 302.275 330.514 303.131C321.577 304.842 312.665 306.705 303.776 308.721C286.193 312.714 268.581 317.077 251.398 322.511C242.257 325.363 228.467 332.051 220.752 335.502C220.671 335.531 220.582 335.531 220.5 335.502C220.419 335.473 220.35 335.416 220.306 335.342C220.262 335.267 220.246 335.18 220.26 335.095C220.273 335.009 220.316 334.931 220.381 334.874Z" fill="#263238"/>
<path d="M277.979 364.635C274.171 362.297 270.478 359.73 266.571 357.619C264.66 356.593 262.677 355.694 260.866 354.482C259.055 353.27 257.201 351.93 255.376 350.646C251.716 348.234 248.211 345.595 244.881 342.746C241.588 339.63 238.107 336.72 234.456 334.033C234.314 333.933 234.456 333.691 234.599 333.79C238.326 336.286 242.214 338.534 246.235 340.521C248.969 341.978 251.6 343.622 254.107 345.441C252.543 344.3 251.052 343.061 249.644 341.733C247.333 339.523 245.023 337.256 242.513 335.216C242.385 335.117 242.513 334.888 242.67 334.988C245.276 336.659 247.975 338.178 250.756 339.537C251.155 339.737 251.54 339.965 251.925 340.179C251.041 339.537 250.157 338.881 249.316 338.168C248.089 337.156 246.92 336.072 245.693 335.031C245.152 334.575 244.595 334.104 244.025 333.605C243.941 333.531 243.85 333.464 243.754 333.405C243.435 333.321 243.14 333.164 242.893 332.946C242.645 332.728 242.452 332.456 242.328 332.15C242.321 332.133 242.32 332.113 242.324 332.094C242.328 332.076 242.337 332.059 242.351 332.045C242.364 332.032 242.382 332.022 242.4 332.018C242.419 332.014 242.438 332.015 242.456 332.022C245.166 333.448 247.932 334.703 250.642 336.086C253.351 337.47 255.989 339.238 258.613 340.849C263.815 343.935 268.668 347.573 273.087 351.701C273.166 351.795 273.212 351.912 273.219 352.034C273.226 352.156 273.194 352.277 273.126 352.38C273.059 352.482 272.961 352.56 272.846 352.602C272.731 352.644 272.606 352.649 272.489 352.614C270.102 351.587 267.778 350.421 265.53 349.12L265.915 349.405C268.253 351.345 270.421 353.512 272.645 355.594C272.774 355.694 272.645 355.922 272.474 355.865C269.736 354.725 266.913 353.627 264.289 352.258C263.448 351.801 262.62 351.302 261.808 350.831L262.777 351.516C264.461 352.833 266.074 354.237 267.612 355.723C270.948 358.774 274.742 361.427 278.264 364.179C278.563 364.393 278.264 364.821 277.979 364.635Z" fill="#F7A9A0"/>
<path d="M262.079 332.92C264.731 334.346 267.27 336.058 269.95 337.484C272.606 338.79 275.12 340.367 277.451 342.19C282.072 346.026 286.008 350.646 290.656 354.411C290.785 354.511 290.656 354.739 290.485 354.625C285.808 350.874 280.403 348.264 275.441 344.928C273.042 343.217 270.79 341.309 268.71 339.223C266.514 337.156 264.104 335.316 261.822 333.334C261.767 333.3 261.728 333.245 261.713 333.183C261.699 333.12 261.71 333.054 261.744 332.999C261.778 332.944 261.832 332.905 261.895 332.89C261.958 332.875 262.024 332.886 262.079 332.92Z" fill="#F7A9A0"/>
<path d="M226.628 339.095C231.733 341.433 237.08 343.202 242.143 345.597C244.56 346.769 246.842 348.204 248.945 349.876C251.227 351.672 253.223 353.74 255.662 355.409C255.687 355.43 255.705 355.46 255.71 355.494C255.716 355.527 255.71 355.561 255.693 355.59C255.676 355.619 255.649 355.641 255.617 355.652C255.585 355.663 255.55 355.663 255.519 355.651C253.009 354.345 250.418 353.202 247.761 352.228C245.212 351.173 242.764 349.889 240.446 348.392C235.783 345.327 231.39 341.961 226.456 339.351C226.257 339.294 226.442 339.009 226.628 339.095Z" fill="#F7A9A0"/>
<path d="M384.846 180.863C378.215 207.872 362.129 249.811 347.911 249.583C334.949 249.384 306 226.382 293.893 218.838C281.786 211.294 308.952 181.604 315.911 186.41C326.678 193.854 342.792 207.159 345.516 206.275C348.91 205.191 353.231 196.849 372.61 172.235C380.496 162.153 387.683 169.369 384.846 180.863Z" fill="#F7A9A0"/>
<path d="M302.806 174.959C297.102 172.948 290.699 170.167 284.353 170.296C278.007 170.424 272.731 178.852 272.731 181.191C272.731 183.529 275.127 198.56 281.487 198.56C287.847 198.56 283.997 187.066 284.239 185.725C284.482 184.385 284.71 182.731 285.908 182.873C287.105 183.016 308.082 192.941 308.082 192.941L302.806 174.959Z" fill="#F7A9A0"/>
<path d="M302.464 175.843C302.107 175.843 285.095 169.126 278.749 169.255C272.403 169.383 267.127 177.811 267.127 180.149C267.127 182.488 269.522 197.533 275.868 197.533C282.214 197.533 278.378 186.025 278.62 184.698C278.863 183.372 279.105 181.689 280.303 181.846C281.501 182.003 302.464 191.914 302.464 191.914V175.843Z" fill="#F7A9A0"/>
<path d="M278.022 196.72C278.696 195.584 279.06 194.291 279.077 192.97C279.216 191.616 279.139 190.249 278.849 188.92C278.494 187.779 278.237 186.61 278.079 185.426C278.084 184.247 278.389 183.089 278.963 182.06C279.448 181.176 280.389 181.476 281.187 181.761C282.37 182.211 283.522 182.735 284.638 183.33C285.851 183.929 287.048 184.556 288.261 185.169C289.529 185.77 290.758 186.451 291.94 187.208C291.955 187.217 291.967 187.23 291.975 187.245C291.984 187.26 291.988 187.277 291.988 187.294C291.988 187.311 291.984 187.328 291.975 187.343C291.967 187.358 291.955 187.371 291.94 187.38C290.841 186.962 289.765 186.486 288.717 185.953C287.505 185.383 286.307 184.827 285.081 184.285C283.854 183.743 282.842 183.215 281.687 182.731C281.178 182.435 280.606 182.264 280.018 182.232C279.533 182.346 279.291 183.529 279.191 183.914C278.926 185.056 279 186.251 279.405 187.351C279.744 188.485 279.964 189.651 280.061 190.831C280.176 191.94 280.089 193.061 279.804 194.139C279.403 195.103 278.891 196.017 278.278 196.863C278.136 196.962 277.936 196.891 278.022 196.72Z" fill="#263238"/>
<path d="M322.599 192.513C322.599 192.513 305.016 176.47 301.351 173.29C293.993 166.901 263.048 154.253 258.742 153.796C254.435 153.34 252.866 162.181 273.872 171.365C284.938 176.213 286.906 182.545 286.706 186.067C286.507 189.59 283.141 196.135 277.223 195.964C271.305 195.793 267.483 187.18 262.05 186.224C256.617 185.269 260.21 195.222 264.032 200.969C268.054 206.529 273.573 210.832 279.947 213.376C285.052 215.301 300.867 222.117 300.867 222.117L322.599 192.513Z" fill="#F7A9A0"/>
<path d="M269.893 191.815C272.118 193.54 274.642 195.765 277.565 195.879C280.489 195.993 282.556 194.025 283.968 191.601C285.512 189.176 286.069 186.252 285.522 183.43C284.834 180.878 283.428 178.577 281.473 176.799C279.077 174.641 276.377 172.849 273.458 171.479C273.33 171.408 273.458 171.223 273.587 171.28C276.296 172.492 284.752 175.957 286.421 183.43C286.957 186.313 286.37 189.292 284.781 191.758C283.469 194.111 281.558 196.378 278.692 196.62C275.198 196.891 272.189 194.054 269.694 191.943C269.608 191.8 269.779 191.729 269.893 191.815Z" fill="#263238"/>
<path d="M322.599 190.26L296.275 231.116C296.275 231.116 338.043 254.503 349.865 250.738C361.687 246.974 379.527 213.091 386.871 183.372C394.215 153.654 375.976 165.034 368.888 174.217C361.801 183.401 346.443 204.649 345.587 204.378C344.731 204.107 322.599 190.26 322.599 190.26Z" fill="#5F35F2"/>
<path d="M311.205 207.972C312.898 208.571 314.555 209.266 316.168 210.054C319.65 211.831 322.922 213.993 325.922 216.499C326.721 217.169 327.533 217.854 328.318 218.581C328.425 218.664 328.525 218.754 328.617 218.852C333.394 223.329 337.926 228.061 342.193 233.027C346.443 237.918 350.956 242.573 355.712 246.973C355.469 247.187 355.227 247.416 354.985 247.601C350.235 243.209 345.723 238.568 341.466 233.697C337.055 228.608 332.381 223.752 327.462 219.152L327.148 218.881C326.535 218.324 325.922 217.783 325.28 217.269C322.351 214.808 319.15 212.688 315.74 210.952C314.1 210.122 312.403 209.407 310.663 208.813L311.205 207.972ZM301.052 223.658C303.248 225.997 305.33 228.378 307.54 230.788C311.063 234.71 314.671 238.631 318.478 242.196L321.102 243.38C316.598 239.163 312.314 234.718 308.268 230.061C306.328 227.893 304.389 225.711 302.392 223.558L302.022 223.173L301.637 222.759L301.337 223.216L301.066 223.629L301.052 223.658ZM301.052 223.658C301.495 223.663 301.938 223.639 302.378 223.587C304.603 223.487 306.785 223.273 308.966 222.988C315.22 222.079 321.411 220.783 327.505 219.109L328.66 218.809L331.669 218.011C339.069 215.808 346.605 214.093 354.229 212.877C358.04 212.338 361.896 212.19 365.737 212.435C369.264 212.685 372.75 213.355 376.118 214.431L376.418 213.775C372.97 212.667 369.395 212.001 365.78 211.793C361.897 211.593 358.003 211.779 354.157 212.349C346.522 213.625 338.977 215.392 331.569 217.64L328.361 218.538L327.191 218.838C321.225 220.534 315.143 221.797 308.995 222.617C306.685 222.916 304.389 223.116 302.064 223.202H301.38L301.052 223.658ZM368.218 175.044C372.59 176.855 377.055 178.431 381.594 179.765L381.994 179.907C383.02 180.192 384.047 180.463 385.074 180.706C385.83 180.891 386.6 181.062 387.37 181.191L387.569 180.235C386.814 180.093 386.058 179.936 385.302 179.75C384.546 179.565 383.705 179.351 382.906 179.109C382.765 179.089 382.627 179.055 382.493 179.009C377.875 177.637 373.33 176.033 368.874 174.203L368.218 175.044ZM345.687 204.307C347.605 203.785 349.487 203.137 351.32 202.367C354.904 200.861 358.325 198.993 361.53 196.791C367.822 192.284 373.819 187.378 379.484 182.103C380.325 181.362 381.152 180.677 381.994 179.907C382.293 179.636 382.593 179.365 382.906 179.109C384.732 177.511 386.585 175.943 388.468 174.403C388.475 174.27 388.475 174.136 388.468 174.003C386.429 175.615 384.446 177.298 382.464 179.009L381.566 179.765L379.213 181.818C373.554 187.058 367.562 191.927 361.273 196.392C358.083 198.544 354.681 200.365 351.12 201.825C349.693 202.405 348.236 202.91 346.756 203.337C346.448 203.717 346.094 204.057 345.701 204.349L345.687 204.307ZM314.499 202.795C315.308 203.052 316.135 203.294 316.981 203.522C324.475 205.705 332.334 206.345 340.082 205.405C341.939 205.168 343.777 204.811 345.587 204.335C345.473 204.335 345.173 204.121 344.689 203.836C343.143 204.21 341.576 204.491 339.997 204.677C332.332 205.513 324.578 204.825 317.18 202.652C316.439 202.453 315.754 202.239 314.97 201.982L314.499 202.795Z" fill="white"/>
<path opacity="0.1" d="M325.722 245.376C335.22 249.255 344.575 252.079 349.437 250.852L349.865 250.738C361.673 246.959 379.512 213.105 386.942 183.372C388.042 179.396 388.612 175.292 388.639 171.166C388.639 171.009 388.639 170.88 388.639 170.724C388.639 170.567 388.639 170.253 388.639 170.025C388.647 169.93 388.647 169.835 388.639 169.74C388.626 169.524 388.598 169.309 388.553 169.098L325.722 245.376Z" fill="black"/>
<path d="M310.977 227.109C311.804 225.683 312.66 224.257 313.501 222.831C315.198 219.979 325.394 202.866 329.416 197.633C329.441 197.606 329.475 197.59 329.512 197.586C329.548 197.582 329.585 197.591 329.615 197.612C329.646 197.632 329.668 197.662 329.679 197.697C329.689 197.733 329.687 197.77 329.673 197.804C326.82 203.793 316.296 220.62 314.528 223.358C313.63 224.784 312.731 226.21 311.819 227.636C310.906 229.063 309.808 230.346 308.967 231.772C308.867 231.9 308.639 231.772 308.724 231.644C309.494 230.104 310.15 228.563 310.977 227.109Z" fill="#263238"/>
<path d="M444.568 296.928C444.326 297.213 352.632 268.407 351.676 267.352C350.336 265.797 365.523 180.364 376.546 166.289C378.913 163.28 394.229 157.733 402.001 166.289C432.261 200.1 445.409 295.944 444.568 296.928Z" fill="#5F35F2"/>
<path d="M354.628 246.003C355.883 247.173 357.152 248.299 358.478 249.397C362.631 252.905 367.206 255.88 372.097 258.253L372.81 258.595C374.608 259.428 376.45 260.161 378.329 260.791C381.954 262.041 385.736 262.78 389.566 262.988C393.385 263.173 397.213 262.92 400.974 262.232C408.111 260.745 415.12 258.699 421.937 256.114L422.978 255.758H423.135C427.598 254.203 432.104 252.692 436.682 251.479C436.682 251.579 436.682 251.679 436.682 251.779C432.133 253.02 427.641 254.631 423.206 256.157C422.878 256.271 422.521 256.385 422.179 256.528C415.356 259.132 408.343 261.211 401.202 262.745C397.385 263.488 393.494 263.784 389.609 263.629C385.726 263.441 381.887 262.721 378.2 261.49C375.979 260.761 373.807 259.89 371.698 258.881L370.985 258.553C366.34 256.257 361.983 253.419 358.008 250.096C356.838 249.126 355.683 248.128 354.557 247.087C354.5 246.802 354.571 246.374 354.628 246.003ZM352.261 260.435C353.373 260.578 354.485 260.677 355.612 260.734C359.492 260.888 363.378 260.596 367.191 259.865C368.617 259.594 370.143 259.251 371.584 258.881C372.011 258.809 372.411 258.695 372.81 258.595C378.514 257.169 383.919 255.087 389.38 253.176C396.594 250.417 404.032 248.284 411.612 246.802C412.382 246.659 413.152 246.545 413.951 246.446C414.336 246.374 414.721 246.331 415.106 246.289C421.585 245.463 428.152 245.617 434.586 246.745C434.956 246.745 435.327 246.859 435.698 246.945C435.657 246.747 435.605 246.552 435.541 246.36C435.256 246.289 434.971 246.246 434.686 246.189C428.115 245.098 421.417 245.012 414.821 245.932L413.666 246.089C412.953 246.203 412.24 246.303 411.541 246.446C403.965 247.984 396.519 250.101 389.266 252.777C383.562 254.731 377.858 256.756 372.154 258.21C371.74 258.324 371.341 258.424 370.928 258.51C369.673 258.809 368.418 259.066 367.163 259.294C363.402 259.982 359.574 260.236 355.755 260.05C354.671 260.05 353.559 259.879 352.475 259.722C352.332 259.993 352.304 260.221 352.261 260.435ZM361.502 212.378C362.928 212.378 364.354 212.378 365.694 212.477C369.524 212.741 373.302 213.509 376.931 214.759C384.172 217.372 390.826 221.39 396.511 226.581C402.114 231.86 407.24 237.624 411.826 243.807C412.439 244.592 413.038 245.362 413.666 246.132C413.752 246.257 413.847 246.377 413.951 246.488C416.518 249.768 419.142 253.034 421.994 256.114C422.085 256.235 422.186 256.349 422.293 256.456C423.843 258.12 425.473 259.722 427.185 261.262C430.091 263.875 433.321 266.103 436.796 267.893C438.008 268.478 439.249 269.048 440.532 269.533C440.461 269.177 440.375 268.777 440.318 268.392C439.277 267.979 438.251 267.508 437.238 266.966C433.839 265.206 430.681 263.015 427.841 260.449C426.272 259.023 424.775 257.597 423.32 256.028C423.22 255.929 423.12 255.8 423.035 255.701C420.183 252.72 417.659 249.497 415.106 246.274L414.821 245.918L412.611 243.194C407.953 236.987 402.761 231.199 397.095 225.896C391.31 220.644 384.518 216.622 377.131 214.075C373.443 212.829 369.607 212.077 365.723 211.836C364.359 211.765 362.993 211.765 361.63 211.836C361.587 211.993 361.544 212.192 361.502 212.378ZM371.569 176.399C374.863 177.668 378.215 178.837 381.552 179.807L381.951 179.95C382.978 180.235 384.004 180.506 385.031 180.748C388.82 181.658 392.7 182.136 396.596 182.174C398.552 182.201 400.506 182.077 402.443 181.804C403.413 181.675 404.368 181.476 405.295 181.29C406.222 181.105 407.206 180.991 408.147 180.72C409.088 180.449 410.386 180.164 411.484 179.836L411.028 179.051C410.001 179.336 408.974 179.593 407.947 179.821C406.065 180.221 404.168 180.52 402.243 180.848C400.353 181.102 398.447 181.221 396.539 181.205C392.72 181.141 388.918 180.663 385.202 179.779C384.389 179.579 383.605 179.379 382.806 179.137C382.666 179.117 382.527 179.084 382.393 179.037C378.814 178.039 375.263 176.77 371.812 175.429C371.812 175.743 371.683 176.071 371.569 176.399ZM366.207 193.511C370.828 189.96 375.149 186.067 379.498 182.217C380.339 181.476 381.167 180.791 382.008 180.021C382.307 179.75 382.607 179.479 382.921 179.222C387.54 175.071 392.454 171.258 397.623 167.814C398.792 167.044 399.99 166.303 401.188 165.604L400.889 165.319C399.719 166.003 398.564 166.745 397.409 167.5C392.209 171.061 387.232 174.938 382.507 179.108L381.609 179.864L379.256 181.918C374.978 185.597 370.842 189.333 366.421 192.727C366.364 192.912 366.293 193.183 366.207 193.44V193.511Z" fill="white"/>
<path d="M409.758 193.611C405.067 221.134 381.965 272.628 366.977 277.476C349.551 283.081 289.045 263.744 277.137 255.045C272.403 251.58 297.601 221.105 303.476 223.259C328.118 232.328 349.951 236.977 353.116 234.824C357.993 231.515 377.872 203.038 390.792 185.369C407.02 163.18 411.897 181.205 409.758 193.611Z" fill="#F7A9A0"/>
<path d="M278.692 255.872C275.997 254.916 257.458 241.455 251.997 235.137C246.074 228.599 241.257 221.138 237.736 213.048C232.246 200.214 229.651 190.873 230.977 186.681C232.517 181.804 232.959 180.977 245.765 202.267C253.023 214.289 259.925 215.644 265.929 215.529C280.679 215.246 295.282 218.508 308.51 225.041C308.51 225.041 289.045 259.637 278.692 255.872Z" fill="#F7A9A0"/>
<path d="M248.018 165.604L278.991 205.533C279.199 205.728 279.351 205.975 279.432 206.249C279.512 206.522 279.517 206.813 279.448 207.089C279.378 207.366 279.235 207.619 279.034 207.821C278.834 208.024 278.583 208.169 278.307 208.242L256.36 215.301C255.676 215.465 254.958 215.432 254.292 215.204C253.626 214.977 253.037 214.566 252.595 214.018L221.622 174.089C221.414 173.895 221.261 173.648 221.18 173.376C221.099 173.103 221.092 172.813 221.161 172.537C221.229 172.261 221.37 172.008 221.569 171.804C221.768 171.601 222.018 171.454 222.292 171.379L244.239 164.249C244.932 164.095 245.655 164.141 246.324 164.381C246.993 164.62 247.58 165.045 248.018 165.604Z" fill="#263238"/>
<path d="M246.15 163.707L224.203 170.837C223.929 170.912 223.679 171.059 223.48 171.262C223.281 171.466 223.14 171.719 223.072 171.995C223.003 172.271 223.01 172.561 223.091 172.834C223.172 173.107 223.325 173.353 223.533 173.547L254.492 213.476C254.936 214.025 255.527 214.437 256.196 214.664C256.865 214.891 257.584 214.924 258.271 214.759L280.218 207.715C280.492 207.637 280.742 207.489 280.94 207.284C281.139 207.079 281.279 206.825 281.347 206.548C281.415 206.271 281.409 205.981 281.328 205.707C281.247 205.434 281.096 205.187 280.888 204.991L249.929 165.062C249.49 164.504 248.903 164.081 248.234 163.841C247.566 163.602 246.843 163.555 246.15 163.707ZM278.564 204.107C279.376 205.162 279.148 206.303 278.05 206.645L258.414 212.962C257.773 213.1 257.107 213.054 256.491 212.829C255.876 212.605 255.336 212.211 254.934 211.693L226.1 174.616C224.446 172.477 225.259 172.092 226.357 171.764L230.292 170.495C230.45 170.481 230.609 170.509 230.751 170.577C230.894 170.644 231.017 170.749 231.105 170.88L231.191 170.994C231.333 171.23 231.562 171.4 231.828 171.47C232.095 171.539 232.378 171.501 232.617 171.365L241.715 168.513C242.228 168.356 242.642 168.228 242.114 167.558L242.029 167.429C241.801 167.144 241.815 166.859 242.029 166.787L245.965 165.518C247.063 165.162 248.175 165.162 249.701 167.13L278.564 204.107Z" fill="#455A64"/>
<path d="M237.765 168.585L235.284 169.383C235.237 169.391 235.189 169.388 235.144 169.373C235.1 169.358 235.059 169.332 235.027 169.298C235.027 169.212 235.027 169.126 235.027 169.112L237.508 168.314C237.554 168.299 237.604 168.299 237.651 168.314C237.697 168.33 237.737 168.359 237.765 168.399C237.78 168.41 237.792 168.424 237.8 168.44C237.808 168.456 237.812 168.474 237.812 168.492C237.812 168.51 237.808 168.528 237.8 168.544C237.792 168.56 237.78 168.574 237.765 168.585Z" fill="#263238"/>
<path d="M249.715 166.944L278.564 204.107C279.377 205.162 279.148 206.288 278.05 206.645L258.414 212.962C257.775 213.102 257.11 213.057 256.496 212.832C255.883 212.607 255.346 212.212 254.949 211.693L226.1 174.616C224.446 172.477 225.259 172.078 226.357 171.764L230.292 170.495C230.45 170.481 230.609 170.509 230.752 170.576C230.894 170.644 231.017 170.749 231.105 170.88L231.191 170.994C231.333 171.23 231.562 171.4 231.828 171.47C232.095 171.539 232.378 171.501 232.617 171.365L241.715 168.513C242.228 168.356 242.642 168.228 242.114 167.557L242.029 167.429C241.801 167.144 241.815 166.859 242.029 166.787L245.965 165.518C247.077 164.991 248.189 164.991 249.715 166.944Z" fill="white"/>
<path d="M249.715 166.944L251.854 169.711L228.239 177.297L226.086 174.531C224.431 172.392 225.244 172.007 226.342 171.679L230.278 170.41C230.436 170.395 230.594 170.423 230.737 170.491C230.88 170.559 231.002 170.664 231.091 170.795L231.177 170.909C231.319 171.144 231.548 171.315 231.814 171.384C232.081 171.453 232.364 171.416 232.603 171.279L241.701 168.427C242.214 168.27 242.628 168.128 242.1 167.472L242.014 167.344C241.786 167.058 241.801 166.773 242.014 166.702L245.95 165.433C247.077 164.991 248.189 164.991 249.715 166.944Z" fill="#5F35F2"/>
<path d="M230.235 171.451C230.082 171.402 229.918 171.402 229.765 171.451C229.704 171.464 229.648 171.493 229.603 171.536C229.558 171.579 229.525 171.633 229.508 171.693L229.579 171.593L229.679 171.508H229.751H230.207L230.235 171.451Z" fill="white"/>
<path d="M229.694 171.822H229.594C229.603 171.78 229.621 171.742 229.649 171.709C229.676 171.677 229.711 171.652 229.751 171.636C229.822 171.604 229.9 171.587 229.979 171.587C230.057 171.587 230.135 171.604 230.207 171.636C230.105 171.602 229.995 171.602 229.893 171.636C229.846 171.645 229.802 171.668 229.767 171.7C229.731 171.733 229.706 171.775 229.694 171.822Z" fill="white"/>
<path d="M230.165 171.736H229.993C229.973 171.742 229.955 171.753 229.94 171.768C229.925 171.783 229.914 171.801 229.908 171.822H229.807C229.822 171.736 229.993 171.679 230.165 171.736Z" fill="white"/>
<path d="M230.079 171.878C230.079 171.878 230.079 171.878 230.079 171.95H229.993L230.079 171.878Z" fill="white"/>
<path d="M226.613 172.735C226.599 172.724 226.587 172.71 226.578 172.694C226.57 172.678 226.566 172.66 226.566 172.642C226.566 172.624 226.57 172.606 226.578 172.59C226.587 172.574 226.599 172.56 226.613 172.549C226.66 172.538 226.709 172.54 226.754 172.555C226.8 172.57 226.84 172.598 226.871 172.635C226.871 172.721 226.871 172.806 226.871 172.835C226.823 172.844 226.773 172.84 226.728 172.822C226.682 172.805 226.642 172.774 226.613 172.735Z" fill="white"/>
<path d="M227.112 172.649C227.098 172.638 227.086 172.625 227.077 172.608C227.069 172.592 227.065 172.574 227.065 172.556C227.065 172.538 227.069 172.52 227.077 172.504C227.086 172.488 227.098 172.474 227.112 172.463C227.161 172.452 227.212 172.455 227.26 172.47C227.307 172.485 227.35 172.512 227.384 172.549C227.399 172.561 227.411 172.576 227.419 172.594C227.428 172.611 227.432 172.63 227.432 172.649C227.432 172.668 227.428 172.687 227.419 172.705C227.411 172.722 227.399 172.737 227.384 172.749C227.334 172.76 227.282 172.756 227.234 172.738C227.186 172.721 227.144 172.69 227.112 172.649Z" fill="white"/>
<path d="M227.597 172.421C227.582 172.411 227.57 172.397 227.562 172.38C227.554 172.364 227.549 172.346 227.549 172.328C227.549 172.31 227.554 172.292 227.562 172.276C227.57 172.26 227.582 172.246 227.597 172.235C227.644 172.224 227.693 172.226 227.738 172.241C227.784 172.257 227.824 172.284 227.855 172.321C227.855 172.407 227.855 172.478 227.855 172.507C227.808 172.518 227.759 172.516 227.714 172.501C227.668 172.486 227.628 172.458 227.597 172.421Z" fill="white"/>
<path d="M228.096 172.264C228.082 172.254 228.07 172.24 228.061 172.224C228.053 172.207 228.049 172.19 228.049 172.171C228.049 172.153 228.053 172.135 228.061 172.119C228.07 172.103 228.082 172.089 228.096 172.078C228.145 172.068 228.196 172.07 228.244 172.085C228.291 172.1 228.334 172.127 228.368 172.164C228.383 172.175 228.395 172.189 228.403 172.205C228.412 172.221 228.416 172.239 228.416 172.257C228.416 172.275 228.412 172.293 228.403 172.309C228.395 172.326 228.383 172.34 228.368 172.35C228.32 172.369 228.267 172.37 228.217 172.355C228.168 172.339 228.125 172.307 228.096 172.264Z" fill="white"/>
<path d="M228.653 172.107C228.638 172.097 228.626 172.083 228.617 172.067C228.609 172.051 228.605 172.033 228.605 172.014C228.605 171.996 228.609 171.978 228.617 171.962C228.626 171.946 228.638 171.932 228.653 171.922C228.699 171.91 228.748 171.913 228.793 171.928C228.839 171.943 228.879 171.97 228.91 172.007C228.925 172.018 228.937 172.032 228.945 172.048C228.953 172.064 228.958 172.082 228.958 172.1C228.958 172.118 228.953 172.136 228.945 172.153C228.937 172.169 228.925 172.183 228.91 172.193C228.863 172.201 228.815 172.198 228.77 172.183C228.726 172.168 228.685 172.142 228.653 172.107Z" fill="white"/>
<path d="M247.191 166.516L245.907 166.93L245.508 166.402L246.777 165.989L247.191 166.516ZM245.936 166.844L247.077 166.474L246.763 166.074L245.622 166.445L245.936 166.844Z" fill="white"/>
<path d="M246.478 166.189L245.651 166.46L245.922 166.802L246.735 166.545L246.478 166.189Z" fill="white"/>
<path d="M247.177 166.36L247.063 166.389L246.849 166.117L246.963 166.074L247.177 166.36Z" fill="white"/>
<path d="M244.98 191.971C245.388 192.44 245.914 192.789 246.504 192.983C247.094 193.176 247.726 193.206 248.332 193.069L259.897 188.962C260.191 188.876 260.458 188.712 260.668 188.489C260.879 188.265 261.026 187.99 261.094 187.69C261.162 187.391 261.149 187.078 261.057 186.786C260.964 186.493 260.795 186.23 260.567 186.025C260.091 185.484 259.479 185.078 258.795 184.85C258.112 184.622 257.379 184.58 256.674 184.727C255.828 183.796 254.74 183.118 253.532 182.768C252.323 182.418 251.041 182.41 249.829 182.745C249.452 182.84 249.1 183.014 248.795 183.255C248.49 183.496 248.24 183.799 248.061 184.144C247.882 184.489 247.778 184.868 247.755 185.256C247.733 185.644 247.794 186.032 247.932 186.395C247.508 186.366 247.082 186.42 246.677 186.552C246.386 186.627 246.12 186.777 245.907 186.988C245.693 187.2 245.539 187.464 245.46 187.754C245.382 188.044 245.382 188.349 245.461 188.639C245.539 188.929 245.693 189.193 245.907 189.404L245.551 189.504C245.298 189.569 245.067 189.702 244.885 189.889C244.702 190.076 244.574 190.31 244.516 190.564C244.457 190.819 244.469 191.085 244.551 191.333C244.633 191.581 244.781 191.802 244.98 191.971Z" fill="#5F35F2"/>
<g opacity="0.1">
<path d="M244.98 191.971C245.388 192.44 245.914 192.789 246.504 192.983C247.094 193.176 247.726 193.206 248.332 193.069L259.897 188.962C260.191 188.876 260.458 188.712 260.668 188.489C260.879 188.265 261.026 187.99 261.094 187.69C261.162 187.391 261.149 187.078 261.057 186.786C260.964 186.493 260.795 186.23 260.567 186.025C260.091 185.484 259.479 185.078 258.795 184.85C258.112 184.622 257.379 184.58 256.674 184.727C255.828 183.796 254.74 183.118 253.532 182.768C252.323 182.418 251.041 182.41 249.829 182.745C249.452 182.84 249.1 183.014 248.795 183.255C248.49 183.496 248.24 183.799 248.061 184.144C247.882 184.489 247.778 184.868 247.755 185.256C247.733 185.644 247.794 186.032 247.932 186.395C247.508 186.366 247.082 186.42 246.677 186.552C246.386 186.627 246.12 186.777 245.907 186.988C245.693 187.2 245.539 187.464 245.46 187.754C245.382 188.044 245.382 188.349 245.461 188.639C245.539 188.929 245.693 189.193 245.907 189.404L245.551 189.504C245.298 189.569 245.067 189.702 244.885 189.889C244.702 190.076 244.574 190.31 244.516 190.564C244.457 190.819 244.469 191.085 244.551 191.333C244.633 191.581 244.781 191.802 244.98 191.971Z" fill="black"/>
</g>
<path d="M244.339 192.214C244.747 192.681 245.273 193.031 245.863 193.227C246.452 193.422 247.083 193.457 247.69 193.326L259.255 189.234C259.55 189.147 259.816 188.984 260.027 188.76C260.237 188.537 260.384 188.261 260.452 187.961C260.521 187.662 260.508 187.35 260.415 187.057C260.322 186.764 260.153 186.502 259.925 186.296C259.452 185.75 258.842 185.34 258.157 185.11C257.473 184.879 256.739 184.836 256.032 184.984C255.186 184.053 254.098 183.375 252.89 183.025C251.682 182.675 250.4 182.667 249.187 183.002C248.812 183.099 248.461 183.274 248.157 183.516C247.854 183.758 247.604 184.06 247.426 184.405C247.247 184.749 247.142 185.127 247.119 185.514C247.096 185.901 247.154 186.289 247.291 186.652C246.865 186.621 246.437 186.679 246.036 186.824C245.742 186.894 245.472 187.043 245.256 187.253C245.039 187.464 244.883 187.729 244.804 188.021C244.725 188.313 244.727 188.621 244.808 188.912C244.889 189.203 245.047 189.467 245.266 189.676L244.909 189.775C244.662 189.844 244.438 189.977 244.26 190.162C244.083 190.347 243.958 190.576 243.9 190.825C243.841 191.075 243.851 191.336 243.929 191.58C244.006 191.824 244.148 192.043 244.339 192.214Z" fill="#5F35F2"/>
<path d="M255.633 191.316L253.437 192.086L251.027 189.162L253.223 188.378L255.633 191.316Z" fill="#5F35F2"/>
<path d="M256.389 191.044L252.681 192.356L255.861 193.312L256.389 191.044Z" fill="#5F35F2"/>
<g opacity="0.2">
<path d="M255.633 191.316L253.437 192.086L251.027 189.162L253.223 188.378L255.633 191.316Z" fill="black"/>
<path d="M256.389 191.044L252.681 192.356L255.861 193.312L256.389 191.044Z" fill="black"/>
</g>
<path d="M262.948 215.429C269.137 215.515 249.016 202.952 248.688 195.907C248.36 188.863 255.262 191.087 260.667 195.066C279.462 208.87 293.637 208.199 303.177 221.39C312.717 234.581 262.948 215.429 262.948 215.429Z" fill="#F7A9A0"/>
<path d="M281.672 206.873C285.708 207.898 289.598 209.426 293.252 211.422C296.518 213.466 299.356 216.125 301.608 219.251C301.722 219.38 301.608 219.565 301.423 219.422C296.346 213.191 288.831 210.068 281.615 207.059C281.596 207.047 281.581 207.03 281.573 207.009C281.565 206.988 281.564 206.965 281.571 206.944C281.578 206.922 281.591 206.904 281.61 206.891C281.628 206.878 281.65 206.872 281.672 206.873Z" fill="#263238"/>
<path d="M351.804 233.127C346.984 234.424 313.444 225.226 313.444 225.226L294.592 270.859C294.592 270.859 353.059 284.464 366.635 279.744C380.211 275.024 401.487 228.692 408.361 201.783C414.806 176.47 406.207 159.957 388.14 186.182C388.14 186.125 354.314 232.442 351.804 233.127Z" fill="#5F35F2"/>
<path d="M341.223 231.957C341.566 232.299 341.879 232.67 342.193 233.027C347.192 238.876 352.616 244.348 358.421 249.398C362.574 252.905 367.149 255.88 372.04 258.253L372.753 258.595C374.551 259.428 376.393 260.161 378.272 260.792C379.736 261.29 381.226 261.709 382.735 262.046C382.607 262.26 382.464 262.46 382.35 262.688C380.924 262.36 379.498 261.961 378.072 261.49C375.85 260.761 373.678 259.89 371.569 258.881L370.856 258.553C366.211 256.257 361.855 253.419 357.879 250.096C352.005 245.044 346.514 239.563 341.451 233.697C340.824 233.012 340.182 232.271 339.569 231.615L341.223 231.957ZM310.007 233.526C314.331 238.405 318.996 242.971 323.968 247.187C329.925 252.221 336.775 256.091 344.161 258.595C347.851 259.816 351.688 260.535 355.569 260.735C359.45 260.888 363.335 260.596 367.149 259.865C368.575 259.594 370.1 259.251 371.541 258.881C371.969 258.809 372.368 258.695 372.767 258.595C377.758 257.269 382.621 255.544 387.469 253.833C387.569 253.661 387.655 253.49 387.74 253.319C382.564 255.116 377.359 256.941 372.054 258.253C371.641 258.367 371.241 258.467 370.828 258.553C369.573 258.852 368.318 259.109 367.063 259.337C363.302 260.025 359.474 260.279 355.655 260.093C351.827 259.872 348.047 259.133 344.418 257.897C337.154 255.35 330.424 251.482 324.567 246.488C319.529 242.178 314.807 237.513 310.435 232.528L310.007 233.526ZM368.403 212.749C371.316 213.128 374.183 213.801 376.96 214.759C384.201 217.372 390.855 221.39 396.539 226.581C397.423 227.365 398.279 228.164 399.12 229.034C399.263 228.72 399.377 228.406 399.505 228.107C398.735 227.351 397.951 226.681 397.138 225.897C391.353 220.644 384.561 216.622 377.174 214.075C374.464 213.152 371.67 212.502 368.831 212.135L368.403 212.749ZM391.22 181.875C393.008 182.105 394.808 182.229 396.61 182.246C398.566 182.272 400.521 182.148 402.457 181.875C403.427 181.747 404.382 181.547 405.309 181.362C406.236 181.176 407.22 181.062 408.161 180.791C408.732 180.649 409.302 180.52 409.858 180.349C409.812 180.056 409.75 179.766 409.673 179.479L407.962 179.893C406.079 180.292 404.183 180.592 402.257 180.92C400.367 181.173 398.461 181.293 396.553 181.276C394.995 181.262 393.438 181.162 391.89 180.977L391.22 181.875Z" fill="white"/>
<path d="M323.512 276.664C324.938 276.906 326.364 277.163 327.79 277.391L323.512 276.664Z" fill="#EBEBEB"/>
<path d="M344.86 232.628C343.576 232.414 342.207 232.157 340.753 231.872L344.86 232.628Z" fill="#EBEBEB"/>
<path d="M367.348 278.275C378.756 272.428 392.86 241.811 395.569 235.808C397.309 231.957 398.892 228.05 400.446 224.128C403.569 216.271 406.436 208.328 409.159 200.342C409.159 200.2 409.416 200.342 409.373 200.342C407.871 206.512 406.07 212.611 403.969 218.638C405.353 216.396 406.601 214.072 407.705 211.679C407.721 211.661 407.742 211.648 407.766 211.643C407.789 211.637 407.814 211.64 407.836 211.649C407.858 211.659 407.877 211.675 407.889 211.696C407.901 211.717 407.907 211.741 407.905 211.765C406.803 214.61 405.367 217.315 403.626 219.822C401.473 225.854 399.049 231.8 396.354 237.59C395.584 239.259 379.241 276.763 366.521 280.243C362.086 281.455 346.899 280.371 343.705 279.63C343.562 279.63 343.519 279.43 343.705 279.416C347.983 279.373 363.27 280.371 367.348 278.275Z" fill="#263238"/>
<path d="M307.212 265.341C307.769 263.758 308.353 262.189 308.938 260.62C310.107 257.483 317.123 238.845 320.175 233.027C320.195 232.997 320.225 232.974 320.259 232.964C320.294 232.953 320.331 232.954 320.364 232.968C320.398 232.981 320.425 233.006 320.443 233.037C320.46 233.069 320.467 233.105 320.46 233.141C318.735 239.529 311.291 257.925 310.036 260.963C309.409 262.503 308.767 264.057 308.111 265.612C307.455 267.166 306.614 268.635 305.958 270.189C305.886 270.346 305.644 270.275 305.701 270.104C306.271 268.506 306.642 266.866 307.212 265.341Z" fill="#263238"/>
<path d="M313.43 225.312C316.282 225.426 341.323 231.259 346.856 232.442C348.18 232.874 349.572 233.062 350.963 232.998C352.316 232.603 353.481 231.732 354.243 230.546C356.04 228.478 375.634 202.538 377.06 201.255C377.602 200.77 378.015 200.684 377.516 201.497C376.632 202.923 357.551 228.592 355.812 230.546C354.072 232.499 352.689 234.382 349.979 234.282C348.796 234.282 314.942 226.638 313.273 225.94C312.974 225.868 313.002 225.284 313.43 225.312Z" fill="#263238"/>
<path d="M379.256 181.861C384.347 181.761 395.741 173.39 397.381 165.647C397.495 165.105 395.356 160.513 393.017 154.795C391.591 151.315 390.165 147.408 389.038 143.757C388.81 143.001 367.762 156.206 367.762 156.206C370.439 160.386 372.594 164.878 374.179 169.583C374.323 170.091 374.423 170.611 374.478 171.137C374.473 171.222 374.473 171.308 374.478 171.394C374.906 174.388 373.794 181.975 379.256 181.861Z" fill="#F7A9A0"/>
<path d="M374.464 171.137C374.459 171.222 374.459 171.308 374.464 171.394C375.272 171.26 376.068 171.064 376.846 170.809C390.265 166.531 388.767 148.492 388.168 144C384.261 145.811 367.69 156.206 367.69 156.206C370.377 160.388 372.537 164.886 374.122 169.597C374.282 170.099 374.396 170.614 374.464 171.137Z" fill="#263238"/>
<path d="M384.76 113.996C389.437 121.54 391.391 146.41 386.956 153.24C380.525 163.223 366.863 167.501 357.651 159.116C348.724 150.93 346.742 118.474 351.947 111.943C359.733 102.317 377.844 102.844 384.76 113.996Z" fill="#F7A9A0"/>
<path d="M364.981 134.702C364.981 134.702 365.123 134.702 365.123 134.83C365.209 136.513 365.594 138.424 367.148 138.852V138.951C365.28 138.837 364.795 136.299 364.981 134.702Z" fill="#263238"/>
<path d="M366.336 132.82C369.002 132.392 369.673 137.782 367.191 138.181C364.71 138.581 364.125 133.19 366.336 132.82Z" fill="#263238"/>
<path d="M355.769 135.786C355.769 135.786 355.655 135.885 355.655 135.943C355.912 137.611 355.94 139.55 354.5 140.221C354.5 140.221 354.5 140.335 354.5 140.32C356.325 139.85 356.282 137.311 355.769 135.786Z" fill="#263238"/>
<path d="M354.143 134.231C351.434 134.36 351.89 139.764 354.386 139.636C356.881 139.508 356.339 134.146 354.143 134.231Z" fill="#263238"/>
<path d="M368.147 130.11C367.391 130.01 366.721 129.796 365.979 129.625C365.188 129.57 364.439 129.248 363.854 128.713C363.692 128.51 363.604 128.259 363.604 128C363.604 127.74 363.692 127.489 363.854 127.287C364.228 126.932 364.69 126.685 365.192 126.572C365.694 126.46 366.217 126.485 366.706 126.645C367.719 126.793 368.645 127.299 369.316 128.071C369.488 128.265 369.595 128.509 369.621 128.767C369.647 129.025 369.592 129.285 369.463 129.51C369.334 129.735 369.138 129.914 368.901 130.022C368.665 130.129 368.401 130.16 368.147 130.11Z" fill="#263238"/>
<path d="M351.648 131.779C352.355 131.539 353.05 131.263 353.73 130.952C354.497 130.767 355.183 130.336 355.683 129.725C355.809 129.495 355.853 129.229 355.809 128.97C355.765 128.712 355.636 128.475 355.441 128.299C355.024 128.02 354.541 127.856 354.04 127.823C353.539 127.791 353.039 127.891 352.589 128.114C351.605 128.442 350.774 129.116 350.25 130.01C350.136 130.221 350.086 130.461 350.107 130.7C350.127 130.939 350.218 131.167 350.366 131.355C350.515 131.543 350.716 131.684 350.944 131.759C351.171 131.834 351.416 131.841 351.648 131.779Z" fill="#263238"/>
<path d="M368.831 149.618C368.489 150.061 368.147 150.645 367.548 150.759C366.928 150.828 366.3 150.76 365.708 150.56C365.708 150.56 365.609 150.56 365.708 150.659C365.986 150.959 366.339 151.177 366.731 151.29C367.123 151.403 367.539 151.407 367.933 151.301C368.263 151.175 368.546 150.952 368.747 150.662C368.948 150.372 369.057 150.028 369.06 149.676C369.017 149.576 368.888 149.547 368.831 149.618Z" fill="#263238"/>
<path d="M366.464 144.841C366.123 145.554 365.638 146.188 365.039 146.704C364.44 147.219 363.74 147.605 362.985 147.835C362.329 148.042 361.647 148.158 360.96 148.178H360.19C360.098 148.173 360.011 148.139 359.941 148.079C359.871 148.02 359.823 147.939 359.805 147.85C359.797 147.793 359.797 147.735 359.805 147.679V147.536C359.605 146.253 359.491 144.285 359.491 144.285C359.049 144.584 356.796 145.953 356.753 145.269C356.19 139.462 356.218 133.614 356.838 127.814C356.838 127.629 357.138 127.643 357.152 127.814C357.694 133.176 357.309 138.595 357.765 143.985C358.568 143.486 359.437 143.102 360.346 142.844C360.532 142.844 360.503 146.652 360.632 147.222C361.705 147.207 362.764 146.974 363.744 146.538C364.725 146.102 365.606 145.471 366.336 144.684C366.407 144.598 366.55 144.698 366.464 144.841Z" fill="#263238"/>
<path d="M361.63 147.436C362.453 148.264 363.474 148.867 364.596 149.191C365.211 149.344 365.858 149.304 366.45 149.076C367.733 148.563 367.619 147.337 367.248 146.324C367.041 145.787 366.774 145.275 366.45 144.798C365.163 146.166 363.475 147.089 361.63 147.436Z" fill="#263238"/>
<path d="M364.596 149.191C365.211 149.344 365.858 149.304 366.45 149.076C367.733 148.563 367.619 147.337 367.248 146.324C366.547 146.432 365.903 146.774 365.422 147.294C364.94 147.815 364.649 148.483 364.596 149.191Z" fill="#FF9BBC"/>
<path d="M388.824 136.256C384.232 136.713 381.437 125.49 381.437 125.49C381.437 125.49 375.405 124.734 371.199 114.937C371.199 114.937 369.773 125.903 350.849 128.099C349.493 124.954 349.159 121.463 349.894 118.117C348.838 121.738 348.08 125.439 347.626 129.183C347.626 129.183 339.541 114.923 351.334 106.367C356.026 102.973 364.054 101.504 377.516 104.57C377.516 104.57 378.086 96.8122 379.698 97.4397C381.309 98.0671 380.254 105.425 380.254 105.425C380.254 105.425 385.145 102.573 386.3 103.415C387.455 104.256 382.535 106.737 382.535 106.737C385.102 107.019 387.482 108.214 389.241 110.104C391 111.994 392.021 114.453 392.118 117.033C392.931 125.903 391.092 136.028 388.824 136.256Z" fill="#263238"/>
<path d="M381.038 107.051C383.348 106.413 385.811 106.64 387.964 107.69C390.118 108.741 391.813 110.542 392.732 112.755C393.63 115.404 393.904 118.225 393.53 120.998C393.192 123.895 392.483 126.737 391.42 129.454C391.42 129.611 391.135 129.454 391.192 129.34C392.078 126.817 392.559 124.17 392.618 121.497C392.838 118.944 392.641 116.372 392.033 113.882C391.369 111.609 389.873 109.669 387.844 108.448C385.815 107.227 383.4 106.815 381.081 107.294C381.058 107.285 381.037 107.27 381.021 107.251C381.005 107.232 380.995 107.209 380.99 107.185C380.986 107.16 380.988 107.135 380.996 107.111C381.005 107.088 381.019 107.067 381.038 107.051Z" fill="#263238"/>
<path d="M361.273 101.347C364.59 101.304 367.897 101.692 371.113 102.502C374.195 103.141 377.146 104.298 379.84 105.925C379.867 105.942 379.886 105.968 379.894 105.999C379.903 106.029 379.899 106.061 379.885 106.09C379.871 106.118 379.847 106.14 379.818 106.152C379.789 106.163 379.756 106.164 379.726 106.153C374.123 103.922 368.16 102.728 362.129 102.63C356.582 102.388 350.436 103.871 347.484 109.048C347.484 109.133 347.298 109.048 347.341 109.048C349.865 103.671 355.769 101.475 361.273 101.347Z" fill="#263238"/>
<path d="M368.931 142.958C367.892 142.97 366.86 142.776 365.896 142.389C364.931 142.002 364.052 141.428 363.31 140.701C362.567 139.974 361.974 139.108 361.566 138.152C361.158 137.196 360.942 136.169 360.931 135.13C360.917 133.568 361.366 132.038 362.221 130.732C363.076 129.426 364.299 128.402 365.736 127.79C367.172 127.179 368.758 127.006 370.292 127.295C371.826 127.584 373.241 128.321 374.357 129.413C375.472 130.505 376.24 131.903 376.562 133.43C376.883 134.958 376.745 136.547 376.165 137.996C375.584 139.446 374.587 140.69 373.3 141.574C372.013 142.457 370.492 142.939 368.931 142.958ZM361.986 135.115C362.001 136.472 362.417 137.795 363.183 138.915C363.949 140.035 365.03 140.903 366.29 141.409C367.549 141.915 368.931 142.035 370.259 141.755C371.587 141.476 372.802 140.808 373.751 139.838C374.699 138.867 375.339 137.637 375.588 136.303C375.837 134.969 375.685 133.591 375.151 132.343C374.616 131.096 373.724 130.035 372.586 129.294C371.449 128.554 370.117 128.168 368.76 128.185C368.192 128.187 367.626 128.263 367.077 128.413C365.603 128.804 364.302 129.675 363.38 130.889C362.458 132.103 361.967 133.591 361.986 135.115Z" fill="#455A64"/>
<path d="M352.375 145.311C349.166 145.782 346.043 142.645 345.416 138.324C345.092 136.38 345.391 134.383 346.271 132.62C346.602 131.838 347.129 131.154 347.801 130.635C348.473 130.116 349.268 129.779 350.108 129.658C350.948 129.536 351.806 129.633 352.598 129.939C353.389 130.246 354.089 130.752 354.628 131.408C355.972 132.853 356.829 134.683 357.081 136.641C357.665 140.734 355.811 144.441 352.888 145.197L352.375 145.311ZM347.212 133.104C346.433 134.67 346.169 136.442 346.457 138.167C346.999 141.917 349.594 144.655 352.161 144.27C354.728 143.885 356.439 140.52 355.954 136.784C355.744 135.046 354.99 133.419 353.801 132.135C353.353 131.628 352.791 131.234 352.161 130.986C351.532 130.738 350.852 130.643 350.179 130.709H349.794C349.221 130.908 348.697 131.224 348.252 131.637C347.808 132.049 347.454 132.549 347.212 133.104Z" fill="#455A64"/>
<path d="M361.273 136L361.829 135.101C360.503 134.274 357.551 133.333 355.94 135.657L356.81 136.256C358.293 134.146 361.273 135.928 361.273 136Z" fill="#455A64"/>
<path d="M396.525 132.948L397.395 132.334C397.095 131.921 394.543 128.399 392.119 128.37C389.694 128.342 376.033 131.693 375.434 131.835L375.691 132.862C379.655 131.892 390.365 129.397 392.104 129.425C393.844 129.454 395.826 131.978 396.525 132.948Z" fill="#455A64"/>
<path d="M383.962 135.187C383.962 135.187 387.47 126.16 391.434 127.23C395.398 128.299 394.072 140.463 390.336 142.916C389.881 143.274 389.357 143.536 388.798 143.686C388.238 143.836 387.654 143.87 387.081 143.788C386.507 143.705 385.957 143.507 385.462 143.205C384.968 142.903 384.54 142.504 384.204 142.032L383.962 135.187Z" fill="#F7A9A0"/>
<path d="M390.963 130.709C391.035 130.709 391.063 130.709 390.963 130.809C388.368 132.677 387.498 135.714 387.113 138.738C387.216 138.414 387.388 138.115 387.616 137.863C387.844 137.611 388.124 137.411 388.436 137.276C388.748 137.14 389.085 137.074 389.425 137.08C389.765 137.086 390.1 137.165 390.407 137.312C390.43 137.312 390.451 137.321 390.468 137.337C390.484 137.353 390.493 137.374 390.493 137.397C390.493 137.42 390.484 137.442 390.468 137.458C390.451 137.474 390.43 137.483 390.407 137.483C389.861 137.449 389.317 137.584 388.85 137.87C388.384 138.155 388.016 138.578 387.797 139.08C387.442 139.919 387.179 140.794 387.013 141.689C386.942 141.989 386.443 141.96 386.457 141.689C385.516 137.868 387.113 132.035 390.963 130.709Z" fill="#263238"/>
<path d="M372.682 170.894H372.767C372.125 175.686 370.985 186.837 378.314 186.581C381.266 186.495 384.019 184.784 386.443 183.058C388.866 181.273 391.089 179.232 393.074 176.969C395.404 174.496 397.527 171.834 399.42 169.012C399.505 168.884 399.676 169.012 399.591 169.155C397.666 172.007 395.997 174.944 393.801 177.582C391.735 180.142 389.337 182.415 386.671 184.342C384.147 186.096 381.152 187.793 378.115 187.722C376.73 187.698 375.398 187.185 374.354 186.274C373.311 185.364 372.622 184.114 372.411 182.745C371.648 178.821 371.741 174.779 372.682 170.894Z" fill="#263238"/>
</svg>
