<svg width="165" height="49" viewBox="0 0 165 49" fill="none" xmlns="http://www.w3.org/2000/svg">
<g id="Group 1496">
<path id="path11" d="M158.221 48.6842H6.08553C2.73846 48.6842 0 45.9457 0 42.5987V6.08553C0 2.73846 2.73846 0 6.08553 0H158.221C161.568 0 164.307 2.73846 164.307 6.08553V42.5987C164.307 45.9457 161.568 48.6842 158.221 48.6842Z" fill="#100F0D"/>
<path id="path13" d="M158.221 0H6.08553C2.73846 0 0 2.73846 0 6.08553V42.5987C0 45.9457 2.73846 48.6842 6.08553 48.6842H158.221C161.568 48.6842 164.307 45.9457 164.307 42.5987V6.08553C164.307 2.73846 161.568 0 158.221 0ZM158.221 0.973191C161.04 0.973191 163.333 3.26673 163.333 6.08553V42.5987C163.333 45.4175 161.04 47.711 158.221 47.711H6.08553C3.26673 47.711 0.974195 45.4175 0.974195 42.5987V6.08553C0.974195 3.26673 3.26673 0.973191 6.08553 0.973191H158.221Z" fill="#A2A2A1"/>
<path id="path35" d="M130.151 36.5133H132.422V21.2969H130.151V36.5133ZM150.607 26.7786L148.004 33.3752H147.926L145.224 26.7786H142.778L146.831 35.9984L144.519 41.1273H146.888L153.133 26.7791L150.607 26.7786ZM137.727 34.7849C136.984 34.7849 135.946 34.4126 135.946 33.4926C135.946 32.3183 137.239 31.868 138.354 31.868C139.352 31.868 139.823 32.083 140.429 32.3768C140.252 33.7864 139.039 34.7848 137.727 34.7848L137.727 34.7849ZM138.002 26.4458C136.358 26.4458 134.655 27.1703 133.95 28.7755L135.966 29.617C136.397 28.7755 137.199 28.5017 138.041 28.5017C139.215 28.5017 140.409 29.2058 140.429 30.459V30.6154C140.018 30.3805 139.136 30.0283 138.06 30.0283C135.887 30.0283 133.675 31.222 133.675 33.4537C133.675 35.4895 135.457 36.8012 137.453 36.8012C138.979 36.8012 139.823 36.116 140.35 35.3131H140.429V36.4883H142.622V30.6543C142.622 27.9529 140.604 26.4458 138.002 26.4458V26.4458ZM123.966 28.6309H120.736V23.4155H123.966C125.664 23.4155 126.628 24.8209 126.628 26.0231C126.628 27.2023 125.664 28.6309 123.966 28.6309ZM123.908 21.2973H118.466V36.5136H120.736V30.7491H123.908C126.425 30.7491 128.899 28.9272 128.899 26.0237C128.899 23.1207 126.425 21.2979 123.908 21.2979L123.908 21.2973ZM94.2335 34.7874C92.6645 34.7874 91.3514 33.4733 91.3514 31.67C91.3514 29.8458 92.6645 28.5131 94.2335 28.5131C95.7825 28.5131 96.9982 29.8459 96.9982 31.67C96.9982 33.4733 95.7825 34.7874 94.2335 34.7874ZM96.8413 27.6304H96.7627C96.2531 27.0227 95.2722 26.4736 94.0376 26.4736C91.4489 26.4736 89.0764 28.7486 89.0764 31.67C89.0764 34.5716 91.4489 36.8266 94.0376 36.8266C95.2722 36.8266 96.2531 36.2774 96.7627 35.6503H96.8413V36.3949C96.8413 38.376 95.7825 39.4343 94.0766 39.4343C92.685 39.4343 91.8221 38.4344 91.4688 37.5914L89.4888 38.4149C90.0569 39.7869 91.5663 41.4738 94.0767 41.4738C96.7439 41.4738 98.9988 39.9048 98.9988 36.081V26.7872H96.8413L96.8413 27.6304ZM100.568 36.5128H102.841V21.2965H100.568V36.5128ZM106.195 31.4932C106.136 29.4931 107.744 28.4737 108.901 28.4737C109.803 28.4737 110.567 28.9249 110.823 29.5715L106.195 31.4932ZM113.253 29.7674C112.822 28.6112 111.508 26.4736 108.822 26.4736C106.155 26.4736 103.939 28.5716 103.939 31.6501C103.939 34.5522 106.136 36.8266 109.077 36.8266C111.449 36.8266 112.822 35.3761 113.391 34.5327L111.626 33.356C111.038 34.2189 110.234 34.7875 109.077 34.7875C107.92 34.7875 107.096 34.258 106.568 33.2187L113.489 30.3561L113.253 29.7674ZM58.1088 28.062V30.258H63.3636C63.2067 31.4933 62.795 32.3951 62.1674 33.0227C61.4025 33.7872 60.2063 34.6306 58.1087 34.6306C54.8733 34.6306 52.344 32.0229 52.344 28.7875C52.344 25.5522 54.8733 22.9441 58.1087 22.9441C59.8539 22.9441 61.1281 23.6305 62.0694 24.5129L63.6188 22.9635C62.3047 21.7088 60.5599 20.748 58.1087 20.748C53.6766 20.748 49.9512 24.356 49.9512 28.7875C49.9512 33.2186 53.6766 36.8266 58.1087 36.8266C60.5005 36.8266 62.3048 36.0422 63.7163 34.5717C65.1674 33.1207 65.6185 31.0815 65.6185 29.4342C65.6185 28.925 65.579 28.4543 65.5006 28.062H58.1088ZM71.5934 34.7874C70.0244 34.7874 68.6714 33.4933 68.6714 31.6501C68.6714 29.7874 70.0244 28.5132 71.5934 28.5132C73.1618 28.5132 74.5148 29.7874 74.5148 31.6501C74.5148 33.4933 73.1618 34.7874 71.5934 34.7874ZM71.5934 26.4736C68.7298 26.4736 66.3968 28.6501 66.3968 31.6501C66.3968 34.6306 68.7298 36.8266 71.5934 36.8266C74.4559 36.8266 76.7894 34.6306 76.7894 31.6501C76.7894 28.6501 74.4559 26.4736 71.5934 26.4736ZM82.9283 34.7874C81.3604 34.7874 80.0069 33.4933 80.0069 31.6501C80.0069 29.7874 81.3605 28.5132 82.9283 28.5132C84.4973 28.5132 85.8499 29.7874 85.8499 31.6501C85.8499 33.4933 84.4973 34.7874 82.9283 34.7874ZM82.9283 26.4736C80.0658 26.4736 77.7328 28.6501 77.7328 31.6501C77.7328 34.6306 80.0658 36.8266 82.9283 36.8266C85.7919 36.8266 88.1249 34.6306 88.1249 31.6501C88.1249 28.6501 85.7919 26.4736 82.9283 26.4736Z" fill="white"/>
<path id="path37" d="M25.2114 23.6413L12.2544 37.3943C12.2549 37.3971 12.2559 37.3995 12.2563 37.4024C12.6537 38.8958 14.0177 39.9955 15.6366 39.9955C16.2837 39.9955 16.8913 39.8205 17.4124 39.5134L17.4537 39.4891L32.0393 31.0726L25.2121 23.6411" fill="#EB3131"/>
<path id="path39" d="M38.3211 21.2996L38.3087 21.2911L32.0116 17.6406L24.9172 23.9535L32.0363 31.0717L38.3001 27.4575C39.3983 26.8647 40.1438 25.7069 40.1438 24.3719C40.1438 23.0464 39.4083 21.8945 38.321 21.2997" fill="#F6B60B"/>
<path id="path41" d="M12.2526 11.291C12.1747 11.5783 12.1338 11.8791 12.1338 12.1916V36.4944C12.1338 36.8063 12.1742 37.1081 12.2531 37.3944L25.6574 23.9928L12.2531 11.2914" fill="#5778C5"/>
<path id="path43" d="M25.3075 24.3429L32.0145 17.6379L17.4454 9.19091C16.9158 8.87373 16.2977 8.69067 15.6364 8.69067C14.0175 8.69067 12.6516 9.7923 12.2541 11.2875C12.2537 11.2889 12.2537 11.2899 12.2537 11.2912L25.3074 24.3432" fill="#3BAD49"/>
<path id="path33" d="M57.6826 11.9043H54.1321V12.7829H56.7927C56.7204 13.4999 56.4351 14.0629 55.9539 14.4717C55.4728 14.8807 54.8585 15.086 54.1321 15.086C53.3352 15.086 52.6601 14.8084 52.1068 14.2569C51.5647 13.694 51.2891 12.9979 51.2891 12.1593C51.2891 11.3207 51.5647 10.6246 52.1068 10.0617C52.6601 9.51025 53.3352 9.23446 54.1321 9.23446C54.541 9.23446 54.9309 9.30481 55.2883 9.45889C55.6459 9.61285 55.933 9.82779 56.1574 10.1036L56.8326 9.42847C56.5263 9.08038 56.1384 8.81419 55.6572 8.62019C55.176 8.42618 54.674 8.33307 54.132 8.33307C53.069 8.33307 52.1676 8.70197 51.4316 9.43799C50.6956 10.1758 50.3267 11.0849 50.3267 12.1593C50.3267 13.2337 50.6956 14.1447 51.4316 14.8808C52.1676 15.6166 53.069 15.9857 54.132 15.9857C55.2483 15.9857 56.1383 15.6281 56.823 14.9016C57.4258 14.2969 57.7338 13.4792 57.7338 12.4561C57.7338 12.283 57.7129 12.0985 57.6825 11.9045L57.6826 11.9043ZM59.0581 8.49646V15.822H63.335V14.9224H59.9994V12.5986H63.008V11.72H59.9994V9.39795H63.335V8.49644L59.0581 8.49646ZM69.3322 9.39798V8.49646H64.2983V9.39798H66.3446V15.822H67.286V9.39798H69.3322ZM73.8896 8.49646H72.9483V15.822H73.8896V8.49646ZM80.103 9.39798V8.49646H75.0692V9.39798H77.1154V15.822H78.0567V9.39798H80.103ZM89.6022 9.44933C88.8757 8.70192 87.9857 8.33301 86.9226 8.33301C85.8577 8.33301 84.9677 8.70191 84.2412 9.43792C83.5147 10.1644 83.1573 11.0753 83.1573 12.1592C83.1573 13.2431 83.5147 14.1542 84.2412 14.8807C84.9677 15.6166 85.8577 15.9856 86.9226 15.9856C87.9761 15.9856 88.8756 15.6166 89.6022 14.8807C90.3287 14.1542 90.6861 13.2432 90.6861 12.1592C90.6861 11.0848 90.3286 10.1757 89.6022 9.44933ZM84.9163 10.0617C85.4583 9.51019 86.1239 9.23439 86.9226 9.23439C87.7194 9.23439 88.3851 9.51019 88.9175 10.0617C89.4595 10.6036 89.7257 11.311 89.7257 12.1592C89.7257 13.0094 89.4595 13.7148 88.9175 14.2568C88.3851 14.8083 87.7194 15.0859 86.9226 15.0859C86.1239 15.0859 85.4583 14.8083 84.9163 14.2568C84.3857 13.7034 84.1195 13.0093 84.1195 12.1592C84.1195 11.311 84.3857 10.615 84.9163 10.0617ZM92.9226 11.2598L92.8827 9.84668H92.9226L96.6462 15.8219H97.6293V8.49639H96.688V12.7829L96.7279 14.196H96.688L93.128 8.49639H91.9813V15.8219H92.9226V11.2598Z" fill="white" stroke="white" stroke-width="0.26666" stroke-miterlimit="10"/>
</g>
</svg>
