<svg width="1440" height="926" viewBox="0 0 1440 926" fill="none" xmlns="http://www.w3.org/2000/svg">
<path d="M924 50C577.6 -7.59995 131.333 74.0001 -48.5 122L-146 844C-32 895.167 291.4 974.9 673 884.5C1054.6 794.1 1463.67 846.833 1620.5 884.5V0C1532.67 40.6667 1270.4 107.6 924 50Z" fill="#F9F9FB"/>
<path d="M133 207.271C133 201.346 133 198.383 134.858 196.61C136.717 194.837 139.662 194.976 145.553 195.254C176.976 196.735 260.652 200.403 318.5 200.403C376.348 200.403 460.024 196.735 491.447 195.254C497.338 194.976 500.283 194.837 502.142 196.61C504 198.383 504 201.346 504 207.271V233.018C504 238.943 504 241.906 502.142 243.679C500.283 245.452 497.338 245.313 491.448 245.035C460.024 243.555 376.348 239.886 318.5 239.886C260.652 239.886 176.976 243.555 145.553 245.035C139.662 245.313 136.717 245.452 134.858 243.679C133 241.906 133 238.943 133 233.018V207.271Z" fill="#5F35F2" fill-opacity="0.25"/>
<circle cx="524" cy="168.5" r="20" fill="#F4C5D0"/>
<circle cx="502.5" cy="121" r="9.5" fill="#D3C8F9"/>
</svg>
