<svg width="1252" height="945" viewBox="0 0 1252 945" fill="none" xmlns="http://www.w3.org/2000/svg">
<path opacity="0.0526316" d="M821.1 787.905C872.595 754.134 962.375 641.397 909.534 460.615C843.483 234.638 636.308 135.581 538.694 -68.5887C466.648 -219.281 369.576 -618.002 518.995 -834.099" stroke="#F3F4F7" stroke-width="3"/>
<path opacity="0.105263" d="M715.776 817.714C770.519 789.511 871.591 686.776 837.936 501.461C795.868 269.818 600.183 149.648 524.445 -63.6065C468.545 -221.004 413.683 -627.688 584.871 -826.982" stroke="#F3F4F7" stroke-width="3"/>
<path opacity="0.157895" d="M609.636 838.529C667.027 816.203 778.284 724.595 764.185 536.778C746.561 302.007 564.508 162.04 511.476 -57.9632C472.335 -220.342 460.284 -630.532 651.366 -810.84" stroke="#F3F4F7" stroke-width="3"/>
<path opacity="0.210526" d="M503.622 850.313C563.033 834.107 683.256 754.631 688.866 566.369C695.879 331.042 529.454 172.812 499.709 -51.5291C477.755 -217.11 508.646 -626.313 717.53 -785.66" stroke="#F3F4F7" stroke-width="3"/>
<path opacity="0.263158" d="M398.679 853.128C459.458 843.221 587.33 776.747 612.588 590.103C644.161 356.798 495.187 182.039 489.055 -44.1828C484.53 -211.151 558.025 -614.883 782.42 -751.523" stroke="#F3F4F7" stroke-width="3"/>
<path opacity="0.315789" d="M295.738 847.135C357.22 843.636 491.34 790.893 535.969 607.911C591.756 379.184 461.866 189.81 479.414 -35.8131C492.366 -202.34 607.661 -596.178 845.109 -708.614" stroke="#F3F4F7" stroke-width="3"/>
<path opacity="0.368421" d="M195.708 832.593C257.218 835.539 396.117 797.104 459.629 619.79C539.018 398.147 429.635 196.234 470.671 -26.3193C500.959 -190.58 656.789 -570.209 904.69 -657.208" stroke="#F3F4F7" stroke-width="3"/>
<path opacity="0.421053" d="M99.4685 809.851C160.334 819.211 302.489 795.506 384.187 625.801C486.31 413.671 398.631 201.43 462.706 -15.6139C509.998 -175.809 704.656 -537.069 960.293 -597.68" stroke="#F3F4F7" stroke-width="3"/>
<path opacity="0.473684" d="M7.85429 779.352C67.4078 795.023 211.262 786.306 310.252 626.072C433.989 425.778 368.975 205.535 455.386 -3.62251C519.164 -157.996 750.518 -496.931 1011.09 -530.488" stroke="#F3F4F7" stroke-width="3"/>
<path opacity="0.526316" d="M-78.3489 741.621C-20.7598 763.431 123.218 769.799 238.414 620.789C382.41 434.527 340.774 208.695 448.575 9.71539C528.139 -137.146 793.654 -450.041 1056.31 -456.177" stroke="#F3F4F7" stroke-width="3"/>
<path opacity="0.578947" d="M-158.416 697.263C-103.422 724.974 39.1009 746.356 169.242 610.204C331.918 440.014 314.117 211.067 442.126 24.4456C536.606 -113.295 833.373 -396.721 1095.23 -375.369" stroke="#F3F4F7" stroke-width="3"/>
<path opacity="0.631579" d="M-231.685 646.957C-179.889 680.264 -40.3815 716.427 103.278 594.625C282.853 442.371 289.081 212.817 435.896 40.599C544.256 -86.5109 869.023 -337.364 1127.21 -288.758" stroke="#F3F4F7" stroke-width="3"/>
<path opacity="0.684211" d="M-297.572 591.445C-249.542 629.984 -114.579 680.531 41.0261 574.413C235.532 441.764 265.721 214.118 429.733 58.1898C550.786 -56.897 899.996 -272.429 1151.69 -197.101" stroke="#F3F4F7" stroke-width="3"/>
<path opacity="0.736842" d="M-355.577 531.527C-311.838 574.875 -182.898 639.254 -17.0529 549.981C190.253 438.391 244.072 215.148 423.484 77.2174C555.905 -24.5854 925.73 -202.434 1168.17 -101.21" stroke="#F3F4F7" stroke-width="3"/>
<path opacity="0.789474" d="M-405.277 468.052C-366.308 515.735 -244.804 593.239 -70.5363 521.791C147.299 432.481 224.157 216.086 417.005 97.6655C559.341 10.2621 945.731 -127.955 1176.26 -1.94311" stroke="#F3F4F7" stroke-width="3"/>
<path opacity="0.842105" d="M-446.35 401.908C-412.579 453.402 -299.842 543.182 -119.06 490.341C106.917 424.291 205.974 217.116 410.144 119.501C560.836 47.455 959.557 -49.6164 1175.65 99.8025" stroke="#F3F4F7" stroke-width="3"/>
<path opacity="0.894737" d="M-478.562 334.009C-450.359 388.752 -347.624 489.824 -162.309 456.169C69.3342 414.102 189.504 218.416 402.759 142.678C560.157 86.7777 966.84 31.9158 1166.13 203.104" stroke="#F3F4F7" stroke-width="3"/>
<path opacity="0.947368" d="M-501.779 265.293C-479.453 322.684 -387.845 433.941 -200.028 419.842C34.7435 402.217 174.71 220.165 394.713 167.133C557.092 127.992 967.282 115.94 1147.59 307.023" stroke="#F3F4F7" stroke-width="3"/>
<path d="M-515.965 196.704C-499.76 256.114 -420.284 376.337 -232.022 381.948C3.30615 388.96 161.536 222.535 385.877 192.791C551.458 170.837 960.66 201.728 1120.01 410.611" stroke="#F3F4F7" stroke-width="3"/>
</svg>
