<svg width="245" height="241" viewBox="0 0 245 241" fill="none" xmlns="http://www.w3.org/2000/svg">
<g id="Group 1534">
<g id="Background Complete">
<path id="Vector" d="M211.824 206.321H232.477V199.617H211.824V206.321Z" fill="#EBEBEB"/>
<path id="Vector_2" d="M161.55 140.197H182.202V133.494H161.55V140.197Z" fill="#EBEBEB"/>
<path id="Vector_3" d="M223.343 214.773L233.74 214.6L238.879 214.528L243.995 214.498L243.725 214.773V208.07L244.019 208.369L233.693 208.327L228.529 208.28L223.366 208.214L223.507 208.07L223.343 214.773ZM223.343 214.773L223.208 208.07V207.932H223.349L228.494 207.872L233.657 207.824L243.984 207.782H244.277V208.082L244.248 214.785V215.061H243.984L238.774 215.031L233.587 214.959L223.343 214.773Z" fill="#EBEBEB"/>
<path id="Vector_4" d="M92.22 51.3509L102.617 51.1712L107.756 51.0993H112.873L112.602 51.3748V44.6714L112.896 44.9709L102.57 44.929L97.4066 44.8751L92.22 44.7852L92.361 44.6475L92.22 51.3509ZM92.22 51.3509L92.0849 44.6475V44.5037H92.22L97.3831 44.4378L102.546 44.3839L112.896 44.33H113.19V44.6355V51.3389V51.6085H112.925H107.715L102.499 51.5186L92.22 51.3509Z" fill="#EBEBEB"/>
<path id="Vector_5" d="M103.762 59.8035L114.159 59.6238L119.299 59.5519H124.415L124.15 59.8275L124.121 53.124L124.415 53.4176L114.088 53.3816L108.925 53.3157L103.762 53.2498L103.903 53.112L103.762 59.8035ZM103.762 59.8035L103.627 53.1001V52.9563H103.768L108.931 52.8904L114.094 52.8365L124.421 52.8005H124.714V53.1061V59.8095V60.0791H124.444H119.234L114.047 60.0072L103.762 59.8035Z" fill="#EBEBEB"/>
<path id="Vector_6" d="M115.24 51.3451H135.892V44.6417H115.24V51.3451Z" fill="#EBEBEB"/>
<path id="Vector_7" d="M0.998405 214.773H21.651V208.07H0.998405V214.773Z" fill="#EBEBEB"/>
<path id="Vector_8" d="M12.5231 7.76978L33.1757 7.76978V1.06635L12.5231 1.06635V7.76978Z" fill="#EBEBEB"/>
<path id="Vector_9" d="M1.00438 16.2224L11.4012 16.0487L16.5349 15.9768L21.657 15.9469L21.3868 16.2224V9.51901L21.6805 9.81854L11.3542 9.7766L6.19102 9.72868L1.02787 9.66278L1.17472 9.51901L1.00438 16.2224ZM1.00438 16.2224L0.863403 9.51901V9.37524H1.00438L6.16753 9.30934L11.3307 9.26142L21.657 9.21948H21.9507V9.51901V16.2224V16.498H21.6863H16.4762L11.2896 16.4261L1.00438 16.2224Z" fill="#EBEBEB"/>
<path id="Vector_10" d="M211.824 7.78777L222.221 7.61405L227.36 7.54216L232.477 7.51221L232.206 7.78777V1.08434L232.5 1.38387L222.15 1.32397L216.987 1.27604L211.824 1.19817L211.965 1.05439L211.824 7.78777ZM211.824 7.78777L211.683 1.08434V0.9226H211.824L216.987 0.856704L222.15 0.80878L232.477 0.766846H232.77V1.06637V7.7698V8.04537H232.506H227.296L222.109 7.97348L211.824 7.78777Z" fill="#EBEBEB"/>
<path id="Vector_11" d="M159.952 0V116.816H234.398V0H159.952ZM231.649 114H162.707V2.80358H231.649V114Z" fill="#EBEBEB"/>
<path id="Vector_12" d="M231.649 2.80359H162.701V114.006H231.649V2.80359Z" fill="#5C3AD1"/>
<path id="Vector_13" d="M162.695 59.8037L231.643 59.8037V57.0001L162.695 57.0001V59.8037Z" fill="#EBEBEB"/>
<path id="Vector_14" d="M154.894 124.843L239.449 124.843V116.804L154.894 116.804V124.843Z" fill="#DBDBDB"/>
<path id="Vector_15" d="M162.707 2.79773H231.649V74.7443H162.707V2.79773ZM229.082 5.39164H165.244V72.1504H229.082V5.39164Z" fill="#DBDBDB"/>
<path id="Vector_16" d="M209.645 2.79773H208.271V72.1504H209.645V2.79773Z" fill="#DBDBDB"/>
<path id="Vector_17" d="M186.079 2.79773H184.704V72.1504H186.079V2.79773Z" fill="#DBDBDB"/>
<path id="Vector_18" d="M10.6082 0V116.816H85.048V0H10.6082ZM82.299 114H13.3572V2.80358H82.299V114Z" fill="#EBEBEB"/>
<path id="Vector_19" d="M82.305 2.80359H13.3573V114.006H82.305V2.80359Z" fill="#5C3AD1"/>
<path id="Vector_20" d="M13.3513 59.8037L82.2991 59.8037V57.0001L13.3513 57.0001V59.8037Z" fill="#EBEBEB"/>
<path id="Vector_21" d="M5.5507 124.843L90.1053 124.843V116.804L5.5507 116.804V124.843Z" fill="#DBDBDB"/>
<path id="Vector_22" d="M13.3514 2.79773H82.2991V74.7443H13.3514V2.79773ZM79.7557 5.39164H15.8948V72.1504H79.7557V5.39164Z" fill="#DBDBDB"/>
<path id="Vector_23" d="M60.2955 2.79773H58.921V72.1504H60.2955V2.79773Z" fill="#DBDBDB"/>
<path id="Vector_24" d="M36.7293 2.79773H35.3548V72.1504H36.7293V2.79773Z" fill="#DBDBDB"/>
</g>
<g id="Floor">
<path id="Vector_25" d="M0 240.706L30.6265 240.557L61.247 240.503L122.5 240.407L183.747 240.503L214.373 240.557L245 240.706L214.373 240.85L183.747 240.904L122.5 241L61.247 240.904L30.6265 240.85L0 240.706Z" fill="#263238"/>
</g>
<g id="Table">
<path id="Vector_26" d="M244.636 152.717H170.102V163.506H244.636V152.717Z" fill="#455A64"/>
<path id="Vector_27" d="M242.862 163.506H171.882V167.011H242.862V163.506Z" fill="#455A64"/>
<path id="Vector_28" d="M242.862 163.506H171.882V164.668H242.862V163.506Z" fill="#263238"/>
<path id="Vector_29" d="M172.581 241H169.738L178.002 167.01H185.245L172.581 241Z" fill="#455A64"/>
<path id="Vector_30" d="M185.245 167.01L184.393 171.965H177.45L178.002 167.01H185.245Z" fill="#263238"/>
<path id="Vector_31" d="M242.157 241H245L236.735 167.01H229.493L242.157 241Z" fill="#455A64"/>
<path id="Vector_32" d="M229.493 167.01L230.345 171.965H237.287L236.735 167.01H229.493Z" fill="#263238"/>
</g>
<g id="Plant">
<path id="Vector_33" d="M225.64 196.442C225.067 198.577 224.688 200.761 224.506 202.966C224.565 203.074 224.553 203.481 224.506 203.367C224.506 203.727 223.96 203.661 223.96 203.307C223.96 203.08 223.96 202.846 223.96 202.624C222.709 201.043 220.894 200.037 219.425 198.659C218.241 197.58 217.38 196.183 216.941 194.627C215.719 190.35 216.864 185.815 215.396 181.55C214.139 177.866 211.871 174.667 209.957 171.336C207.936 167.807 206.432 164.099 206.291 159.954C206.174 156.791 206.544 152.579 208.905 150.207C211.407 147.697 214.509 149.578 216.43 151.819C221.986 158.324 224.559 166.543 225.599 174.954C226.186 179.603 226.773 184.281 226.627 188.978C226.54 191.493 226.21 193.994 225.64 196.442Z" fill="#5C3AD1"/>
<path id="Vector_34" d="M224.53 204.673C224.834 200.283 224.783 195.875 224.377 191.494C224.38 191.486 224.382 191.478 224.382 191.47C224.382 191.462 224.38 191.454 224.377 191.446C224.447 187.888 224.723 184.335 224.588 180.771C224.42 176.913 223.905 173.079 223.049 169.317C223.049 169.275 222.973 169.287 222.979 169.317C223.662 173.014 224.069 176.759 224.195 180.519C224.265 182.532 224.253 184.545 224.148 186.558C224.118 187.211 224.054 187.87 224.013 188.529C222.561 178.528 219.017 168.962 213.622 160.481C213.545 160.367 213.346 160.481 213.416 160.607C217.272 167.053 220.125 174.069 221.875 181.406C219.202 176.356 215.167 172.204 212.171 167.352C212.171 167.322 212.112 167.352 212.13 167.352C214.82 172.743 219.261 177.015 222.115 182.328C222.603 184.497 223.008 186.683 223.29 188.888C223.691 191.91 223.905 194.956 223.93 198.006C222.303 194.903 220.618 191.931 219.284 188.648C219.249 188.565 219.126 188.648 219.155 188.708C220.289 192.117 221.81 195.789 223.942 198.701C223.942 200.857 223.889 203.014 223.766 205.17C223.431 210.921 222.468 216.6 222.004 222.333C222 222.368 222.01 222.403 222.031 222.431C222.053 222.458 222.084 222.476 222.118 222.48C222.153 222.484 222.187 222.474 222.214 222.452C222.241 222.43 222.258 222.398 222.262 222.363C223.409 216.526 224.167 210.615 224.53 204.673Z" fill="#263238"/>
<path id="Vector_35" d="M218.538 160.301C218.538 160.259 218.462 160.301 218.48 160.331C219.507 163.237 220.089 166.184 220.829 169.161C220.834 169.19 220.849 169.215 220.873 169.232C220.896 169.249 220.924 169.256 220.952 169.251C220.98 169.246 221.006 169.23 221.022 169.207C221.039 169.183 221.045 169.154 221.041 169.125C220.634 166.075 219.791 163.102 218.538 160.301Z" fill="#263238"/>
<path id="Vector_36" d="M244.706 172.48C244.027 174.184 243.242 175.843 242.357 177.446C240.501 180.885 238.562 184.036 238.216 188.037C238.157 189.827 237.906 191.605 237.47 193.339C236.981 194.819 236.283 196.218 235.396 197.491C233.382 200.486 230.873 203.05 229.006 206.153C227.07 209.386 225.639 212.907 224.765 216.588C224.718 216.792 224.406 216.738 224.453 216.534C224.454 216.521 224.454 216.507 224.453 216.493C224.45 216.479 224.45 216.464 224.453 216.451C224.154 207.872 224.829 199.222 227.39 191.003C228.51 187.388 229.86 183.853 231.431 180.417C232.722 177.381 234.591 174.636 236.929 172.342C238.498 170.904 241.893 168.179 244.119 169.622C245.212 170.317 245.129 171.414 244.706 172.48Z" fill="#5F35F2"/>
<path id="Vector_37" d="M236.254 191.931C234.771 194.429 233.137 196.83 231.361 199.12C230.55 200.204 229.722 201.283 228.912 202.367C228.524 202.876 228.095 203.391 227.737 203.942C227.96 203.038 228.177 202.145 228.401 201.235C229.487 196.897 230.527 192.524 232.148 188.355C233.804 184.319 235.755 180.416 237.987 176.679C238.045 176.577 237.887 176.506 237.828 176.601C236.066 179.597 234.251 182.592 232.753 185.707C231.928 187.458 231.208 189.258 230.597 191.099C231.282 187.187 232.242 183.331 233.47 179.561C233.47 179.525 233.429 179.501 233.417 179.561C231.813 183.37 230.808 187.413 230.439 191.542C230.075 192.656 229.738 193.78 229.428 194.915C228.101 199.707 226.938 204.565 225.857 209.43C225.841 206.232 226.115 203.039 226.674 199.893C226.67 199.881 226.662 199.87 226.652 199.863C226.642 199.855 226.63 199.852 226.618 199.852C226.605 199.852 226.593 199.855 226.583 199.863C226.573 199.87 226.566 199.881 226.562 199.893C225.741 203.175 225.467 206.576 225.751 209.951C225.34 211.802 224.947 213.653 224.577 215.504C223.754 219.464 222.738 223.484 222.227 227.485C222.232 227.503 222.242 227.519 222.257 227.53C222.271 227.541 222.288 227.547 222.306 227.547C222.324 227.547 222.342 227.541 222.356 227.53C222.371 227.519 222.381 227.503 222.386 227.485C222.973 225.323 223.308 223.076 223.784 220.896C224.259 218.715 224.741 216.499 225.246 214.306C225.975 211.113 226.744 207.932 227.519 204.751C228.042 203.583 229.053 202.553 229.804 201.57C230.556 200.588 231.461 199.425 232.266 198.335C233.78 196.318 235.133 194.181 236.313 191.943C236.354 191.919 236.277 191.889 236.254 191.931Z" fill="#263238"/>
<path id="Vector_38" d="M236.612 188.265C234.761 190.675 233.157 193.273 231.825 196.017C231.825 196.053 231.866 196.089 231.884 196.053C233.493 193.483 235.079 190.889 236.683 188.313C236.718 188.271 236.642 188.223 236.612 188.265Z" fill="#263238"/>
<path id="Vector_39" d="M200.799 180.615C201.886 182.532 203.148 184.809 202.667 187.133C202.367 188.589 201.322 189.769 201.134 191.254C200.711 194.531 203.912 196.7 206.232 198.245C212.006 202.109 219.93 205.56 220.982 213.449C221.023 213.731 221.493 213.659 221.463 213.389C221.466 213.372 221.466 213.353 221.463 213.336C221.463 213.336 221.493 213.336 221.493 213.288C222.249 209.303 222.211 205.204 221.381 201.235C220.518 197.161 218.779 193.507 216.723 189.93C213.222 183.91 209.551 177.692 204.294 173.055C202.843 171.773 199.859 169.461 198.702 172.36C197.545 175.26 199.46 178.285 200.799 180.615Z" fill="#5F35F2"/>
<path id="Vector_40" d="M206.086 193.441C209.915 197.67 216.007 200.03 219.302 204.781C217.46 197.571 213.981 190.903 209.146 185.318C209.118 185.289 209.102 185.25 209.102 185.21C209.102 185.169 209.118 185.131 209.146 185.102C209.174 185.073 209.212 185.057 209.252 185.057C209.291 185.057 209.329 185.073 209.357 185.102C212.881 188.599 215.7 192.765 217.657 197.365C216.746 194.153 215.549 191.033 214.08 188.043C214.027 187.93 214.186 187.828 214.25 187.942C216.069 191.205 217.369 194.741 218.104 198.419C222.444 209.148 222.85 221.722 221.939 233.032C221.939 233.188 221.687 233.194 221.693 233.032C221.939 224.119 221.798 215.061 219.707 206.357L219.566 205.811C215.983 200.713 209.915 198.353 206.021 193.507C206.015 193.498 206.013 193.487 206.014 193.476C206.016 193.465 206.02 193.455 206.028 193.448C206.035 193.44 206.045 193.435 206.056 193.434C206.066 193.433 206.077 193.435 206.086 193.441Z" fill="#263238"/>
<path id="Vector_41" d="M205.198 189.811C207.207 191.692 209.187 193.615 211.202 195.496C211.202 195.496 211.202 195.55 211.172 195.538C208.895 193.966 206.843 192.079 205.075 189.93C205.066 189.913 205.062 189.893 205.065 189.873C205.068 189.854 205.078 189.836 205.092 189.822C205.106 189.808 205.124 189.8 205.143 189.798C205.162 189.796 205.182 189.8 205.198 189.811Z" fill="#263238"/>
<path id="Vector_42" d="M204.881 181.658C206.651 184.632 208.655 187.455 210.873 190.098C210.88 190.105 210.884 190.115 210.884 190.125C210.884 190.135 210.88 190.145 210.873 190.152C210.866 190.159 210.856 190.163 210.846 190.163C210.836 190.163 210.827 190.159 210.82 190.152C208.325 187.729 206.269 184.875 204.746 181.723C204.738 181.705 204.737 181.684 204.743 181.665C204.75 181.646 204.764 181.63 204.781 181.622C204.799 181.613 204.82 181.612 204.839 181.618C204.857 181.625 204.873 181.639 204.881 181.658Z" fill="#263238"/>
<path id="Vector_43" d="M213.933 241H231.543L229.17 216.834H216.647L213.933 241Z" fill="#455A64"/>
<path id="Vector_44" d="M216.2 220.764H229.558L229.17 216.834H216.641L216.2 220.764Z" fill="#263238"/>
<path id="Vector_45" d="M214.485 218.014H230.991V214.156H214.485V218.014Z" fill="#455A64"/>
</g>
<g id="Lamp">
<path id="Vector_46" d="M22.8788 76.2297H19.7069V237.765H22.8788V76.2297Z" fill="#263238"/>
<path id="Vector_47" d="M75.3822 19.1084L0.000915527 95.9868L2.24379 98.2742L77.6251 21.3958L75.3822 19.1084Z" fill="#263238"/>
<path id="Vector_48" d="M4.09998 237.765V241H38.4916V237.765H4.09998Z" fill="#263238"/>
<path id="Vector_49" d="M77.9464 31.031L88.5781 20.8471L78.569 12.5562L70.604 20.1941L77.9464 31.031Z" fill="#5F35F2"/>
<path id="Vector_50" opacity="0.1" d="M88.5782 20.847L77.9464 31.031L75.0271 26.7237L84.1375 17.1748L88.5782 20.847Z" fill="black"/>
<path id="Vector_51" d="M76.8481 48.0443L105.536 20.5477L91.8324 13.0236L70.334 33.6251L76.8481 48.0443Z" fill="#5F35F2"/>
</g>
<g id="Mug">
<path id="Vector_52" opacity="0.6" d="M188.763 135.033C188.763 135.033 178.566 130.247 178.566 123.825C178.566 117.403 191.783 113.27 191.783 108.249C191.783 103.229 186.02 100.276 186.02 100.276C186.02 100.276 195.125 103.451 195.125 109.795C195.125 116.139 186.408 120.446 185.574 124.484C184.44 130.097 188.763 135.033 188.763 135.033Z" fill="#DBDBDB"/>
<path id="Vector_53" opacity="0.6" d="M188.258 135.033C188.258 135.033 198.455 131.265 198.455 126.221C198.455 121.177 185.233 117.924 185.233 113.976C185.233 110.029 190.995 107.71 190.995 107.71C190.995 107.71 181.891 110.208 181.891 115.198C181.891 120.189 191.876 123.585 192.617 127.671C193.357 131.756 188.258 135.033 188.258 135.033Z" fill="#DBDBDB"/>
<path id="Vector_54" d="M193.503 151.177H183.806V152.723H193.503V151.177Z" fill="#5F35F2"/>
<path id="Vector_55" opacity="0.1" d="M193.503 151.177H183.806V152.196H193.503V151.177Z" fill="black"/>
<path id="Vector_56" d="M204.999 147.026C204.328 148.086 203.316 148.875 202.137 149.257C200.957 149.638 199.685 149.589 198.537 149.117C198.056 148.927 197.596 148.682 197.169 148.386L198.402 146.523C198.632 146.685 198.876 146.825 199.131 146.942C199.834 147.274 200.632 147.335 201.377 147.115C202.121 146.895 202.763 146.408 203.184 145.744C204.517 143.839 204.993 139.484 203.648 137.813C203.554 137.687 203.166 137.495 201.604 137.813C201.316 137.879 201.016 137.957 200.623 138.058C200.336 138.159 200.038 138.223 199.736 138.25L199.695 137.136L199.589 136.016C199.689 136.016 199.847 135.956 200.053 135.896C200.773 135.679 201.51 135.523 202.256 135.429C203.401 135.309 204.605 135.429 205.345 136.375C207.566 139.113 206.679 144.636 204.999 147.026Z" fill="#5F35F2"/>
<path id="Vector_57" opacity="0.1" d="M198.432 146.523C198.662 146.685 198.905 146.825 199.16 146.942L198.573 149.117C198.091 148.927 197.632 148.682 197.204 148.386L198.432 146.523Z" fill="black"/>
<path id="Vector_58" opacity="0.1" d="M202.285 135.435L201.633 137.831C201.345 137.897 201.045 137.975 200.652 138.076C200.365 138.177 200.067 138.241 199.765 138.268L199.724 137.154L199.618 136.034C199.718 136.034 199.877 135.974 200.082 135.914C200.802 135.693 201.539 135.532 202.285 135.435Z" fill="black"/>
<path id="Vector_59" d="M175.753 132.523C175.753 132.523 175.841 133.26 176.005 134.416C176.035 134.596 176.058 134.788 176.087 135.015C176.205 135.812 176.352 136.752 176.528 137.771C176.528 137.825 176.528 137.885 176.557 137.945C176.816 139.4 177.145 140.988 177.491 142.479C177.491 142.551 177.532 142.611 177.544 142.677C177.644 143.078 177.75 143.474 177.856 143.875C177.961 144.277 178.079 144.624 178.19 144.983C178.398 145.635 178.643 146.273 178.925 146.894C180.939 151.136 183.747 151.609 185.486 151.609H191.829C193.592 151.609 196.376 151.136 198.379 146.894L198.561 146.475C198.602 146.373 198.649 146.265 198.69 146.158C198.731 146.05 198.778 145.942 198.819 145.828C198.861 145.714 198.878 145.66 198.908 145.588C199.322 144.383 199.669 143.155 199.947 141.91C199.964 141.859 199.977 141.807 199.988 141.755C199.988 141.755 199.988 141.719 199.988 141.695C200.112 141.167 200.223 140.634 200.329 140.107C200.511 139.238 200.67 138.388 200.811 137.573C200.869 137.202 200.928 136.842 200.993 136.489C200.993 136.393 201.022 136.297 201.034 136.207C201.075 135.974 201.11 135.74 201.14 135.524C201.169 135.309 201.204 135.099 201.234 134.925C201.263 134.752 201.286 134.53 201.316 134.326C201.469 133.248 201.545 132.577 201.545 132.577L175.753 132.523Z" fill="#5F35F2"/>
<path id="Vector_60" opacity="0.1" d="M176.557 137.914C176.816 139.37 177.145 140.958 177.491 142.449C177.65 142.449 177.809 142.503 177.973 142.545C178.748 142.729 179.484 143.054 180.146 143.504C180.799 143.96 181.409 144.477 181.967 145.049C182.51 145.612 183.099 146.125 183.729 146.583C184.361 147.014 185.097 147.259 185.856 147.29C186.225 147.277 186.588 147.187 186.921 147.026C187.255 146.864 187.552 146.633 187.794 146.349C188.331 145.783 188.815 145.168 189.239 144.51C189.682 143.84 190.158 143.194 190.667 142.575C190.937 142.265 191.239 141.984 191.565 141.736C191.745 141.627 191.931 141.529 192.123 141.443C192.328 141.375 192.542 141.339 192.758 141.335C193.181 141.329 193.598 141.436 193.968 141.647C194.322 141.849 194.65 142.096 194.943 142.383C195.53 142.929 196.035 143.582 196.558 144.145C197.018 144.765 197.641 145.239 198.355 145.51C198.536 145.546 198.721 145.546 198.902 145.51C199.316 144.305 199.663 143.077 199.941 141.832C199.736 141.778 199.524 141.724 199.319 141.653C198.56 141.399 197.855 141.003 197.239 140.484C196.634 139.963 196.076 139.388 195.571 138.765C195.085 138.151 194.546 137.581 193.962 137.064C193.374 136.573 192.664 136.258 191.912 136.153C191.544 136.127 191.174 136.18 190.828 136.308C190.481 136.436 190.164 136.636 189.897 136.896C189.31 137.404 188.771 137.968 188.288 138.579C187.771 139.178 187.26 139.778 186.678 140.377C186.382 140.662 186.055 140.911 185.703 141.119C185.514 141.215 185.318 141.296 185.116 141.359C184.903 141.402 184.686 141.418 184.47 141.407C184.048 141.365 183.644 141.215 183.295 140.97C182.96 140.734 182.656 140.457 182.39 140.143C181.856 139.544 181.421 138.867 180.951 138.232C180.554 137.568 179.98 137.034 179.295 136.692C178.584 136.435 177.826 136.836 177.233 137.291C177.016 137.519 176.804 137.717 176.557 137.914Z" fill="black"/>
<path id="Vector_61" d="M176.528 137.741C176.528 137.795 176.528 137.855 176.557 137.915C176.786 137.717 177.016 137.519 177.25 137.315C177.838 136.836 178.601 136.435 179.312 136.716C179.997 137.058 180.572 137.592 180.969 138.256C181.439 138.891 181.873 139.562 182.408 140.167C182.674 140.481 182.978 140.758 183.312 140.994C183.661 141.239 184.065 141.389 184.487 141.431C184.704 141.442 184.921 141.426 185.133 141.383C185.335 141.32 185.532 141.239 185.721 141.143C186.073 140.935 186.4 140.686 186.696 140.401C187.283 139.802 187.788 139.202 188.305 138.603C188.788 137.992 189.327 137.428 189.915 136.92C190.181 136.66 190.498 136.46 190.845 136.332C191.192 136.204 191.561 136.151 191.929 136.177C192.682 136.282 193.392 136.597 193.979 137.088C194.564 137.605 195.102 138.175 195.589 138.789C196.094 139.412 196.652 139.987 197.257 140.508C197.872 141.027 198.578 141.423 199.336 141.677C199.542 141.748 199.753 141.802 199.959 141.856C199.975 141.805 199.989 141.753 200 141.701C199.8 141.641 199.595 141.575 199.413 141.497C197.97 140.905 196.727 139.897 195.835 138.597C195.347 137.948 194.8 137.347 194.203 136.8C193.568 136.273 192.808 135.928 192 135.8C191.584 135.768 191.166 135.823 190.772 135.963C190.378 136.102 190.017 136.321 189.709 136.609C189.098 137.127 188.537 137.705 188.035 138.334C187.518 138.933 187.025 139.532 186.467 140.095C185.909 140.658 185.292 141.125 184.54 141.042C184.173 140.987 183.82 140.859 183.501 140.665C183.182 140.47 182.905 140.214 182.684 139.909C182.167 139.31 181.721 138.675 181.233 138.04C180.787 137.345 180.155 136.794 179.412 136.453C179.009 136.327 178.576 136.353 178.19 136.525C177.816 136.679 177.468 136.896 177.162 137.166C176.922 137.369 176.728 137.543 176.528 137.741Z" fill="white"/>
<path id="Vector_62" d="M177.491 142.449C177.491 142.521 177.532 142.581 177.544 142.647L177.926 142.731C179.419 143.181 180.754 144.058 181.773 145.259C182.306 145.853 182.896 146.391 183.535 146.864C184.217 147.331 185.012 147.598 185.832 147.637C186.248 147.632 186.659 147.539 187.037 147.362C187.415 147.186 187.753 146.931 188.029 146.613C188.59 146.036 189.095 145.406 189.539 144.732C189.969 144.07 190.434 143.432 190.931 142.821C191.424 142.252 192.029 141.677 192.752 141.683C193.5 141.723 194.203 142.063 194.708 142.629C195.295 143.156 195.788 143.767 196.335 144.348C196.845 144.994 197.523 145.479 198.291 145.75C198.46 145.777 198.632 145.777 198.802 145.75C198.802 145.672 198.86 145.582 198.89 145.511C198.709 145.546 198.524 145.546 198.344 145.511C197.629 145.239 197.006 144.765 196.546 144.145C196.023 143.546 195.518 142.947 194.931 142.383C194.638 142.097 194.31 141.849 193.956 141.647C193.586 141.436 193.169 141.329 192.746 141.335C192.53 141.339 192.316 141.375 192.111 141.443C191.92 141.529 191.733 141.627 191.553 141.736C191.227 141.984 190.926 142.265 190.655 142.575C190.146 143.195 189.67 143.84 189.227 144.51C188.803 145.168 188.319 145.783 187.782 146.349C187.54 146.634 187.243 146.864 186.909 147.026C186.576 147.188 186.213 147.277 185.844 147.29C185.085 147.259 184.349 147.014 183.718 146.583C183.087 146.125 182.498 145.612 181.955 145.049C181.397 144.477 180.788 143.96 180.135 143.504C179.476 143.066 178.746 142.752 177.979 142.575C177.808 142.503 177.65 142.473 177.491 142.449Z" fill="white"/>
</g>
<g id="Character">
<path id="Vector_63" d="M74.8567 203.823L30.0037 240.707H32.5294L84.3313 203.823H74.8567Z" fill="#C7C7C7"/>
<path id="Vector_64" d="M79.0682 203.823L56.906 240.707H59.4318L86.5986 203.823H79.0682Z" fill="#C7C7C7"/>
<path id="Vector_65" d="M89.9351 203.823L112.097 240.707H109.571L82.4047 203.823H89.9351Z" fill="#C7C7C7"/>
<path id="Vector_66" d="M93.8059 203.823L138.653 240.707H136.127L84.3314 203.823H93.8059Z" fill="#C7C7C7"/>
<path id="Vector_67" d="M168.657 190.29V179.501L107.069 176.925L74.5396 88.3427H-0.00012207L26.3736 190.29L89.3829 208.333H93.3301L168.657 190.29Z" fill="#455A64"/>
<path id="Vector_68" d="M-0.00012207 88.3427H8.52877L36.0068 181.274L91.75 197.377L168.657 179.501V190.29L93.3301 208.333H89.3829L26.3736 190.29L-0.00012207 88.3427Z" fill="#37474F"/>
<path id="Vector_69" d="M213.956 240.335C211.965 240.383 160.428 224.131 158.848 222.25C158.677 222.04 159.482 214.258 160.81 208.076C160.874 207.782 142.506 183.239 142.506 183.239L175.712 170.06L191.6 203.607L195.712 212.335C195.712 212.335 212.905 229.959 214.426 232.218C215.948 234.476 215.942 240.287 213.956 240.335Z" fill="#EBEBEB"/>
<path id="Vector_70" d="M215.407 240.628C213.334 240.688 159.529 223.933 157.843 221.974C157.209 221.231 158.172 217.84 160.78 208.076L196.059 212.407C196.059 212.407 214.268 229.845 215.854 232.176C217.44 234.506 217.475 240.575 215.407 240.628Z" fill="#D6DAE4"/>
<path id="Vector_71" d="M215.29 238.196C206.338 235.159 169.949 223.783 160.874 221.483C160.803 221.483 160.786 221.483 160.874 221.537C169.685 224.742 206.162 235.818 215.26 238.346C215.437 238.424 215.478 238.256 215.29 238.196Z" fill="#263238"/>
<path id="Vector_72" d="M213.017 229.145C212.022 228.805 210.969 228.68 209.925 228.777C208.88 228.874 207.867 229.191 206.949 229.708C205.29 230.628 204.04 232.164 203.46 233.997C203.46 234.051 203.542 234.081 203.571 234.027C204.419 232.299 205.793 230.898 207.487 230.034C209.182 229.17 211.106 228.889 212.97 229.234C212.98 229.234 212.989 229.231 212.998 229.225C213.006 229.22 213.013 229.212 213.018 229.203C213.022 229.194 213.025 229.184 213.024 229.174C213.024 229.163 213.022 229.153 213.017 229.145Z" fill="#263238"/>
<path id="Vector_73" d="M199.712 216.037C196.117 214.839 191.542 214.839 188.399 217.175C188.276 217.265 188.399 217.439 188.528 217.415C192.19 216.71 195.916 216.406 199.642 216.511C199.702 216.517 199.762 216.499 199.81 216.462C199.857 216.424 199.889 216.369 199.898 216.308C199.907 216.247 199.893 216.185 199.858 216.135C199.824 216.084 199.771 216.049 199.712 216.037Z" fill="#263238"/>
<path id="Vector_74" d="M202.185 218.014C198.59 216.816 194.015 216.816 190.872 219.146C190.749 219.236 190.872 219.416 191.001 219.392C194.663 218.686 198.389 218.383 202.115 218.487C202.175 218.494 202.235 218.476 202.282 218.438C202.33 218.401 202.362 218.346 202.371 218.285C202.38 218.224 202.366 218.162 202.331 218.112C202.297 218.061 202.244 218.026 202.185 218.014Z" fill="#263238"/>
<path id="Vector_75" d="M204.64 219.991C201.046 218.793 196.47 218.793 193.327 221.123C193.204 221.213 193.327 221.387 193.456 221.369C197.118 220.659 200.844 220.352 204.57 220.452C204.623 220.448 204.673 220.426 204.712 220.39C204.751 220.353 204.777 220.304 204.785 220.25C204.793 220.197 204.783 220.142 204.757 220.095C204.731 220.048 204.69 220.011 204.64 219.991Z" fill="#263238"/>
<path id="Vector_76" d="M207.096 221.968C203.501 220.77 198.925 220.77 195.782 223.1C195.659 223.19 195.782 223.364 195.912 223.34C199.574 222.637 203.3 222.334 207.025 222.435C207.081 222.435 207.134 222.414 207.176 222.377C207.218 222.339 207.246 222.288 207.254 222.232C207.263 222.176 207.252 222.119 207.223 222.07C207.193 222.022 207.148 221.986 207.096 221.968Z" fill="#263238"/>
<path id="Vector_77" d="M206.573 207.429C205.21 205.314 202.461 206.105 200.846 207.363C198.128 209.566 196.026 212.458 194.749 215.75C194.742 215.764 194.739 215.78 194.739 215.796C194.74 215.812 194.745 215.828 194.753 215.842C194.761 215.855 194.773 215.867 194.786 215.875C194.8 215.883 194.815 215.887 194.831 215.888C194.825 215.961 194.836 216.035 194.863 216.104C194.89 216.172 194.932 216.233 194.986 216.282C195.04 216.331 195.105 216.366 195.175 216.385C195.245 216.404 195.318 216.406 195.389 216.391C198.502 215.378 201.956 214.689 204.67 212.731C206.256 211.592 207.865 209.43 206.573 207.429ZM199.8 213.863C198.285 214.402 196.746 214.857 195.248 215.45C196.39 213.781 197.613 212.172 198.913 210.628C199.555 209.891 200.244 209.199 200.975 208.555C202.15 207.585 206.591 205.608 205.751 209.723C205.287 212.006 201.61 213.264 199.8 213.863Z" fill="#263238"/>
<path id="Vector_78" d="M185.368 214.33C188.364 215.798 191.882 215.894 195.119 216.367C195.193 216.372 195.266 216.359 195.334 216.328C195.402 216.298 195.461 216.251 195.507 216.193C195.553 216.134 195.585 216.064 195.599 215.99C195.613 215.916 195.61 215.84 195.589 215.768C195.603 215.764 195.617 215.756 195.628 215.745C195.64 215.735 195.649 215.722 195.654 215.708C195.66 215.693 195.662 215.678 195.661 215.662C195.66 215.646 195.655 215.631 195.648 215.618C193.853 212.585 191.309 210.085 188.27 208.369C186.508 207.405 183.635 207.087 182.631 209.406C181.685 211.604 183.624 213.467 185.368 214.33ZM183.818 211.556C182.32 207.633 187.042 208.825 188.335 209.592C189.153 210.104 189.938 210.67 190.684 211.287C192.264 212.551 193.621 214.013 195.084 215.426C193.509 215.091 191.918 214.899 190.332 214.63C188.47 214.306 184.646 213.713 183.818 211.556Z" fill="#263238"/>
<path id="Vector_79" d="M193.28 205.2L156.674 210.718C156.674 210.718 136.697 173.726 128.638 164.525C128.183 163.997 127.688 163.506 127.158 163.057C126.323 162.672 125.428 162.443 124.515 162.38C113.689 161.038 77.2592 164.644 52.0895 162.979L63.8373 146.948L69.0475 139.844C97.4066 136.543 132.209 124.717 147.91 132.751C164.927 141.467 193.28 205.2 193.28 205.2Z" fill="#263238"/>
<path id="Vector_80" d="M188.693 198.886C182.466 199.701 184.246 199.384 178.032 200.264C174.989 200.701 159.705 202.84 156.933 203.721C156.874 203.721 156.886 203.847 156.933 203.847C159.834 203.847 175.071 201.396 178.108 200.905C184.305 199.905 182.513 200.126 188.681 199.06C188.694 199.064 188.707 199.066 188.721 199.064C188.734 199.062 188.747 199.057 188.758 199.049C188.769 199.042 188.778 199.032 188.785 199.02C188.792 199.008 188.796 198.995 188.796 198.981C188.797 198.967 188.795 198.954 188.79 198.941C188.785 198.928 188.777 198.917 188.767 198.908C188.757 198.899 188.745 198.892 188.732 198.888C188.72 198.885 188.706 198.884 188.693 198.886Z" fill="#37474F"/>
<path id="Vector_81" d="M156.862 203.176C152.721 196.113 133.86 161.242 130.107 159.876C126.688 158.63 58.3219 160.08 57.3116 160.086C57.2411 160.086 57.2352 160.199 57.3116 160.199C65.4058 160.092 127.892 159.864 129.678 160.583C133.378 162.08 155.934 202.517 156.492 203.367C156.633 203.595 157.003 203.421 156.862 203.176Z" fill="#37474F"/>
<path id="Vector_82" d="M32.923 148.386C32.923 148.386 30.7614 169.407 41.2228 179.866C53.7401 192.381 136.38 189.218 149.156 185C161.931 180.783 162.354 159.708 148.363 154.826C135.052 150.183 76.0197 147.517 74.5982 146.948C73.1768 146.379 69.1062 139.718 69.1062 139.718L32.923 148.386Z" fill="#263238"/>
<path id="Vector_83" d="M50.4037 147.793C50.4037 147.691 50.2334 147.721 50.2334 147.793C50.2432 150.53 49.3026 153.183 47.5784 155.281C45.6165 157.587 42.7266 158.875 40.1068 160.235C39.8542 160.361 40.0481 160.762 40.3065 160.684C41.9176 160.182 43.4698 159.501 44.9352 158.654C46.2785 157.92 47.4615 156.915 48.4125 155.7C49.2632 154.595 49.8795 153.321 50.2222 151.96C50.565 150.599 50.6268 149.18 50.4037 147.793Z" fill="#37474F"/>
<path id="Vector_84" d="M74.0578 145.636C73.4704 144.875 72.836 144.151 72.2251 143.408C70.786 141.659 69.3352 139.903 67.8256 138.214C67.6788 138.052 67.3968 138.28 67.5319 138.454C68.5481 139.813 69.6289 141.125 70.6862 142.449C71.2325 143.126 71.7729 143.803 72.325 144.48C72.897 145.086 73.4086 145.748 73.8522 146.457C74.2458 147.206 73.7289 147.853 72.9653 147.937C72.2861 147.953 71.6264 147.705 71.1209 147.242C69.9461 146.313 68.9886 144.977 67.9959 143.839C67.4086 143.138 66.7859 142.443 66.1692 141.754C65.5524 141.065 64.8123 140.329 64.1603 139.598C64.1499 139.59 64.1374 139.586 64.1247 139.587C64.112 139.587 64.0997 139.592 64.0898 139.6C64.0798 139.608 64.0727 139.619 64.0696 139.632C64.0664 139.644 64.0673 139.658 64.0722 139.67C64.6596 140.466 65.1706 141.305 65.7462 142.102C66.3219 142.899 66.921 143.695 67.5084 144.498C68.0958 145.301 68.648 145.966 69.2706 146.685C69.7678 147.315 70.3631 147.857 71.0327 148.29C72.1253 148.943 74.0284 149.087 74.6099 147.643C74.7043 147.289 74.7028 146.915 74.6056 146.562C74.5084 146.209 74.3191 145.889 74.0578 145.636Z" fill="#37474F"/>
<path id="Vector_85" d="M147.399 185.108C142.994 185.192 138.589 185.455 134.177 185.551C129.766 185.647 125.431 185.671 121.061 185.629C112.281 185.545 103.506 185.196 94.734 184.581C85.8762 183.982 76.3253 183.059 67.5262 181.819C63.3205 181.22 59.0502 180.729 54.8914 179.812C51.1449 179.093 47.6793 177.292 44.9058 174.624C39.2317 168.933 37.0055 160.672 36.1067 152.759C35.9834 151.699 35.8835 150.632 35.7954 149.566C35.7954 149.552 35.7899 149.538 35.7799 149.528C35.77 149.518 35.7566 149.512 35.7426 149.512C35.7285 149.512 35.7151 149.518 35.7052 149.528C35.6953 149.538 35.6897 149.552 35.6897 149.566C36.2066 157.683 37.4519 166.148 42.4505 172.672C44.5642 175.515 47.3767 177.738 50.6035 179.117C54.539 180.723 58.9151 181.1 63.0738 181.675C71.8846 182.873 81.4943 183.844 90.3756 184.545C99.2569 185.246 108.279 185.695 117.243 185.827C126.206 185.959 135.176 185.827 144.128 185.384C145.22 185.33 146.313 185.264 147.405 185.168C147.41 185.158 147.412 185.148 147.411 185.137C147.41 185.126 147.406 185.116 147.399 185.108Z" fill="#37474F"/>
<path id="Vector_86" d="M159.182 165.429C158.34 161.907 156.234 158.836 153.279 156.821C150.107 154.61 146.313 153.604 142.553 153.047C138.307 152.448 134.001 152.094 129.725 151.669C120.953 150.798 112.177 149.999 103.398 149.273C94.6224 148.536 75.7202 147.044 74.657 147.002C74.5631 147.002 74.5454 147.158 74.657 147.164C83.1272 148.128 90.8337 148.961 99.3274 149.74C107.821 150.519 116.362 151.357 124.908 152.214C129.157 152.645 133.402 153.083 137.643 153.526C141.578 153.939 145.625 154.347 149.314 155.922C152.48 157.252 155.329 159.391 156.95 162.512C158.45 165.608 158.895 169.127 158.213 172.51C157.621 175.654 156.2 178.575 154.101 180.957C152.088 183.31 149.404 184.963 146.424 185.683C145.649 185.857 144.709 185.977 143.998 186.121C143.945 186.121 143.887 186.252 143.945 186.252C150.289 186.414 156.157 181.687 158.448 175.781C159.724 172.488 159.981 168.875 159.182 165.429Z" fill="#37474F"/>
<path id="Vector_87" d="M57.5641 96.6455C61.764 113.419 70.1108 133.469 73.5411 136.674C77.8878 140.724 104.467 146.038 105.847 146.175C108.15 146.403 112.896 122.243 110.746 122.291C105.06 122.423 87.5445 120.608 86.2874 119.35C85.0304 118.092 76.0904 107.147 66.9036 94.7885C60.6303 86.2939 54.9855 86.228 57.5641 96.6455Z" fill="#EB9481"/>
<path id="Vector_88" d="M103.739 145.169C104.121 145.355 109.613 147.997 112.955 148.901C115.463 149.578 122.735 151.328 123.739 148.584C124.427 146.709 120.268 145.169 117.349 144.013C115.815 143.414 113.901 141.826 114.323 140.814C115.069 139.053 119.023 140.706 121.642 142.174C126.694 145.001 133.455 150.153 136.433 147.5C137.561 146.499 136.186 144.756 134.189 143.067C137.408 145.013 140.826 146.595 142.125 145.535C142.865 144.936 142.882 144.121 142.442 143.21C143.429 143.51 144.292 143.426 144.879 142.761C145.884 141.635 145.343 140.023 144.175 138.388C144.368 138.361 144.552 138.287 144.712 138.174C144.873 138.061 145.004 137.91 145.097 137.735C147.2 134.29 136.045 124.813 132.245 123.993C121.084 121.596 109.366 122.357 109.366 122.357C105.084 126.023 103.727 145.163 103.739 145.169Z" fill="#EB9481"/>
<path id="Vector_89" d="M119.827 134.332C122.483 134.691 125.034 135.622 127.311 137.064C130.171 138.861 132.098 141.066 134.512 143.246C134.577 143.3 134.512 143.402 134.424 143.348C133.249 142.312 128.515 138.43 127.287 137.549C125.067 135.932 122.517 134.848 119.827 134.38V134.332Z" fill="#263238"/>
<path id="Vector_90" d="M121.795 129.474C124.732 130.217 127.745 130.965 130.488 132.307C133.496 133.781 135.875 136.237 138.218 138.597C139.62 140.015 140.991 141.467 142.33 142.953C142.389 143.012 142.33 143.114 142.248 143.054C139.867 140.61 137.42 138.242 134.906 135.95C132.585 133.807 129.872 132.154 126.923 131.085C125.231 130.486 123.504 130.001 121.777 129.528L121.795 129.474Z" fill="#263238"/>
<path id="Vector_91" d="M124.814 125.203C127.669 125.73 130.154 126.173 132.703 127.665C136.08 129.636 139.376 133.02 140.533 134.218C141.807 135.542 143.041 136.908 144.251 138.298C144.298 138.352 144.204 138.442 144.151 138.382C141.382 135.344 138.421 132.494 135.287 129.851C133.815 128.568 132.156 127.525 130.371 126.76C128.563 126.088 126.702 125.573 124.808 125.22C124.808 125.22 124.802 125.203 124.814 125.203Z" fill="#263238"/>
<path id="Vector_92" d="M108.931 120.674L100.949 148.829C100.949 148.829 77.3825 142.587 73.0006 137.986C68.6187 133.386 60.1485 109.28 57.564 97.5621C54.9795 85.8446 60.8123 85.9944 66.3748 93.2849C71.9374 100.575 85.6471 118.242 86.4048 118.613C87.1625 118.984 108.931 120.674 108.931 120.674Z" fill="#D6DAE4"/>
<path id="Vector_93" d="M98.411 136.459C99.3802 133.14 100.373 129.827 101.225 126.472C101.706 124.567 102.2 122.662 102.664 120.751C102.664 120.68 102.564 120.638 102.54 120.71C101.436 124.004 100.338 127.299 99.3861 130.648C98.4345 133.997 97.4594 137.291 96.549 140.628C96.0321 142.527 95.5739 144.432 95.1745 146.361C95.1745 146.403 95.2274 146.421 95.2391 146.361C96.4491 143.126 97.4359 139.801 98.411 136.459Z" fill="#263238"/>
<path id="Vector_94" opacity="0.1" d="M97.5477 147.871C90.8632 145.948 76.3429 141.479 72.9948 137.974C68.6129 133.368 60.1486 109.28 57.5465 97.5621C56.3012 91.9369 57.0002 89.0435 58.6801 88.3726C58.863 88.4612 59.0414 88.5592 59.2146 88.6661C67.861 100.791 85.8116 129.737 97.5477 147.871Z" fill="black"/>
<path id="Vector_95" d="M30.5441 152.022C30.6733 152.16 80.4722 141.036 80.9421 140.442C81.5882 139.61 72.6834 101.414 63.3204 90.014C60.9709 87.1685 53.4934 87.3662 50.1453 90.2416C33.5398 104.499 30.0683 151.561 30.5441 152.022Z" fill="#D6DAE4"/>
<path id="Vector_96" d="M46.251 92.9734C36.3182 100.761 10.1442 132.265 15.6128 139.742C21.0814 147.218 58.5862 144.726 69.5292 141.509C72.7892 140.556 64.4366 119.434 60.9592 118.385C58.0693 117.517 41.828 121.98 41.5401 121.051C41.2053 119.967 44.806 112.982 50.6035 100.222C57.2939 85.5092 50.6388 89.5289 46.251 92.9734Z" fill="#EB9481"/>
<path id="Vector_97" d="M76.2254 115.923C83.462 116.115 85.2888 117.295 91.4975 114.126C95.5622 112.059 98.599 113.814 95.8383 117.72C91.3213 124.112 81.9348 125.867 78.5103 125.508L76.2254 115.923Z" fill="#EB9481"/>
<path id="Vector_98" d="M56.3071 119.697C56.3071 119.697 64.9887 116.54 72.7188 115.965C78.064 115.564 89.7942 116.019 98.9046 129.432C101.066 132.613 101.936 138.711 96.555 134.823C92.7311 132.062 91.1275 129.132 88.6194 127.94C88.6194 127.94 88.8191 135.824 85.612 137.908C82.8054 139.733 79.8748 141.35 76.8423 142.749C76.4627 142.242 76.1173 141.71 75.8084 141.155C75.8084 141.155 72.6307 142.815 67.3794 141.395L56.3071 119.697Z" fill="#EB9481"/>
<path id="Vector_99" d="M77.8817 116.414C80.1255 118.134 84.8247 121.866 87.6324 126.281C90.7455 131.187 95.4505 141.491 91.8733 143.797C89.2536 145.493 87.1214 141.719 87.1214 141.719C87.1214 141.719 88.1845 146.397 85.4884 147.398C83.0331 148.308 81.5529 145.289 81.5529 145.289C81.5529 145.289 81.7174 148.236 79.2033 148.65C76.1607 149.147 76.3075 142.881 72.8008 140.67C71.9961 140.179 77.8817 116.414 77.8817 116.414Z" fill="#EB9481"/>
<path id="Vector_100" d="M81.9994 128.797C83.8497 130.774 86.9335 136.351 87.1743 141.635C87.1743 141.755 87.0979 141.826 87.0686 141.713C85.8865 137.211 84.1683 132.873 81.9524 128.797C81.9524 128.797 81.9818 128.755 81.9994 128.797Z" fill="#263238"/>
<path id="Vector_101" d="M77.2357 132.122C78.6631 133.997 81.5824 139.909 81.6529 145.253C81.6529 145.373 81.5648 145.439 81.5413 145.325C80.584 140.778 79.1238 136.357 77.1888 132.146C77.1888 132.146 77.2181 132.098 77.2357 132.122Z" fill="#263238"/>
<path id="Vector_102" d="M88.6252 127.892C90.8161 128.971 92.1495 130.378 93.8529 132.086C94.6955 132.934 95.5838 133.734 96.5138 134.482C97.3655 135.159 98.6225 136.171 99.7562 135.53C100.385 135.171 100.514 134.332 100.49 133.679C100.366 132.678 100.087 131.703 99.6622 130.792C99.6622 130.756 99.7033 130.726 99.7209 130.762C100.138 131.599 100.472 132.475 100.72 133.38C100.874 133.998 100.841 134.65 100.626 135.249C100.079 136.489 98.552 136.405 97.5476 135.848C96.9541 135.506 96.3953 135.104 95.8794 134.65C95.3743 134.23 94.8867 133.781 94.4168 133.326C93.4418 132.385 92.5195 131.385 91.5562 130.438C90.6178 129.535 89.6231 128.694 88.5782 127.922C88.5371 127.934 88.584 127.868 88.6252 127.892Z" fill="#263238"/>
<path id="Vector_103" d="M92.1144 136.974C91.1306 133.889 89.9534 130.871 88.59 127.94C88.59 127.898 88.6194 127.862 88.6429 127.898C90.1584 129.941 92.2965 135.039 92.7546 136.633C93.2128 138.226 93.6474 140.227 93.3831 141.832C92.9837 144.289 91.3096 144.486 90.6988 144.504C89.9771 144.515 89.274 144.271 88.7075 143.815C88.0489 143.235 87.5132 142.523 87.1333 141.725C87.1333 141.683 87.1685 141.647 87.192 141.683C87.8675 142.791 89.1011 143.983 90.4344 144.025C90.7287 144.046 91.0242 144.007 91.3035 143.91C91.5829 143.814 91.8406 143.661 92.0615 143.462C92.5144 142.93 92.7646 142.249 92.7664 141.545C92.8057 139.995 92.5852 138.449 92.1144 136.974Z" fill="#263238"/>
<path id="Vector_104" d="M56.3071 118.613L63.8433 145.361C63.8433 145.361 16.952 148.086 14.3558 139.406C11.7595 130.726 34.4092 102.265 43.8075 94.477C54.6977 85.4193 55.2792 89.2233 51.7372 98.281C48.0249 107.758 41.6341 121.297 41.6341 121.297L56.3071 118.613Z" fill="#D6DAE4"/>
<path id="Vector_105" d="M26.8202 125.586C29.1663 124.465 31.5887 123.518 34.0685 122.752C36.5175 122.005 39.0166 121.44 41.546 121.063C42.991 120.835 44.4359 120.68 45.8868 120.506C45.8961 120.506 45.9051 120.51 45.9117 120.517C45.9183 120.523 45.922 120.532 45.922 120.542C45.922 120.551 45.9183 120.561 45.9117 120.567C45.9051 120.574 45.8961 120.578 45.8868 120.578C43.3424 120.973 40.8222 121.518 38.3388 122.207C35.8836 122.858 33.4263 123.557 30.9671 124.304C29.5868 124.729 28.224 125.215 26.8554 125.688C26.7908 125.712 26.7614 125.616 26.8202 125.586Z" fill="#263238"/>
<path id="Vector_106" d="M56.1955 118.547C55.9605 118.547 42.9205 120.644 42.4858 120.77C42.5681 120.584 45.8751 114.258 46.3626 113.329C46.4155 113.239 46.4566 113.144 46.5036 113.054C46.8031 112.652 47.091 112.257 47.3847 111.856L48.4537 110.268C48.4537 110.232 48.4537 110.268 48.4537 110.268L47.32 111.808C47.1438 112.047 46.9794 112.287 46.809 112.533C47.1438 111.874 47.461 111.215 47.7841 110.55C48.301 109.495 48.7768 108.423 49.2584 107.351C49.2584 107.315 49.2173 107.291 49.2056 107.351C48.2305 109.196 47.1967 111.005 46.2216 112.85C45.2466 114.695 41.5225 121.458 41.5225 121.452C41.5225 121.446 55.937 118.853 56.2072 118.787C56.2384 118.785 56.2677 118.771 56.2886 118.747C56.3095 118.724 56.3204 118.693 56.3188 118.661C56.3173 118.629 56.3034 118.599 56.2803 118.578C56.2572 118.557 56.2267 118.545 56.1955 118.547Z" fill="#263238"/>
<path id="Vector_107" d="M54.4098 134.859C53.5874 131.864 52.7827 128.869 51.8546 125.939C51.326 124.262 50.8032 122.579 50.2569 120.907C50.2569 120.847 50.1277 120.871 50.1453 120.907C50.8561 123.963 51.5727 127 52.4185 129.995C53.2644 132.99 54.075 135.986 54.956 138.927C55.4553 140.616 56.0016 142.282 56.6066 143.935C56.6066 143.943 56.6097 143.951 56.6152 143.956C56.6207 143.962 56.6282 143.965 56.636 143.965C56.6438 143.965 56.6512 143.962 56.6567 143.956C56.6622 143.951 56.6653 143.943 56.6653 143.935C56.0545 140.862 55.2145 137.867 54.4098 134.859Z" fill="#263238"/>
<path id="Vector_108" d="M64.3601 145.87C64.0311 145.031 63.6435 143.833 63.2793 143.012C63.1794 142.791 63.0267 142.809 63.0972 143.012C63.3263 143.767 63.4849 144.594 63.6846 145.361C63.0267 145.361 62.3688 145.361 61.7168 145.421L59.4377 145.516C57.9575 145.576 56.5008 145.624 54.9853 145.648C51.974 145.708 48.9646 145.708 45.9572 145.648C39.9288 145.537 33.91 145.111 27.9243 144.372C26.2503 144.151 24.5762 143.899 22.9139 143.593C21.272 143.323 19.6448 142.967 18.0386 142.527C17.9916 142.527 17.974 142.587 18.0386 142.605C19.3988 143.147 20.7993 143.578 22.2267 143.893C23.7186 144.224 25.2223 144.51 26.7378 144.75C29.7452 145.223 32.782 145.528 35.8188 145.756C41.8454 146.199 47.8818 146.385 53.928 146.313C55.6197 146.313 57.3114 146.273 59.0031 146.193C59.8548 146.163 60.7124 146.133 61.5641 146.085C62.4158 146.038 64.4188 146.014 64.3601 145.87Z" fill="#263238"/>
<path id="Vector_109" d="M127.61 149.392H67.6144V151.861H127.61V149.392Z" fill="#455A64"/>
<path id="Vector_110" d="M100.814 149.392H67.6144V151.861H100.814V149.392Z" fill="#A6A6A6"/>
<path id="Vector_111" d="M99.8032 151.86H152.386L159.817 115.438H107.234L99.8032 151.86Z" fill="#A6A6A6"/>
<path id="Vector_112" d="M102.188 151.86H154.771L162.202 115.438H109.618L102.188 151.86Z" fill="#C7C7C7"/>
<path id="Vector_113" d="M128.691 134.458C128.629 134.911 128.664 135.373 128.794 135.811C128.924 136.249 129.146 136.653 129.444 136.995C129.743 137.337 130.11 137.609 130.522 137.791C130.933 137.974 131.379 138.063 131.828 138.052C132.79 138.031 133.712 137.656 134.424 136.995C135.135 136.334 135.588 135.433 135.699 134.458C135.761 134.005 135.726 133.543 135.596 133.105C135.466 132.667 135.244 132.263 134.945 131.921C134.647 131.579 134.279 131.307 133.868 131.125C133.456 130.942 133.011 130.853 132.562 130.864C131.6 130.886 130.679 131.262 129.967 131.922C129.256 132.583 128.803 133.483 128.691 134.458Z" fill="#EBEBEB"/>
<path id="Vector_114" d="M59.5259 102.235C59.5259 102.235 50.7562 93.3388 45.0233 93.4946L40.1303 97.8557C40.1303 97.8557 38.5268 98.3709 38.0392 97.3405C36.8645 94.7766 36.6471 88.6063 41.8808 84.6465C46.6797 81.0163 54.4803 81.3517 60.9709 83.1549C67.209 84.8921 72.6012 89.1454 70.6511 93.3089C68.7009 97.4723 59.5259 102.235 59.5259 102.235Z" fill="#D6DAE4"/>
<path id="Vector_115" opacity="0.1" d="M60.1662 100.282C60.1662 100.282 67.3794 95.124 68.143 92.0329C68.9066 88.9418 62.8565 85.9345 58.9386 84.7424C52.865 82.8973 48.7533 83.2687 45.3112 86.5336C41.8691 89.7984 60.1662 100.282 60.1662 100.282Z" fill="black"/>
<path id="Vector_116" d="M60.1662 100.282C60.1662 100.282 53.1762 87.9893 44.336 86.7073L45.0233 93.4946C45.0233 93.4946 50.3098 93.5485 59.5259 102.235L60.1662 100.282Z" fill="#D6DAE4"/>
<path id="Vector_117" d="M42.6385 93.5963C44.2507 93.4756 45.8694 93.7106 47.3846 94.2852C48.894 94.8182 50.3386 95.5257 51.6902 96.3939C53.0643 97.2436 54.381 98.1862 55.6315 99.2154L57.4701 100.815L59.2322 102.504L59.4319 102.69L59.6551 102.576C61.3149 101.723 62.9162 100.756 64.4482 99.6827C65.2199 99.1559 65.9594 98.5817 66.6627 97.9634C67.3717 97.3522 68.0227 96.6743 68.607 95.9386C67.257 97.2094 65.7737 98.3244 64.1839 99.2634C63.3968 99.7486 62.5921 100.198 61.7815 100.635C60.9709 101.073 60.1603 101.504 59.3321 101.893L59.755 101.965L57.9928 100.228C57.4055 99.6707 56.7535 99.1256 56.1249 98.5864C55.4964 98.0473 54.8209 97.568 54.1454 97.0948C53.4699 96.6215 52.7768 96.1602 52.0426 95.7709C50.6117 94.9333 49.0819 94.2851 47.4903 93.8419C47.0909 93.7281 46.6856 93.6502 46.2803 93.5663C45.875 93.4825 45.4697 93.4465 45.0585 93.4226C44.2481 93.3385 43.4294 93.3972 42.6385 93.5963Z" fill="#263238"/>
<path id="Vector_118" d="M40.1304 97.8556C41.0314 97.2441 41.8928 96.5737 42.709 95.8488C43.5321 95.1272 44.3053 94.3486 45.0233 93.5184C44.1203 94.1337 43.2588 94.8102 42.4447 95.5432C41.621 96.2576 40.8476 97.0303 40.1304 97.8556Z" fill="#263238"/>
<path id="Vector_119" d="M56.583 98.0713C56.0624 100.895 55.7794 103.759 55.7371 106.632C55.696 108.633 56.4479 115.803 58.6271 115.546C60.8063 115.288 57.2585 110.657 56.6358 106.871C56.0132 103.085 57.0059 100.318 57.141 98.0533L56.583 98.0713Z" fill="#D6DAE4"/>
<g id="Group" opacity="0.1">
<path id="Vector_120" d="M56.583 98.0713C56.0624 100.895 55.7794 103.759 55.7371 106.632C55.696 108.633 56.4479 115.803 58.6271 115.546C60.8063 115.288 57.2585 110.657 56.6358 106.871C56.0132 103.085 57.0059 100.318 57.141 98.0533L56.583 98.0713Z" fill="black"/>
</g>
<path id="Vector_121" d="M64.319 98.4667C65.0197 101.205 65.5611 103.984 65.9402 106.788C66.1751 108.585 66.2221 115.132 64.2309 115.126C62.2396 115.12 64.971 110.58 65.1531 107.105C65.3352 103.631 64.1604 100.515 63.808 98.4966L64.319 98.4667Z" fill="#D6DAE4"/>
<g id="Group_2" opacity="0.1">
<path id="Vector_122" d="M64.319 98.4667C65.0197 101.205 65.5611 103.984 65.9402 106.788C66.1751 108.585 66.2221 115.132 64.2309 115.126C62.2396 115.12 64.971 110.58 65.1531 107.105C65.3352 103.631 64.1604 100.515 63.808 98.4966L64.319 98.4667Z" fill="black"/>
</g>
<path id="Vector_123" d="M60.9005 98.9041C58.6273 98.7543 54.3863 93.908 52.9413 90.062C52.8474 89.7985 53.5581 87.2645 54.2806 84.1434C54.7153 82.2504 55.1499 80.1297 55.4143 78.1528L67.1033 82.8195C66.0851 85.1816 65.3552 87.6623 64.93 90.2058C64.8972 90.476 64.8874 90.7486 64.9006 91.0205C64.9035 91.0664 64.9035 91.1124 64.9006 91.1583C64.9417 92.7398 64.4659 99.1437 60.9005 98.9041Z" fill="#EB9481"/>
<path id="Vector_124" d="M64.9005 91.0564C64.9005 91.0924 64.9005 91.1343 64.9005 91.1882C64.4794 91.1905 64.0589 91.1564 63.6435 91.0864C56.7945 89.9721 56.2542 81.196 56.2542 78.5062L67.1032 82.8374C66.0845 85.2003 65.3508 87.6805 64.9181 90.2237C64.8884 90.5002 64.8825 90.7789 64.9005 91.0564Z" fill="#263238"/>
<path id="Vector_125" d="M57.7931 62.7869C55.3437 66.6628 54.1337 79.5605 56.3364 83.1548C59.5259 88.3546 66.4453 90.7628 71.2091 86.4556C75.8259 82.2622 77.083 65.4527 74.4926 62.0142C70.6393 56.9402 61.4114 57.06 57.7931 62.7869Z" fill="#EB9481"/>
<path id="Vector_126" d="M65.6818 72.192C66.0561 72.1315 66.4267 72.0495 66.792 71.9464C67.194 71.9212 67.5755 71.7563 67.8728 71.4792C67.9504 71.3749 67.9925 71.2476 67.9925 71.1167C67.9925 70.9858 67.9504 70.8585 67.8728 70.7543C67.6851 70.5727 67.4534 70.4454 67.2015 70.3854C66.9497 70.3254 66.6866 70.3348 66.4395 70.4128C65.9188 70.4948 65.446 70.77 65.112 71.1856C65.0407 71.285 64.9992 71.4034 64.9927 71.5264C64.9861 71.6493 65.0148 71.7716 65.0752 71.8783C65.1356 71.9849 65.2251 72.0714 65.3328 72.1271C65.4405 72.1828 65.5617 72.2054 65.6818 72.192Z" fill="#263238"/>
<path id="Vector_127" d="M74.2518 73.3842C73.894 73.2621 73.543 73.1201 73.2004 72.9588C72.8094 72.8588 72.4609 72.6317 72.2077 72.3118C72.1478 72.1949 72.1274 72.061 72.1497 71.931C72.172 71.8011 72.2357 71.6822 72.3311 71.593C72.5449 71.4464 72.7932 71.3608 73.0504 71.345C73.3075 71.3292 73.5641 71.3838 73.7937 71.5031C74.292 71.6724 74.7108 72.0247 74.9684 72.4916C75.0206 72.6007 75.0409 72.7228 75.0271 72.8434C75.0133 72.964 74.9658 73.078 74.8904 73.1719C74.815 73.2659 74.7148 73.3358 74.6016 73.3734C74.4884 73.411 74.367 73.4147 74.2518 73.3842Z" fill="#263238"/>
<path id="Vector_128" d="M65.0298 82.3281C65.206 82.5618 65.3763 82.8673 65.6759 82.9272C65.9927 82.9585 66.3124 82.9239 66.6157 82.8253C66.622 82.8206 66.6298 82.8185 66.6375 82.8197C66.6452 82.8208 66.6522 82.825 66.6568 82.8313C66.6615 82.8377 66.6635 82.8457 66.6624 82.8535C66.6613 82.8614 66.6572 82.8685 66.651 82.8733C66.5067 83.0262 66.3251 83.1373 66.1249 83.1952C65.9247 83.2531 65.713 83.2557 65.5114 83.2027C65.3405 83.1384 65.1928 83.0226 65.0879 82.8707C64.983 82.7187 64.9259 82.5379 64.924 82.3521C64.9358 82.3042 65.0004 82.2982 65.0298 82.3281Z" fill="#263238"/>
<path id="Vector_129" d="M66.2456 79.854C66.4188 80.2237 66.6646 80.5532 66.9677 80.8221C67.2708 81.091 67.6248 81.2937 68.0077 81.4175C68.3419 81.5286 68.6902 81.5891 69.0415 81.5973C69.1078 81.6061 69.175 81.6061 69.2412 81.5973H69.4351C69.4817 81.5942 69.5259 81.5755 69.561 81.544C69.5961 81.5126 69.6199 81.4702 69.6289 81.4235C69.6319 81.3937 69.6319 81.3636 69.6289 81.3337V81.2618C69.7288 80.5968 69.7934 79.5724 69.7934 79.5724C70.0166 79.7282 71.162 80.4411 71.1855 80.0936C71.3793 77.1882 71.5908 73.9593 71.1855 71.0299C71.1807 71.0122 71.1704 70.9966 71.1561 70.9854C71.1417 70.9743 71.1242 70.9683 71.1062 70.9683C71.0882 70.9683 71.0707 70.9743 71.0564 70.9854C71.042 70.9966 71.0317 71.0122 71.0269 71.0299C70.7391 73.8155 70.9271 76.6311 70.6745 79.4167C70.2685 79.1536 69.8273 78.9519 69.3646 78.8176C69.2706 78.8176 69.2765 80.7945 69.206 81.0881C68.09 81.0881 67.3029 80.6448 66.3337 79.7522C66.2749 79.7282 66.1986 79.7821 66.2456 79.854Z" fill="#263238"/>
<path id="Vector_130" d="M68.7245 81.2139C68.3049 81.6414 67.7853 81.9527 67.2149 82.1185C66.9013 82.2 66.5705 82.1791 66.2692 82.0586C65.6172 81.789 65.6818 81.148 65.8698 80.6268C65.9749 80.3465 66.1109 80.0792 66.2751 79.8301C66.9257 80.5463 67.7841 81.0313 68.7245 81.2139Z" fill="#263238"/>
<path id="Vector_131" d="M67.1914 82.1186C66.8778 82.2002 66.547 82.1792 66.2457 82.0587C65.5937 81.7891 65.6583 81.1481 65.8463 80.627C66.2023 80.6852 66.5286 80.864 66.7727 81.1347C67.0167 81.4053 67.1643 81.752 67.1914 82.1186Z" fill="#FF9ABB"/>
<path id="Vector_132" d="M67.35 74.5524C67.35 74.5165 67.2737 74.5524 67.2737 74.6183C67.1679 75.475 66.9036 76.4155 66.0989 76.6072V76.6551C67.0446 76.6791 67.3794 75.3851 67.35 74.5524Z" fill="#263238"/>
<path id="Vector_133" d="M66.739 73.5342C65.4057 73.2107 64.8711 75.9305 66.1047 76.254C67.3382 76.5774 67.8551 73.8098 66.739 73.5342Z" fill="#263238"/>
<path id="Vector_134" d="M72.249 75.2114C72.249 75.1754 72.3078 75.2653 72.3019 75.2952C72.1019 76.1399 72.0137 77.1403 72.7077 77.5836C72.7077 77.5836 72.7077 77.6375 72.7077 77.6255C71.8079 77.2781 71.9431 75.9722 72.249 75.2114Z" fill="#263238"/>
<path id="Vector_135" d="M73.1826 74.4805C74.5453 74.6602 74.0931 77.4159 72.836 77.2541C71.579 77.0924 72.0431 74.3307 73.1826 74.4805Z" fill="#263238"/>
<path id="Vector_136" d="M58.9975 71.0899C60.7596 68.8793 60.8184 64.1288 62.4572 63.4519C65.9815 61.9902 69.8113 68.7176 73.5588 70.1314C77.1948 71.5032 79.2624 69.5623 79.6794 66.3034C80.0965 63.0445 78.3049 60.0912 74.434 57.9526C70.4339 55.7481 65.958 56.0596 63.3735 56.6526C63.3735 56.6526 64.8302 55.4845 64.654 54.8914C64.4778 54.2983 62.1752 55.0831 61.4116 55.4905C60.8213 55.8811 60.3041 56.3761 59.8844 56.9522C59.3886 56.6137 58.8488 56.3476 58.2808 56.1614C57.4467 55.9227 56.5569 55.9906 55.7668 56.3531C55.6258 56.5508 56.8887 57.2098 57.7992 57.6051C57.7992 57.6051 55.2323 59.3124 54.5568 61.3312C53.8813 63.3501 53.5524 74.0372 54.2513 74.4086C55.1501 74.8819 58.2926 71.9884 58.9975 71.0899Z" fill="#455A64"/>
<path id="Vector_137" d="M58.2513 57.5093C58.2865 57.5093 58.3159 57.5692 58.2513 57.5812C57.0834 57.9898 56.0502 58.7221 55.2674 59.6958C54.4148 60.9111 53.8939 62.3355 53.7578 63.8233C53.3936 66.6748 53.8106 69.5323 54.0397 72.3778C54.0397 72.4617 53.9105 72.4737 53.8987 72.3778C53.4641 69.3826 53.0823 66.1656 53.5874 63.1584C54.0397 60.5944 55.5669 58.0305 58.2513 57.5093Z" fill="#455A64"/>
<path id="Vector_138" d="M62.6625 62.4215C63.8155 62.6959 64.9088 63.1854 65.8873 63.8652C66.7684 64.5892 67.5577 65.4223 68.2368 66.3453C69.8991 68.2563 71.8551 69.9876 74.2987 70.7244C74.2987 70.7244 74.2987 70.7783 74.2987 70.7723C72.0576 70.1537 70.0477 68.8692 68.5246 67.0822C67.7925 66.1481 67.008 65.258 66.1751 64.4164C65.1032 63.6271 63.913 63.0201 62.6507 62.6192C62.6323 62.6097 62.617 62.5949 62.6067 62.5766C62.5964 62.5584 62.5916 62.5374 62.5928 62.5164C62.5941 62.4954 62.6014 62.4752 62.6137 62.4583C62.6261 62.4415 62.6431 62.4287 62.6625 62.4215Z" fill="#455A64"/>
<path id="Vector_139" d="M65.999 56.4249C67.7419 56.2221 69.5043 56.2745 71.2326 56.5807C72.9002 56.8189 74.5143 57.352 76.0022 58.1562C78.5456 59.6059 80.4017 62.2777 80.0317 65.3449C79.8593 66.9243 79.1184 68.3823 77.9523 69.4364C77.9357 69.4469 77.9159 69.451 77.8965 69.4479C77.8771 69.4448 77.8595 69.4348 77.8468 69.4196C77.834 69.4044 77.827 69.3851 77.827 69.3651C77.8269 69.3451 77.8339 69.3258 77.8466 69.3106C78.8446 68.3191 79.5017 67.0251 79.7197 65.6217C79.9378 64.2182 79.7052 62.7805 79.0566 61.5229C77.5412 58.7433 74.4867 57.4433 71.5615 56.8682C69.7257 56.541 67.8614 56.4105 65.999 56.4788C65.999 56.4788 65.9872 56.4309 65.999 56.4249Z" fill="#455A64"/>
<path id="Vector_140" d="M64.3484 78.8177C63.6373 78.6168 62.9958 78.2163 62.4969 77.6619C61.998 77.1074 61.6617 76.4213 61.5263 75.6815C61.3909 74.9418 61.4618 74.1781 61.7311 73.4775C62.0003 72.7768 62.4569 72.1673 63.0491 71.7183C63.6412 71.2692 64.345 70.9988 65.0805 70.9376C65.8159 70.8765 66.5534 71.0271 67.209 71.3723C67.8647 71.7176 68.4121 72.2436 68.789 72.8905C69.166 73.5375 69.3573 74.2793 69.3412 75.0317C69.3165 76.0963 68.8793 77.1075 68.1252 77.8441C67.3711 78.5806 66.3615 78.9824 65.3176 78.9615C64.99 78.954 64.6645 78.9057 64.3484 78.8177ZM66.3162 71.5931C66.0427 71.514 65.7604 71.4717 65.4762 71.4673C64.6096 71.4488 63.7688 71.7679 63.1248 72.3596C62.4808 72.9512 62.0822 73.7709 62.01 74.6518C61.9378 75.5327 62.1976 76.4085 62.7364 77.1009C63.2752 77.7933 64.0525 78.2503 64.91 78.3787C65.7676 78.5072 66.6409 78.2974 67.3521 77.7922C68.0634 77.287 68.559 76.5243 68.7383 75.6595C68.9175 74.7946 68.7667 73.8926 68.3167 73.1372C67.8667 72.3817 67.1513 71.8295 66.3162 71.5931Z" fill="#37474F"/>
<path id="Vector_141" d="M73.2884 80.1837C71.8376 79.7763 70.9389 77.8833 71.2443 75.8106C71.3803 74.8182 71.8179 73.8943 72.4955 73.1687C72.7664 72.8383 73.1165 72.5849 73.5119 72.4332C73.9072 72.2815 74.3342 72.2367 74.7516 72.303C75.1689 72.3693 75.5623 72.5445 75.8936 72.8117C76.2249 73.0789 76.4829 73.4289 76.6424 73.8277C77.0701 74.7298 77.2098 75.7459 77.0419 76.7331C76.707 78.9197 75.1387 80.4952 73.5175 80.2436L73.2884 80.1837ZM74.8626 72.8752L74.6688 72.8333C74.3343 72.7973 73.9962 72.8432 73.6826 72.9671C73.3689 73.0911 73.0888 73.2896 72.8655 73.5461C72.2685 74.1931 71.8845 75.0141 71.7671 75.8944C71.4793 77.7935 72.3075 79.4888 73.6232 79.7104C74.939 79.9321 76.2313 78.5483 76.525 76.6493C76.6753 75.7742 76.552 74.873 76.1725 74.0733C76.0491 73.7909 75.8686 73.5382 75.6429 73.3318C75.4172 73.1253 75.1513 72.9697 74.8626 72.8752Z" fill="#37474F"/>
<path id="Vector_142" d="M69.1414 75.4808L68.8654 75.0196C69.535 74.6062 71.0035 74.1449 71.8023 75.3311L71.3676 75.6306C70.651 74.5643 69.2002 75.4329 69.1414 75.4808Z" fill="#37474F"/>
<path id="Vector_143" d="M51.6431 73.7436L51.2144 73.4261C51.3612 73.2224 52.6652 71.4492 53.8576 71.4433C55.05 71.4373 61.8461 73.2105 62.1398 73.2883L62.0106 73.8035C60.0369 73.2943 54.7211 71.9704 53.8635 72.0064C53.0059 72.0423 51.9956 73.2524 51.6431 73.7436Z" fill="#37474F"/>
<path id="Vector_144" d="M57.564 73.522C57.564 73.522 55.8547 68.8074 53.8223 69.3286C51.79 69.8497 52.3656 76.1758 54.2452 77.5176C54.4746 77.7072 54.7393 77.8476 55.0232 77.9303C55.3071 78.0129 55.6045 78.0362 55.8975 77.9987C56.1904 77.9613 56.4729 77.8638 56.728 77.7121C56.9831 77.5605 57.2055 77.3578 57.3819 77.1163L57.564 73.522Z" fill="#EB9481"/>
<path id="Vector_145" d="M54.0397 71.1378C54.0045 71.1378 53.9868 71.1378 54.0397 71.1917C55.3496 72.1802 55.7608 73.7677 55.9311 75.3432C55.8848 75.1716 55.8025 75.0124 55.69 74.8765C55.5774 74.7406 55.4372 74.6313 55.2791 74.5561C55.121 74.4809 54.9488 74.4416 54.7743 74.441C54.5999 74.4403 54.4274 74.4784 54.2688 74.5524C54.2218 74.5524 54.2688 74.6363 54.2688 74.6423C54.5473 74.6242 54.8244 74.6953 55.0613 74.8457C55.2983 74.9961 55.4833 75.2182 55.5904 75.481C55.7656 75.9209 55.8936 76.3788 55.9722 76.8468C56.0075 76.9966 56.26 76.9906 56.2483 76.8468V76.8109C56.7711 74.8819 56.0075 71.8866 54.0397 71.1378Z" fill="#263238"/>
</g>
</g>
</svg>
